<?xml version="1.0" encoding="utf-8"?>
<!-- Generator: Adobe Illustrator 24.1.3, SVG Export Plug-In . SVG Version: 6.00 Build 0)  -->
<svg version="1.1" id="application-auto-scaling-rounded"
	 xmlns="http://www.w3.org/2000/svg" xmlns:xlink="http://www.w3.org/1999/xlink" x="0px" y="0px" viewBox="0 0 300 300"
	 style="enable-background:new 0 0 300 300;" xml:space="preserve">
<style type="text/css">
	.st0{fill:url(#SVGID_1_);}
	.st1{fill:url(#SVGID_2_);}
	.st2{fill:url(#SVGID_3_);}
	.st3{fill:url(#SVGID_4_);}
	.st4{fill:url(#SVGID_5_);}
</style>
<g>
	<linearGradient id="SVGID_1_" gradientUnits="userSpaceOnUse" x1="148.1746" y1="-29.3024" x2="156.9219" y2="646.4263">
		<stop  offset="0" style="stop-color:#FFC14D"/>
		<stop  offset="1" style="stop-color:#FF576A"/>
	</linearGradient>
	<path class="st0" d="M175.39,97.37h-50c-9.08,0-16.46,7.8-16.46,17.39v53.76c0,9.59,7.38,17.39,16.46,17.39h9.72
		c-0.04,0.49-0.06,0.98-0.06,1.47c0,8.92,6.88,16.18,15.34,16.18c8.46,0,15.34-7.26,15.34-16.18c0-0.49-0.02-0.98-0.06-1.47h9.72
		c9.08,0,16.46-7.8,16.46-17.39V151.8c0-1.54-0.85-2.95-2.21-3.66c-1.36-0.72-3-0.63-4.27,0.24c-1.11,0.75-2.36,1.15-3.64,1.15
		c-3.89,0-7.05-3.54-7.05-7.89s3.16-7.89,7.05-7.89c1.27,0,2.53,0.4,3.64,1.15c1.27,0.86,2.91,0.96,4.27,0.24
		c1.36-0.72,2.21-2.13,2.21-3.66v-16.71C191.85,105.17,184.46,97.37,175.39,97.37z M183.55,125.57c-0.6-0.08-1.21-0.12-1.82-0.12
		c-8.46,0-15.34,7.26-15.34,16.18c0,8.92,6.88,16.18,15.34,16.18c0.61,0,1.22-0.04,1.82-0.12v10.81c0,5.01-3.66,9.09-8.17,9.09
		h-15.1c-1.43,0-2.76,0.74-3.52,1.96c-0.76,1.22-0.83,2.74-0.2,4.02c0.58,1.18,0.87,2.45,0.87,3.79c0,4.35-3.16,7.89-7.05,7.89
		s-7.05-3.54-7.05-7.89c0-1.34,0.29-2.61,0.87-3.79c0.63-1.28,0.56-2.81-0.2-4.02c-0.76-1.22-2.09-1.96-3.52-1.96h-15.1
		c-4.5,0-8.17-4.08-8.17-9.09v-53.76c0-5.01,3.66-9.09,8.17-9.09h50c4.5,0,8.17,4.08,8.17,9.09V125.57z"/>
	<linearGradient id="SVGID_2_" gradientUnits="userSpaceOnUse" x1="147.8281" y1="-29.2979" x2="156.5754" y2="646.4307">
		<stop  offset="0" style="stop-color:#FFC14D"/>
		<stop  offset="1" style="stop-color:#FF576A"/>
	</linearGradient>
	<path class="st1" d="M181.54,260.79l-24.68,20.16v-54.21c0-2.54-2.06-4.61-4.61-4.61c-2.54,0-4.61,2.06-4.61,4.61v54.23
		l-25.94-21.19c-1.97-1.61-4.87-1.32-6.48,0.65c-1.61,1.97-1.32,4.87,0.65,6.48l32.21,26.31c0.22,0.18,0.44,0.33,0.68,0.46
		c0.47,0.55,1.05,0.95,1.68,1.22c0.01,0.01,0.03,0.01,0.04,0.02c0.27,0.11,0.54,0.2,0.82,0.26c0.02,0,0.03,0,0.05,0.01
		c0.29,0.06,0.59,0.09,0.89,0.09c0,0,0,0,0,0c0,0,0,0,0,0c0.01,0,0.03,0,0.04,0c0.27,0,0.53-0.03,0.79-0.08
		c0.12-0.02,0.24-0.06,0.36-0.09c0.15-0.04,0.29-0.08,0.43-0.13c0.14-0.05,0.27-0.12,0.41-0.18c0.11-0.05,0.21-0.11,0.32-0.17
		c0.15-0.09,0.29-0.18,0.42-0.29c0.04-0.03,0.08-0.05,0.12-0.08l32.21-26.31c1.97-1.61,2.26-4.51,0.65-6.48
		C186.41,259.48,183.51,259.19,181.54,260.79z"/>
	<linearGradient id="SVGID_3_" gradientUnits="userSpaceOnUse" x1="150.7634" y1="-29.3359" x2="159.5107" y2="646.3928">
		<stop  offset="0" style="stop-color:#FFC14D"/>
		<stop  offset="1" style="stop-color:#FF576A"/>
	</linearGradient>
	<path class="st2" d="M118.79,42.17c1.02,0,2.06-0.34,2.91-1.04l25.94-21.19v54.23c0,2.54,2.06,4.61,4.61,4.61
		c2.54,0,4.61-2.06,4.61-4.61V19.96l24.68,20.16c0.86,0.7,1.89,1.04,2.91,1.04c1.34,0,2.66-0.58,3.57-1.69
		c1.61-1.97,1.32-4.87-0.65-6.48L155.16,6.67c-0.03-0.03-0.07-0.04-0.11-0.07c-0.17-0.13-0.34-0.24-0.53-0.35
		c-0.09-0.05-0.18-0.1-0.27-0.15c-0.17-0.08-0.34-0.15-0.51-0.21c-0.12-0.04-0.24-0.08-0.36-0.11c-0.15-0.04-0.31-0.07-0.47-0.09
		c-0.15-0.02-0.3-0.04-0.45-0.05c-0.07,0-0.13-0.02-0.2-0.02c-0.08,0-0.15,0.02-0.22,0.02c-0.17,0.01-0.33,0.02-0.49,0.05
		c-0.13,0.02-0.26,0.05-0.39,0.08c-0.17,0.04-0.33,0.09-0.49,0.15c-0.11,0.04-0.23,0.09-0.34,0.14c-0.17,0.08-0.33,0.17-0.48,0.26
		c-0.09,0.06-0.18,0.11-0.27,0.18c-0.16,0.11-0.3,0.23-0.45,0.37c-0.08,0.07-0.15,0.15-0.22,0.22c-0.04,0.05-0.09,0.09-0.14,0.14
		c-0.23,0.13-0.46,0.27-0.67,0.44l-32.21,26.31c-1.97,1.61-2.26,4.51-0.65,6.48C116.13,41.59,117.46,42.17,118.79,42.17z"/>
	<linearGradient id="SVGID_4_" gradientUnits="userSpaceOnUse" x1="251.2058" y1="-30.6362" x2="259.9531" y2="645.0925">
		<stop  offset="0" style="stop-color:#FFC14D"/>
		<stop  offset="1" style="stop-color:#FF576A"/>
	</linearGradient>
	<path class="st3" d="M285.39,136.35h-54.23l21.19-25.94c1.61-1.97,1.32-4.87-0.65-6.48c-1.97-1.61-4.87-1.32-6.48,0.65
		l-26.31,32.21c-0.17,0.21-0.31,0.44-0.44,0.67c-0.05,0.04-0.09,0.09-0.14,0.14c-0.08,0.07-0.15,0.15-0.22,0.22
		c-0.13,0.14-0.26,0.29-0.37,0.45c-0.06,0.09-0.12,0.17-0.18,0.26c-0.1,0.16-0.19,0.32-0.27,0.49c-0.05,0.11-0.09,0.22-0.13,0.33
		c-0.06,0.16-0.11,0.33-0.15,0.5c-0.03,0.13-0.06,0.25-0.08,0.38c-0.03,0.17-0.04,0.33-0.05,0.5c0,0.07-0.02,0.14-0.02,0.22
		c0,0.07,0.02,0.13,0.02,0.2c0.01,0.16,0.02,0.31,0.05,0.46c0.02,0.16,0.05,0.31,0.09,0.46c0.03,0.12,0.07,0.24,0.11,0.36
		c0.06,0.17,0.13,0.34,0.21,0.51c0.05,0.09,0.1,0.18,0.15,0.27c0.1,0.18,0.22,0.36,0.35,0.52c0.03,0.03,0.04,0.07,0.07,0.11
		l26.31,32.21c0.91,1.11,2.23,1.69,3.57,1.69c1.02,0,2.06-0.34,2.91-1.04c1.97-1.61,2.26-4.51,0.65-6.48l-20.16-24.68h54.21
		c2.54,0,4.61-2.06,4.61-4.61C290,138.41,287.94,136.35,285.39,136.35z"/>
	<linearGradient id="SVGID_5_" gradientUnits="userSpaceOnUse" x1="43.9475" y1="-27.9532" x2="52.6948" y2="647.7755">
		<stop  offset="0" style="stop-color:#FFC14D"/>
		<stop  offset="1" style="stop-color:#FF576A"/>
	</linearGradient>
	<path class="st4" d="M82.69,140.73c-0.01-0.17-0.02-0.34-0.05-0.5c-0.02-0.13-0.04-0.26-0.08-0.38c-0.04-0.17-0.09-0.33-0.15-0.5
		c-0.04-0.11-0.08-0.22-0.13-0.33c-0.08-0.17-0.17-0.33-0.27-0.49c-0.06-0.09-0.11-0.18-0.18-0.26c-0.11-0.16-0.24-0.3-0.37-0.45
		c-0.07-0.08-0.15-0.15-0.22-0.22c-0.05-0.04-0.09-0.09-0.14-0.14c-0.13-0.23-0.27-0.46-0.44-0.67l-26.31-32.21
		c-1.61-1.97-4.51-2.26-6.48-0.65c-1.97,1.61-2.26,4.51-0.65,6.48l21.19,25.94H14.17c-2.54,0-4.61,2.06-4.61,4.61
		c0,2.54,2.06,4.61,4.61,4.61h54.21l-20.16,24.68c-1.61,1.97-1.32,4.87,0.65,6.48c0.86,0.7,1.89,1.04,2.91,1.04
		c1.34,0,2.66-0.58,3.57-1.69l26.31-32.21c0.03-0.03,0.04-0.07,0.07-0.11c0.13-0.17,0.24-0.34,0.35-0.52
		c0.05-0.09,0.1-0.18,0.15-0.27c0.08-0.16,0.15-0.33,0.21-0.51c0.04-0.12,0.08-0.24,0.11-0.36c0.04-0.15,0.07-0.31,0.09-0.46
		c0.02-0.15,0.04-0.31,0.05-0.46c0-0.07,0.02-0.13,0.02-0.2C82.71,140.88,82.69,140.81,82.69,140.73z"/>
</g>
</svg>
