<?xml version="1.0" encoding="utf-8"?>
<!-- Generator: Adobe Illustrator 24.1.3, SVG Export Plug-In . SVG Version: 6.00 Build 0)  -->
<svg version="1.1" id="artifact" xmlns="http://www.w3.org/2000/svg" xmlns:xlink="http://www.w3.org/1999/xlink" x="0px" y="0px"
	 viewBox="0 0 300 300" style="enable-background:new 0 0 300 300;" xml:space="preserve">
<style type="text/css">
	.st0{fill:url(#SVGID_1_);}
	.st1{fill:url(#SVGID_2_);}
	.st2{fill:url(#SVGID_3_);}
	.st3{fill:url(#SVGID_4_);}
	.st4{fill:url(#SVGID_5_);}
	.st5{fill:url(#SVGID_6_);}
</style>
<g>
	<linearGradient id="SVGID_1_" gradientUnits="userSpaceOnUse" x1="143.7401" y1="-46.8138" x2="165.7375" y2="671.7698">
		<stop  offset="2.396167e-07" style="stop-color:#FFA694"/>
		<stop  offset="1" style="stop-color:#BF0020"/>
	</linearGradient>
	<path class="st0" d="M149.78,12.29c-76.23,0-138.24,62.01-138.24,138.24c0,31.48,10.86,62.29,30.59,86.74
		c19.44,24.09,46.66,41.14,76.67,48.01c2.08,0.48,4.15-0.82,4.63-2.9c0.48-2.08-0.82-4.15-2.9-4.63
		C60.9,264.11,19.26,211.79,19.26,150.53c0-71.97,58.55-130.52,130.52-130.52S280.3,78.57,280.3,150.53
		c0,62.13-44.16,115.97-105.01,128.03c-2.09,0.41-3.45,2.45-3.04,4.54c0.36,1.84,1.98,3.11,3.78,3.11c0.25,0,0.5-0.02,0.75-0.07
		c64.45-12.77,111.23-69.8,111.23-135.6C288.02,74.31,226.01,12.29,149.78,12.29z"/>
	<linearGradient id="SVGID_2_" gradientUnits="userSpaceOnUse" x1="143.6446" y1="-46.8109" x2="165.6421" y2="671.7728">
		<stop  offset="2.396167e-07" style="stop-color:#FFA694"/>
		<stop  offset="1" style="stop-color:#BF0020"/>
	</linearGradient>
	<path class="st1" d="M209.83,199.73v-92.46c0-0.09-0.02-0.18-0.03-0.27c-0.01-0.15-0.02-0.29-0.04-0.43
		c-0.02-0.12-0.06-0.24-0.09-0.35c-0.04-0.12-0.07-0.25-0.11-0.37c-0.05-0.12-0.11-0.24-0.17-0.35c-0.06-0.11-0.11-0.21-0.17-0.32
		c-0.08-0.13-0.18-0.24-0.27-0.35c-0.06-0.07-0.1-0.14-0.16-0.21l-42.34-44.79c-0.01-0.01-0.03-0.02-0.04-0.04
		c-0.1-0.11-0.22-0.2-0.34-0.29c-0.08-0.07-0.16-0.14-0.25-0.2c-0.1-0.07-0.22-0.12-0.33-0.18c-0.11-0.06-0.21-0.13-0.33-0.18
		c-0.1-0.04-0.2-0.07-0.31-0.1c-0.14-0.05-0.27-0.1-0.41-0.13c-0.09-0.02-0.19-0.02-0.28-0.03c-0.16-0.02-0.32-0.05-0.48-0.05
		c-0.02,0-0.03,0-0.05,0h-57.45c-9.07,0-16.44,7.38-16.44,16.44v124.66c0,9.07,7.38,16.44,16.44,16.44h87.21
		C202.45,216.18,209.83,208.8,209.83,199.73z M167.48,72.2L197,103.41h-20.8c-4.81,0-8.72-3.91-8.72-8.72V72.2z M97.46,199.73V75.07
		c0-4.81,3.91-8.72,8.72-8.72h53.58V94.7c0,9.07,7.38,16.44,16.44,16.44h25.9v88.6c0,4.81-3.91,8.72-8.72,8.72h-87.21
		C101.37,208.45,97.46,204.54,97.46,199.73z"/>
	<linearGradient id="SVGID_3_" gradientUnits="userSpaceOnUse" x1="142.3311" y1="-46.7706" x2="164.3286" y2="671.813">
		<stop  offset="2.396167e-07" style="stop-color:#FFA694"/>
		<stop  offset="1" style="stop-color:#BF0020"/>
	</linearGradient>
	<path class="st2" d="M177.47,126.21h-59.44c-2.13,0-3.86,1.73-3.86,3.86c0,2.13,1.73,3.86,3.86,3.86h59.44
		c2.13,0,3.86-1.73,3.86-3.86C181.33,127.94,179.6,126.21,177.47,126.21z"/>
	<linearGradient id="SVGID_4_" gradientUnits="userSpaceOnUse" x1="141.584" y1="-46.7478" x2="163.5815" y2="671.8358">
		<stop  offset="2.396167e-07" style="stop-color:#FFA694"/>
		<stop  offset="1" style="stop-color:#BF0020"/>
	</linearGradient>
	<path class="st3" d="M177.47,150.64h-59.44c-2.13,0-3.86,1.73-3.86,3.86s1.73,3.86,3.86,3.86h59.44c2.13,0,3.86-1.73,3.86-3.86
		S179.6,150.64,177.47,150.64z"/>
	<linearGradient id="SVGID_5_" gradientUnits="userSpaceOnUse" x1="140.8369" y1="-46.7249" x2="162.8344" y2="671.8587">
		<stop  offset="2.396167e-07" style="stop-color:#FFA694"/>
		<stop  offset="1" style="stop-color:#BF0020"/>
	</linearGradient>
	<path class="st4" d="M177.47,175.07h-59.44c-2.13,0-3.86,1.73-3.86,3.86s1.73,3.86,3.86,3.86h59.44c2.13,0,3.86-1.73,3.86-3.86
		S179.6,175.07,177.47,175.07z"/>
	<linearGradient id="SVGID_6_" gradientUnits="userSpaceOnUse" x1="139.4169" y1="-46.6814" x2="161.4143" y2="671.9022">
		<stop  offset="2.396167e-07" style="stop-color:#FFA694"/>
		<stop  offset="1" style="stop-color:#BF0020"/>
	</linearGradient>
	<path class="st5" d="M178.53,256.6c0.06-0.06,0.09-0.13,0.14-0.2c0.09-0.11,0.17-0.22,0.25-0.34c0.06-0.1,0.12-0.21,0.17-0.31
		c0.06-0.12,0.12-0.23,0.16-0.36c0.04-0.12,0.08-0.23,0.11-0.35c0.03-0.12,0.07-0.24,0.09-0.37c0.02-0.13,0.03-0.26,0.04-0.4
		c0.01-0.09,0.03-0.17,0.03-0.26c0-0.04-0.01-0.07-0.01-0.11c0-0.13-0.02-0.26-0.04-0.39c-0.02-0.12-0.03-0.25-0.06-0.37
		c-0.03-0.11-0.07-0.22-0.1-0.33c-0.04-0.13-0.08-0.26-0.13-0.38c-0.05-0.1-0.11-0.2-0.16-0.29c-0.07-0.12-0.13-0.24-0.21-0.36
		c-0.06-0.09-0.13-0.16-0.2-0.25c-0.1-0.11-0.19-0.23-0.3-0.33c-0.02-0.02-0.04-0.05-0.06-0.07c-0.06-0.05-0.12-0.09-0.18-0.13
		c-0.11-0.09-0.23-0.18-0.35-0.26c-0.1-0.06-0.2-0.11-0.3-0.17c-0.12-0.06-0.24-0.12-0.36-0.17c-0.12-0.04-0.23-0.08-0.35-0.11
		c-0.12-0.03-0.24-0.07-0.37-0.09c-0.13-0.02-0.26-0.03-0.4-0.04c-0.09-0.01-0.17-0.03-0.25-0.03H163.3v-20.85
		c0-2.13-1.73-3.86-3.86-3.86s-3.86,1.73-3.86,3.86v24.71c0,2.13,1.73,3.86,3.86,3.86H167l-18.38,20.48l-18.38-20.48h7.56
		c2.13,0,3.86-1.73,3.86-3.86v-24.71c0-2.13-1.73-3.86-3.86-3.86c-2.13,0-3.86,1.73-3.86,3.86v20.85h-12.36
		c-0.09,0-0.18,0.02-0.27,0.03c-0.12,0.01-0.25,0.02-0.37,0.04c-0.13,0.02-0.26,0.06-0.39,0.09c-0.11,0.03-0.22,0.06-0.33,0.1
		c-0.13,0.05-0.26,0.11-0.38,0.17c-0.1,0.05-0.2,0.1-0.29,0.16c-0.13,0.08-0.24,0.17-0.36,0.26c-0.06,0.05-0.12,0.08-0.18,0.13
		c-0.02,0.02-0.04,0.05-0.06,0.07c-0.11,0.1-0.2,0.22-0.3,0.33c-0.07,0.08-0.14,0.16-0.2,0.25c-0.08,0.11-0.14,0.23-0.21,0.36
		c-0.05,0.1-0.11,0.19-0.16,0.29c-0.05,0.12-0.09,0.25-0.13,0.38c-0.04,0.11-0.08,0.22-0.1,0.33c-0.03,0.12-0.04,0.24-0.06,0.37
		c-0.02,0.13-0.04,0.26-0.04,0.39c0,0.04-0.01,0.07-0.01,0.11c0,0.09,0.02,0.17,0.03,0.26c0.01,0.13,0.02,0.26,0.04,0.4
		c0.02,0.13,0.05,0.25,0.09,0.37c0.03,0.12,0.07,0.24,0.11,0.35c0.05,0.12,0.11,0.24,0.16,0.36c0.05,0.11,0.11,0.21,0.17,0.31
		c0.08,0.12,0.16,0.23,0.25,0.34c0.05,0.06,0.09,0.13,0.14,0.2l27.03,30.12c0.04,0.05,0.1,0.08,0.14,0.13
		c0.05,0.05,0.1,0.12,0.15,0.17c0.06,0.05,0.13,0.09,0.19,0.14c0.08,0.07,0.17,0.13,0.26,0.19c0.13,0.09,0.27,0.16,0.41,0.23
		c0.09,0.04,0.17,0.09,0.26,0.13c0.16,0.07,0.33,0.11,0.5,0.16c0.07,0.02,0.15,0.05,0.22,0.06c0.25,0.05,0.49,0.08,0.74,0.08
		c0,0,0,0,0,0c0,0,0,0,0,0c0.25,0,0.5-0.03,0.74-0.08c0.07-0.01,0.15-0.04,0.22-0.06c0.17-0.04,0.33-0.09,0.5-0.16
		c0.09-0.04,0.17-0.08,0.26-0.13c0.14-0.07,0.28-0.15,0.41-0.23c0.09-0.06,0.17-0.12,0.25-0.19c0.06-0.05,0.13-0.09,0.19-0.14
		c0.06-0.05,0.1-0.11,0.15-0.17c0.05-0.05,0.1-0.08,0.14-0.13L178.53,256.6z"/>
</g>
</svg>
