<?xml version="1.0" encoding="utf-8"?>
<!-- Generator: Adobe Illustrator 24.1.3, SVG Export Plug-In . SVG Version: 6.00 Build 0)  -->
<svg version="1.1" id="aurora" xmlns="http://www.w3.org/2000/svg" xmlns:xlink="http://www.w3.org/1999/xlink" x="0px" y="0px"
	 viewBox="0 0 300 300" style="enable-background:new 0 0 300 300;" xml:space="preserve">
<style type="text/css">
	.st0{fill:url(#SVGID_1_);}
	.st1{fill:url(#SVGID_2_);}
	.st2{fill:url(#SVGID_3_);}
	.st3{fill:url(#SVGID_4_);}
</style>
<g>
	<linearGradient id="SVGID_1_" gradientUnits="userSpaceOnUse" x1="76.4512" y1="-99.8913" x2="82.3853" y2="514.8779">
		<stop  offset="0" style="stop-color:#03E5FF"/>
		<stop  offset="1" style="stop-color:#5D33E9"/>
	</linearGradient>
	<path class="st0" d="M144.94,208.68c-2.71,0-5,2.04-5.3,4.73c-1.31,11.52-26.07,23.85-60.84,23.85
		c-34.77,0-59.53-12.33-60.84-23.85c-0.01-0.13-0.03-0.26-0.06-0.38v-28.52c0.22,0.18,0.45,0.37,0.67,0.55
		c0.09,0.07,0.17,0.14,0.25,0.21c0.43,0.34,0.87,0.68,1.33,1.02c0.13,0.09,0.25,0.19,0.38,0.28c0.39,0.29,0.8,0.58,1.21,0.86
		c0.1,0.07,0.2,0.14,0.3,0.21c0.5,0.34,1.01,0.67,1.53,1c0.14,0.09,0.28,0.17,0.41,0.26c0.45,0.28,0.91,0.56,1.37,0.83
		c0.12,0.07,0.24,0.14,0.36,0.21c0.57,0.33,1.15,0.65,1.74,0.97c0.14,0.08,0.29,0.15,0.43,0.23c0.51,0.27,1.03,0.53,1.56,0.79
		c0.14,0.07,0.28,0.14,0.42,0.21c0.64,0.31,1.3,0.61,1.97,0.91c0.15,0.07,0.3,0.13,0.45,0.2c0.58,0.25,1.16,0.5,1.76,0.74
		c0.16,0.07,0.32,0.13,0.48,0.2c0.72,0.29,1.45,0.57,2.21,0.84c0.15,0.06,0.31,0.11,0.47,0.16c0.65,0.23,1.3,0.46,1.98,0.68
		c0.19,0.06,0.37,0.12,0.56,0.18c0.8,0.26,1.62,0.51,2.46,0.75c0.15,0.04,0.31,0.09,0.46,0.13c0.73,0.21,1.47,0.41,2.22,0.6
		c0.21,0.05,0.42,0.11,0.63,0.16c0.89,0.22,1.79,0.44,2.72,0.64c0.15,0.03,0.3,0.06,0.45,0.1c0.81,0.18,1.64,0.35,2.48,0.51
		c0.24,0.05,0.48,0.09,0.72,0.14c0.98,0.18,1.98,0.36,3,0.52c0.13,0.02,0.27,0.04,0.41,0.06c0.91,0.14,1.85,0.28,2.79,0.4
		c0.27,0.04,0.53,0.07,0.8,0.1c1.08,0.14,2.17,0.27,3.29,0.38c0.11,0.01,0.22,0.02,0.33,0.03c1.03,0.1,2.08,0.19,3.14,0.28
		c0.3,0.02,0.59,0.05,0.89,0.07c1.18,0.08,2.37,0.16,3.59,0.22c0.07,0,0.14,0.01,0.21,0.01c1.16,0.06,2.35,0.1,3.56,0.13
		c0.32,0.01,0.65,0.02,0.98,0.02c1.29,0.03,2.59,0.05,3.92,0.05c26.38,0,32.92-2.31,44.8-6.51c0.93-0.33,1.9-0.67,2.92-1.03
		c2.78-0.97,4.25-4.01,3.28-6.8c-0.97-2.78-4.01-4.25-6.8-3.28c-1.03,0.36-2.01,0.71-2.96,1.04c-11.46,4.05-16.69,5.9-41.24,5.9
		c-1.34,0-2.65-0.02-3.94-0.05c-0.43-0.01-0.85-0.03-1.28-0.04c-0.84-0.03-1.68-0.05-2.5-0.09c-0.49-0.02-0.96-0.06-1.45-0.08
		c-0.73-0.04-1.46-0.08-2.16-0.13c-0.5-0.04-0.99-0.08-1.48-0.12c-0.66-0.05-1.33-0.11-1.97-0.17c-0.5-0.05-0.98-0.1-1.46-0.16
		c-0.62-0.07-1.24-0.13-1.84-0.21c-0.48-0.06-0.95-0.13-1.42-0.19c-0.58-0.08-1.17-0.16-1.73-0.25c-0.46-0.07-0.91-0.15-1.36-0.22
		c-0.55-0.09-1.1-0.18-1.64-0.28c-0.44-0.08-0.88-0.16-1.31-0.25c-0.52-0.1-1.04-0.2-1.55-0.31c-0.42-0.09-0.84-0.18-1.25-0.27
		c-0.5-0.11-0.99-0.23-1.47-0.34c-0.4-0.1-0.79-0.2-1.18-0.3c-0.47-0.12-0.94-0.25-1.4-0.37c-0.38-0.1-0.75-0.21-1.12-0.32
		c-0.45-0.13-0.89-0.26-1.33-0.4c-0.35-0.11-0.71-0.22-1.05-0.33c-0.43-0.14-0.85-0.28-1.27-0.43c-0.33-0.11-0.66-0.23-0.98-0.35
		c-0.41-0.15-0.81-0.3-1.21-0.46c-0.31-0.12-0.62-0.24-0.92-0.36c-0.4-0.16-0.78-0.32-1.16-0.48c-0.28-0.12-0.57-0.24-0.84-0.36
		c-0.38-0.17-0.75-0.34-1.12-0.51c-0.26-0.12-0.52-0.24-0.77-0.36c-0.37-0.18-0.73-0.36-1.09-0.55c-0.23-0.12-0.46-0.23-0.68-0.35
		c-0.38-0.2-0.74-0.4-1.1-0.6c-0.19-0.1-0.38-0.21-0.56-0.31c-0.41-0.24-0.81-0.48-1.2-0.72c-0.11-0.07-0.23-0.14-0.35-0.21
		c-0.5-0.31-0.99-0.63-1.46-0.95c0,0,0,0,0,0c-0.46-0.31-0.91-0.63-1.34-0.94c-0.13-0.09-0.24-0.18-0.37-0.28
		c-0.3-0.22-0.6-0.45-0.88-0.67c-0.15-0.12-0.28-0.23-0.43-0.35c-0.25-0.2-0.49-0.4-0.73-0.6c-0.15-0.13-0.29-0.25-0.43-0.38
		c-0.21-0.19-0.43-0.38-0.63-0.56c-0.14-0.13-0.28-0.26-0.41-0.39c-0.19-0.18-0.38-0.36-0.56-0.54c-0.13-0.13-0.26-0.26-0.39-0.39
		c-0.17-0.17-0.34-0.35-0.5-0.52c-0.12-0.13-0.24-0.26-0.36-0.39c-0.15-0.17-0.31-0.34-0.45-0.51c-0.11-0.13-0.22-0.25-0.33-0.38
		c-0.14-0.16-0.28-0.33-0.41-0.49c-0.1-0.12-0.2-0.25-0.3-0.37c-0.12-0.16-0.25-0.31-0.36-0.47c-0.09-0.12-0.18-0.24-0.27-0.36
		c-0.11-0.15-0.22-0.3-0.32-0.45c-0.08-0.11-0.16-0.23-0.24-0.34c-0.1-0.15-0.2-0.29-0.29-0.43c-0.07-0.11-0.14-0.21-0.21-0.32
		c-0.03-0.05-0.07-0.11-0.1-0.16v-28.5c0.22,0.18,0.45,0.37,0.67,0.55c0.09,0.07,0.17,0.14,0.25,0.21c0.43,0.34,0.87,0.68,1.33,1.02
		c0.13,0.09,0.25,0.19,0.38,0.28c0.39,0.29,0.8,0.58,1.21,0.86c0.1,0.07,0.2,0.14,0.3,0.21c0.5,0.34,1.01,0.67,1.53,1
		c0.14,0.09,0.28,0.17,0.41,0.26c0.45,0.28,0.91,0.56,1.37,0.83c0.12,0.07,0.24,0.14,0.36,0.21c0.57,0.33,1.15,0.65,1.74,0.97
		c0.14,0.08,0.29,0.15,0.43,0.23c0.51,0.27,1.03,0.53,1.56,0.79c0.14,0.07,0.28,0.14,0.42,0.21c0.64,0.31,1.3,0.61,1.97,0.91
		c0.15,0.07,0.3,0.13,0.45,0.2c0.58,0.25,1.16,0.5,1.76,0.74c0.16,0.07,0.32,0.13,0.48,0.2c0.72,0.29,1.45,0.57,2.21,0.84
		c0.15,0.06,0.31,0.11,0.47,0.16c0.65,0.23,1.3,0.46,1.98,0.68c0.19,0.06,0.37,0.12,0.56,0.18c0.8,0.26,1.62,0.51,2.46,0.75
		c0.15,0.04,0.31,0.09,0.46,0.13c0.73,0.21,1.47,0.41,2.22,0.6c0.21,0.05,0.42,0.11,0.63,0.16c0.89,0.22,1.79,0.44,2.72,0.64
		c0.15,0.03,0.3,0.06,0.45,0.1c0.81,0.18,1.64,0.35,2.48,0.51c0.24,0.05,0.48,0.09,0.72,0.14c0.98,0.18,1.98,0.36,3,0.52
		c0.13,0.02,0.27,0.04,0.41,0.06c0.91,0.14,1.85,0.28,2.79,0.4c0.27,0.04,0.53,0.07,0.8,0.1c1.08,0.14,2.17,0.27,3.29,0.38
		c0.11,0.01,0.22,0.02,0.33,0.03c1.03,0.1,2.08,0.19,3.14,0.28c0.3,0.02,0.59,0.05,0.89,0.07c1.18,0.08,2.37,0.16,3.59,0.22
		c0.07,0,0.14,0.01,0.21,0.01c1.16,0.06,2.35,0.1,3.56,0.13c0.32,0.01,0.65,0.02,0.98,0.02c1.29,0.03,2.59,0.05,3.92,0.05
		c1.35,0,2.66-0.02,3.95-0.05c0.33-0.01,0.65-0.01,0.98-0.02c1.25-0.03,2.48-0.07,3.68-0.13c0.03,0,0.07,0,0.1,0
		c1.23-0.06,2.44-0.14,3.63-0.22c0.3-0.02,0.6-0.04,0.9-0.07c1.12-0.09,2.22-0.18,3.3-0.29c0.06-0.01,0.12-0.01,0.18-0.02
		c1.13-0.11,2.23-0.24,3.32-0.38c0.27-0.03,0.55-0.07,0.82-0.11c1-0.13,1.99-0.27,2.96-0.42c0.08-0.01,0.16-0.02,0.23-0.03
		c1.03-0.16,2.03-0.34,3.02-0.52c0.25-0.05,0.5-0.09,0.75-0.14c0.9-0.17,1.78-0.35,2.64-0.53c0.09-0.02,0.18-0.04,0.26-0.05
		c0.93-0.2,1.84-0.42,2.74-0.64c0.23-0.06,0.45-0.11,0.67-0.17c0.8-0.2,1.59-0.41,2.36-0.63c0.09-0.03,0.19-0.05,0.28-0.08
		c0.84-0.24,1.67-0.49,2.47-0.75c0.2-0.06,0.4-0.13,0.6-0.2c0.71-0.23,1.41-0.47,2.1-0.71c0.1-0.03,0.2-0.07,0.29-0.1
		c0.76-0.27,1.5-0.55,2.22-0.84c0.18-0.07,0.36-0.14,0.53-0.21c0.63-0.25,1.25-0.51,1.86-0.78c0.1-0.04,0.2-0.08,0.29-0.13
		c0.68-0.3,1.34-0.6,1.98-0.91c0.16-0.08,0.31-0.15,0.47-0.23c0.56-0.27,1.1-0.55,1.63-0.83c0.09-0.05,0.19-0.1,0.28-0.15
		c0.6-0.32,1.18-0.64,1.75-0.97c0.14-0.08,0.28-0.16,0.41-0.24c0.49-0.29,0.97-0.58,1.44-0.87c0.09-0.05,0.18-0.11,0.26-0.16
		c0.53-0.34,1.05-0.67,1.55-1.02c0.12-0.08,0.24-0.16,0.35-0.24c0.43-0.3,0.85-0.59,1.26-0.89c0.08-0.06,0.16-0.12,0.24-0.17
		c0.47-0.35,0.91-0.69,1.35-1.04c0.1-0.08,0.2-0.16,0.3-0.24c0.16-0.13,0.32-0.25,0.47-0.38v21.74c0,2.95,2.39,5.34,5.34,5.34
		c2.95,0,5.34-2.39,5.34-5.34V125.8V92.82v-0.47V72.69c0-0.24-0.01-0.47-0.03-0.73c0-0.05,0-0.1-0.01-0.14
		c-0.01-0.22-0.04-0.43-0.05-0.65c-0.02-0.24-0.03-0.48-0.06-0.72c-0.03-0.24-0.07-0.49-0.11-0.73c-0.04-0.23-0.07-0.47-0.11-0.7
		c-0.05-0.25-0.11-0.5-0.17-0.75c-0.05-0.22-0.09-0.44-0.15-0.66c-0.07-0.26-0.16-0.53-0.24-0.79c-0.06-0.2-0.12-0.4-0.19-0.61
		c-0.1-0.28-0.21-0.55-0.32-0.83c-0.07-0.18-0.14-0.37-0.21-0.55c-0.12-0.29-0.27-0.58-0.41-0.88c-0.08-0.16-0.15-0.32-0.23-0.48
		c-0.16-0.31-0.33-0.62-0.51-0.93c-0.08-0.14-0.14-0.27-0.22-0.41c-0.2-0.34-0.41-0.67-0.63-1c-0.07-0.11-0.13-0.21-0.2-0.32
		c-0.24-0.36-0.5-0.71-0.77-1.07c-0.06-0.08-0.11-0.15-0.17-0.23c-0.29-0.38-0.6-0.75-0.91-1.13c-0.04-0.05-0.08-0.1-0.12-0.15
		c-0.34-0.39-0.69-0.78-1.06-1.17c-0.03-0.03-0.05-0.06-0.08-0.08c-0.38-0.39-0.77-0.78-1.17-1.17c-0.02-0.02-0.04-0.04-0.06-0.06
		c-0.41-0.39-0.84-0.77-1.28-1.15c-0.02-0.02-0.04-0.03-0.06-0.05c-0.42-0.36-0.86-0.72-1.31-1.07c-0.04-0.03-0.08-0.07-0.13-0.1
		c-0.37-0.29-0.76-0.57-1.14-0.86c-0.13-0.1-0.26-0.2-0.39-0.29c-0.23-0.16-0.47-0.32-0.7-0.48c-0.3-0.21-0.6-0.42-0.91-0.63
		c-0.01-0.01-0.02-0.01-0.03-0.02c-0.01-0.01-0.02-0.01-0.03-0.02c0,0-0.01,0-0.01-0.01c0,0,0,0-0.01,0
		c-0.64-0.42-1.3-0.84-1.92-1.21c-0.01,0-0.03-0.02-0.04-0.03c-0.01,0-0.01-0.01-0.02-0.01c0,0,0,0,0,0
		c-0.02-0.01-0.03-0.02-0.04-0.03c-0.01,0-0.01-0.01-0.02-0.01c0,0,0,0,0,0c-0.65-0.39-1.32-0.77-2.03-1.16
		c-0.01-0.01-0.03-0.02-0.04-0.02c0,0,0,0,0,0c-0.01,0-0.02-0.01-0.03-0.01c-0.01-0.01-0.12-0.07-0.14-0.08c0,0,0,0-0.01,0
		c-0.68-0.36-1.37-0.72-2.08-1.07c0,0-0.01,0-0.01,0c-0.05-0.02-0.14-0.07-0.18-0.09l-0.01,0c-0.37-0.18-0.74-0.36-1.12-0.54
		c-0.33-0.16-0.67-0.31-1-0.46c-0.01,0-0.01-0.01-0.02-0.01l-0.01,0c0,0,0,0,0,0c0,0,0,0,0,0l0,0c0,0,0,0,0,0c0,0,0,0-0.01,0
		l-0.28-0.12c-0.71-0.31-1.43-0.62-2.15-0.92l-0.01,0c0,0,0,0,0,0l0,0l-0.4-0.16c-0.01,0-0.03-0.01-0.04-0.02
		c-0.51-0.2-1.02-0.4-1.54-0.6c-0.19-0.07-0.37-0.15-0.56-0.22L122,44.13c0,0,0,0-0.01,0c-0.36-0.13-0.71-0.26-1.07-0.39
		c-0.35-0.13-0.71-0.25-1.07-0.37h0h0c-0.01,0-0.01,0-0.02-0.01c0,0,0,0,0,0l-0.59-0.19c0,0,0,0,0,0c-0.03-0.01-0.06-0.02-0.09-0.03
		c-0.47-0.16-0.95-0.31-1.43-0.46c-0.21-0.07-0.41-0.13-0.62-0.2l-0.7-0.2c0,0,0,0,0,0l0,0c-0.68-0.2-1.35-0.4-2.05-0.59
		c-0.01,0-0.02-0.01-0.03-0.01c0,0-0.01,0-0.01,0c0,0-0.01,0-0.01,0c-0.01,0-0.01,0-0.02-0.01c0,0,0,0,0,0
		c-0.18-0.05-0.35-0.09-0.53-0.14l-0.28-0.07c0,0,0,0,0,0l0,0c0,0,0,0-0.01,0l0,0c-0.59-0.16-1.19-0.32-1.79-0.47
		c-0.09-0.02-0.17-0.04-0.26-0.06c0,0,0,0-0.01,0c-0.22-0.05-0.45-0.11-0.67-0.16l-0.27-0.06c-0.67-0.16-1.33-0.32-2.03-0.47
		l-1.08-0.22c0,0,0,0,0,0l-0.37-0.08c-0.51-0.11-1.02-0.21-1.53-0.31c-0.01,0-0.01,0-0.02,0c-0.01,0-0.02,0-0.02,0c0,0,0,0,0,0
		c0,0,0,0,0,0c0,0,0,0,0,0c-0.26-0.05-0.53-0.1-0.8-0.14l-0.73-0.13c-0.53-0.1-1.05-0.19-1.58-0.28c-0.31-0.05-0.63-0.1-0.94-0.15
		l-0.8-0.12c-0.48-0.08-0.95-0.15-1.44-0.22c0,0,0,0,0,0c0,0,0,0-0.01,0c-0.34-0.05-0.68-0.09-1.02-0.13l-0.93-0.12
		c-0.43-0.06-0.85-0.11-1.29-0.16c-0.4-0.05-0.8-0.09-1.2-0.13l-0.92-0.1c-0.39-0.04-0.79-0.09-1.18-0.12
		c-0.43-0.04-0.86-0.07-1.3-0.11l-1-0.08c-0.35-0.03-0.71-0.06-1.07-0.08c0,0,0,0,0,0c0,0,0,0,0,0c-0.48-0.03-0.97-0.06-1.46-0.09
		l-0.99-0.06c-0.32-0.02-0.63-0.04-0.96-0.05c-0.6-0.03-1.2-0.05-1.81-0.06l-0.87-0.03c-0.26-0.01-0.52-0.02-0.79-0.03c0,0,0,0,0,0
		c0,0,0,0,0,0c-2.33-0.05-4.7-0.05-7.03,0c-0.26,0.01-0.53,0.02-0.79,0.03l-0.87,0.03c-0.6,0.02-1.21,0.04-1.81,0.06c0,0,0,0-0.01,0
		l0,0c-0.32,0.01-0.64,0.03-0.95,0.05l-0.99,0.06c-0.49,0.03-0.98,0.05-1.47,0.09c-0.36,0.03-0.71,0.06-1.07,0.09l-0.69,0.06
		l-0.32,0.02c-0.43,0.03-0.87,0.07-1.3,0.11c0,0,0,0-0.01,0c-0.4,0.04-0.79,0.08-1.18,0.12l-0.92,0.1c-0.4,0.04-0.79,0.08-1.19,0.13
		c0,0-0.01,0-0.01,0c0,0,0,0-0.01,0c-0.43,0.05-0.86,0.11-1.28,0.16l-0.93,0.12c-0.34,0.04-0.69,0.09-1.04,0.14
		c-0.47,0.07-0.93,0.14-1.39,0.21l-0.87,0.13c-0.31,0.05-0.61,0.09-0.92,0.14c0,0,0,0-0.01,0c-0.53,0.09-1.05,0.18-1.57,0.28
		l-0.73,0.13c-0.27,0.05-0.54,0.09-0.8,0.15c0,0,0,0,0,0c-0.01,0-0.02,0-0.03,0.01c-0.58,0.11-1.16,0.23-1.73,0.35L50.32,40
		l-0.44,0.09c-0.25,0.05-0.5,0.1-0.74,0.15c0,0,0,0,0,0c-0.62,0.13-1.22,0.28-1.83,0.42l-0.52,0.12c-0.2,0.05-0.41,0.09-0.61,0.14
		c0,0-0.01,0-0.01,0c0,0,0,0,0,0c-0.65,0.16-1.29,0.33-1.93,0.5l-0.41,0.11c-0.18,0.05-0.35,0.09-0.53,0.14c0,0,0,0,0,0
		c0,0-0.01,0-0.01,0c0,0-0.01,0-0.01,0c0,0,0,0,0,0c-0.68,0.19-1.35,0.38-2.01,0.58c-0.01,0-0.03,0.01-0.04,0.01
		c-0.01,0-0.03,0.01-0.04,0.01l-0.7,0.2c0,0,0,0-0.01,0c-0.01,0-0.03,0.01-0.04,0.01c-0.71,0.22-1.4,0.44-2.09,0.67c0,0,0,0,0,0
		l-0.58,0.19c0,0,0,0,0,0c-0.36,0.12-0.72,0.25-1.07,0.37c-0.36,0.13-0.71,0.25-1.06,0.38c-0.01,0-0.02,0.01-0.03,0.01l-0.45,0.16
		c0,0,0,0,0,0l-0.01,0c-0.74,0.27-1.46,0.56-2.27,0.88l-0.27,0.11c0,0,0,0,0,0l0,0c0,0,0,0,0,0c0,0,0,0,0,0l-0.01,0
		c-0.69,0.29-1.38,0.58-2.11,0.9c-0.02,0.01-0.03,0.01-0.05,0.02c0,0,0,0,0,0c-0.02,0.01-0.05,0.02-0.07,0.03l-0.23,0.1
		c0,0,0,0-0.01,0c-0.73,0.33-1.44,0.66-2.15,1.01c-0.02,0.01-0.05,0.03-0.09,0.04c-0.01,0.01-0.02,0.01-0.03,0.01
		c-0.02,0.01-0.05,0.02-0.06,0.03c0,0,0,0,0,0c-0.36,0.18-0.71,0.36-1.06,0.54c-0.33,0.17-0.65,0.34-0.97,0.51
		c-0.02,0.01-0.05,0.03-0.07,0.04c-0.02,0.01-0.05,0.03-0.08,0.04c-0.01,0.01-0.02,0.01-0.03,0.02v0c0,0,0,0,0,0l0,0c0,0,0,0,0,0
		c0,0,0,0,0,0c0,0,0,0,0,0h0h0c0,0,0,0,0,0c-0.01,0-0.02,0.01-0.03,0.01c-0.49,0.27-0.96,0.53-1.41,0.79
		c-0.22,0.13-0.44,0.25-0.66,0.38c-0.01,0-0.01,0.01-0.02,0.01c0,0,0,0,0,0c-0.02,0.01-0.04,0.02-0.06,0.04
		c-0.03,0.02-0.05,0.03-0.08,0.05c-0.65,0.39-1.29,0.79-1.9,1.2c0,0-0.01,0-0.01,0c0,0-0.01,0-0.01,0.01
		c-0.01,0.01-0.02,0.01-0.02,0.02c0,0,0,0,0,0c0,0,0,0,0,0c-0.01,0-0.01,0.01-0.01,0.01c0,0,0,0,0,0c0,0,0,0,0,0
		c0,0-0.01,0-0.01,0.01c-0.09,0.06-0.18,0.12-0.27,0.18c-5.42,3.63-9.32,7.76-11.56,12.21c-0.01,0.02-0.01,0.03-0.02,0.05
		C9.25,64,9.05,64.44,8.86,64.88c-0.02,0.05-0.03,0.09-0.05,0.14c-0.17,0.41-0.33,0.82-0.47,1.24c-0.03,0.08-0.05,0.17-0.08,0.26
		c-0.12,0.38-0.24,0.75-0.34,1.13c-0.03,0.13-0.06,0.26-0.09,0.4c-0.08,0.33-0.16,0.67-0.23,1.01c-0.04,0.19-0.06,0.38-0.09,0.57
		c-0.04,0.28-0.09,0.56-0.13,0.84c-0.03,0.26-0.05,0.53-0.07,0.79c-0.01,0.12-0.02,0.23-0.03,0.35c-0.02,0.19-0.06,0.37-0.06,0.57
		v0.53v52.85v44.46v44.01c0,0.59,0.1,1.16,0.28,1.69c3.18,18.45,33.46,32.23,71.29,32.23c37.99,0,68.36-13.9,71.33-32.47
		c0.13-0.46,0.2-0.95,0.2-1.45C150.33,211.07,147.89,208.68,144.94,208.68z M17.99,71.69c0.02-0.15,0.03-0.3,0.06-0.45
		c0.03-0.17,0.07-0.34,0.1-0.5c0.03-0.15,0.06-0.29,0.11-0.44c0.05-0.16,0.1-0.33,0.15-0.49c0.05-0.14,0.09-0.29,0.15-0.43
		c0.06-0.16,0.13-0.32,0.2-0.47c0.06-0.14,0.12-0.28,0.19-0.42c0.07-0.15,0.15-0.3,0.24-0.45c0.07-0.14,0.15-0.28,0.23-0.42
		c0.08-0.15,0.18-0.29,0.27-0.43c0.09-0.14,0.17-0.28,0.26-0.41c0.09-0.14,0.19-0.27,0.29-0.41c0.1-0.14,0.19-0.27,0.3-0.41
		c0.1-0.13,0.21-0.26,0.31-0.39c0.11-0.13,0.22-0.27,0.33-0.4c0.11-0.12,0.22-0.24,0.33-0.36c0.12-0.13,0.24-0.26,0.36-0.39
		c0.11-0.12,0.23-0.23,0.34-0.34c0.13-0.13,0.25-0.26,0.38-0.38c0.11-0.11,0.23-0.21,0.34-0.31c0.14-0.13,0.27-0.26,0.41-0.38
		c0.11-0.1,0.22-0.19,0.33-0.29c0.15-0.13,0.29-0.25,0.44-0.37c0.11-0.09,0.22-0.18,0.33-0.27c0.15-0.12,0.3-0.24,0.45-0.36
		c0.11-0.09,0.23-0.17,0.34-0.26c0.15-0.11,0.3-0.23,0.44-0.33c0.12-0.09,0.24-0.17,0.36-0.26c0.14-0.1,0.28-0.2,0.42-0.3
		c0.26-0.18,0.51-0.35,0.77-0.52c0,0,0,0,0.01,0c0.03-0.02,0.07-0.04,0.1-0.06c0.49-0.32,0.98-0.63,1.5-0.94
		c0.03-0.02,0.06-0.03,0.08-0.05c0,0,0,0,0,0c0,0,0,0,0,0c0,0,0,0,0,0c0,0,0,0,0,0c0,0,0.01,0,0.01-0.01
		c0.54-0.32,1.1-0.64,1.63-0.93c0.02-0.01,0.03-0.02,0.05-0.03c0.02-0.01,0.04-0.02,0.07-0.04c0,0,0.01,0,0.01-0.01
		c0.01,0,0.02-0.01,0.02-0.01c0,0,0,0,0,0c0,0,0.01,0,0.01-0.01c0,0,0,0,0,0c0,0,0.01,0,0.01-0.01c0,0,0,0,0,0l0,0c0,0,0,0,0,0
		c0.57-0.31,1.16-0.61,1.77-0.91c0,0,0,0,0,0c0,0,0,0,0,0c0,0,0,0,0,0c0.01-0.01,0.05-0.02,0.09-0.04c0.04-0.02,0.08-0.04,0.1-0.05
		c0,0,0,0,0,0c0.55-0.27,1.1-0.53,1.67-0.78c0.07-0.03,0.13-0.06,0.2-0.09c0,0,0,0,0,0l0.09-0.04l0.09-0.04
		c0.55-0.25,1.12-0.49,1.7-0.73c0.09-0.04,0.16-0.07,0.25-0.11l0.26-0.1c0,0,0,0,0,0c0.62-0.25,1.24-0.49,1.88-0.73l0.42-0.15
		c0,0,0,0,0,0c0.6-0.22,1.21-0.44,1.82-0.65c0.03-0.01,0.06-0.02,0.09-0.03c0,0,0,0,0,0l0.51-0.16c0.63-0.21,1.26-0.41,1.91-0.61
		l0.63-0.18c0,0,0,0,0,0c0.62-0.18,1.24-0.37,1.9-0.55l0.71-0.19c0,0,0.01,0,0.01,0l0.13-0.03c0.58-0.15,1.15-0.31,1.75-0.45
		l0.87-0.2c0,0,0,0,0,0l0.17-0.04c0.55-0.13,1.1-0.26,1.65-0.38l0.99-0.2c0,0,0,0,0,0c0,0,0,0,0.01,0l0.18-0.04
		c0.53-0.11,1.05-0.22,1.59-0.32l1.12-0.2c0,0,0,0,0,0l0.32-0.06c0.47-0.09,0.94-0.17,1.41-0.25c0.25-0.04,0.5-0.08,0.75-0.12
		l0.49-0.07c0,0,0,0,0,0l0.45-0.07c0.41-0.06,0.83-0.13,1.25-0.19c0,0,0,0,0,0c0.29-0.04,0.57-0.08,0.86-0.11l0.5-0.06c0,0,0,0,0,0
		c0,0,0,0,0,0l0.49-0.06c0.38-0.05,0.75-0.1,1.13-0.14c0.3-0.04,0.61-0.07,0.92-0.1c0.01,0,0.01,0,0.02,0l0.57-0.06c0,0,0,0,0,0
		l0.51-0.05c0.34-0.04,0.68-0.07,1.02-0.11c0.38-0.04,0.77-0.06,1.15-0.09l0.51-0.04l0.56-0.05c0.3-0.03,0.6-0.05,0.91-0.07
		c0,0,0,0,0,0c0.43-0.03,0.87-0.05,1.31-0.08l0.51-0.03c0,0,0,0,0,0l0.55-0.03c0.27-0.02,0.53-0.03,0.79-0.04
		c0.55-0.03,1.1-0.04,1.65-0.06l0.4-0.01c0.01,0,0.02,0,0.03,0l1.15-0.04c0,0,0,0,0,0c1.08-0.03,2.17-0.04,3.26-0.04
		c1.06,0,2.12,0.01,3.17,0.04c0.03,0,0.07,0,0.1,0l1.15,0.04c0.01,0,0.02,0,0.03,0l0.4,0.01c0.55,0.02,1.11,0.03,1.65,0.06
		c0.01,0,0.01,0,0.02,0c0.26,0.01,0.52,0.03,0.78,0.04l0.55,0.03c0,0,0,0,0,0l0.51,0.03c0.44,0.02,0.88,0.05,1.31,0.08
		c0.3,0.02,0.6,0.05,0.9,0.07l0.56,0.05c0,0,0,0,0,0l0.52,0.04c0.38,0.03,0.75,0.06,1.13,0.09c0,0,0,0,0.01,0
		c0.34,0.03,0.68,0.07,1.02,0.11l0.52,0.06c0,0,0,0,0,0c0,0,0,0,0,0l0.47,0.05c0.35,0.04,0.69,0.07,1.04,0.11c0,0,0,0,0.01,0
		c0.38,0.04,0.75,0.09,1.12,0.14l0.49,0.06c0,0,0,0,0,0c0,0,0,0,0,0l0.5,0.06c0.3,0.04,0.59,0.07,0.87,0.11
		c0.43,0.06,0.85,0.13,1.27,0.19l0.41,0.06c0,0,0,0,0,0c0,0,0,0,0,0l0.45,0.07c0.26,0.04,0.53,0.08,0.79,0.12c0,0,0,0,0,0
		c0.48,0.08,0.94,0.16,1.41,0.25l0.32,0.06c0,0,0,0,0,0l1.01,0.18l0.12,0.02c0.46,0.09,0.91,0.18,1.36,0.28c0.01,0,0.02,0,0.03,0.01
		l0.4,0.08c0,0,0,0,0,0l1,0.2c0,0,0,0,0,0c0.61,0.13,1.21,0.28,1.81,0.42c0,0,0,0,0,0c0.01,0,0.01,0,0.02,0l0.85,0.2c0,0,0,0,0,0
		c0.62,0.15,1.23,0.31,1.83,0.48l0.03,0.01c0,0,0,0,0,0l0.75,0.2c0.64,0.17,1.26,0.36,1.88,0.54l0.01,0c0,0,0,0,0,0c0,0,0,0,0,0
		l0.62,0.18c0,0,0.01,0,0.01,0c0,0,0.01,0,0.01,0c0.53,0.16,1.05,0.33,1.57,0.5c0.11,0.03,0.21,0.07,0.32,0.1l0.52,0.17
		c0.65,0.22,1.28,0.44,1.93,0.68l0.4,0.14c0,0,0,0,0.01,0c0.64,0.24,1.27,0.49,1.91,0.74l0.31,0.12c0.64,0.26,1.26,0.53,1.87,0.8
		c0,0,0.01,0,0.01,0l0.22,0.1l0.02,0.01c0.63,0.28,1.24,0.57,1.81,0.85l0.19,0.09c0.39,0.19,0.77,0.4,1.15,0.6
		c0.21,0.11,0.43,0.22,0.64,0.33c0,0,0,0,0,0c0.02,0.01,0.08,0.04,0.09,0.05c0.02,0.01,0.03,0.02,0.05,0.03
		c0.57,0.31,1.12,0.63,1.66,0.95c0,0,0,0,0,0c0,0,0,0,0,0c0,0,0,0,0,0c0,0,0.01,0,0.01,0.01c0.02,0.01,0.03,0.02,0.05,0.03
		c0,0,0,0,0,0c0.56,0.33,1.1,0.67,1.62,1.02c0,0,0.01,0,0.01,0.01c0.52,0.34,1.04,0.71,1.58,1.1c3.72,2.73,7.53,6.64,7.71,11.24
		c0,0,0,0,0,0c0,0.11,0.01,0.23,0.02,0.38c0,0.18-0.02,0.37-0.04,0.55c-0.01,0.18-0.02,0.37-0.04,0.55
		c-0.02,0.18-0.07,0.36-0.11,0.55c-0.04,0.19-0.07,0.37-0.12,0.56c-0.05,0.18-0.11,0.36-0.17,0.54c-0.06,0.19-0.12,0.38-0.19,0.57
		c-0.07,0.18-0.16,0.35-0.24,0.53c-0.09,0.2-0.17,0.39-0.27,0.59c-0.09,0.17-0.19,0.34-0.29,0.51c-0.11,0.2-0.22,0.4-0.35,0.6
		c-0.11,0.17-0.23,0.33-0.35,0.5c-0.14,0.2-0.27,0.4-0.42,0.6c-0.12,0.16-0.27,0.33-0.4,0.49c-0.16,0.2-0.32,0.4-0.5,0.6
		c-0.14,0.16-0.3,0.32-0.45,0.48c-0.19,0.2-0.38,0.41-0.58,0.61c-0.16,0.15-0.33,0.3-0.49,0.46c-0.22,0.2-0.43,0.41-0.66,0.61
		c-0.17,0.15-0.36,0.3-0.54,0.44c-0.25,0.2-0.48,0.41-0.74,0.61c-0.18,0.14-0.38,0.28-0.57,0.43c-0.27,0.2-0.54,0.41-0.83,0.61
		c-0.2,0.14-0.41,0.27-0.61,0.41c-0.3,0.2-0.59,0.4-0.9,0.6c-0.21,0.13-0.44,0.27-0.66,0.4c-0.32,0.2-0.64,0.4-0.98,0.59
		c-0.22,0.13-0.46,0.25-0.69,0.38c-0.35,0.19-0.69,0.39-1.06,0.58c-0.24,0.13-0.49,0.25-0.74,0.37c-0.37,0.19-0.73,0.38-1.11,0.56
		c-0.26,0.13-0.53,0.25-0.8,0.37c-0.38,0.18-0.76,0.36-1.16,0.53c-0.27,0.12-0.56,0.23-0.83,0.35c-0.41,0.17-0.81,0.35-1.23,0.52
		c-0.29,0.12-0.59,0.23-0.88,0.34c-0.43,0.16-0.85,0.33-1.28,0.49c-0.3,0.11-0.62,0.22-0.93,0.33c-0.44,0.16-0.88,0.31-1.33,0.47
		c-0.32,0.11-0.65,0.21-0.97,0.31c-0.46,0.15-0.92,0.3-1.39,0.44c-0.34,0.1-0.68,0.2-1.03,0.29c-0.48,0.14-0.95,0.28-1.43,0.41
		c-0.35,0.1-0.72,0.19-1.08,0.28c-0.49,0.13-0.97,0.26-1.47,0.38c-0.38,0.09-0.77,0.18-1.15,0.27c-0.49,0.11-0.98,0.23-1.48,0.34
		c-0.4,0.09-0.82,0.17-1.23,0.25c-0.5,0.1-0.99,0.21-1.5,0.31c-0.41,0.08-0.84,0.15-1.25,0.22c-0.52,0.09-1.03,0.19-1.56,0.28
		c-0.44,0.07-0.88,0.13-1.33,0.2c-0.52,0.08-1.04,0.16-1.57,0.24c-0.45,0.06-0.92,0.12-1.38,0.18c-0.53,0.07-1.06,0.14-1.59,0.2
		c-0.47,0.05-0.96,0.1-1.44,0.15c-0.54,0.06-1.07,0.12-1.61,0.17c-0.53,0.05-1.08,0.09-1.62,0.13c-0.5,0.04-1,0.09-1.5,0.12
		c-0.63,0.04-1.26,0.07-1.9,0.11c-0.43,0.02-0.86,0.05-1.29,0.07c-0.73,0.03-1.46,0.05-2.2,0.08c-0.36,0.01-0.71,0.03-1.06,0.04
		c-1.1,0.03-2.21,0.04-3.33,0.04c-35.84,0-60.83-13.05-60.9-24.79c0.01-0.12,0.02-0.25,0.02-0.37
		C17.93,72.14,17.96,71.91,17.99,71.69z M18.27,92.08c0.52,0.4,1.05,0.8,1.61,1.2c0.12,0.09,0.24,0.17,0.37,0.26
		c0.61,0.42,1.24,0.84,1.89,1.25c0.14,0.09,0.28,0.18,0.43,0.26c0.6,0.37,1.21,0.74,1.84,1.09c0.1,0.06,0.2,0.12,0.31,0.18
		c0.7,0.4,1.43,0.78,2.17,1.16c0.17,0.09,0.35,0.18,0.52,0.26c0.77,0.38,1.55,0.76,2.35,1.13c13.19,6.01,30.61,9.32,49.05,9.32
		c18.44,0,35.86-3.31,49.05-9.32c0.81-0.37,1.59-0.75,2.35-1.13c0.18-0.09,0.35-0.18,0.53-0.27c0.74-0.38,1.47-0.77,2.17-1.16
		c0.11-0.06,0.21-0.12,0.31-0.18c0.63-0.36,1.24-0.72,1.83-1.09c0.14-0.09,0.29-0.18,0.43-0.27c0.64-0.41,1.27-0.82,1.88-1.25
		c0.13-0.09,0.26-0.19,0.39-0.28c0.54-0.38,1.06-0.77,1.56-1.16c0.09-0.07,0.19-0.15,0.28-0.22c0.04-0.03,0.08-0.06,0.12-0.09v0.36
		c-0.01,0.14-0.03,0.27-0.03,0.41c0,0.12,0.01,0.24,0.03,0.38v31.43c-0.03,0.05-0.06,0.09-0.09,0.14c-0.07,0.12-0.15,0.23-0.22,0.35
		c-0.08,0.13-0.17,0.26-0.25,0.39c-0.08,0.12-0.17,0.25-0.25,0.37c-0.09,0.13-0.19,0.27-0.29,0.41c-0.09,0.13-0.19,0.26-0.29,0.39
		c-0.1,0.14-0.21,0.28-0.32,0.42c-0.1,0.13-0.21,0.27-0.32,0.4c-0.12,0.15-0.24,0.29-0.37,0.44c-0.11,0.14-0.23,0.27-0.35,0.41
		c-0.13,0.15-0.27,0.3-0.41,0.46c-0.13,0.14-0.25,0.28-0.39,0.42c-0.15,0.16-0.3,0.31-0.45,0.47c-0.14,0.14-0.28,0.28-0.42,0.43
		c-0.16,0.16-0.33,0.32-0.51,0.49c-0.15,0.14-0.3,0.29-0.45,0.43c-0.18,0.17-0.38,0.34-0.57,0.5c-0.16,0.14-0.31,0.28-0.48,0.42
		c-0.21,0.18-0.43,0.35-0.64,0.53c-0.17,0.13-0.32,0.27-0.5,0.4c-0.24,0.19-0.5,0.38-0.76,0.58c-0.16,0.12-0.31,0.24-0.48,0.36
		c-0.35,0.26-0.72,0.51-1.09,0.77c-0.08,0.06-0.16,0.11-0.24,0.17c-0.46,0.31-0.94,0.62-1.43,0.92c-0.17,0.1-0.35,0.21-0.52,0.31
		c-0.34,0.2-0.67,0.41-1.02,0.61c-0.21,0.12-0.44,0.24-0.66,0.36c-0.33,0.18-0.65,0.36-0.99,0.54c-0.24,0.13-0.5,0.25-0.75,0.38
		c-0.33,0.17-0.67,0.34-1.02,0.5c-0.27,0.13-0.55,0.25-0.83,0.38c-0.35,0.16-0.69,0.32-1.06,0.48c-0.29,0.13-0.6,0.25-0.9,0.38
		c-0.37,0.15-0.73,0.31-1.11,0.46c-0.31,0.12-0.64,0.24-0.96,0.37c-0.39,0.15-0.77,0.29-1.17,0.43c-0.33,0.12-0.68,0.24-1.02,0.35
		c-0.41,0.14-0.82,0.28-1.24,0.41c-0.35,0.11-0.72,0.23-1.08,0.34c-0.43,0.13-0.86,0.26-1.31,0.39c-0.38,0.11-0.76,0.21-1.14,0.32
		c-0.45,0.12-0.91,0.24-1.38,0.36c-0.4,0.1-0.8,0.2-1.21,0.3c-0.48,0.11-0.96,0.22-1.45,0.33c-0.42,0.09-0.84,0.19-1.27,0.27
		c-0.5,0.1-1.02,0.2-1.53,0.3c-0.44,0.08-0.88,0.17-1.34,0.25c-0.53,0.09-1.08,0.18-1.62,0.27c-0.46,0.07-0.92,0.15-1.39,0.22
		c-0.56,0.08-1.14,0.16-1.72,0.24c-0.48,0.06-0.95,0.13-1.44,0.19c-0.6,0.07-1.22,0.14-1.84,0.2c-0.49,0.05-0.98,0.11-1.48,0.16
		c-0.65,0.06-1.32,0.11-1.98,0.17c-0.5,0.04-0.99,0.08-1.49,0.12c-0.71,0.05-1.45,0.09-2.18,0.13c-0.49,0.03-0.96,0.06-1.46,0.08
		c-0.82,0.04-1.67,0.06-2.52,0.09c-0.43,0.01-0.85,0.03-1.28,0.04c-1.3,0.03-2.62,0.05-3.97,0.05c-1.34,0-2.65-0.02-3.94-0.05
		c-0.43-0.01-0.85-0.03-1.28-0.04c-0.84-0.03-1.68-0.05-2.5-0.09c-0.49-0.02-0.96-0.06-1.45-0.08c-0.73-0.04-1.46-0.08-2.16-0.13
		c-0.5-0.04-0.99-0.08-1.48-0.12c-0.66-0.05-1.33-0.11-1.97-0.17c-0.5-0.05-0.98-0.1-1.46-0.16c-0.62-0.07-1.24-0.13-1.84-0.21
		c-0.48-0.06-0.95-0.13-1.42-0.19c-0.58-0.08-1.17-0.16-1.73-0.25c-0.46-0.07-0.91-0.15-1.36-0.22c-0.55-0.09-1.1-0.18-1.64-0.28
		c-0.44-0.08-0.88-0.16-1.31-0.25c-0.52-0.1-1.04-0.2-1.55-0.31c-0.42-0.09-0.84-0.18-1.25-0.27c-0.5-0.11-0.99-0.23-1.47-0.34
		c-0.4-0.1-0.79-0.2-1.18-0.3c-0.47-0.12-0.94-0.25-1.4-0.37c-0.38-0.1-0.75-0.21-1.12-0.32c-0.45-0.13-0.89-0.26-1.33-0.4
		c-0.35-0.11-0.71-0.22-1.05-0.33c-0.43-0.14-0.85-0.28-1.27-0.43c-0.33-0.11-0.66-0.23-0.98-0.35c-0.41-0.15-0.81-0.3-1.21-0.46
		c-0.31-0.12-0.62-0.24-0.92-0.36c-0.4-0.16-0.78-0.32-1.16-0.48c-0.28-0.12-0.57-0.24-0.84-0.36c-0.38-0.17-0.75-0.34-1.12-0.51
		c-0.26-0.12-0.52-0.24-0.77-0.36c-0.37-0.18-0.73-0.36-1.09-0.55c-0.23-0.12-0.46-0.23-0.68-0.35c-0.38-0.2-0.74-0.4-1.1-0.6
		c-0.19-0.1-0.38-0.21-0.56-0.31c-0.41-0.24-0.81-0.48-1.2-0.72c-0.11-0.07-0.23-0.14-0.35-0.21c-0.5-0.31-0.99-0.63-1.46-0.95
		c0,0,0,0,0,0c-0.46-0.31-0.91-0.63-1.34-0.94c-0.13-0.09-0.24-0.18-0.37-0.28c-0.3-0.22-0.6-0.45-0.88-0.67
		c-0.15-0.12-0.28-0.23-0.43-0.35c-0.25-0.2-0.49-0.4-0.73-0.6c-0.15-0.13-0.29-0.25-0.43-0.38c-0.21-0.19-0.43-0.38-0.63-0.56
		c-0.14-0.13-0.28-0.26-0.41-0.39c-0.19-0.18-0.38-0.36-0.56-0.54c-0.13-0.13-0.26-0.26-0.39-0.39c-0.17-0.17-0.34-0.35-0.5-0.52
		c-0.12-0.13-0.24-0.26-0.36-0.39c-0.15-0.17-0.31-0.34-0.45-0.51c-0.11-0.13-0.22-0.25-0.33-0.38c-0.14-0.16-0.28-0.33-0.41-0.49
		c-0.1-0.12-0.2-0.25-0.3-0.37c-0.12-0.16-0.25-0.31-0.36-0.47c-0.09-0.12-0.18-0.24-0.27-0.36c-0.11-0.15-0.22-0.3-0.32-0.45
		c-0.08-0.11-0.16-0.23-0.24-0.34c-0.1-0.15-0.2-0.29-0.29-0.43c-0.07-0.11-0.14-0.21-0.21-0.32c-0.03-0.05-0.07-0.11-0.1-0.16V91.8
		c0.04,0.03,0.09,0.07,0.13,0.1C18.11,91.96,18.19,92.02,18.27,92.08z"/>
	<linearGradient id="SVGID_2_" gradientUnits="userSpaceOnUse" x1="209.0274" y1="-101.171" x2="214.9615" y2="513.5983">
		<stop  offset="0" style="stop-color:#03E5FF"/>
		<stop  offset="1" style="stop-color:#5D33E9"/>
	</linearGradient>
	<path class="st1" d="M277.39,182c-33.22,0-60.24-29.21-60.24-65.11c0-2.95-2.39-5.34-5.34-5.34c-2.95,0-5.34,2.39-5.34,5.34
		c0,35.9-27.03,65.11-60.24,65.11c-2.95,0-5.34,2.39-5.34,5.34s2.39,5.34,5.34,5.34c33.22,0,60.24,29.21,60.24,65.11
		c0,2.95,2.39,5.34,5.34,5.34c2.95,0,5.34-2.39,5.34-5.34c0-35.9,27.03-65.11,60.24-65.11c2.95,0,5.34-2.39,5.34-5.34
		S280.34,182,277.39,182z"/>
	<linearGradient id="SVGID_3_" gradientUnits="userSpaceOnUse" x1="187.7682" y1="-100.9658" x2="193.7023" y2="513.8035">
		<stop  offset="0" style="stop-color:#03E5FF"/>
		<stop  offset="1" style="stop-color:#5D33E9"/>
	</linearGradient>
	<path class="st2" d="M173.58,71.66c6.59,0,11.95,5.88,11.95,13.12c0,2.14,1.73,3.87,3.87,3.87c2.14,0,3.87-1.73,3.87-3.87
		c0-7.23,5.36-13.12,11.95-13.12c2.14,0,3.87-1.73,3.87-3.87c0-2.14-1.73-3.87-3.87-3.87c-6.59,0-11.95-5.88-11.95-13.12
		c0-2.14-1.73-3.87-3.87-3.87c-2.14,0-3.87,1.73-3.87,3.87c0,7.23-5.36,13.12-11.95,13.12c-2.14,0-3.87,1.73-3.87,3.87
		C169.72,69.93,171.45,71.66,173.58,71.66z"/>
	<linearGradient id="SVGID_4_" gradientUnits="userSpaceOnUse" x1="270.4707" y1="-101.7641" x2="276.4048" y2="513.0052">
		<stop  offset="0" style="stop-color:#03E5FF"/>
		<stop  offset="1" style="stop-color:#5D33E9"/>
	</linearGradient>
	<path class="st3" d="M288.47,120.49c-6.59,0-11.95-5.88-11.95-13.12c0-2.14-1.73-3.87-3.87-3.87c-2.14,0-3.87,1.73-3.87,3.87
		c0,7.23-5.36,13.12-11.95,13.12c-2.14,0-3.87,1.73-3.87,3.87c0,2.14,1.73,3.87,3.87,3.87c6.59,0,11.95,5.88,11.95,13.12
		c0,2.14,1.73,3.87,3.87,3.87c2.14,0,3.87-1.73,3.87-3.87c0-7.23,5.36-13.12,11.95-13.12c2.14,0,3.87-1.73,3.87-3.87
		C292.34,122.22,290.6,120.49,288.47,120.49z"/>
</g>
</svg>
