<?xml version="1.0" encoding="utf-8"?>
<!-- Generator: Adobe Illustrator 24.1.3, SVG Export Plug-In . SVG Version: 6.00 Build 0)  -->
<svg version="1.1" id="auto-scaling" xmlns="http://www.w3.org/2000/svg" xmlns:xlink="http://www.w3.org/1999/xlink" x="0px"
	 y="0px" viewBox="0 0 300 300" style="enable-background:new 0 0 300 300;" xml:space="preserve">
<style type="text/css">
	.st0{fill:url(#SVGID_1_);}
	.st1{fill:url(#SVGID_2_);}
	.st2{fill:url(#SVGID_3_);}
	.st3{fill:url(#SVGID_4_);}
	.st4{fill:url(#SVGID_5_);}
</style>
<g>
	<linearGradient id="SVGID_1_" gradientUnits="userSpaceOnUse" x1="128.2679" y1="-38.9777" x2="180.3774" y2="405.4005">
		<stop  offset="5.990416e-07" style="stop-color:#FF7DFF"/>
		<stop  offset="1" style="stop-color:#FF2A7D"/>
	</linearGradient>
	<path class="st0" d="M200.54,126.04c-0.02-0.14-0.04-0.28-0.08-0.42c-0.04-0.14-0.08-0.28-0.13-0.42c-0.05-0.14-0.1-0.28-0.16-0.41
		c-0.06-0.13-0.13-0.26-0.21-0.38c-0.07-0.13-0.15-0.25-0.23-0.37c-0.09-0.12-0.19-0.23-0.29-0.35c-0.1-0.11-0.2-0.22-0.3-0.32
		c-0.1-0.1-0.22-0.19-0.33-0.27c-0.13-0.1-0.26-0.19-0.4-0.28c-0.06-0.03-0.1-0.08-0.16-0.11l-44.76-24.7
		c-0.01-0.01-0.03-0.01-0.04-0.02c-0.16-0.09-0.34-0.15-0.51-0.22c-0.11-0.04-0.22-0.1-0.33-0.13c-0.14-0.04-0.29-0.06-0.43-0.09
		c-0.14-0.03-0.29-0.07-0.43-0.09c-0.17-0.02-0.33,0-0.5,0c-0.12,0-0.25-0.01-0.37,0c-0.17,0.01-0.33,0.06-0.49,0.09
		c-0.12,0.03-0.25,0.04-0.37,0.07c-0.12,0.04-0.24,0.09-0.35,0.14c-0.16,0.06-0.33,0.12-0.49,0.2c-0.01,0.01-0.03,0.01-0.05,0.02
		l-45.8,24.7c-0.06,0.03-0.11,0.08-0.18,0.12c-0.14,0.08-0.27,0.17-0.4,0.27c-0.12,0.09-0.23,0.18-0.33,0.28
		c-0.11,0.1-0.21,0.2-0.31,0.31c-0.1,0.11-0.2,0.22-0.28,0.34c-0.09,0.12-0.16,0.24-0.24,0.37c-0.07,0.13-0.15,0.25-0.21,0.38
		c-0.06,0.14-0.12,0.27-0.17,0.42c-0.05,0.14-0.09,0.28-0.13,0.42c-0.04,0.14-0.06,0.28-0.08,0.43c-0.02,0.16-0.04,0.32-0.05,0.48
		c0,0.07-0.02,0.14-0.02,0.21v52.07c0,0.01,0,0.01,0,0.02v0.06c0,0.09,0.02,0.18,0.03,0.27c0.01,0.2,0.02,0.4,0.06,0.59
		c0.03,0.15,0.08,0.28,0.12,0.42c0.04,0.14,0.08,0.29,0.13,0.42c0.06,0.14,0.14,0.27,0.21,0.41c0.07,0.13,0.13,0.25,0.2,0.37
		c0.08,0.12,0.18,0.23,0.27,0.34c0.09,0.12,0.18,0.24,0.29,0.35c0.11,0.11,0.23,0.2,0.35,0.3c0.11,0.09,0.21,0.19,0.33,0.27
		c0.17,0.12,0.36,0.21,0.54,0.31c0.08,0.04,0.14,0.09,0.22,0.12l0.05,0.02c0.01,0,0.01,0.01,0.02,0.01l45.73,20.09
		c0.6,0.26,1.22,0.39,1.84,0.39c0.17,0,0.34-0.02,0.51-0.04c0.18,0.02,0.36,0.04,0.54,0.04c0.71,0,1.44-0.17,2.12-0.52l43.72-22.87
		c0.07-0.04,0.13-0.09,0.2-0.13c0.14-0.08,0.28-0.17,0.41-0.27c0.12-0.09,0.23-0.18,0.33-0.28c0.11-0.1,0.21-0.2,0.31-0.31
		c0.1-0.11,0.19-0.22,0.28-0.34c0.09-0.12,0.17-0.24,0.25-0.36c0.07-0.12,0.14-0.25,0.21-0.38c0.07-0.14,0.12-0.27,0.18-0.42
		c0.05-0.14,0.09-0.28,0.13-0.42c0.04-0.14,0.07-0.28,0.09-0.43c0.03-0.16,0.04-0.32,0.05-0.48c0-0.08,0.02-0.15,0.02-0.23v-49.4
		c0-0.06-0.02-0.13-0.02-0.19C200.58,126.36,200.57,126.2,200.54,126.04z M151.25,107.22l35.81,19.76l-35.99,17.9l-35.95-18.17
		L151.25,107.22z M110.05,134.4l36.65,18.53v39.04l-36.65-16.1V134.4z M155.85,152.72l35.61-17.71v38.33l-35.61,18.63V152.72z"/>
	<linearGradient id="SVGID_2_" gradientUnits="userSpaceOnUse" x1="116.3935" y1="-37.5853" x2="168.503" y2="406.7929">
		<stop  offset="5.990416e-07" style="stop-color:#FF7DFF"/>
		<stop  offset="1" style="stop-color:#FF2A7D"/>
	</linearGradient>
	<path class="st1" d="M181.31,259.7l-24.5,20.02v-53.83c0-2.53-2.05-4.57-4.57-4.57c-2.53,0-4.57,2.05-4.57,4.57v53.85l-25.76-21.04
		c-1.96-1.6-4.84-1.31-6.44,0.65c-1.6,1.96-1.31,4.84,0.65,6.44l31.98,26.13c0.21,0.18,0.44,0.33,0.67,0.46
		c0.47,0.54,1.04,0.95,1.67,1.21c0.01,0.01,0.03,0.01,0.04,0.02c0.27,0.11,0.54,0.2,0.82,0.25c0.02,0,0.03,0,0.05,0.01
		c0.29,0.06,0.58,0.09,0.88,0.09c0,0,0,0,0,0c0,0,0,0,0,0c0.01,0,0.03,0,0.04,0c0.26,0,0.53-0.03,0.79-0.08
		c0.12-0.02,0.24-0.06,0.36-0.09c0.15-0.04,0.29-0.08,0.43-0.13c0.14-0.05,0.27-0.12,0.41-0.18c0.11-0.05,0.21-0.11,0.32-0.17
		c0.15-0.09,0.29-0.18,0.42-0.29c0.04-0.03,0.08-0.05,0.12-0.08l31.98-26.13c1.96-1.6,2.25-4.48,0.65-6.44
		C186.15,258.39,183.27,258.1,181.31,259.7z"/>
	<linearGradient id="SVGID_3_" gradientUnits="userSpaceOnUse" x1="142.4403" y1="-40.6396" x2="194.5498" y2="403.7386">
		<stop  offset="5.990416e-07" style="stop-color:#FF7DFF"/>
		<stop  offset="1" style="stop-color:#FF2A7D"/>
	</linearGradient>
	<path class="st2" d="M119.02,42.63c1.02,0,2.04-0.34,2.89-1.03l25.76-21.04V74.4c0,2.53,2.05,4.57,4.57,4.57
		c2.53,0,4.57-2.05,4.57-4.57V20.58l24.5,20.02c0.85,0.69,1.87,1.03,2.89,1.03c1.33,0,2.64-0.57,3.54-1.68
		c1.6-1.96,1.31-4.84-0.65-6.44L155.12,7.38c-0.03-0.03-0.07-0.04-0.1-0.07c-0.17-0.13-0.34-0.24-0.52-0.35
		c-0.09-0.05-0.18-0.1-0.27-0.15c-0.16-0.08-0.33-0.14-0.51-0.2c-0.12-0.04-0.24-0.08-0.36-0.11c-0.15-0.04-0.31-0.07-0.46-0.09
		c-0.15-0.02-0.3-0.04-0.45-0.05c-0.07,0-0.13-0.02-0.2-0.02c-0.08,0-0.15,0.02-0.22,0.02c-0.17,0.01-0.33,0.02-0.49,0.05
		c-0.13,0.02-0.26,0.05-0.39,0.08c-0.16,0.04-0.33,0.09-0.49,0.15c-0.11,0.04-0.23,0.09-0.33,0.14c-0.17,0.08-0.32,0.16-0.48,0.26
		c-0.09,0.06-0.18,0.11-0.27,0.18c-0.15,0.11-0.3,0.23-0.44,0.36c-0.08,0.07-0.15,0.15-0.22,0.22c-0.04,0.05-0.09,0.09-0.13,0.13
		c-0.23,0.13-0.45,0.27-0.67,0.44l-31.98,26.13c-1.96,1.6-2.25,4.48-0.65,6.44C116.37,42.06,117.69,42.63,119.02,42.63z"/>
	<linearGradient id="SVGID_4_" gradientUnits="userSpaceOnUse" x1="230.2239" y1="-50.9335" x2="282.3334" y2="393.4447">
		<stop  offset="5.990416e-07" style="stop-color:#FF7DFF"/>
		<stop  offset="1" style="stop-color:#FF2A7D"/>
	</linearGradient>
	<path class="st3" d="M284.43,136.14h-53.84l21.04-25.76c1.6-1.96,1.31-4.84-0.65-6.44c-1.96-1.6-4.84-1.31-6.44,0.65l-26.13,31.98
		c-0.17,0.21-0.31,0.44-0.44,0.67c-0.05,0.04-0.09,0.09-0.14,0.14c-0.08,0.07-0.15,0.15-0.22,0.22c-0.13,0.14-0.25,0.29-0.37,0.44
		c-0.06,0.09-0.12,0.17-0.17,0.26c-0.1,0.16-0.19,0.32-0.26,0.49c-0.05,0.11-0.09,0.22-0.13,0.33c-0.06,0.16-0.11,0.33-0.15,0.49
		c-0.03,0.13-0.06,0.25-0.08,0.38c-0.03,0.17-0.04,0.33-0.05,0.5c0,0.07-0.02,0.14-0.02,0.22c0,0.07,0.02,0.13,0.02,0.2
		c0.01,0.15,0.02,0.31,0.05,0.46c0.02,0.16,0.05,0.31,0.09,0.46c0.03,0.12,0.07,0.24,0.11,0.36c0.06,0.17,0.13,0.34,0.2,0.51
		c0.04,0.09,0.1,0.18,0.15,0.27c0.1,0.18,0.22,0.36,0.35,0.52c0.03,0.03,0.04,0.07,0.07,0.1l26.13,31.98
		c0.9,1.11,2.22,1.68,3.54,1.68c1.02,0,2.04-0.34,2.89-1.03c1.96-1.6,2.25-4.48,0.65-6.44l-20.02-24.5h53.83
		c2.53,0,4.57-2.05,4.57-4.57S286.95,136.14,284.43,136.14z"/>
	<linearGradient id="SVGID_5_" gradientUnits="userSpaceOnUse" x1="27.184" y1="-27.1242" x2="79.2935" y2="417.254">
		<stop  offset="5.990416e-07" style="stop-color:#FF7DFF"/>
		<stop  offset="1" style="stop-color:#FF2A7D"/>
	</linearGradient>
	<path class="st4" d="M83.16,140.49c-0.01-0.17-0.02-0.33-0.05-0.5c-0.02-0.13-0.04-0.26-0.08-0.38c-0.04-0.17-0.09-0.33-0.15-0.49
		c-0.04-0.11-0.08-0.22-0.13-0.33c-0.08-0.17-0.17-0.33-0.26-0.49c-0.06-0.09-0.11-0.18-0.17-0.26c-0.11-0.15-0.23-0.3-0.37-0.44
		c-0.07-0.08-0.15-0.15-0.22-0.22c-0.05-0.04-0.09-0.09-0.14-0.14c-0.13-0.23-0.27-0.45-0.44-0.67l-26.13-31.98
		c-1.6-1.96-4.48-2.25-6.44-0.65c-1.96,1.6-2.25,4.48-0.65,6.44l21.04,25.76H15.13c-2.53,0-4.57,2.05-4.57,4.57s2.05,4.57,4.57,4.57
		h53.83l-20.02,24.5c-1.6,1.96-1.31,4.84,0.65,6.44c0.85,0.69,1.87,1.03,2.89,1.03c1.33,0,2.64-0.57,3.54-1.68l26.13-31.98
		c0.03-0.03,0.04-0.07,0.07-0.1c0.13-0.17,0.24-0.34,0.35-0.52c0.05-0.09,0.1-0.18,0.15-0.27c0.08-0.16,0.14-0.33,0.2-0.51
		c0.04-0.12,0.08-0.24,0.11-0.36c0.04-0.15,0.06-0.3,0.09-0.46c0.02-0.15,0.04-0.31,0.05-0.46c0-0.07,0.02-0.13,0.02-0.2
		C83.19,140.64,83.17,140.57,83.16,140.49z"/>
</g>
</svg>
