<?xml version="1.0" encoding="utf-8"?>
<!-- Generator: Adobe Illustrator 24.1.3, SVG Export Plug-In . SVG Version: 6.00 Build 0)  -->
<svg version="1.1" id="certificate-manager" xmlns="http://www.w3.org/2000/svg" xmlns:xlink="http://www.w3.org/1999/xlink"
	 x="0px" y="0px" viewBox="0 0 300 300" style="enable-background:new 0 0 300 300;" xml:space="preserve">
<style type="text/css">
	.st0{fill:url(#SVGID_1_);}
	.st1{fill:url(#SVGID_2_);}
	.st2{fill:url(#SVGID_3_);}
	.st3{fill:url(#SVGID_4_);}
	.st4{fill:url(#SVGID_5_);}
	.st5{fill:url(#SVGID_6_);}
</style>
<g>
	<linearGradient id="SVGID_1_" gradientUnits="userSpaceOnUse" x1="156.4057" y1="-132.2936" x2="137.5218" y2="685.1096">
		<stop  offset="2.396167e-07" style="stop-color:#FFA694"/>
		<stop  offset="1" style="stop-color:#BF0020"/>
	</linearGradient>
	<path class="st0" d="M254.02,32.52H45.54c-19.84,0-35.98,17.43-35.98,38.86v18.25V237.7c0,16.58,12.53,30.08,27.93,30.08h166.76
		c2.35,0,4.26-1.91,4.26-4.26c0-2.35-1.91-4.26-4.26-4.26H37.49c-10.7,0-19.4-9.67-19.4-21.55V93.89h263.39V237.7
		c0,11.88-8.7,21.55-19.4,21.55h-6.19c-2.35,0-4.26,1.91-4.26,4.26c0,2.35,1.91,4.26,4.26,4.26h6.19c15.4,0,27.93-13.49,27.93-30.08
		V89.63V71.38C290,49.95,273.86,32.52,254.02,32.52z M281.48,85.36H18.08V71.38c0-16.73,12.32-30.34,27.46-30.34h208.48
		c15.14,0,27.46,13.61,27.46,30.34V85.36z"/>
	<linearGradient id="SVGID_2_" gradientUnits="userSpaceOnUse" x1="158.1669" y1="-132.2529" x2="139.283" y2="685.1502">
		<stop  offset="2.396167e-07" style="stop-color:#FFA694"/>
		<stop  offset="1" style="stop-color:#BF0020"/>
	</linearGradient>
	<path class="st1" d="M187.36,136.31c-0.96-2.94-3.67-4.92-6.77-4.92h-16.74l-5.17-15.92c-0.96-2.94-3.68-4.92-6.77-4.92
		s-5.81,1.98-6.77,4.92l-5.17,15.92h-16.74c-3.09,0-5.81,1.98-6.77,4.92c-0.96,2.94,0.08,6.14,2.58,7.96l13.54,9.84l-5.17,15.92
		c-0.96,2.94,0.08,6.14,2.58,7.95c2.5,1.82,5.86,1.82,8.36,0l13.54-9.84l13.54,9.84c1.25,0.91,2.72,1.36,4.18,1.36
		c1.47,0,2.93-0.45,4.18-1.36c2.5-1.82,3.54-5.01,2.58-7.95l-5.17-15.92l13.54-9.84C187.28,142.45,188.31,139.25,187.36,136.31z
		 M165.39,147.81c-2.5,1.82-3.54,5.01-2.59,7.95l4.15,12.77l-10.86-7.89c-2.5-1.82-5.86-1.82-8.36,0l-10.86,7.89l4.15-12.77
		c0.95-2.94-0.08-6.14-2.59-7.95l-10.86-7.89H141c3.09,0,5.81-1.98,6.77-4.92l4.15-12.77l4.15,12.77c0.96,2.94,3.68,4.92,6.77,4.92
		h13.43L165.39,147.81z"/>
	<linearGradient id="SVGID_3_" gradientUnits="userSpaceOnUse" x1="184.5504" y1="-131.6434" x2="165.6665" y2="685.7598">
		<stop  offset="2.396167e-07" style="stop-color:#FFA694"/>
		<stop  offset="1" style="stop-color:#BF0020"/>
	</linearGradient>
	<path class="st2" d="M235.47,197.03H118.25c-2.35,0-4.26,1.91-4.26,4.26s1.91,4.26,4.26,4.26h117.21c2.35,0,4.26-1.91,4.26-4.26
		S237.82,197.03,235.47,197.03z"/>
	<linearGradient id="SVGID_4_" gradientUnits="userSpaceOnUse" x1="87.9457" y1="-133.8751" x2="69.0618" y2="683.528">
		<stop  offset="2.396167e-07" style="stop-color:#FFA694"/>
		<stop  offset="1" style="stop-color:#BF0020"/>
	</linearGradient>
	<path class="st3" d="M95.65,197.42H64.73c-2.35,0-4.26,1.91-4.26,4.26c0,2.35,1.91,4.26,4.26,4.26h30.92
		c2.35,0,4.26-1.91,4.26-4.26C99.92,199.33,98.01,197.42,95.65,197.42z"/>
	<linearGradient id="SVGID_5_" gradientUnits="userSpaceOnUse" x1="160.3657" y1="-132.2021" x2="141.4818" y2="685.201">
		<stop  offset="2.396167e-07" style="stop-color:#FFA694"/>
		<stop  offset="1" style="stop-color:#BF0020"/>
	</linearGradient>
	<path class="st4" d="M118.25,220.04c-2.35,0-4.26,1.91-4.26,4.26s1.91,4.26,4.26,4.26h67.76c2.35,0,4.26-1.91,4.26-4.26
		s-1.91-4.26-4.26-4.26H118.25z"/>
	<linearGradient id="SVGID_6_" gradientUnits="userSpaceOnUse" x1="88.4771" y1="-133.8629" x2="69.5932" y2="683.5402">
		<stop  offset="2.396167e-07" style="stop-color:#FFA694"/>
		<stop  offset="1" style="stop-color:#BF0020"/>
	</linearGradient>
	<path class="st5" d="M95.65,220.44H64.73c-2.35,0-4.26,1.91-4.26,4.26c0,2.35,1.91,4.26,4.26,4.26h30.92
		c2.35,0,4.26-1.91,4.26-4.26C99.92,222.34,98.01,220.44,95.65,220.44z"/>
</g>
</svg>
