<?xml version="1.0" encoding="utf-8"?>
<!-- Generator: Adobe Illustrator 24.1.3, SVG Export Plug-In . SVG Version: 6.00 Build 0)  -->
<svg version="1.1" id="compute" xmlns="http://www.w3.org/2000/svg" xmlns:xlink="http://www.w3.org/1999/xlink" x="0px" y="0px"
	 viewBox="0 0 300 300" style="enable-background:new 0 0 300 300;" xml:space="preserve">
<style type="text/css">
	.st0{fill:url(#SVGID_1_);}
	.st1{fill:url(#SVGID_2_);}
</style>
<g>
	<linearGradient id="SVGID_1_" gradientUnits="userSpaceOnUse" x1="147.6556" y1="-23.5732" x2="157.9029" y2="583.9456">
		<stop  offset="0" style="stop-color:#FFC14D"/>
		<stop  offset="1" style="stop-color:#FF576A"/>
	</linearGradient>
	<path class="st0" d="M186.44,83.49h-71.76c-16.06,0-29.13,13.07-29.13,29.13v71.76c0,16.06,13.07,29.13,29.13,29.13h71.76
		c16.06,0,29.13-13.07,29.13-29.13v-71.76C215.57,96.56,202.5,83.49,186.44,83.49z M206.32,184.39c0,10.96-8.92,19.88-19.88,19.88
		h-71.76c-10.96,0-19.88-8.92-19.88-19.88v-71.76c0-10.96,8.92-19.88,19.88-19.88h71.76c10.96,0,19.88,8.92,19.88,19.88V184.39z"/>
	<linearGradient id="SVGID_2_" gradientUnits="userSpaceOnUse" x1="146.8739" y1="-23.56" x2="157.1212" y2="583.9588">
		<stop  offset="0" style="stop-color:#FFC14D"/>
		<stop  offset="1" style="stop-color:#FF576A"/>
	</linearGradient>
	<path class="st1" d="M287.62,123.55c2.55,0,4.63-2.07,4.63-4.63c0-2.55-2.07-4.63-4.63-4.63h-18.96V93.72h18.96
		c2.55,0,4.63-2.07,4.63-4.63s-2.07-4.63-4.63-4.63h-18.96V59.52c0-16.09-13.09-29.17-29.17-29.17h-25.41V10.92
		c0-2.55-2.07-4.63-4.63-4.63s-4.63,2.07-4.63,4.63v19.43h-20.58V10.92c0-2.55-2.07-4.63-4.63-4.63c-2.55,0-4.63,2.07-4.63,4.63
		v19.43h-20.58V10.92c0-2.55-2.07-4.63-4.63-4.63s-4.63,2.07-4.63,4.63v19.43h-20.58V10.92c0-2.55-2.07-4.63-4.63-4.63
		c-2.55,0-4.63,2.07-4.63,4.63v19.43H94.74V10.92c0-2.55-2.07-4.63-4.63-4.63c-2.55,0-4.63,2.07-4.63,4.63v19.43H61
		c-16.08,0-29.17,13.09-29.17,29.17v24.95H11.94c-2.55,0-4.63,2.07-4.63,4.63s2.07,4.63,4.63,4.63h19.89v20.58H11.94
		c-2.55,0-4.63,2.07-4.63,4.63c0,2.55,2.07,4.63,4.63,4.63h19.89v20.58H11.94c-2.55,0-4.63,2.07-4.63,4.63
		c0,2.55,2.07,4.63,4.63,4.63h19.89v20.58H11.94c-2.55,0-4.63,2.07-4.63,4.63c0,2.55,2.07,4.63,4.63,4.63h19.89v20.58H11.94
		c-2.55,0-4.63,2.07-4.63,4.63s2.07,4.63,4.63,4.63h19.89V238c0,16.09,13.09,29.17,29.17,29.17h24.48v22.2
		c0,2.55,2.07,4.63,4.63,4.63c2.55,0,4.63-2.07,4.63-4.63v-22.2h20.58v22.2c0,2.55,2.07,4.63,4.63,4.63c2.55,0,4.63-2.07,4.63-4.63
		v-22.2h20.58v22.2c0,2.55,2.07,4.63,4.63,4.63s4.63-2.07,4.63-4.63v-22.2h20.58v22.2c0,2.55,2.07,4.63,4.63,4.63
		c2.55,0,4.63-2.07,4.63-4.63v-22.2h20.58v22.2c0,2.55,2.07,4.63,4.63,4.63s4.63-2.07,4.63-4.63v-22.2h25.41
		c16.09,0,29.17-13.09,29.17-29.17v-24.95h18.96c2.55,0,4.63-2.07,4.63-4.63s-2.07-4.63-4.63-4.63h-18.96v-20.58h18.96
		c2.55,0,4.63-2.07,4.63-4.63c0-2.55-2.07-4.63-4.63-4.63h-18.96v-20.58h18.96c2.55,0,4.63-2.07,4.63-4.63
		c0-2.55-2.07-4.63-4.63-4.63h-18.96v-20.58H287.62z M259.41,210.41V238c0,10.98-8.94,19.92-19.92,19.92H61
		c-10.98,0-19.92-8.94-19.92-19.92V59.52c0-10.98,8.94-19.92,19.92-19.92h178.48c10.98,0,19.92,8.94,19.92,19.92v27.59
		 M259.41,180.58v25.87 M259.41,150.74v25.87 M259.41,120.91v25.87 M259.41,91.07v25.87"/>
</g>
</svg>
