<?xml version="1.0" encoding="utf-8"?>
<!-- Generator: Adobe Illustrator 24.1.3, SVG Export Plug-In . SVG Version: 6.00 Build 0)  -->
<svg version="1.1" id="database" xmlns="http://www.w3.org/2000/svg" xmlns:xlink="http://www.w3.org/1999/xlink" x="0px" y="0px"
	 viewBox="0 0 300 300" style="enable-background:new 0 0 300 300;" xml:space="preserve">
<style type="text/css">
	.st0{fill:url(#SVGID_1_);}
	.st1{fill:url(#SVGID_2_);}
	.st2{fill:url(#SVGID_3_);}
	.st3{fill:url(#SVGID_4_);}
	.st4{fill:url(#SVGID_5_);}
	.st5{fill:url(#SVGID_6_);}
	.st6{fill:url(#SVGID_7_);}
</style>
<g>
	<linearGradient id="SVGID_1_" gradientUnits="userSpaceOnUse" x1="200.8539" y1="-94.2011" x2="75.291" y2="475.3163">
		<stop  offset="0" style="stop-color:#03E5FF"/>
		<stop  offset="1" style="stop-color:#5D33E9"/>
	</linearGradient>
	<path class="st0" d="M216.29,85.42c-0.01-0.04-0.01-0.08-0.02-0.13c-0.09-0.42-0.2-0.83-0.33-1.24c-0.05-0.16-0.09-0.32-0.15-0.48
		c-0.09-0.26-0.2-0.52-0.3-0.78c-0.13-0.32-0.27-0.65-0.42-0.96c-0.04-0.08-0.08-0.15-0.12-0.23
		c-7.16-14.23-37.09-21.64-66.37-21.64c-29.28,0-59.2,7.41-66.37,21.64c-0.04,0.08-0.08,0.15-0.12,0.23
		c-0.15,0.32-0.29,0.64-0.42,0.97c-0.11,0.26-0.21,0.52-0.3,0.78c-0.05,0.16-0.1,0.32-0.15,0.48c-0.13,0.41-0.24,0.81-0.33,1.23
		c-0.01,0.05-0.02,0.09-0.02,0.14c-0.1,0.51-0.18,1.02-0.23,1.54c0,0,0,0,0,0c-0.05,0.27-0.08,0.56-0.08,0.84v41.65v34.69v34.34
		c0,0.58,0.11,1.14,0.31,1.65c3.54,16.66,36.42,25.37,67.7,25.37c31.24,0,64.07-8.69,67.69-25.3c0.21-0.53,0.32-1.12,0.32-1.72
		v-34.14v-34.69V87.81c0-0.28-0.03-0.56-0.07-0.83C216.48,86.45,216.4,85.93,216.29,85.42z M206.69,163.41
		c-0.07,0.08-0.15,0.17-0.22,0.26c-0.1,0.12-0.2,0.23-0.31,0.35c-0.08,0.09-0.17,0.18-0.26,0.28c-0.11,0.12-0.22,0.24-0.34,0.36
		c-0.09,0.1-0.19,0.19-0.29,0.29c-0.12,0.12-0.25,0.25-0.38,0.37c-0.1,0.1-0.22,0.2-0.32,0.3c-0.13,0.13-0.27,0.25-0.41,0.38
		c-0.12,0.1-0.24,0.21-0.36,0.31c-0.15,0.13-0.3,0.26-0.45,0.38c-0.13,0.11-0.26,0.21-0.4,0.32c-0.16,0.13-0.33,0.26-0.5,0.39
		c-0.14,0.11-0.29,0.22-0.44,0.33c-0.18,0.13-0.36,0.26-0.54,0.39c-0.15,0.11-0.31,0.22-0.47,0.33c-0.19,0.13-0.39,0.27-0.6,0.4
		c-0.17,0.11-0.33,0.22-0.51,0.33c-0.21,0.13-0.43,0.27-0.65,0.4c-0.18,0.11-0.36,0.22-0.54,0.32c-0.23,0.14-0.48,0.27-0.72,0.41
		c-0.19,0.11-0.37,0.21-0.57,0.32c-0.26,0.14-0.53,0.28-0.8,0.42c-0.2,0.1-0.39,0.2-0.59,0.3c-0.29,0.15-0.6,0.29-0.9,0.43
		c-0.2,0.09-0.39,0.19-0.59,0.28c-0.35,0.16-0.72,0.32-1.09,0.48c-0.17,0.07-0.33,0.15-0.51,0.22c-1.1,0.46-2.27,0.92-3.52,1.36
		c-0.19,0.07-0.4,0.13-0.6,0.2c-0.44,0.15-0.88,0.3-1.33,0.44c-0.25,0.08-0.52,0.16-0.78,0.24c-0.42,0.13-0.83,0.26-1.26,0.38
		c-0.29,0.08-0.6,0.17-0.9,0.25c-0.42,0.12-0.84,0.23-1.27,0.34c-0.32,0.08-0.66,0.16-0.99,0.25c-0.43,0.11-0.86,0.21-1.31,0.32
		c-0.35,0.08-0.71,0.16-1.06,0.24c-0.45,0.1-0.9,0.2-1.36,0.29c-0.37,0.08-0.75,0.15-1.13,0.22c-0.47,0.09-0.95,0.18-1.44,0.27
		c-0.39,0.07-0.79,0.14-1.19,0.21c-0.5,0.08-1,0.16-1.51,0.24c-0.42,0.06-0.83,0.13-1.26,0.19c-0.52,0.07-1.05,0.15-1.59,0.22
		c-0.43,0.06-0.87,0.11-1.31,0.17c-0.55,0.07-1.11,0.13-1.68,0.19c-0.45,0.05-0.91,0.1-1.37,0.14c-0.58,0.06-1.18,0.11-1.78,0.16
		c-0.47,0.04-0.94,0.08-1.41,0.12c-0.63,0.05-1.27,0.09-1.91,0.13c-0.48,0.03-0.94,0.06-1.43,0.09c-0.69,0.04-1.39,0.07-2.1,0.1
		c-0.47,0.02-0.92,0.05-1.4,0.06c-0.79,0.03-1.61,0.05-2.42,0.07c-0.41,0.01-0.81,0.03-1.23,0.03c-1.24,0.02-2.51,0.04-3.81,0.04
		c-1.29,0-2.55-0.01-3.78-0.04c-0.41-0.01-0.8-0.02-1.2-0.03c-0.81-0.02-1.63-0.04-2.42-0.07c-0.47-0.02-0.93-0.04-1.39-0.06
		c-0.7-0.03-1.4-0.06-2.08-0.1c-0.48-0.03-0.95-0.06-1.43-0.09c-0.64-0.04-1.27-0.08-1.89-0.13c-0.48-0.04-0.94-0.08-1.41-0.12
		c-0.59-0.05-1.18-0.1-1.76-0.16c-0.47-0.05-0.92-0.1-1.38-0.15c-0.56-0.06-1.11-0.12-1.65-0.19c-0.45-0.05-0.89-0.11-1.32-0.17
		c-0.53-0.07-1.05-0.14-1.56-0.22c-0.43-0.06-0.85-0.13-1.27-0.19c-0.5-0.08-0.99-0.16-1.48-0.24c-0.41-0.07-0.81-0.14-1.21-0.21
		c-0.48-0.09-0.94-0.18-1.41-0.27c-0.39-0.08-0.77-0.15-1.15-0.23c-0.45-0.09-0.9-0.19-1.34-0.29c-0.36-0.08-0.73-0.16-1.08-0.24
		c-0.44-0.1-0.86-0.21-1.29-0.31c-0.34-0.08-0.68-0.17-1.01-0.25c-0.42-0.11-0.83-0.22-1.24-0.34c-0.31-0.09-0.63-0.17-0.94-0.26
		c-0.41-0.12-0.8-0.24-1.2-0.37c-0.28-0.09-0.57-0.17-0.85-0.26c-0.42-0.14-0.82-0.28-1.23-0.41c-0.23-0.08-0.48-0.16-0.7-0.24
		c-0.56-0.2-1.1-0.4-1.63-0.61c-0.12-0.05-0.24-0.09-0.36-0.14c-0.52-0.2-1.03-0.41-1.52-0.62c-0.21-0.09-0.41-0.18-0.61-0.27
		c-0.33-0.15-0.67-0.29-0.99-0.44c-0.22-0.1-0.43-0.21-0.65-0.31c-0.29-0.14-0.57-0.27-0.85-0.41c-0.22-0.11-0.43-0.22-0.64-0.33
		c-0.26-0.13-0.51-0.27-0.76-0.4c-0.21-0.11-0.41-0.23-0.61-0.34c-0.23-0.13-0.47-0.26-0.69-0.4c-0.2-0.12-0.39-0.23-0.58-0.35
		c-0.21-0.13-0.43-0.26-0.63-0.39c-0.18-0.12-0.36-0.23-0.54-0.35c-0.2-0.13-0.39-0.26-0.58-0.39c-0.17-0.12-0.34-0.23-0.5-0.35
		c-0.18-0.13-0.36-0.26-0.53-0.38c-0.16-0.12-0.31-0.23-0.46-0.35c-0.17-0.13-0.33-0.25-0.49-0.38c-0.14-0.11-0.28-0.23-0.42-0.34
		c-0.15-0.13-0.3-0.25-0.45-0.37c-0.13-0.11-0.26-0.22-0.38-0.33c-0.14-0.12-0.28-0.25-0.41-0.37c-0.12-0.11-0.23-0.21-0.34-0.32
		c-0.13-0.12-0.25-0.25-0.38-0.37c-0.1-0.1-0.21-0.2-0.3-0.3c-0.12-0.13-0.24-0.25-0.35-0.37c-0.09-0.09-0.18-0.19-0.26-0.28
		c-0.12-0.13-0.23-0.26-0.34-0.39c-0.07-0.08-0.14-0.15-0.2-0.23c-0.16-0.19-0.31-0.37-0.45-0.55c-0.01-0.01-0.02-0.02-0.03-0.03
		v-21.85c0.06,0.05,0.13,0.09,0.2,0.14c0.11,0.08,0.22,0.15,0.32,0.23c0.32,0.22,0.64,0.44,0.98,0.67c0.09,0.06,0.18,0.12,0.28,0.19
		c0.42,0.27,0.85,0.54,1.29,0.81c0.1,0.06,0.21,0.12,0.31,0.19c0.37,0.22,0.75,0.44,1.14,0.66c0.12,0.07,0.24,0.13,0.36,0.2
		c0.48,0.27,0.98,0.54,1.49,0.8c0.07,0.04,0.15,0.08,0.23,0.11c0.45,0.23,0.91,0.46,1.38,0.69c0.14,0.07,0.28,0.14,0.43,0.2
		c1.11,0.52,2.27,1.03,3.5,1.53c0.16,0.06,0.31,0.12,0.47,0.19c0.54,0.21,1.09,0.42,1.65,0.63c0.1,0.04,0.2,0.07,0.3,0.11
		c0.65,0.24,1.33,0.47,2.01,0.7c0.16,0.05,0.32,0.1,0.48,0.15c0.58,0.19,1.16,0.37,1.76,0.55c0.16,0.05,0.31,0.1,0.48,0.14
		c0.73,0.21,1.47,0.42,2.24,0.63c0.14,0.04,0.28,0.07,0.42,0.11c0.65,0.17,1.32,0.34,1.99,0.5c0.2,0.05,0.4,0.1,0.6,0.14
		c0.81,0.19,1.64,0.38,2.49,0.55c0.06,0.01,0.13,0.03,0.19,0.04c0.79,0.16,1.6,0.32,2.42,0.47c0.23,0.04,0.46,0.08,0.7,0.13
		c0.82,0.15,1.65,0.29,2.5,0.42c0.09,0.01,0.18,0.03,0.27,0.04c0.93,0.14,1.88,0.28,2.85,0.41c0.25,0.03,0.5,0.06,0.75,0.1
		c0.82,0.1,1.65,0.2,2.49,0.29c0.2,0.02,0.4,0.05,0.6,0.07c1.01,0.11,2.05,0.2,3.11,0.29c0.24,0.02,0.49,0.04,0.73,0.06
		c0.87,0.07,1.76,0.13,2.66,0.19c0.27,0.02,0.55,0.04,0.82,0.05c1.11,0.07,2.24,0.12,3.39,0.17c0.19,0.01,0.38,0.01,0.56,0.02
		c1,0.04,2.01,0.07,3.04,0.09c0.32,0.01,0.65,0.01,0.98,0.02c1.22,0.02,2.45,0.04,3.71,0.04c1.27,0,2.52-0.01,3.75-0.04
		c0.33-0.01,0.65-0.01,0.97-0.02c1.06-0.02,2.1-0.05,3.12-0.09c0.17-0.01,0.34-0.01,0.51-0.02c1.16-0.05,2.29-0.1,3.41-0.17
		c0.29-0.02,0.57-0.04,0.86-0.05c0.91-0.06,1.81-0.12,2.69-0.19c0.23-0.02,0.47-0.04,0.7-0.05c1.06-0.09,2.09-0.19,3.11-0.29
		c0.24-0.02,0.46-0.05,0.7-0.08c0.83-0.09,1.64-0.18,2.44-0.28c0.25-0.03,0.5-0.06,0.75-0.09c0.96-0.13,1.91-0.26,2.83-0.4
		c0.17-0.03,0.33-0.05,0.5-0.08c0.78-0.12,1.54-0.25,2.29-0.38c0.25-0.04,0.49-0.09,0.74-0.13c0.88-0.16,1.74-0.32,2.58-0.5
		c0.06-0.01,0.12-0.03,0.18-0.04c0.79-0.16,1.56-0.33,2.31-0.51c0.23-0.05,0.46-0.11,0.69-0.16c0.69-0.16,1.37-0.33,2.04-0.51
		c0.11-0.03,0.22-0.06,0.33-0.08c0.75-0.2,1.48-0.4,2.2-0.61c0.2-0.06,0.4-0.12,0.6-0.18c0.58-0.17,1.14-0.35,1.7-0.53
		c0.15-0.05,0.31-0.1,0.46-0.15c0.67-0.22,1.32-0.44,1.96-0.67c0.17-0.06,0.33-0.12,0.5-0.18c0.5-0.18,1-0.37,1.48-0.56
		c0.16-0.06,0.33-0.13,0.49-0.19c0.59-0.24,1.18-0.48,1.74-0.72c0.13-0.05,0.25-0.11,0.37-0.16c0.46-0.2,0.91-0.41,1.35-0.61
		c0.16-0.07,0.31-0.15,0.47-0.22c0.53-0.25,1.04-0.51,1.54-0.76c0.07-0.03,0.13-0.07,0.2-0.1c0.44-0.23,0.87-0.46,1.29-0.7
		c0.14-0.08,0.28-0.16,0.42-0.24c0.42-0.24,0.83-0.47,1.22-0.71c0.05-0.03,0.11-0.06,0.16-0.1c0.44-0.27,0.86-0.53,1.27-0.8
		c0.12-0.08,0.24-0.16,0.35-0.23c0.33-0.22,0.66-0.44,0.97-0.67c0.08-0.06,0.16-0.11,0.24-0.17c0.03-0.02,0.05-0.04,0.08-0.05v21.84
		c-0.05,0.06-0.11,0.13-0.16,0.2C206.89,163.15,206.79,163.28,206.69,163.41z M207.15,128.14c-0.15,0.19-0.3,0.39-0.47,0.59
		c-0.05,0.05-0.1,0.11-0.14,0.17c-0.12,0.15-0.25,0.29-0.38,0.44c-0.07,0.08-0.14,0.16-0.22,0.23c-0.12,0.13-0.25,0.27-0.38,0.41
		c-0.08,0.09-0.17,0.17-0.26,0.26c-0.13,0.13-0.26,0.26-0.4,0.4c-0.1,0.09-0.2,0.19-0.31,0.29c-0.14,0.13-0.28,0.26-0.43,0.39
		c-0.11,0.1-0.23,0.2-0.35,0.3c-0.15,0.13-0.3,0.26-0.46,0.39c-0.13,0.1-0.26,0.21-0.39,0.32c-0.16,0.13-0.33,0.26-0.5,0.39
		c-0.14,0.11-0.28,0.22-0.43,0.32c-0.18,0.13-0.36,0.26-0.55,0.4c-0.15,0.11-0.31,0.22-0.47,0.33c-0.19,0.13-0.39,0.26-0.59,0.4
		c-0.17,0.11-0.34,0.22-0.51,0.33c-0.21,0.13-0.43,0.27-0.65,0.4c-0.18,0.11-0.36,0.22-0.55,0.33c-0.23,0.13-0.47,0.27-0.71,0.4
		c-0.19,0.11-0.38,0.22-0.58,0.32c-0.25,0.14-0.52,0.27-0.78,0.41c-0.2,0.1-0.4,0.21-0.61,0.31c-0.28,0.14-0.58,0.28-0.87,0.42
		c-0.21,0.1-0.4,0.2-0.62,0.29c-0.34,0.15-0.69,0.31-1.04,0.46c-0.18,0.08-0.36,0.16-0.55,0.24c-0.55,0.23-1.11,0.46-1.7,0.69
		c-0.04,0.02-0.09,0.03-0.14,0.05c-0.54,0.21-1.1,0.41-1.68,0.62c-0.21,0.07-0.44,0.15-0.65,0.22c-0.42,0.14-0.84,0.29-1.28,0.43
		c-0.26,0.08-0.54,0.17-0.81,0.25c-0.41,0.13-0.81,0.25-1.24,0.37c-0.3,0.09-0.61,0.17-0.91,0.25c-0.42,0.11-0.83,0.23-1.26,0.34
		c-0.32,0.08-0.66,0.17-0.99,0.25c-0.43,0.11-0.86,0.21-1.3,0.31c-0.35,0.08-0.71,0.16-1.07,0.24c-0.45,0.1-0.9,0.2-1.36,0.29
		c-0.37,0.08-0.76,0.15-1.14,0.22c-0.47,0.09-0.94,0.18-1.42,0.26c-0.4,0.07-0.8,0.14-1.21,0.21c-0.49,0.08-0.99,0.16-1.49,0.24
		c-0.42,0.06-0.84,0.13-1.27,0.19c-0.52,0.07-1.04,0.14-1.58,0.21c-0.44,0.06-0.88,0.11-1.32,0.17c-0.55,0.07-1.11,0.13-1.67,0.19
		c-0.46,0.05-0.91,0.1-1.38,0.14c-0.58,0.06-1.18,0.11-1.77,0.16c-0.47,0.04-0.94,0.08-1.42,0.12c-0.62,0.05-1.26,0.09-1.9,0.13
		c-0.48,0.03-0.96,0.07-1.45,0.09c-0.68,0.04-1.39,0.07-2.09,0.1c-0.47,0.02-0.93,0.05-1.41,0.06c-0.79,0.03-1.61,0.05-2.42,0.07
		c-0.41,0.01-0.81,0.03-1.23,0.03c-1.25,0.02-2.51,0.04-3.81,0.04c-1.29,0-2.55-0.01-3.78-0.04c-0.41-0.01-0.8-0.02-1.2-0.03
		c-0.81-0.02-1.63-0.04-2.42-0.07c-0.47-0.02-0.93-0.04-1.39-0.06c-0.7-0.03-1.4-0.06-2.08-0.1c-0.48-0.03-0.95-0.06-1.43-0.09
		c-0.64-0.04-1.27-0.08-1.89-0.13c-0.48-0.04-0.94-0.08-1.41-0.12c-0.59-0.05-1.19-0.1-1.77-0.16c-0.46-0.05-0.92-0.1-1.37-0.15
		c-0.56-0.06-1.11-0.12-1.66-0.19c-0.45-0.05-0.88-0.11-1.32-0.17c-0.53-0.07-1.05-0.14-1.57-0.22c-0.43-0.06-0.85-0.13-1.26-0.19
		c-0.5-0.08-1-0.16-1.48-0.24c-0.41-0.07-0.81-0.14-1.21-0.21c-0.48-0.09-0.94-0.18-1.4-0.27c-0.39-0.08-0.77-0.15-1.15-0.23
		c-0.45-0.09-0.9-0.19-1.34-0.29c-0.36-0.08-0.73-0.16-1.09-0.24c-0.43-0.1-0.86-0.21-1.28-0.31c-0.34-0.09-0.68-0.17-1.02-0.26
		c-0.42-0.11-0.82-0.22-1.23-0.34c-0.31-0.09-0.63-0.17-0.94-0.26c-0.41-0.12-0.81-0.25-1.21-0.37c-0.28-0.09-0.56-0.17-0.84-0.26
		c-0.42-0.14-0.83-0.28-1.24-0.42c-0.23-0.08-0.47-0.16-0.7-0.24c-0.56-0.2-1.1-0.4-1.63-0.61c-0.12-0.05-0.23-0.09-0.35-0.14
		c-0.52-0.21-1.03-0.41-1.53-0.62c-0.21-0.09-0.4-0.18-0.6-0.27c-0.34-0.15-0.67-0.29-1-0.44c-0.22-0.1-0.43-0.21-0.65-0.31
		c-0.29-0.14-0.58-0.27-0.85-0.41c-0.22-0.11-0.42-0.22-0.64-0.33c-0.26-0.13-0.51-0.27-0.76-0.4c-0.21-0.11-0.41-0.23-0.61-0.34
		c-0.23-0.13-0.47-0.27-0.7-0.4c-0.19-0.11-0.38-0.23-0.57-0.34c-0.22-0.13-0.43-0.26-0.64-0.4c-0.18-0.11-0.35-0.23-0.53-0.34
		c-0.2-0.13-0.4-0.26-0.59-0.39c-0.17-0.11-0.33-0.23-0.49-0.34c-0.18-0.13-0.36-0.26-0.54-0.39c-0.15-0.11-0.3-0.23-0.45-0.34
		c-0.17-0.13-0.33-0.26-0.5-0.39c-0.14-0.11-0.28-0.22-0.41-0.33c-0.16-0.13-0.31-0.26-0.46-0.39c-0.12-0.11-0.25-0.21-0.37-0.32
		c-0.15-0.13-0.29-0.26-0.43-0.39c-0.11-0.1-0.22-0.2-0.32-0.3c-0.14-0.13-0.27-0.26-0.4-0.39c-0.09-0.09-0.19-0.19-0.28-0.28
		c-0.13-0.14-0.26-0.27-0.38-0.4c-0.08-0.08-0.16-0.17-0.23-0.25c-0.14-0.15-0.26-0.29-0.39-0.44c-0.05-0.06-0.11-0.12-0.16-0.18
		c-0.17-0.2-0.33-0.4-0.48-0.59v-24.8c12.64,8.75,36.08,13.36,58.57,13.36s45.93-4.61,58.57-13.36V128.14z M90.04,88.03
		c0.36-7.78,22.81-18.62,58.54-18.62c35.74,0,58.18,10.85,58.54,18.62c0,0.08,0.01,0.16,0.02,0.24
		c-0.09,7.85-22.35,18.77-58.56,18.77c-36.22,0-58.48-10.92-58.56-18.77C90.03,88.19,90.03,88.11,90.04,88.03z M207.15,197.57
		c-0.02,0.08-0.03,0.17-0.04,0.26c-1.04,7.45-22.48,18.23-58.52,18.23s-57.49-10.78-58.52-18.23c-0.01-0.08-0.03-0.17-0.04-0.25
		v-22.13c0.07,0.05,0.14,0.1,0.21,0.15c0.1,0.07,0.2,0.14,0.29,0.21c0.33,0.23,0.67,0.46,1.01,0.69c0.08,0.06,0.17,0.11,0.25,0.17
		c0.42,0.28,0.86,0.55,1.3,0.82c0.09,0.06,0.19,0.11,0.29,0.17c0.38,0.23,0.76,0.45,1.16,0.68c0.12,0.07,0.23,0.13,0.35,0.2
		c0.49,0.27,0.98,0.54,1.5,0.81c0.07,0.04,0.14,0.07,0.21,0.11c0.46,0.23,0.92,0.47,1.4,0.69c0.14,0.07,0.28,0.13,0.42,0.2
		c1.11,0.52,2.28,1.03,3.51,1.53c0.16,0.06,0.31,0.12,0.47,0.19c0.54,0.21,1.09,0.42,1.65,0.63c0.1,0.04,0.2,0.07,0.3,0.11
		c0.65,0.24,1.32,0.47,2.01,0.69c0.16,0.05,0.32,0.1,0.48,0.16c0.57,0.19,1.16,0.37,1.75,0.55c0.16,0.05,0.32,0.1,0.48,0.15
		c0.73,0.21,1.47,0.42,2.23,0.63c0.14,0.04,0.29,0.08,0.44,0.11c0.65,0.17,1.31,0.33,1.98,0.5c0.2,0.05,0.4,0.1,0.61,0.15
		c0.81,0.19,1.64,0.38,2.49,0.55c0.07,0.01,0.14,0.03,0.21,0.04c0.78,0.16,1.59,0.32,2.41,0.47c0.23,0.04,0.47,0.09,0.71,0.13
		c0.81,0.14,1.64,0.28,2.49,0.42c0.09,0.01,0.18,0.03,0.27,0.04c0.93,0.14,1.88,0.28,2.85,0.41c0.25,0.03,0.5,0.06,0.75,0.1
		c0.81,0.1,1.64,0.2,2.48,0.29c0.2,0.02,0.4,0.05,0.61,0.07c1.01,0.11,2.05,0.2,3.11,0.29c0.24,0.02,0.49,0.04,0.73,0.06
		c0.87,0.07,1.76,0.13,2.66,0.19c0.28,0.02,0.55,0.04,0.83,0.05c1.11,0.07,2.24,0.12,3.39,0.17c0.19,0.01,0.38,0.01,0.56,0.02
		c1,0.04,2.01,0.07,3.04,0.09c0.32,0.01,0.65,0.01,0.98,0.02c1.22,0.02,2.45,0.04,3.71,0.04c1.27,0,2.52-0.01,3.75-0.04
		c0.33-0.01,0.65-0.01,0.97-0.02c1.06-0.02,2.1-0.05,3.12-0.09c0.17-0.01,0.34-0.01,0.51-0.02c1.16-0.05,2.29-0.1,3.41-0.17
		c0.29-0.02,0.57-0.04,0.86-0.05c0.91-0.06,1.81-0.12,2.69-0.19c0.23-0.02,0.47-0.04,0.7-0.05c1.06-0.09,2.09-0.19,3.11-0.29
		c0.24-0.02,0.47-0.05,0.7-0.08c0.82-0.09,1.64-0.18,2.43-0.28c0.25-0.03,0.5-0.06,0.75-0.09c0.96-0.13,1.91-0.26,2.83-0.4
		c0.17-0.03,0.33-0.05,0.5-0.08c0.78-0.12,1.54-0.25,2.29-0.38c0.25-0.04,0.5-0.09,0.74-0.13c0.87-0.16,1.74-0.32,2.58-0.49
		c0.06-0.01,0.12-0.03,0.18-0.04c0.79-0.16,1.55-0.33,2.31-0.51c0.23-0.05,0.46-0.11,0.68-0.16c0.69-0.16,1.37-0.33,2.04-0.51
		c0.11-0.03,0.23-0.06,0.34-0.09c0.75-0.2,1.48-0.4,2.2-0.61c0.2-0.06,0.41-0.12,0.61-0.18c0.58-0.17,1.14-0.35,1.69-0.53
		c0.15-0.05,0.31-0.1,0.46-0.15c0.67-0.22,1.32-0.44,1.95-0.67c0.17-0.06,0.34-0.12,0.51-0.19c0.5-0.18,0.99-0.37,1.47-0.56
		c0.17-0.07,0.34-0.13,0.5-0.2c0.59-0.24,1.17-0.48,1.73-0.72c0.13-0.06,0.25-0.11,0.38-0.17c0.46-0.2,0.9-0.4,1.34-0.61
		c0.16-0.07,0.32-0.15,0.48-0.22c0.53-0.25,1.04-0.5,1.54-0.76c0.07-0.04,0.14-0.07,0.21-0.11c0.44-0.23,0.87-0.46,1.28-0.69
		c0.14-0.08,0.29-0.16,0.43-0.24c0.41-0.23,0.82-0.47,1.21-0.7c0.06-0.03,0.12-0.07,0.18-0.1c0.44-0.27,0.86-0.53,1.27-0.8
		c0.12-0.08,0.24-0.16,0.36-0.24c0.33-0.22,0.65-0.44,0.96-0.66c0.08-0.06,0.17-0.12,0.25-0.18c0.02-0.02,0.05-0.03,0.07-0.05
		V197.57z"/>
	<linearGradient id="SVGID_2_" gradientUnits="userSpaceOnUse" x1="308.3191" y1="-70.5079" x2="182.7562" y2="499.0094">
		<stop  offset="0" style="stop-color:#03E5FF"/>
		<stop  offset="1" style="stop-color:#5D33E9"/>
	</linearGradient>
	<path class="st1" d="M240.21,192.5c-2.61,0-4.72,2.11-4.72,4.72s2.11,4.72,4.72,4.72c30.21,0,54.79-24.58,54.79-54.79
		c0-30.21-24.58-54.79-54.79-54.79c-2.61,0-4.72,2.11-4.72,4.72c0,2.61,2.11,4.72,4.72,4.72c25,0,45.34,20.34,45.34,45.34
		C285.55,172.16,265.21,192.5,240.21,192.5z"/>
	<linearGradient id="SVGID_3_" gradientUnits="userSpaceOnUse" x1="96.087" y1="-117.2993" x2="-29.4759" y2="452.2181">
		<stop  offset="0" style="stop-color:#03E5FF"/>
		<stop  offset="1" style="stop-color:#5D33E9"/>
	</linearGradient>
	<path class="st2" d="M57.9,101.82c2.61,0,4.72-2.11,4.72-4.72c0-2.61-2.11-4.72-4.72-4.72c-30.21,0-54.79,24.58-54.79,54.79
		c0,30.21,24.58,54.79,54.79,54.79c2.61,0,4.72-2.11,4.72-4.72s-2.11-4.72-4.72-4.72c-25,0-45.34-20.34-45.34-45.34
		C12.56,122.16,32.9,101.82,57.9,101.82z"/>
	<linearGradient id="SVGID_4_" gradientUnits="userSpaceOnUse" x1="77.9609" y1="-121.2956" x2="-47.602" y2="448.2218">
		<stop  offset="0" style="stop-color:#03E5FF"/>
		<stop  offset="1" style="stop-color:#5D33E9"/>
	</linearGradient>
	<path class="st3" d="M36.24,22.47h16.94c2.61,0,4.72-2.11,4.72-4.72s-2.11-4.72-4.72-4.72H23.89c-2.61,0-4.72,2.11-4.72,4.72v29.28
		c0,2.61,2.11,4.72,4.72,4.72s4.72-2.11,4.72-4.72V28.21l30.48,30.48c0.92,0.92,2.13,1.38,3.34,1.38c1.21,0,2.42-0.46,3.34-1.38
		c1.84-1.84,1.84-4.84,0-6.68L36.24,22.47z"/>
	<linearGradient id="SVGID_5_" gradientUnits="userSpaceOnUse" x1="283.0088" y1="-76.0882" x2="157.4459" y2="493.4292">
		<stop  offset="0" style="stop-color:#03E5FF"/>
		<stop  offset="1" style="stop-color:#5D33E9"/>
	</linearGradient>
	<path class="st4" d="M235.68,60.07c1.21,0,2.42-0.46,3.34-1.38L269.5,28.2v18.83c0,2.61,2.11,4.72,4.72,4.72s4.72-2.11,4.72-4.72
		V17.75c0-2.61-2.11-4.72-4.72-4.72h-29.28c-2.61,0-4.72,2.11-4.72,4.72s2.11,4.72,4.72,4.72h16.94L232.34,52
		c-1.84,1.84-1.84,4.84,0,6.68C233.26,59.6,234.47,60.07,235.68,60.07z"/>
	<linearGradient id="SVGID_6_" gradientUnits="userSpaceOnUse" x1="121.7544" y1="-111.6403" x2="-3.8085" y2="457.877">
		<stop  offset="0" style="stop-color:#03E5FF"/>
		<stop  offset="1" style="stop-color:#5D33E9"/>
	</linearGradient>
	<path class="st5" d="M59.09,237.34l-30.48,30.48v-18.83c0-2.61-2.11-4.72-4.72-4.72s-4.72,2.11-4.72,4.72v29.28
		c0,2.61,2.11,4.72,4.72,4.72h29.28c2.61,0,4.72-2.11,4.72-4.72s-2.11-4.72-4.72-4.72H36.24l29.53-29.53c1.84-1.84,1.84-4.83,0-6.68
		C63.93,235.49,60.94,235.49,59.09,237.34z"/>
	<linearGradient id="SVGID_7_" gradientUnits="userSpaceOnUse" x1="326.8024" y1="-66.4329" x2="201.2395" y2="503.0845">
		<stop  offset="0" style="stop-color:#03E5FF"/>
		<stop  offset="1" style="stop-color:#5D33E9"/>
	</linearGradient>
	<path class="st6" d="M274.22,244.27c-2.61,0-4.72,2.11-4.72,4.72v18.83l-30.48-30.48c-1.84-1.84-4.83-1.84-6.68,0
		c-1.84,1.84-1.84,4.83,0,6.68l29.53,29.53h-16.94c-2.61,0-4.72,2.11-4.72,4.72s2.11,4.72,4.72,4.72h29.28
		c2.61,0,4.72-2.11,4.72-4.72v-29.28C278.94,246.38,276.83,244.27,274.22,244.27z"/>
</g>
</svg>
