<?xml version="1.0" encoding="utf-8"?>
<!-- Generator: Adobe Illustrator 24.1.3, SVG Export Plug-In . SVG Version: 6.00 Build 0)  -->
<svg version="1.1" id="ec2-rounded" xmlns="http://www.w3.org/2000/svg" xmlns:xlink="http://www.w3.org/1999/xlink" x="0px"
	 y="0px" viewBox="0 0 300 300" style="enable-background:new 0 0 300 300;" xml:space="preserve">
<style type="text/css">
	.st0{fill:url(#SVGID_1_);}
	.st1{fill:url(#SVGID_2_);}
	.st2{fill:url(#SVGID_3_);}
</style>
<g>
	<linearGradient id="SVGID_1_" gradientUnits="userSpaceOnUse" x1="126.1426" y1="-326.3575" x2="171.2755" y2="590.6597">
		<stop  offset="0" style="stop-color:#FFC14D"/>
		<stop  offset="1" style="stop-color:#FF576A"/>
	</linearGradient>
	<path class="st0" d="M234.05,118.3c2.39,0,4.32-1.93,4.32-4.32c0-2.39-1.93-4.32-4.32-4.32h-10.9l-0.01-5.64
		c-0.02-15.02-12.24-27.23-27.25-27.23c-0.01,0-0.02,0-0.03,0l-5.76,0.01V66.58c0-2.39-1.93-4.32-4.32-4.32
		c-2.39,0-4.32,1.93-4.32,4.32v10.23l-9.45,0.01V66.58c0-2.39-1.93-4.32-4.32-4.32s-4.32,1.93-4.32,4.32v10.25l-9.45,0.01V66.58
		c0-2.39-1.93-4.32-4.32-4.32s-4.32,1.93-4.32,4.32v10.27l-9.45,0.01V66.58c0-2.39-1.93-4.32-4.32-4.32s-4.32,1.93-4.32,4.32v10.29
		l-9.45,0.01v-10.3c0-2.39-1.93-4.32-4.32-4.32s-4.32,1.93-4.32,4.32v10.31l-5.37,0.01c-7.28,0.01-14.12,2.85-19.26,8
		c-5.14,5.15-7.97,12-7.96,19.28l0.01,5.49H65.14c-2.39,0-4.32,1.93-4.32,4.32c0,2.39,1.93,4.32,4.32,4.32h11.37l0.01,9.45H65.14
		c-2.39,0-4.32,1.93-4.32,4.32s1.93,4.32,4.32,4.32h11.39l0.01,9.45h-11.4c-2.39,0-4.32,1.93-4.32,4.32c0,2.39,1.93,4.32,4.32,4.32
		h11.41l0.01,9.45H65.14c-2.39,0-4.32,1.93-4.32,4.32s1.93,4.32,4.32,4.32h11.42l0.01,9.45H65.14c-2.39,0-4.32,1.93-4.32,4.32
		s1.93,4.32,4.32,4.32h11.44l0.01,5.64c0.01,7.28,2.85,14.12,8,19.26c5.15,5.14,11.98,7.96,19.25,7.96c0.01,0,0.02,0,0.03,0
		l5.28-0.01l0.01,11.95c0,2.39,1.94,4.32,4.32,4.32c0,0,0,0,0,0c2.39,0,4.32-1.94,4.32-4.33l-0.01-11.95l9.45-0.01l0.01,11.95
		c0,2.39,1.94,4.32,4.32,4.32c0,0,0,0,0,0c2.39,0,4.32-1.94,4.32-4.33l-0.01-11.95l9.45-0.01l0.01,11.95c0,2.39,1.94,4.32,4.32,4.32
		c0,0,0,0,0,0c2.39,0,4.32-1.94,4.32-4.33l-0.01-11.95l9.45-0.01l0.01,11.95c0,2.39,1.94,4.32,4.32,4.32c0,0,0,0,0,0
		c2.39,0,4.32-1.94,4.32-4.33l-0.01-11.95l9.45-0.01l0.01,11.95c0,2.39,1.94,4.32,4.32,4.32c0,0,0,0,0,0c2.39,0,4.32-1.94,4.32-4.33
		l-0.01-11.95l5.85-0.01c15.03-0.02,27.24-12.25,27.23-27.28l-0.01-5.49h10.81c2.39,0,4.32-1.93,4.32-4.32s-1.93-4.32-4.32-4.32
		h-10.82l-0.01-9.45h10.83c2.39,0,4.32-1.93,4.32-4.32s-1.93-4.32-4.32-4.32h-10.84l-0.01-9.45h10.85c2.39,0,4.32-1.93,4.32-4.32
		c0-2.39-1.93-4.32-4.32-4.32h-10.86l-0.01-9.45h10.87c2.39,0,4.32-1.93,4.32-4.32s-1.93-4.32-4.32-4.32h-10.88l-0.01-9.45H234.05z
		 M196.01,214.8l-92.14,0.1c-0.01,0-0.01,0-0.02,0c-4.96,0-9.63-1.93-13.14-5.44c-3.52-3.51-5.46-8.18-5.46-13.15l-0.1-92.14
		c-0.01-4.97,1.93-9.65,5.44-13.17c3.51-3.52,8.18-5.46,13.15-5.47l46.9-0.05l16.88-0.02c0.06,0,0.12,0.02,0.18,0.02
		c0.06,0,0.12-0.02,0.19-0.02l17.54-0.02c0.12,0.01,0.24,0.04,0.37,0.04c0.13,0,0.25-0.03,0.38-0.04l9.71-0.01c0.01,0,0.01,0,0.02,0
		c10.25,0,18.6,8.34,18.61,18.59l0.05,46.56l0.05,45.59C214.61,206.43,206.27,214.79,196.01,214.8z"/>
	<linearGradient id="SVGID_2_" gradientUnits="userSpaceOnUse" x1="208.8692" y1="-330.4291" x2="254.0021" y2="586.5881">
		<stop  offset="0" style="stop-color:#FFC14D"/>
		<stop  offset="1" style="stop-color:#FF576A"/>
	</linearGradient>
	<path class="st1" d="M266.84,12.29h-79.41c-13.37,0-24.25,10.88-24.25,24.25v8.88h8.64v-8.88c0-8.61,7-15.61,15.61-15.61h79.41
		c8.61,0,15.61,7,15.61,15.61v79.41c0,8.61-7,15.61-15.61,15.61h-13.17v8.64h13.17c13.37,0,24.25-10.88,24.25-24.25V36.54
		C291.09,23.17,280.21,12.29,266.84,12.29z"/>
	<linearGradient id="SVGID_3_" gradientUnits="userSpaceOnUse" x1="43.7866" y1="-322.3042" x2="88.9195" y2="594.713">
		<stop  offset="0" style="stop-color:#FFC14D"/>
		<stop  offset="1" style="stop-color:#FF576A"/>
	</linearGradient>
	<path class="st2" d="M127.74,263.75c0,8.61-7,15.61-15.61,15.61H32.72c-8.61,0-15.61-7-15.61-15.61v-79.41
		c0-8.61,7-15.61,15.61-15.61H45.9v-8.64H32.72c-13.37,0-24.25,10.88-24.25,24.25v79.41c0,13.37,10.88,24.25,24.25,24.25h79.41
		c13.37,0,24.25-10.88,24.25-24.25v-8.88h-8.64V263.75z"/>
</g>
</svg>
