<?xml version="1.0" encoding="utf-8"?>
<!-- Generator: Adobe Illustrator 24.1.3, SVG Export Plug-In . SVG Version: 6.00 Build 0)  -->
<svg version="1.1" id="ec2-container-registry-rounded"
	 xmlns="http://www.w3.org/2000/svg" xmlns:xlink="http://www.w3.org/1999/xlink" x="0px" y="0px" viewBox="0 0 300 300"
	 style="enable-background:new 0 0 300 300;" xml:space="preserve">
<style type="text/css">
	.st0{fill:url(#SVGID_1_);}
	.st1{fill:url(#SVGID_2_);}
</style>
<g>
	<linearGradient id="SVGID_1_" gradientUnits="userSpaceOnUse" x1="128.6691" y1="-181.1132" x2="169.812" y2="489.8319">
		<stop  offset="0" style="stop-color:#FFC14D"/>
		<stop  offset="1" style="stop-color:#FF576A"/>
	</linearGradient>
	<path class="st0" d="M271.01,92.41c1.61-0.83,2.56-2.41,2.68-4.09c0.24-1.96-0.7-3.97-2.54-4.98l-118-65.11
		c-0.01-0.01-0.03-0.01-0.04-0.02c-0.2-0.11-0.41-0.18-0.62-0.26c-0.1-0.04-0.2-0.09-0.3-0.12c-0.17-0.05-0.36-0.08-0.54-0.11
		c-0.14-0.03-0.28-0.07-0.42-0.08c-0.13-0.01-0.26,0-0.39,0c-0.19,0-0.39-0.02-0.58,0c-0.11,0.01-0.21,0.04-0.32,0.06
		c-0.21,0.03-0.43,0.06-0.63,0.12c-0.09,0.03-0.18,0.07-0.27,0.11c-0.22,0.08-0.44,0.16-0.65,0.27c-0.01,0.01-0.03,0.01-0.04,0.02
		L27.62,83.31c-0.07,0.04-0.12,0.09-0.19,0.13c-0.15,0.09-0.3,0.19-0.44,0.3c-0.13,0.1-0.25,0.19-0.36,0.3
		c-0.12,0.11-0.23,0.22-0.34,0.34c-0.11,0.12-0.21,0.25-0.31,0.38c-0.09,0.13-0.18,0.26-0.26,0.4c-0.08,0.14-0.16,0.27-0.23,0.42
		c-0.07,0.15-0.13,0.3-0.18,0.45c-0.05,0.15-0.1,0.3-0.14,0.46c-0.04,0.15-0.07,0.3-0.09,0.46c-0.03,0.18-0.05,0.35-0.05,0.53
		c0,0.08-0.02,0.15-0.02,0.23v137.07c0,1.98,1.17,3.77,2.97,4.57l119.35,52.9c0.66,0.29,1.35,0.43,2.02,0.43
		c0.85,0,1.67-0.23,2.41-0.63c1.91-0.71,3.27-2.52,3.27-4.67V152.22L271.01,92.41z M34.99,90.7L150.7,28.3l107.64,59.39
		l-110.72,57.09c-2.01,1.03-2.99,3.23-2.6,5.34V270.3L34.99,221.53V90.7z"/>
	<linearGradient id="SVGID_2_" gradientUnits="userSpaceOnUse" x1="199.3445" y1="-185.4471" x2="240.4873" y2="485.498">
		<stop  offset="0" style="stop-color:#FFC14D"/>
		<stop  offset="1" style="stop-color:#FF576A"/>
	</linearGradient>
	<path class="st1" d="M272.62,114.63c-1.43-1.78-3.95-2.41-6.09-1.36l-35.55,17.43c-0.01,0.01-0.02,0.02-0.04,0.02l-0.33,0.15
		c-1.78,0.81-2.92,2.59-2.92,4.54l-0.09,56.39l-53.6,27.56c-1.36,0.7-2.3,1.97-2.6,3.43c-0.12,0.41-0.21,0.84-0.22,1.3l-0.74,41.72
		c-0.05,2.76,2.15,5.04,4.91,5.09c0.03,0,0.06,0,0.09,0c0.12,0,0.23-0.03,0.34-0.03c0.17,0.02,0.33,0.03,0.5,0.03
		c0.78,0,1.57-0.18,2.29-0.55l93.29-47.97c1.67-0.86,2.71-2.57,2.71-4.45v-99.36C274.57,117.02,273.84,115.57,272.62,114.63z
		 M264.57,214.88l-83.29,42.82v-30.85l53.6-27.56c1.66-0.86,2.71-2.57,2.71-4.44l0.09-56.23l26.89-12.28V214.88z"/>
</g>
</svg>
