<?xml version="1.0" encoding="utf-8"?>
<!-- Generator: Adobe Illustrator 24.1.3, SVG Export Plug-In . SVG Version: 6.00 Build 0)  -->
<svg version="1.1" id="elastic-block-store-ebs" xmlns="http://www.w3.org/2000/svg" xmlns:xlink="http://www.w3.org/1999/xlink"
	 x="0px" y="0px" viewBox="0 0 300 300" style="enable-background:new 0 0 300 300;" xml:space="preserve">
<style type="text/css">
	.st0{fill:url(#SVGID_1_);}
	.st1{fill:url(#SVGID_2_);}
	.st2{fill:url(#SVGID_3_);}
	.st3{fill:url(#SVGID_4_);}
	.st4{fill:url(#SVGID_5_);}
</style>
<g>
	<linearGradient id="SVGID_1_" gradientUnits="userSpaceOnUse" x1="149.2805" y1="-192.1976" x2="149.2805" y2="611.6721">
		<stop  offset="0" style="stop-color:#DBFF00"/>
		<stop  offset="0.992" style="stop-color:#519900"/>
	</linearGradient>
	<path class="st0" d="M220.96,83.87c-0.01-0.04-0.01-0.08-0.02-0.12c-0.1-0.45-0.22-0.89-0.35-1.33c-0.05-0.16-0.09-0.32-0.15-0.48
		c-0.1-0.29-0.21-0.57-0.33-0.85c-0.14-0.33-0.28-0.67-0.44-1c-0.04-0.09-0.09-0.18-0.14-0.26c-7.6-15.06-39.26-22.9-70.25-22.9
		s-62.65,7.84-70.25,22.9c-0.05,0.09-0.09,0.18-0.14,0.26c-0.16,0.33-0.3,0.66-0.44,1c-0.12,0.28-0.23,0.56-0.33,0.85
		c-0.05,0.16-0.1,0.32-0.15,0.48c-0.14,0.44-0.26,0.88-0.35,1.33c-0.01,0.04-0.01,0.08-0.02,0.12c-0.11,0.55-0.2,1.11-0.25,1.67
		c-0.05,0.29-0.08,0.58-0.08,0.88v117.16c0,0.62,0.12,1.21,0.33,1.75c3.76,17.63,38.56,26.85,71.67,26.85
		c33.07,0,67.82-9.19,71.66-26.78c0.22-0.57,0.34-1.18,0.34-1.83V86.42c0-0.3-0.03-0.59-0.08-0.88
		C221.15,84.97,221.07,84.42,220.96,83.87z M87.3,86.65c0.38-8.23,24.15-19.71,61.98-19.71s61.59,11.48,61.98,19.71
		c0,0.09,0.01,0.17,0.02,0.26c-0.09,8.31-23.66,19.87-62,19.87c-38.34,0-61.9-11.55-62-19.87C87.29,86.82,87.3,86.73,87.3,86.65z
		 M211.24,202.89c-1.1,7.89-23.79,19.3-61.95,19.3s-60.85-11.41-61.95-19.3c-0.01-0.09-0.03-0.18-0.05-0.27v-99.99
		c13.38,9.27,38.2,14.15,62,14.15s48.62-4.88,62-14.15v99.99C211.26,202.7,211.25,202.8,211.24,202.89z"/>
	<linearGradient id="SVGID_2_" gradientUnits="userSpaceOnUse" x1="37.68" y1="-192.1976" x2="37.68" y2="611.6721">
		<stop  offset="0" style="stop-color:#DBFF00"/>
		<stop  offset="0.992" style="stop-color:#519900"/>
	</linearGradient>
	<path class="st1" d="M30.35,17.25h17.93c2.76,0,5-2.24,5-5s-2.24-5-5-5h-31c-2.76,0-5,2.24-5,5v31c0,2.76,2.24,5,5,5s5-2.24,5-5
		V23.32l32.26,32.26c0.98,0.98,2.26,1.46,3.54,1.46s2.56-0.49,3.54-1.46c1.95-1.95,1.95-5.12,0-7.07L30.35,17.25z"/>
	<linearGradient id="SVGID_3_" gradientUnits="userSpaceOnUse" x1="261.881" y1="-192.1976" x2="261.881" y2="611.6721">
		<stop  offset="0" style="stop-color:#DBFF00"/>
		<stop  offset="0.992" style="stop-color:#519900"/>
	</linearGradient>
	<path class="st2" d="M282.28,7.25h-31c-2.76,0-5,2.24-5,5s2.24,5,5,5h17.93l-31.26,31.26c-1.95,1.95-1.95,5.12,0,7.07
		c0.98,0.98,2.26,1.46,3.54,1.46s2.56-0.49,3.54-1.46l32.26-32.26v19.93c0,2.76,2.24,5,5,5s5-2.24,5-5v-31
		C287.28,9.49,285.04,7.25,282.28,7.25z"/>
	<linearGradient id="SVGID_4_" gradientUnits="userSpaceOnUse" x1="37.68" y1="-192.1976" x2="37.68" y2="611.6721">
		<stop  offset="0" style="stop-color:#DBFF00"/>
		<stop  offset="0.992" style="stop-color:#519900"/>
	</linearGradient>
	<path class="st3" d="M54.54,244.71l-32.26,32.26v-19.93c0-2.76-2.24-5-5-5s-5,2.24-5,5v31c0,2.76,2.24,5,5,5h31c2.76,0,5-2.24,5-5
		s-2.24-5-5-5H30.35l31.26-31.26c1.95-1.95,1.95-5.12,0-7.07C59.66,242.76,56.5,242.76,54.54,244.71z"/>
	<linearGradient id="SVGID_5_" gradientUnits="userSpaceOnUse" x1="261.881" y1="-192.1976" x2="261.881" y2="611.6721">
		<stop  offset="0" style="stop-color:#DBFF00"/>
		<stop  offset="0.992" style="stop-color:#519900"/>
	</linearGradient>
	<path class="st4" d="M282.28,252.05c-2.76,0-5,2.24-5,5v19.93l-32.26-32.26c-1.95-1.95-5.12-1.95-7.07,0
		c-1.95,1.95-1.95,5.12,0,7.07l31.26,31.26h-17.93c-2.76,0-5,2.24-5,5s2.24,5,5,5h31c2.76,0,5-2.24,5-5v-31
		C287.28,254.28,285.04,252.05,282.28,252.05z"/>
</g>
</svg>
