<?xml version="1.0" encoding="utf-8"?>
<!-- Generator: Adobe Illustrator 24.1.3, SVG Export Plug-In . SVG Version: 6.00 Build 0)  -->
<svg version="1.1" id="elb" xmlns="http://www.w3.org/2000/svg" xmlns:xlink="http://www.w3.org/1999/xlink" x="0px" y="0px"
	 viewBox="0 0 300 300" style="enable-background:new 0 0 300 300;" xml:space="preserve">
<style type="text/css">
	.st0{fill:url(#SVGID_1_);}
</style>
<linearGradient id="SVGID_1_" gradientUnits="userSpaceOnUse" x1="134.1993" y1="53.6514" x2="293.1912" y2="896.9996">
	<stop  offset="0" style="stop-color:#AE3AFF"/>
	<stop  offset="1" style="stop-color:#6B09E9"/>
</linearGradient>
<path class="st0" d="M181.51,158.55l56.85,0.07c0.9,5.74,3.57,11.04,7.76,15.24c5.23,5.24,12.19,8.13,19.59,8.14
	c0.01,0,0.02,0,0.03,0c7.39,0,14.34-2.87,19.57-8.1c5.24-5.23,8.13-12.19,8.14-19.59c0.02-15.28-12.4-27.73-27.69-27.75
	c-0.01,0-0.02,0-0.03,0c-7.39,0-14.34,2.87-19.58,8.1c-4.2,4.19-6.88,9.48-7.79,15.22l-56.86-0.07
	c-0.78-14.95-5.49-28.87-13.11-40.76l55.06-38.14c4.89,7.88,13.6,13.14,23.53,13.15c0.01,0,0.02,0,0.03,0
	c7.39,0,14.34-2.87,19.58-8.1c5.24-5.23,8.13-12.19,8.14-19.59s-2.87-14.37-8.1-19.61c-5.23-5.24-12.19-8.13-19.59-8.14
	c-0.01,0-0.02,0-0.03,0c-7.39,0-14.34,2.87-19.57,8.1c-5.24,5.23-8.13,12.19-8.14,19.59c0,2.18,0.26,4.3,0.73,6.34l-56.74,39.31
	c-15.38-19.25-39.05-31.61-65.55-31.61c-46.25,0-83.87,37.63-83.87,83.87s37.63,83.87,83.87,83.87c19.76,0,37.95-6.88,52.3-18.35
	l69.16,35.09c1.34,14.03,13.18,25.04,27.56,25.06c0.01,0,0.02,0,0.03,0c15.27,0,27.7-12.41,27.72-27.69
	c0.01-7.4-2.87-14.37-8.1-19.61c-5.23-5.24-12.19-8.13-19.59-8.14c-0.01,0-0.02,0-0.03,0c-7.39,0-14.34,2.87-19.57,8.1
	c-3.61,3.6-6.1,8.02-7.31,12.84l-62.87-31.9C171.26,199.26,180.42,179.95,181.51,158.55z M228.74,61.45
	c-0.46-1.63-0.71-3.35-0.7-5.13c0.01-5.07,1.99-9.83,5.57-13.42c3.58-3.57,8.34-5.54,13.4-5.54c0.01,0,0.02,0,0.02,0
	c5.07,0.01,9.83,1.99,13.41,5.57c3.58,3.59,5.55,8.36,5.54,13.43c-0.01,5.07-1.99,9.83-5.57,13.42c-3.58,3.58-8.34,5.54-13.4,5.54
	c-0.01,0-0.01,0-0.02,0c-7.64-0.01-14.22-4.55-17.23-11.07 M246.83,152.65c0.38-4.46,2.29-8.61,5.49-11.81
	c3.58-3.58,8.34-5.54,13.4-5.54c0.01,0,0.01,0,0.02,0c10.47,0.01,18.97,8.54,18.96,19c-0.01,5.07-1.99,9.83-5.57,13.42
	c-3.58,3.57-8.34,5.54-13.4,5.54c-0.01,0-0.02,0-0.02,0c-5.07-0.01-9.83-1.99-13.41-5.57c-3.2-3.21-5.1-7.36-5.47-11.82
	 M145.49,212.19c-12.99,10.72-29.63,17.16-47.75,17.16c-41.43,0-75.14-33.71-75.14-75.14s33.71-75.14,75.14-75.14
	s75.14,33.71,75.14,75.14c0,22.34-9.81,42.42-25.33,56.19 M233.39,238.73c3.58-3.57,8.34-5.54,13.4-5.54c0.01,0,0.02,0,0.02,0
	c5.07,0.01,9.83,1.99,13.41,5.57c3.58,3.59,5.55,8.36,5.54,13.43c-0.01,10.46-8.52,18.96-18.98,18.96c-0.01,0-0.01,0-0.02,0
	c-10.47-0.01-18.97-8.54-18.96-19C227.82,247.07,229.8,242.31,233.39,238.73z"/>
</svg>
