<?xml version="1.0" encoding="utf-8"?>
<!-- Generator: Adobe Illustrator 24.1.3, SVG Export Plug-In . SVG Version: 6.00 Build 0)  -->
<svg version="1.1" id="internet-gateway" xmlns="http://www.w3.org/2000/svg" xmlns:xlink="http://www.w3.org/1999/xlink" x="0px"
	 y="0px" viewBox="0 0 300 300" style="enable-background:new 0 0 300 300;" xml:space="preserve">
<style type="text/css">
	.st0{fill:url(#SVGID_1_);}
	.st1{fill:url(#SVGID_2_);}
</style>
<g>
	<linearGradient id="SVGID_1_" gradientUnits="userSpaceOnUse" x1="144.9616" y1="-111.7129" x2="162.9486" y2="882.0652">
		<stop  offset="0" style="stop-color:#AE3AFF"/>
		<stop  offset="1" style="stop-color:#6B09E9"/>
	</linearGradient>
	<path class="st0" d="M149.7,20.97c-71.29,0-129.3,58-129.3,129.3s58,129.3,129.3,129.3s129.3-58,129.3-129.3S221,20.97,149.7,20.97
		z M149.7,272.46c-67.38,0-122.19-54.82-122.19-122.19S82.33,28.07,149.7,28.07S271.9,82.89,271.9,150.26
		S217.08,272.46,149.7,272.46z"/>
	<linearGradient id="SVGID_2_" gradientUnits="userSpaceOnUse" x1="144.743" y1="-111.7089" x2="162.7299" y2="882.0692">
		<stop  offset="0" style="stop-color:#AE3AFF"/>
		<stop  offset="1" style="stop-color:#6B09E9"/>
	</linearGradient>
	<path class="st1" d="M185.7,86.35c-10.74-3.27-23.18-5-35.99-5s-25.26,1.73-35.99,5c-19.66,5.99-31.4,16.53-31.4,28.19v95.68
		c0,4.94,4.02,8.95,8.95,8.95h18.08c4.94,0,8.95-4.02,8.95-8.95v-86.29c0-0.84,0.57-1.57,1.38-1.79
		c10.02-2.69,20.12-4.05,30.03-4.05c10.51,0,20.89,1.24,30.01,3.59c0.82,0.21,1.4,0.95,1.4,1.79v86.74c0,4.94,4.02,8.95,8.95,8.95
		h18.08c4.94,0,8.95-4.02,8.95-8.95v-95.68C217.09,102.88,205.36,92.34,185.7,86.35z M209.99,210.22c0,1.02-0.83,1.85-1.85,1.85
		h-18.08c-1.02,0-1.85-0.83-1.85-1.85v-86.74c0-4.09-2.77-7.65-6.73-8.67c-9.69-2.5-20.68-3.82-31.78-3.82
		c-10.53,0-21.25,1.44-31.87,4.29c-3.91,1.05-6.64,4.61-6.64,8.65v86.29c0,1.02-0.83,1.85-1.85,1.85H91.26
		c-1.02,0-1.85-0.83-1.85-1.85v-95.68c0-8.25,10.1-16.45,26.36-21.4c10.07-3.07,21.8-4.69,33.92-4.69c12.12,0,23.85,1.62,33.92,4.69
		c16.26,4.95,26.36,13.15,26.36,21.4V210.22z"/>
</g>
</svg>
