<?xml version="1.0" encoding="utf-8"?>
<!-- Generator: Adobe Illustrator 24.1.3, SVG Export Plug-In . SVG Version: 6.00 Build 0)  -->
<svg version="1.1" id="rds-on-vmware" xmlns="http://www.w3.org/2000/svg" xmlns:xlink="http://www.w3.org/1999/xlink" x="0px"
	 y="0px" viewBox="0 0 300 300" style="enable-background:new 0 0 300 300;" xml:space="preserve">
<style type="text/css">
	.st0{fill:url(#SVGID_1_);}
	.st1{fill:url(#SVGID_2_);}
	.st2{fill:url(#SVGID_3_);}
	.st3{fill:url(#SVGID_4_);}
	.st4{fill:url(#SVGID_5_);}
	.st5{fill:url(#SVGID_6_);}
	.st6{fill:url(#SVGID_7_);}
	.st7{fill:url(#SVGID_8_);}
	.st8{fill:url(#SVGID_9_);}
	.st9{fill:url(#SVGID_10_);}
</style>
<g>
	<linearGradient id="SVGID_1_" gradientUnits="userSpaceOnUse" x1="103.2744" y1="-139.7813" x2="211.1776" y2="608.6243">
		<stop  offset="0" style="stop-color:#03E5FF"/>
		<stop  offset="1" style="stop-color:#5D33E9"/>
	</linearGradient>
	<path class="st0" d="M204.83,183c0.19-0.49,0.3-1.03,0.3-1.6v-31.6v-32.1V78.98c0-0.26-0.02-0.52-0.07-0.77
		c-0.04-0.49-0.11-0.96-0.21-1.44c-0.01-0.04-0.01-0.08-0.02-0.12c-0.08-0.38-0.19-0.76-0.3-1.14c-0.05-0.15-0.09-0.3-0.14-0.45
		c-0.08-0.24-0.18-0.48-0.28-0.72c-0.12-0.3-0.25-0.61-0.39-0.9c-0.03-0.07-0.07-0.13-0.1-0.2c-6.62-13.18-34.32-20.04-61.42-20.04
		c-27.09,0-54.78,6.86-61.42,20.02c-0.04,0.07-0.08,0.15-0.12,0.22c-0.14,0.29-0.26,0.58-0.38,0.88c-0.1,0.24-0.2,0.49-0.29,0.73
		c-0.05,0.14-0.09,0.29-0.13,0.43c-0.12,0.38-0.22,0.76-0.31,1.15c-0.01,0.03-0.01,0.07-0.02,0.1c-0.1,0.48-0.17,0.97-0.21,1.46
		c-0.04,0.25-0.07,0.51-0.07,0.77v38.54v32.1v31.78c0,0.54,0.1,1.06,0.29,1.53c3.28,15.42,33.71,23.47,62.66,23.47
		C171.1,206.41,201.48,198.38,204.83,183z M195.96,148.95c-0.06,0.08-0.14,0.16-0.21,0.24c-0.09,0.11-0.18,0.22-0.28,0.33
		c-0.08,0.08-0.16,0.17-0.24,0.26c-0.1,0.11-0.21,0.22-0.32,0.34c-0.09,0.09-0.18,0.18-0.27,0.27c-0.11,0.11-0.23,0.23-0.35,0.34
		c-0.1,0.09-0.2,0.19-0.3,0.28c-0.13,0.12-0.25,0.23-0.38,0.35c-0.11,0.1-0.22,0.19-0.33,0.29c-0.14,0.12-0.28,0.24-0.42,0.36
		c-0.12,0.1-0.24,0.2-0.37,0.3c-0.15,0.12-0.3,0.24-0.46,0.36c-0.13,0.1-0.27,0.2-0.4,0.3c-0.16,0.12-0.33,0.24-0.5,0.36
		c-0.14,0.1-0.29,0.2-0.44,0.3c-0.18,0.12-0.36,0.25-0.55,0.37c-0.15,0.1-0.31,0.2-0.47,0.3c-0.2,0.12-0.4,0.25-0.6,0.37
		c-0.16,0.1-0.33,0.2-0.5,0.3c-0.22,0.13-0.44,0.25-0.67,0.38c-0.17,0.1-0.35,0.2-0.53,0.29c-0.24,0.13-0.49,0.26-0.74,0.39
		c-0.18,0.09-0.36,0.19-0.55,0.28c-0.27,0.13-0.55,0.27-0.83,0.4c-0.18,0.09-0.36,0.17-0.54,0.26c-0.32,0.15-0.66,0.3-1,0.44
		c-0.16,0.07-0.31,0.14-0.47,0.21c-1.02,0.43-2.1,0.85-3.26,1.25c-0.18,0.06-0.37,0.12-0.55,0.19c-0.41,0.14-0.81,0.28-1.23,0.41
		c-0.24,0.08-0.48,0.15-0.73,0.22c-0.38,0.12-0.77,0.24-1.17,0.35c-0.27,0.08-0.56,0.15-0.84,0.23c-0.39,0.11-0.77,0.21-1.17,0.32
		c-0.3,0.08-0.61,0.15-0.91,0.23c-0.4,0.1-0.8,0.2-1.21,0.29c-0.32,0.07-0.65,0.15-0.98,0.22c-0.42,0.09-0.83,0.18-1.26,0.27
		c-0.34,0.07-0.69,0.14-1.05,0.21c-0.44,0.08-0.88,0.17-1.33,0.25c-0.36,0.06-0.73,0.13-1.1,0.19c-0.46,0.08-0.92,0.15-1.4,0.22
		c-0.38,0.06-0.77,0.12-1.16,0.17c-0.48,0.07-0.97,0.14-1.47,0.2c-0.4,0.05-0.8,0.1-1.21,0.15c-0.51,0.06-1.03,0.12-1.55,0.18
		c-0.42,0.05-0.84,0.09-1.27,0.13c-0.54,0.05-1.09,0.1-1.64,0.15c-0.43,0.04-0.87,0.08-1.31,0.11c-0.58,0.04-1.18,0.08-1.77,0.12
		c-0.44,0.03-0.87,0.06-1.32,0.08c-0.64,0.04-1.29,0.06-1.94,0.09c-0.43,0.02-0.85,0.04-1.29,0.06c-0.73,0.03-1.49,0.05-2.24,0.06
		c-0.38,0.01-0.75,0.02-1.14,0.03c-1.15,0.02-2.33,0.03-3.53,0.03c-1.19,0-2.36-0.01-3.5-0.03c-0.38-0.01-0.74-0.02-1.11-0.03
		c-0.75-0.02-1.51-0.04-2.24-0.06c-0.44-0.02-0.86-0.04-1.29-0.06c-0.65-0.03-1.29-0.06-1.92-0.09c-0.45-0.03-0.88-0.06-1.32-0.09
		c-0.59-0.04-1.18-0.08-1.75-0.12c-0.44-0.03-0.87-0.07-1.3-0.11c-0.55-0.05-1.1-0.1-1.64-0.15c-0.43-0.04-0.84-0.09-1.26-0.13
		c-0.52-0.06-1.04-0.12-1.55-0.18c-0.41-0.05-0.81-0.1-1.21-0.16c-0.49-0.07-0.99-0.13-1.47-0.2c-0.39-0.06-0.77-0.12-1.16-0.18
		c-0.47-0.07-0.94-0.15-1.39-0.23c-0.37-0.06-0.73-0.13-1.09-0.19c-0.45-0.08-0.89-0.17-1.33-0.25c-0.35-0.07-0.69-0.14-1.03-0.21
		c-0.43-0.09-0.85-0.18-1.27-0.28c-0.33-0.07-0.65-0.14-0.97-0.22c-0.42-0.1-0.82-0.2-1.22-0.3c-0.3-0.08-0.61-0.15-0.9-0.23
		c-0.4-0.11-0.8-0.22-1.19-0.32c-0.27-0.08-0.55-0.15-0.82-0.23c-0.4-0.12-0.79-0.24-1.18-0.36c-0.24-0.07-0.48-0.15-0.72-0.22
		c-0.43-0.14-0.84-0.28-1.25-0.42c-0.18-0.06-0.36-0.12-0.54-0.18c-1.16-0.41-2.25-0.84-3.27-1.27c-0.16-0.07-0.3-0.13-0.46-0.2
		c-0.35-0.15-0.69-0.3-1.03-0.46c-0.18-0.08-0.35-0.17-0.53-0.26c-0.29-0.14-0.58-0.28-0.85-0.41c-0.18-0.09-0.36-0.19-0.54-0.28
		c-0.25-0.13-0.51-0.27-0.75-0.4c-0.18-0.1-0.35-0.19-0.52-0.29c-0.23-0.13-0.46-0.26-0.68-0.39c-0.17-0.1-0.33-0.2-0.49-0.3
		c-0.21-0.13-0.42-0.26-0.62-0.39c-0.16-0.1-0.31-0.2-0.46-0.3c-0.19-0.13-0.38-0.25-0.57-0.38c-0.15-0.1-0.29-0.2-0.43-0.3
		c-0.18-0.13-0.35-0.25-0.52-0.38c-0.13-0.1-0.27-0.2-0.4-0.3c-0.16-0.13-0.32-0.25-0.48-0.38c-0.12-0.1-0.24-0.19-0.36-0.29
		c-0.15-0.12-0.3-0.25-0.44-0.37c-0.11-0.1-0.22-0.19-0.33-0.29c-0.14-0.12-0.27-0.24-0.4-0.36c-0.1-0.09-0.2-0.18-0.29-0.27
		c-0.13-0.12-0.25-0.24-0.37-0.37c-0.09-0.08-0.17-0.17-0.26-0.25c-0.12-0.12-0.23-0.24-0.35-0.37c-0.07-0.08-0.15-0.16-0.22-0.23
		c-0.12-0.13-0.23-0.26-0.34-0.38c-0.05-0.06-0.11-0.13-0.17-0.19c-0.14-0.17-0.28-0.33-0.41-0.5c-0.01-0.02-0.03-0.03-0.04-0.05
		v-20.22c0.06,0.04,0.12,0.08,0.18,0.13c0.1,0.07,0.21,0.15,0.31,0.22c0.29,0.2,0.58,0.4,0.88,0.6c0.09,0.06,0.19,0.13,0.28,0.19
		c0.38,0.25,0.77,0.5,1.18,0.74c0.1,0.06,0.21,0.13,0.32,0.19c0.33,0.2,0.66,0.39,1.01,0.59c0.12,0.07,0.25,0.14,0.37,0.21
		c0.44,0.24,0.89,0.49,1.35,0.73c0.09,0.04,0.18,0.09,0.26,0.13c0.4,0.2,0.8,0.4,1.21,0.6c0.15,0.07,0.29,0.14,0.44,0.21
		c0.48,0.23,0.97,0.45,1.48,0.67c0.03,0.01,0.06,0.03,0.09,0.04c0.53,0.23,1.07,0.46,1.63,0.68c0.16,0.07,0.33,0.13,0.49,0.19
		c0.47,0.19,0.95,0.37,1.44,0.55c0.12,0.04,0.23,0.09,0.35,0.13c0.59,0.21,1.2,0.42,1.82,0.63c0.17,0.06,0.34,0.11,0.51,0.17
		c0.5,0.16,1.02,0.32,1.54,0.48c0.17,0.05,0.34,0.1,0.51,0.15c0.66,0.19,1.34,0.38,2.03,0.57c0.15,0.04,0.31,0.08,0.47,0.12
		c0.57,0.15,1.16,0.3,1.76,0.44c0.2,0.05,0.41,0.1,0.61,0.15c0.74,0.17,1.49,0.34,2.27,0.5c0.09,0.02,0.17,0.03,0.26,0.05
		c0.7,0.14,1.42,0.28,2.15,0.42c0.23,0.04,0.46,0.08,0.69,0.12c0.73,0.13,1.48,0.26,2.24,0.38c0.1,0.02,0.2,0.03,0.3,0.05
		c0.85,0.13,1.73,0.25,2.62,0.37c0.24,0.03,0.48,0.06,0.72,0.09c0.74,0.09,1.5,0.18,2.26,0.27c0.2,0.02,0.39,0.04,0.59,0.07
		c0.93,0.1,1.89,0.19,2.86,0.27c0.23,0.02,0.46,0.04,0.69,0.06c0.8,0.06,1.61,0.12,2.44,0.18c0.26,0.02,0.52,0.03,0.78,0.05
		c1.03,0.06,2.07,0.11,3.13,0.16c0.17,0.01,0.35,0.01,0.53,0.02c0.92,0.04,1.86,0.06,2.81,0.08c0.3,0.01,0.6,0.01,0.91,0.02
		c1.13,0.02,2.27,0.03,3.44,0.03c1.18,0,2.33-0.01,3.47-0.03c0.3-0.01,0.6-0.01,0.9-0.02c0.98-0.02,1.94-0.05,2.89-0.08
		c0.16-0.01,0.32-0.01,0.47-0.02c1.07-0.04,2.12-0.1,3.16-0.16c0.27-0.02,0.53-0.03,0.8-0.05c0.84-0.05,1.67-0.11,2.49-0.18
		c0.22-0.02,0.43-0.03,0.65-0.05c0.98-0.08,1.94-0.17,2.88-0.27c0.22-0.02,0.43-0.05,0.65-0.07c0.76-0.08,1.51-0.17,2.25-0.26
		c0.23-0.03,0.47-0.06,0.7-0.09c0.89-0.12,1.77-0.24,2.62-0.37c0.15-0.02,0.3-0.05,0.46-0.07c0.72-0.11,1.43-0.23,2.13-0.35
		c0.23-0.04,0.45-0.08,0.68-0.12c0.81-0.15,1.61-0.3,2.39-0.46c0.06-0.01,0.11-0.02,0.17-0.04c0.73-0.15,1.44-0.31,2.14-0.47
		c0.21-0.05,0.42-0.1,0.63-0.15c0.65-0.15,1.28-0.31,1.9-0.47c0.1-0.03,0.2-0.05,0.3-0.08c0.7-0.18,1.38-0.37,2.04-0.57
		c0.18-0.05,0.36-0.11,0.55-0.16c0.54-0.16,1.07-0.33,1.59-0.49c0.14-0.04,0.28-0.09,0.41-0.13c0.62-0.2,1.23-0.41,1.82-0.63
		c0.15-0.05,0.29-0.11,0.44-0.16c0.48-0.17,0.94-0.35,1.4-0.53c0.14-0.06,0.29-0.11,0.43-0.17c0.56-0.22,1.1-0.45,1.63-0.67
		c0.11-0.05,0.21-0.09,0.31-0.14c0.44-0.19,0.87-0.39,1.29-0.58c0.14-0.06,0.27-0.13,0.4-0.19c0.5-0.24,0.98-0.48,1.45-0.72
		c0.04-0.02,0.08-0.04,0.13-0.07c0.43-0.22,0.85-0.45,1.26-0.68c0.12-0.07,0.24-0.13,0.35-0.2c0.41-0.23,0.81-0.46,1.2-0.7
		c0.03-0.02,0.06-0.03,0.09-0.05c0.42-0.25,0.82-0.51,1.21-0.76c0.09-0.06,0.19-0.12,0.28-0.19c0.33-0.22,0.66-0.44,0.98-0.67
		c0.05-0.04,0.11-0.07,0.16-0.11c0.03-0.02,0.06-0.04,0.09-0.06v20.22c-0.05,0.06-0.1,0.12-0.14,0.18
		C196.15,148.71,196.06,148.82,195.96,148.95z M88.01,79.18c0.33-7.2,21.11-17.23,54.18-17.23c33.07,0,53.85,10.04,54.18,17.23
		c0,0.07,0.01,0.15,0.02,0.22c-0.08,7.27-20.68,17.37-54.2,17.37c-33.51,0-54.11-10.1-54.2-17.37C88,79.33,88.01,79.26,88.01,79.18z
		 M142.19,105.52c20.81,0,42.5-4.27,54.2-12.37v23.16c0,0,0,0,0,0c-0.01,0.02-0.03,0.04-0.04,0.05c-0.12,0.16-0.25,0.32-0.39,0.48
		c-0.05,0.06-0.11,0.13-0.16,0.19c-0.11,0.12-0.21,0.25-0.33,0.38c-0.07,0.07-0.14,0.15-0.21,0.23c-0.11,0.12-0.22,0.24-0.34,0.36
		c-0.08,0.08-0.17,0.17-0.25,0.25c-0.12,0.12-0.24,0.24-0.37,0.36c-0.09,0.09-0.19,0.18-0.28,0.26c-0.13,0.12-0.26,0.24-0.4,0.37
		c-0.1,0.09-0.21,0.18-0.32,0.28c-0.14,0.12-0.29,0.24-0.43,0.37c-0.12,0.1-0.24,0.19-0.36,0.29c-0.15,0.12-0.31,0.25-0.47,0.37
		c-0.13,0.1-0.26,0.19-0.39,0.29c-0.17,0.13-0.34,0.25-0.52,0.38c-0.14,0.1-0.28,0.2-0.42,0.29c-0.18,0.13-0.38,0.25-0.57,0.38
		c-0.15,0.1-0.3,0.2-0.45,0.29c-0.2,0.13-0.41,0.26-0.62,0.38c-0.16,0.1-0.32,0.19-0.49,0.29c-0.22,0.13-0.45,0.26-0.68,0.39
		c-0.17,0.1-0.34,0.19-0.51,0.29c-0.25,0.13-0.5,0.26-0.76,0.4c-0.17,0.09-0.35,0.18-0.53,0.27c-0.28,0.14-0.57,0.28-0.86,0.41
		c-0.17,0.08-0.34,0.17-0.52,0.25c-0.33,0.15-0.68,0.31-1.04,0.46c-0.15,0.06-0.29,0.13-0.44,0.19c-1.02,0.43-2.1,0.85-3.26,1.26
		c-0.17,0.06-0.36,0.12-0.53,0.18c-0.41,0.14-0.82,0.28-1.25,0.42c-0.23,0.07-0.47,0.14-0.71,0.22c-0.39,0.12-0.78,0.24-1.18,0.36
		c-0.27,0.08-0.55,0.15-0.82,0.23c-0.39,0.11-0.78,0.22-1.19,0.32c-0.29,0.08-0.6,0.15-0.9,0.22c-0.4,0.1-0.81,0.2-1.22,0.29
		c-0.32,0.07-0.65,0.14-0.97,0.22c-0.42,0.09-0.84,0.18-1.27,0.27c-0.34,0.07-0.69,0.14-1.04,0.2c-0.44,0.08-0.88,0.17-1.33,0.25
		c-0.36,0.06-0.73,0.13-1.1,0.19c-0.46,0.08-0.93,0.15-1.4,0.22c-0.38,0.06-0.77,0.12-1.16,0.17c-0.48,0.07-0.97,0.14-1.47,0.2
		c-0.4,0.05-0.8,0.1-1.21,0.15c-0.51,0.06-1.03,0.12-1.56,0.18c-0.42,0.05-0.84,0.09-1.27,0.13c-0.54,0.05-1.09,0.1-1.65,0.15
		c-0.43,0.04-0.86,0.08-1.31,0.11c-0.58,0.04-1.18,0.08-1.77,0.12c-0.44,0.03-0.87,0.06-1.32,0.08c-0.64,0.04-1.29,0.06-1.94,0.09
		c-0.43,0.02-0.85,0.04-1.29,0.06c-0.73,0.03-1.49,0.05-2.24,0.06c-0.38,0.01-0.75,0.02-1.14,0.03c-1.15,0.02-2.33,0.03-3.53,0.03
		c-1.19,0-2.36-0.01-3.5-0.03c-0.38-0.01-0.74-0.02-1.11-0.03c-0.75-0.02-1.51-0.04-2.24-0.06c-0.44-0.02-0.86-0.04-1.29-0.06
		c-0.64-0.03-1.29-0.06-1.92-0.09c-0.45-0.03-0.88-0.06-1.32-0.09c-0.59-0.04-1.18-0.08-1.75-0.12c-0.44-0.03-0.87-0.07-1.31-0.11
		c-0.55-0.05-1.09-0.1-1.63-0.15c-0.43-0.04-0.85-0.09-1.27-0.14c-0.52-0.06-1.03-0.11-1.53-0.18c-0.41-0.05-0.82-0.1-1.23-0.16
		c-0.49-0.06-0.97-0.13-1.44-0.2c-0.4-0.06-0.79-0.12-1.18-0.18c-0.46-0.07-0.92-0.15-1.37-0.22c-0.38-0.06-0.75-0.13-1.12-0.2
		c-0.44-0.08-0.87-0.16-1.3-0.25c-0.36-0.07-0.71-0.14-1.06-0.21c-0.42-0.09-0.83-0.18-1.24-0.27c-0.34-0.07-0.67-0.15-1-0.23
		c-0.4-0.09-0.8-0.19-1.19-0.29c-0.31-0.08-0.63-0.16-0.93-0.24c-0.39-0.1-0.77-0.21-1.15-0.31c-0.29-0.08-0.58-0.16-0.86-0.24
		c-0.38-0.11-0.75-0.23-1.12-0.34c-0.26-0.08-0.53-0.16-0.78-0.24c-0.39-0.13-0.77-0.26-1.15-0.39c-0.21-0.07-0.43-0.14-0.64-0.22
		c-0.54-0.19-1.06-0.39-1.57-0.58c-0.07-0.03-0.14-0.06-0.22-0.08c-0.5-0.2-0.99-0.4-1.47-0.6c-0.19-0.08-0.37-0.16-0.55-0.24
		c-0.31-0.14-0.63-0.28-0.93-0.42c-0.2-0.09-0.39-0.19-0.59-0.28c-0.27-0.13-0.54-0.26-0.8-0.39c-0.2-0.1-0.39-0.2-0.58-0.3
		c-0.24-0.13-0.48-0.25-0.72-0.38c-0.19-0.1-0.37-0.21-0.55-0.31c-0.22-0.12-0.44-0.25-0.65-0.37c-0.18-0.1-0.35-0.21-0.52-0.31
		c-0.2-0.12-0.4-0.25-0.6-0.37c-0.16-0.1-0.32-0.21-0.48-0.31c-0.19-0.12-0.37-0.25-0.55-0.37c-0.15-0.1-0.3-0.21-0.45-0.31
		c-0.17-0.12-0.34-0.24-0.5-0.36c-0.14-0.1-0.28-0.21-0.41-0.31c-0.16-0.12-0.31-0.24-0.46-0.36c-0.13-0.1-0.26-0.2-0.38-0.3
		c-0.15-0.12-0.29-0.24-0.42-0.36c-0.12-0.1-0.23-0.2-0.34-0.3c-0.13-0.12-0.26-0.24-0.39-0.35c-0.1-0.09-0.21-0.19-0.31-0.28
		c-0.12-0.12-0.24-0.23-0.36-0.35c-0.09-0.09-0.18-0.18-0.27-0.27c-0.12-0.12-0.23-0.24-0.34-0.35c-0.08-0.08-0.16-0.16-0.23-0.24
		c-0.11-0.13-0.22-0.25-0.33-0.37c-0.06-0.07-0.12-0.14-0.18-0.2c-0.15-0.18-0.29-0.35-0.42-0.51c-0.01-0.01-0.02-0.02-0.02-0.03
		V93.15C99.69,101.25,121.38,105.52,142.19,105.52z M196.39,180.56c-0.02,0.08-0.03,0.16-0.04,0.24
		c-0.96,6.89-20.8,16.87-54.16,16.87s-53.2-9.97-54.16-16.87c-0.01-0.08-0.02-0.16-0.04-0.24v-20.48c0.06,0.04,0.12,0.08,0.18,0.12
		c0.11,0.07,0.21,0.15,0.32,0.22c0.29,0.2,0.58,0.4,0.88,0.6c0.09,0.06,0.18,0.12,0.28,0.18c0.38,0.25,0.78,0.5,1.18,0.75
		c0.1,0.06,0.2,0.12,0.3,0.18c0.34,0.2,0.68,0.4,1.03,0.6c0.12,0.07,0.23,0.13,0.35,0.2c0.44,0.25,0.9,0.49,1.37,0.74
		c0.07,0.04,0.15,0.07,0.22,0.11c0.41,0.21,0.83,0.42,1.27,0.63c0.13,0.06,0.27,0.13,0.4,0.19c0.51,0.24,1.03,0.48,1.56,0.71
		c0,0,0,0,0.01,0c0.54,0.24,1.1,0.47,1.67,0.7c0.15,0.06,0.29,0.12,0.44,0.17c0.5,0.2,1,0.39,1.52,0.58
		c0.09,0.03,0.18,0.07,0.28,0.1c0.6,0.22,1.23,0.43,1.86,0.64c0.15,0.05,0.3,0.1,0.44,0.14c0.53,0.17,1.08,0.34,1.63,0.51
		c0.15,0.04,0.29,0.09,0.44,0.13c0.67,0.2,1.36,0.39,2.07,0.58c0.13,0.03,0.26,0.07,0.39,0.1c0.6,0.16,1.22,0.31,1.84,0.46
		c0.19,0.04,0.37,0.09,0.56,0.13c0.75,0.18,1.52,0.35,2.31,0.51c0.06,0.01,0.12,0.02,0.18,0.04c0.73,0.15,1.48,0.3,2.25,0.44
		c0.21,0.04,0.43,0.08,0.64,0.12c0.76,0.13,1.53,0.27,2.32,0.39c0.08,0.01,0.16,0.03,0.24,0.04c0.86,0.13,1.75,0.26,2.64,0.38
		c0.23,0.03,0.46,0.06,0.69,0.09c0.76,0.1,1.52,0.19,2.31,0.27c0.19,0.02,0.37,0.04,0.56,0.06c0.94,0.1,1.9,0.19,2.88,0.27
		c0.22,0.02,0.45,0.04,0.68,0.05c0.81,0.06,1.63,0.12,2.46,0.18c0.25,0.02,0.5,0.03,0.76,0.05c1.03,0.06,2.07,0.12,3.14,0.16
		c0.17,0.01,0.35,0.01,0.52,0.02c0.92,0.04,1.86,0.06,2.81,0.08c0.3,0.01,0.6,0.01,0.91,0.02c1.13,0.02,2.27,0.03,3.44,0.03
		c1.18,0,2.33-0.01,3.47-0.03c0.3-0.01,0.6-0.01,0.9-0.02c0.98-0.02,1.94-0.05,2.89-0.08c0.16-0.01,0.32-0.01,0.47-0.02
		c1.07-0.04,2.12-0.1,3.16-0.16c0.27-0.02,0.53-0.03,0.79-0.05c0.84-0.05,1.67-0.11,2.49-0.18c0.22-0.02,0.43-0.03,0.65-0.05
		c0.98-0.08,1.94-0.17,2.88-0.27c0.22-0.02,0.43-0.05,0.65-0.07c0.76-0.08,1.51-0.17,2.25-0.26c0.23-0.03,0.47-0.06,0.7-0.09
		c0.89-0.12,1.76-0.24,2.62-0.37c0.16-0.02,0.31-0.05,0.47-0.07c0.72-0.11,1.42-0.23,2.12-0.35c0.23-0.04,0.46-0.08,0.69-0.12
		c0.81-0.15,1.61-0.3,2.38-0.46c0.06-0.01,0.11-0.02,0.17-0.04c0.73-0.15,1.44-0.31,2.14-0.47c0.21-0.05,0.42-0.1,0.63-0.15
		c0.64-0.15,1.27-0.31,1.88-0.47c0.1-0.03,0.21-0.05,0.31-0.08c0.69-0.18,1.37-0.37,2.03-0.57c0.19-0.06,0.38-0.11,0.56-0.17
		c0.53-0.16,1.06-0.32,1.57-0.49c0.14-0.05,0.29-0.09,0.43-0.14c0.62-0.2,1.22-0.41,1.81-0.62c0.16-0.06,0.31-0.11,0.47-0.17
		c0.46-0.17,0.92-0.34,1.36-0.52c0.15-0.06,0.31-0.12,0.46-0.18c0.55-0.22,1.08-0.44,1.61-0.67c0.12-0.05,0.23-0.1,0.35-0.16
		c0.42-0.19,0.84-0.37,1.24-0.56c0.15-0.07,0.29-0.14,0.44-0.21c0.49-0.23,0.96-0.47,1.42-0.7c0.07-0.03,0.13-0.07,0.19-0.1
		c0.41-0.21,0.8-0.42,1.19-0.64c0.13-0.07,0.26-0.15,0.39-0.22c0.38-0.22,0.76-0.43,1.12-0.65c0.05-0.03,0.11-0.06,0.16-0.1
		c0.4-0.25,0.79-0.49,1.17-0.74c0.11-0.07,0.22-0.15,0.33-0.22c0.3-0.2,0.6-0.41,0.89-0.61c0.08-0.05,0.16-0.11,0.23-0.16
		c0.02-0.02,0.05-0.03,0.07-0.05V180.56z"/>
	<linearGradient id="SVGID_2_" gradientUnits="userSpaceOnUse" x1="205.4728" y1="-154.516" x2="313.376" y2="593.8896">
		<stop  offset="0" style="stop-color:#03E5FF"/>
		<stop  offset="1" style="stop-color:#5D33E9"/>
	</linearGradient>
	<path class="st1" d="M226.99,175.87c-2.41,0-4.37,1.96-4.37,4.37s1.96,4.37,4.37,4.37c27.96,0,50.7-22.75,50.7-50.7
		s-22.75-50.7-50.7-50.7c-2.41,0-4.37,1.96-4.37,4.37c0,2.41,1.96,4.37,4.37,4.37c23.14,0,41.96,18.82,41.96,41.96
		S250.13,175.87,226.99,175.87z"/>
	<linearGradient id="SVGID_3_" gradientUnits="userSpaceOnUse" x1="0.8664" y1="-125.0164" x2="108.7696" y2="623.3893">
		<stop  offset="0" style="stop-color:#03E5FF"/>
		<stop  offset="1" style="stop-color:#5D33E9"/>
	</linearGradient>
	<path class="st2" d="M58.27,91.95c2.41,0,4.37-1.96,4.37-4.37c0-2.41-1.96-4.37-4.37-4.37c-27.96,0-50.7,22.75-50.7,50.7
		s22.75,50.7,50.7,50.7c2.41,0,4.37-1.96,4.37-4.37s-1.96-4.37-4.37-4.37c-23.14,0-41.96-18.82-41.96-41.96S35.13,91.95,58.27,91.95
		z"/>
	<linearGradient id="SVGID_4_" gradientUnits="userSpaceOnUse" x1="19.7102" y1="-127.7332" x2="127.6134" y2="620.6724">
		<stop  offset="0" style="stop-color:#03E5FF"/>
		<stop  offset="1" style="stop-color:#5D33E9"/>
	</linearGradient>
	<path class="st3" d="M38.22,18.51h15.67c2.41,0,4.37-1.96,4.37-4.37s-1.96-4.37-4.37-4.37h-27.1c-2.41,0-4.37,1.96-4.37,4.37v27.1
		c0,2.41,1.96,4.37,4.37,4.37s4.37-1.96,4.37-4.37V23.82l28.2,28.2c0.85,0.85,1.97,1.28,3.09,1.28s2.24-0.43,3.09-1.28
		c1.71-1.71,1.71-4.47,0-6.18L38.22,18.51z"/>
	<linearGradient id="SVGID_5_" gradientUnits="userSpaceOnUse" x1="213.6332" y1="-155.6925" x2="321.5364" y2="592.7131">
		<stop  offset="0" style="stop-color:#03E5FF"/>
		<stop  offset="1" style="stop-color:#5D33E9"/>
	</linearGradient>
	<path class="st4" d="M222.79,53.3c1.12,0,2.24-0.43,3.09-1.28l28.2-28.2v17.42c0,2.41,1.96,4.37,4.37,4.37s4.37-1.96,4.37-4.37
		v-27.1c0-2.41-1.96-4.37-4.37-4.37h-27.1c-2.41,0-4.37,1.96-4.37,4.37s1.96,4.37,4.37,4.37h15.67L219.7,45.84
		c-1.71,1.71-1.71,4.47,0,6.18C220.56,52.88,221.68,53.3,222.79,53.3z"/>
	<linearGradient id="SVGID_6_" gradientUnits="userSpaceOnUse" x1="-7.5161" y1="-123.8078" x2="100.3871" y2="624.5978">
		<stop  offset="0" style="stop-color:#03E5FF"/>
		<stop  offset="1" style="stop-color:#5D33E9"/>
	</linearGradient>
	<path class="st5" d="M59.37,217.37l-28.2,28.21v-17.42c0-2.41-1.96-4.37-4.37-4.37s-4.37,1.96-4.37,4.37v27.1
		c0,2.41,1.96,4.37,4.37,4.37h27.1c2.41,0,4.37-1.96,4.37-4.37s-1.96-4.37-4.37-4.37H38.22l27.33-27.33c1.71-1.71,1.71-4.47,0-6.18
		C63.84,215.66,61.08,215.66,59.37,217.37z"/>
	<linearGradient id="SVGID_7_" gradientUnits="userSpaceOnUse" x1="165.3989" y1="-148.7382" x2="273.3021" y2="599.6674">
		<stop  offset="0" style="stop-color:#03E5FF"/>
		<stop  offset="1" style="stop-color:#5D33E9"/>
	</linearGradient>
	<path class="st6" d="M281.76,211.67h-55.03c-5.54,0-10.05,4.51-10.05,10.05v14.42l-22.14-21.73c-2.42-2.38-6.37-2.38-8.79,0
		l-26.88,26.37c-2.55,2.5-4.01,5.98-4.01,9.56v35.36c0,4.86,3.96,8.82,8.82,8.82h118.44c5.45,0,9.88-4.43,9.88-9.88v-62.72
		C292,216.27,287.4,211.67,281.76,211.67z M283.26,284.64c0,0.63-0.51,1.14-1.14,1.14H163.68c-0.04,0-0.08-0.04-0.08-0.08v-35.36
		c0-1.24,0.51-2.45,1.39-3.32l25.15-24.68l27.85,27.33c1.26,1.23,3.13,1.59,4.75,0.91c1.62-0.68,2.68-2.27,2.68-4.03v-24.84
		c0-0.72,0.59-1.31,1.31-1.31h55.03c0.83,0,1.5,0.67,1.5,1.5V284.64z"/>
	<linearGradient id="SVGID_8_" gradientUnits="userSpaceOnUse" x1="183.3376" y1="-151.3246" x2="291.2408" y2="597.0811">
		<stop  offset="0" style="stop-color:#03E5FF"/>
		<stop  offset="1" style="stop-color:#5D33E9"/>
	</linearGradient>
	<path class="st7" d="M239.75,232.08c-2.41,0-4.37,1.96-4.37,4.37v6.99c0,2.41,1.96,4.37,4.37,4.37c2.41,0,4.37-1.96,4.37-4.37
		v-6.99C244.12,234.03,242.16,232.08,239.75,232.08z"/>
	<linearGradient id="SVGID_9_" gradientUnits="userSpaceOnUse" x1="197.8966" y1="-153.4237" x2="305.7998" y2="594.982">
		<stop  offset="0" style="stop-color:#03E5FF"/>
		<stop  offset="1" style="stop-color:#5D33E9"/>
	</linearGradient>
	<path class="st8" d="M254.61,232.08c-2.41,0-4.37,1.96-4.37,4.37v6.99c0,2.41,1.96,4.37,4.37,4.37s4.37-1.96,4.37-4.37v-6.99
		C258.98,234.03,257.03,232.08,254.61,232.08z"/>
	<linearGradient id="SVGID_10_" gradientUnits="userSpaceOnUse" x1="212.4556" y1="-155.5228" x2="320.3589" y2="592.8829">
		<stop  offset="0" style="stop-color:#03E5FF"/>
		<stop  offset="1" style="stop-color:#5D33E9"/>
	</linearGradient>
	<path class="st9" d="M269.47,232.08c-2.41,0-4.37,1.96-4.37,4.37v6.99c0,2.41,1.96,4.37,4.37,4.37s4.37-1.96,4.37-4.37v-6.99
		C273.84,234.03,271.89,232.08,269.47,232.08z"/>
</g>
</svg>
