<?xml version="1.0" encoding="utf-8"?>
<!-- Generator: Adobe Illustrator 24.1.3, SVG Export Plug-In . SVG Version: 6.00 Build 0)  -->
<svg version="1.1" id="security_x5F_group" xmlns="http://www.w3.org/2000/svg" xmlns:xlink="http://www.w3.org/1999/xlink" x="0px"
	 y="0px" viewBox="0 0 300 300" style="enable-background:new 0 0 300 300;" xml:space="preserve">
<style type="text/css">
	.st0{fill:url(#SVGID_1_);}
	.st1{fill:url(#SVGID_2_);}
	.st2{fill:url(#SVGID_3_);}
</style>
<g>
	<linearGradient id="SVGID_1_" gradientUnits="userSpaceOnUse" x1="133.8051" y1="-231.8051" x2="167.7955" y2="566.9697">
		<stop  offset="0" style="stop-color:#AE3AFF"/>
		<stop  offset="1" style="stop-color:#6B09E9"/>
	</linearGradient>
	<path class="st0" d="M146.31,181.27H59.04c-13.79,0-25.69-4.5-33.51-12.66c-7.29-7.61-10.85-18.17-10.32-30.55
		c1.11-25.73,17.36-44.56,39.51-45.8c6.05-0.34,11.98,0.55,17.62,2.63c1.96,0.73,4.16,0.46,5.88-0.72c1.7-1.16,2.73-3.09,2.76-5.14
		c0.25-16.18,7.89-32.66,20.45-44.1c11.72-10.68,26.24-15.94,40.89-14.79c30.72,2.39,48.18,17.23,56.62,48.11
		c0.37,1.35,1.35,2.45,2.65,2.98c1.3,0.52,2.77,0.4,3.97-0.32c5.45-3.28,11.66-5.02,17.95-5.02c15.61,0,29.42,10.48,34.37,26.08
		c0.64,2,2.58,3.3,4.66,3.1c2.02-0.06,13.6,0.98,21.95,7.9c1.9,1.58,4.72,1.31,6.3-0.59c1.58-1.9,1.31-4.72-0.59-6.3
		c-8.56-7.1-19.18-9.27-24.84-9.8c-6.9-17.67-23.35-29.34-41.85-29.34c-6.03,0-11.99,1.26-17.51,3.68
		c-4.7-14.51-11.59-25.55-20.97-33.62c-10.75-9.25-24.49-14.42-42.01-15.78c-17.14-1.33-34.05,4.74-47.61,17.1
		C81.74,50.76,73.4,67.77,72.18,85.42c-5.81-1.73-11.83-2.43-17.96-2.09c-26.92,1.5-46.64,23.85-47.95,54.35
		c-0.64,14.88,3.78,27.71,12.8,37.13c9.52,9.94,23.72,15.42,39.97,15.42h87.27c2.47,0,4.48-2,4.48-4.48
		C150.78,183.28,148.78,181.27,146.31,181.27z"/>
	<linearGradient id="SVGID_2_" gradientUnits="userSpaceOnUse" x1="214.8733" y1="-235.2548" x2="248.8638" y2="563.52">
		<stop  offset="0" style="stop-color:#AE3AFF"/>
		<stop  offset="1" style="stop-color:#6B09E9"/>
	</linearGradient>
	<path class="st1" d="M291.76,141.22l-57.06-32.94c-1.38-0.8-3.09-0.8-4.48,0l-57.06,32.94c-1.38,0.8-2.24,2.28-2.24,3.88v65.89
		c0,0.16,0.01,0.31,0.02,0.47c0.43,18.38,6.89,35.61,18.22,48.55c11.59,13.24,26.96,20.54,43.29,20.54s31.7-7.29,43.29-20.54
		c11.33-12.94,17.79-30.17,18.22-48.55c0.02-0.16,0.02-0.31,0.02-0.47v-65.89C294,143.49,293.15,142.02,291.76,141.22z
		 M285.05,210.61c-0.01,0.1-0.01,0.2-0.02,0.3c-0.63,33.46-24.22,60.68-52.57,60.68s-51.94-27.22-52.57-60.68
		c0-0.1-0.01-0.2-0.02-0.29v-62.94l52.59-30.36l52.59,30.36V210.61z"/>
	<linearGradient id="SVGID_3_" gradientUnits="userSpaceOnUse" x1="214.5718" y1="-235.2419" x2="248.5622" y2="563.5329">
		<stop  offset="0" style="stop-color:#AE3AFF"/>
		<stop  offset="1" style="stop-color:#6B09E9"/>
	</linearGradient>
	<path class="st2" d="M230.23,139.35l-34.59,19.97c-1.38,0.8-2.24,2.28-2.24,3.88v41.29l0.01,2.73
		c0.47,24.91,17.99,45.17,39.06,45.17c21.06,0,38.58-20.26,39.06-45.24l0.01-43.96c0-1.6-0.85-3.08-2.24-3.88l-34.59-19.97
		C233.32,138.55,231.61,138.55,230.23,139.35z M262.58,165.78v38.67l-0.01,2.6c-0.37,19.73-14.16,36.39-30.11,36.39
		c-15.95,0-29.73-16.66-30.11-36.32l-0.01-41.34l30.12-17.39L262.58,165.78z"/>
</g>
</svg>
