<?xml version="1.0" encoding="utf-8"?>
<!-- Generator: Adobe Illustrator 24.1.3, SVG Export Plug-In . SVG Version: 6.00 Build 0)  -->
<svg version="1.1" id="certificate-manager" xmlns="http://www.w3.org/2000/svg" xmlns:xlink="http://www.w3.org/1999/xlink"
	 x="0px" y="0px" viewBox="0 0 620 620" style="enable-background:new 0 0 620 620;" xml:space="preserve">
<style type="text/css">
	.st0{fill:url(#SVGID_1_);}
	.st1{fill:none;stroke:#FFFFFF;stroke-width:10;stroke-linecap:round;stroke-linejoin:round;stroke-miterlimit:10;}
</style>
<linearGradient id="SVGID_1_" gradientUnits="userSpaceOnUse" x1="329.71" y1="-329.4761" x2="291.732" y2="885.8206">
	<stop  offset="2.396167e-07" style="stop-color:#FFA694"/>
	<stop  offset="1" style="stop-color:#BF0020"/>
</linearGradient>
<path class="st0" d="M495.3,559.97H124.15c-35.58,0-64.42-28.84-64.42-64.42V124.4c0-35.58,28.84-64.42,64.42-64.42H495.3
	c35.58,0,64.42,28.84,64.42,64.42v371.15C559.73,531.13,530.88,559.97,495.3,559.97z"/>
<g>
	<path class="st1" d="M150.48,214.57v21.41h319v-21.41c0-22.42-16.75-39.59-37.21-40.59H187.69
		C166.73,174.97,150.48,192.15,150.48,214.57z"/>
	<path class="st1" d="M315.66,267.84l6.44,19.82c0.45,1.38,1.73,2.31,3.18,2.31h20.84c3.24,0,4.59,4.15,1.97,6.06l-16.86,12.25
		c-1.17,0.85-1.66,2.36-1.22,3.74l6.44,19.82c1,3.08-2.53,5.65-5.15,3.74l-16.86-12.25c-1.17-0.85-2.76-0.85-3.93,0l-16.86,12.25
		c-2.62,1.91-6.15-0.66-5.15-3.74l6.44-19.82c0.45-1.38-0.04-2.89-1.22-3.74l-16.86-12.25c-2.62-1.91-1.28-6.06,1.97-6.06h20.84
		c1.45,0,2.74-0.93,3.18-2.31l6.44-19.82C310.3,264.76,314.66,264.76,315.66,267.84z"/>
	<g>
		<g>
			<line class="st1" x1="272.99" y1="366.97" x2="410.5" y2="366.97"/>
		</g>
		<g>
			<line class="st1" x1="210.2" y1="367.43" x2="246.48" y2="367.43"/>
		</g>
	</g>
	<g>
		<g>
			<line class="st1" x1="272.99" y1="393.97" x2="352.48" y2="393.97"/>
		</g>
		<g>
			<line class="st1" x1="210.2" y1="394.43" x2="246.48" y2="394.43"/>
		</g>
	</g>
	<path class="st1" d="M434.45,439.97h7.26c15.33,0,27.76-13.56,27.76-30.29V235.97h-319v173.71c0,16.73,12.43,30.29,27.76,30.29
		h195.63"/>
</g>
</svg>
