<?xml version="1.0" encoding="utf-8"?>
<!-- Generator: Adobe Illustrator 24.1.3, SVG Export Plug-In . SVG Version: 6.00 Build 0)  -->
<svg version="1.1" id="cloud" xmlns="http://www.w3.org/2000/svg" xmlns:xlink="http://www.w3.org/1999/xlink" x="0px" y="0px"
	 viewBox="0 0 620 620" style="enable-background:new 0 0 620 620;" xml:space="preserve">
<style type="text/css">
	.st0{fill:url(#SVGID_1_);}
	.st1{fill:#FFFFFF;}
</style>
<linearGradient id="SVGID_1_" gradientUnits="userSpaceOnUse" x1="327.8383" y1="-329.4482" x2="289.8603" y2="885.8486">
	<stop  offset="0" style="stop-color:#D9FF8B"/>
	<stop  offset="1" style="stop-color:#017FFF"/>
</linearGradient>
<path class="st0" d="M493.4,560H122.3c-35.6,0-64.4-28.8-64.4-64.4V124.4c0-35.6,28.8-64.4,64.4-64.4h371.2
	c35.6,0,64.4,28.8,64.4,64.4v371.2C557.9,531.2,529,560,493.4,560z"/>
<path class="st1" d="M480.7,354.2c0-29.8-24.2-54-54-54c-5.3,0-10.4,0.8-15.2,2.2c-1.1-50.3-42.2-90.8-92.8-90.8
	c-41.6,0-76.8,27.4-88.6,65.1c-8.1-3.3-16.9-5.2-26.1-5.2c-37.7,0-68.3,30.6-68.3,68.3c0,34.6,25.4,62.9,58.8,67.5l0,0l234,1.1l0,0
	C457.5,407.5,480.7,383.5,480.7,354.2z"/>
</svg>
