<?xml version="1.0" encoding="utf-8"?>
<!-- Generator: Adobe Illustrator 24.1.3, SVG Export Plug-In . SVG Version: 6.00 Build 0)  -->
<svg version="1.1" id="cloud-directory" xmlns="http://www.w3.org/2000/svg" xmlns:xlink="http://www.w3.org/1999/xlink" x="0px"
	 y="0px" viewBox="0 0 620 620" style="enable-background:new 0 0 620 620;" xml:space="preserve">
<style type="text/css">
	.st0{fill:url(#SVGID_1_);}
	.st1{fill:none;stroke:#FFFFFF;stroke-width:10;stroke-linecap:round;stroke-linejoin:round;stroke-miterlimit:10;}
</style>
<linearGradient id="SVGID_1_" gradientUnits="userSpaceOnUse" x1="329.71" y1="-329.4761" x2="291.732" y2="885.8206">
	<stop  offset="2.396167e-07" style="stop-color:#FFA694"/>
	<stop  offset="1" style="stop-color:#BF0020"/>
</linearGradient>
<path class="st0" d="M495.3,559.97H124.15c-35.58,0-64.42-28.84-64.42-64.42V124.4c0-35.58,28.84-64.42,64.42-64.42H495.3
	c35.58,0,64.42,28.84,64.42,64.42v371.15C559.73,531.13,530.88,559.97,495.3,559.97z"/>
<g>
	<ellipse class="st1" cx="309.73" cy="202.31" rx="112.49" ry="46.49"/>
	<path class="st1" d="M422.17,201.5c-1.06-25.3-50.98-45.67-112.44-45.67c-61.47,0-111.39,20.38-112.44,45.67h-0.05v82.26v68.51
		v67.82h0.16c3.08,24.54,52.2,44.04,112.34,44.04c60.14,0,109.26-19.5,112.34-44.04h0.16v-67.43v-68.51V201.5H422.17z"/>
	<circle class="st1" cx="310.22" cy="303.82" r="22"/>
	<circle class="st1" cx="254.22" cy="398.82" r="15"/>
	<circle class="st1" cx="310.22" cy="398.82" r="15"/>
	<circle class="st1" cx="366.22" cy="398.82" r="15"/>
	<line class="st1" x1="310.22" y1="325.82" x2="310.22" y2="383.82"/>
	<line class="st1" x1="254.22" y1="351.82" x2="366.22" y2="351.82"/>
	<line class="st1" x1="366.22" y1="351.82" x2="366.22" y2="383.82"/>
	<line class="st1" x1="254.22" y1="351.82" x2="254.22" y2="383.82"/>
</g>
</svg>
