<?xml version="1.0" encoding="utf-8"?>
<!-- Generator: Adobe Illustrator 24.1.3, SVG Export Plug-In . SVG Version: 6.00 Build 0)  -->
<svg version="1.1" id="crms" xmlns="http://www.w3.org/2000/svg" xmlns:xlink="http://www.w3.org/1999/xlink" x="0px" y="0px"
	 viewBox="0 0 620 620" style="enable-background:new 0 0 620 620;" xml:space="preserve">
<style type="text/css">
	.st0{fill:#7D9EDF;}
	.st1{fill:none;stroke:#7D9EDF;stroke-width:10;stroke-miterlimit:10;}
</style>
<g>
	<path class="st0" d="M89.4,362.6c5,4.6,10.9,7.9,17.5,10c6.6,2.1,13.6,3.2,20.9,3.2c3.7,0,7.7-0.2,11.9-0.6
		c4.2-0.4,8.5-1.2,12.8-2.5c4.3-1.3,8.7-3.1,13.1-5.4c4.4-2.3,8.6-5.4,12.6-9.4l-12.7-18.2c-5.3,5.5-11.3,9.1-17.8,11.1
		c-6.5,1.9-12.9,2.9-19.1,2.9c-4.2,0-8.2-0.7-12.1-2.1c-2.1-0.8-4-1.8-5.8-3.1l-29.1,4.9C84,356.9,86.5,360,89.4,362.6z"/>
</g>
<g>
	<path class="st0" d="M99.6,334.3c-1.7-5-2.6-11-2.6-18v-13.8c0-8.3,0.9-15.1,2.8-20.5c1.9-5.3,4.3-9.6,7.3-12.7
		c3-3.1,6.4-5.2,10.2-6.4c3.8-1.2,7.7-1.8,11.7-1.8c6.1,0,11.8,0.7,17.1,2.1c5.3,1.4,10.7,4.4,16.2,9l12.8-18.2
		c-6.8-5.5-13.9-9.3-21.1-11.5c-7.3-2.2-15.6-3.3-25-3.3c-7.8,0-15.1,1.1-21.9,3.3c-6.8,2.2-12.7,5.7-17.8,10.5
		c-5.1,4.8-9.1,10.8-12,18c-2.9,7.3-4.4,15.9-4.4,26v24c0,8.9,1.2,16.7,3.5,23.3l25.6-4.3C101.2,338.3,100.3,336.4,99.6,334.3z"/>
</g>
<g>
	<path class="st0" d="M277.9,306.1c3.5-5.6,5.2-12,5.2-19.1v-6.9c0-5.3-1-10.3-2.9-14.8c-1.9-4.5-4.7-8.4-8.4-11.6
		c-3.7-3.2-8.2-5.8-13.6-7.6c-5.4-1.9-11.6-2.8-18.5-2.8h-50.8v82l85.3-14.4C275.6,309.4,276.8,307.8,277.9,306.1z M259.5,286.5
		c0,5.1-1.8,9.2-5.5,12.5c-3.7,3.2-10.1,4.8-19.3,4.8h-22v-40.6h24c8.2,0,14,1.6,17.5,4.9c3.5,3.3,5.2,7.5,5.2,12.7V286.5z"/>
</g>
<g>
	<polygon class="st0" points="188.9,375.8 212.8,375.8 212.8,331.2 188.9,335.3 	"/>
</g>
<g>
	<path class="st0" d="M262.6,375.8h25.9c-4.5-9.8-8.8-19.5-13.1-29.1c-3.6-8-7.2-16.1-10.9-24.2l-22.6,3.8L262.6,375.8z"/>
</g>
<g>
	<polygon class="st0" points="410.6,375.8 433.1,375.8 433.1,293.9 410.6,297.7 	"/>
</g>
<g>
	<path class="st0" d="M404.3,284.4c0.9-2.4,1.8-4.9,2.8-7.7c1-2.8,2.2-7,3.5-12.6v23.6l22.5-3.8v-40.7h-34.2L380,293l22.3-3.8
		L404.3,284.4z"/>
</g>
<g>
	<path class="st0" d="M322.6,264.2c1.6,4.8,2.9,8.8,3.9,12c1,3.2,2,5.9,3,8.3l6.3,16l19.8-3.4l-21.3-53.8h-33.9v63.1l22.1-3.7V264.2
		z"/>
</g>
<g>
	<polygon class="st0" points="300.5,375.8 322.6,375.8 322.6,312.6 300.5,316.4 	"/>
</g>
<g>
	<polygon class="st0" points="367.3,325 359.9,306.3 340,309.7 357.2,353.5 376.2,353.5 397.5,300 375.4,303.7 	"/>
</g>
<g>
	<path class="st0" d="M532.3,310.7c-3.3-3.2-7.6-6.1-13-8.7c-5.4-2.5-12.1-4.7-20-6.4c-4-0.9-7.7-1.7-11.3-2.5
		c-3.5-0.8-6.6-1.9-9.2-3.2c-1.7-0.9-3.2-1.9-4.4-3l-25.8,4.4c0.6,1.9,1.4,3.6,2.4,5.2c2.9,4.7,6.5,8.3,11.1,11.1
		c4.5,2.7,9.6,4.8,15.3,6.1c5.6,1.4,11.3,2.7,16.8,3.9c7.7,1.7,13.5,3.9,17.6,6.6c4,2.7,6,6.7,6,12.2v2c0,4.6-1.9,8.4-5.8,11.4
		c-3.8,3-10,4.6-18.6,4.6c-8.1,0-15.3-1.3-21.8-3.9c-6.4-2.6-11.7-5.6-15.8-9.1l-11.5,19c2.6,2.1,5.7,4.1,9.2,6
		c3.5,1.9,7.3,3.6,11.4,4.9c4.1,1.4,8.5,2.4,13.1,3.3c4.7,0.8,9.4,1.2,14.2,1.2c6.4,0,12.7-0.7,18.6-2c6-1.3,11.2-3.5,15.8-6.5
		c4.6-3,8.2-7.1,10.9-12.1c2.7-5,4-11.3,4-18.7v-2.4c0-4.6-0.7-8.8-2.1-12.7C537.9,317.5,535.6,314,532.3,310.7z"/>
</g>
<g>
	<path class="st0" d="M470.2,276.6c0-1.9,0.5-3.7,1.5-5.6c1-1.9,2.5-3.6,4.6-5.2c2-1.6,4.6-2.9,7.7-3.9c3.1-1,6.8-1.5,11-1.5
		c5.3,0,10.4,0.5,15.1,1.6c4.6,1,9.5,3.2,14.7,6.4l0.9-0.1l10.9-17.9c-6.8-4.3-13.6-7.3-20.5-8.8c-6.8-1.5-14-2.3-21.4-2.3
		c-9.1,0-16.7,1.2-22.8,3.6c-6.1,2.4-11.1,5.5-14.8,9.2c-3.7,3.7-6.4,7.8-8,12.2c-1.6,4.4-2.4,8.7-2.4,12.7v2.4c0,0.8,0,1.5,0.1,2.3
		l23.6-4V276.6z"/>
</g>
<path class="st0" d="M525.3,268.8l0.3-0.5l-0.9,0.1C524.9,268.6,525.1,268.7,525.3,268.8z"/>
<rect x="34.1" y="204.5" class="st1" width="551.9" height="211.6"/>
</svg>
