<?xml version="1.0" encoding="utf-8"?>
<!-- Generator: Adobe Illustrator 24.1.3, SVG Export Plug-In . SVG Version: 6.00 Build 0)  -->
<svg version="1.1" id="CRMS" xmlns="http://www.w3.org/2000/svg" xmlns:xlink="http://www.w3.org/1999/xlink" x="0px" y="0px"
	 viewBox="0 0 620 620" style="enable-background:new 0 0 620 620;" xml:space="preserve">
<style type="text/css">
	.st0{fill:url(#SVGID_1_);}
	.st1{opacity:0.5;fill:url(#SVGID_2_);}
	.st2{fill:none;}
	.st3{opacity:0.2;}
	.st4{fill:#7A6A70;}
	.st5{fill:#FFFFFF;}
	.st6{fill:none;stroke:url(#SVGID_3_);stroke-width:10;stroke-miterlimit:10;}
</style>
<linearGradient id="SVGID_1_" gradientUnits="userSpaceOnUse" x1="329.9828" y1="-329.4482" x2="292.0047" y2="885.8486">
	<stop  offset="0" style="stop-color:#FFFF1C"/>
	<stop  offset="1" style="stop-color:#FF61C1"/>
</linearGradient>
<path class="st0" d="M495.6,560H124.4C88.8,560,60,531.2,60,495.6V124.4C60,88.8,88.8,60,124.4,60h371.2c35.6,0,64.4,28.8,64.4,64.4
	v371.2C560,531.2,531.2,560,495.6,560z"/>
<linearGradient id="SVGID_2_" gradientUnits="userSpaceOnUse" x1="309.4195" y1="342.8391" x2="314.958" y2="29.5205">
	<stop  offset="0" style="stop-color:#FFDBFF;stop-opacity:0"/>
	<stop  offset="1" style="stop-color:#FFFFFF;stop-opacity:0.8"/>
</linearGradient>
<path class="st1" d="M467.3,531.8H152.7c-35.6,0-64.4-28.8-64.4-64.4V152.7c0-35.6,28.8-64.4,64.4-64.4h314.7
	c35.6,0,64.4,28.8,64.4,64.4v314.7C531.8,502.9,502.9,531.8,467.3,531.8z"/>
<path class="st2" d="M371.3,290.6c-0.6,1.7-1.2,3.3-1.7,4.7l-1.2,2.9l5-0.9v-14.5C372.7,286.3,371.9,288.9,371.3,290.6z"/>
<polygon class="st2" points="346.9,318.3 351.9,305.2 342.3,306.8 "/>
<path class="st2" d="M434.6,281.6c-2.9-0.6-6-1-9.3-1c-2.6,0-4.8,0.3-6.7,0.9c-1.9,0.6-3.5,1.4-4.7,2.4c-1.3,1-2.2,2.1-2.8,3.2
	c-0.6,1.1-0.9,2.3-0.9,3.4v0.7l33.5-5.7C440.4,283.5,437.4,282.2,434.6,281.6z"/>
<path class="st2" d="M321.9,289.2c-0.6-1.9-1.4-4.4-2.4-7.4v23.7l8.1-1.4l-3.9-9.8C323.1,292.9,322.5,291.2,321.9,289.2z"/>
<g class="st3">
	<path class="st4" d="M180.2,345.3c3.1,2.8,6.7,4.9,10.7,6.2c4.1,1.3,8.4,1.9,12.9,1.9c2.3,0,4.7-0.1,7.3-0.3
		c2.6-0.2,5.2-0.7,7.9-1.5c2.7-0.8,5.4-1.9,8.1-3.3c2.7-1.4,5.3-3.3,7.7-5.8l-7.8-11.2c-3.3,3.4-6.9,5.6-10.9,6.8
		c-4,1.2-7.9,1.8-11.7,1.8c-2.6,0-5.1-0.4-7.4-1.3c-1.3-0.5-2.5-1.1-3.6-1.9l-17.9,3C176.9,341.8,178.4,343.7,180.2,345.3z"/>
</g>
<g class="st3">
	<polygon class="st4" points="241.3,353.5 256,353.5 256,326.1 241.3,328.5 	"/>
</g>
<g class="st3">
	<path class="st4" d="M286.6,353.5h15.9c-2.7-6-5.4-12-8.1-17.9c-2.2-4.9-4.4-9.9-6.7-14.9l-13.9,2.3L286.6,353.5z"/>
</g>
<g class="st3">
	<polygon class="st4" points="377.5,353.5 391.3,353.5 391.3,303.1 377.5,305.5 	"/>
</g>
<g class="st3">
	<polygon class="st4" points="309.9,353.5 323.5,353.5 323.5,314.6 309.9,316.9 	"/>
</g>
<g class="st3">
	<polygon class="st4" points="350.9,322.3 346.3,310.8 334.2,312.8 344.7,339.8 356.4,339.8 369.4,306.9 355.9,309.2 	"/>
</g>
<g class="st3">
	<path class="st4" d="M452.2,313.5c-2-2-4.7-3.8-8-5.3c-3.3-1.6-7.4-2.9-12.3-3.9c-2.4-0.5-4.7-1-6.9-1.5c-2.2-0.5-4.1-1.1-5.7-1.9
		c-1.1-0.5-2-1.2-2.7-1.9l-15.9,2.7c0.4,1.2,0.9,2.2,1.4,3.2c1.8,2.9,4,5.1,6.8,6.8c2.8,1.7,5.9,2.9,9.4,3.8
		c3.5,0.8,6.9,1.6,10.3,2.4c4.7,1.1,8.3,2.4,10.8,4.1c2.5,1.6,3.7,4.1,3.7,7.5v1.3c0,2.8-1.2,5.2-3.5,7c-2.4,1.9-6.2,2.8-11.4,2.8
		c-5,0-9.4-0.8-13.4-2.4c-4-1.6-7.2-3.5-9.7-5.6l-7.1,11.7c1.6,1.3,3.5,2.5,5.7,3.7c2.2,1.2,4.5,2.2,7,3c2.5,0.8,5.2,1.5,8.1,2
		c2.9,0.5,5.8,0.7,8.7,0.7c4,0,7.8-0.4,11.4-1.2c3.7-0.8,6.9-2.1,9.7-4c2.8-1.9,5-4.3,6.7-7.4c1.6-3.1,2.5-6.9,2.5-11.5v-1.5
		c0-2.8-0.4-5.4-1.3-7.8C455.7,317.6,454.3,315.4,452.2,313.5z"/>
</g>
<path class="st2" d="M266.7,281.3H252v24.9h13.5c5.6,0,9.6-1,11.8-3c2.2-2,3.4-4.5,3.4-7.7v-3.4c0-3.2-1.1-5.8-3.2-7.8
	C275.3,282.3,271.7,281.3,266.7,281.3z"/>
<g>
	<path class="st5" d="M176.2,343.3c3.1,2.8,6.7,4.9,10.7,6.2c4.1,1.3,8.4,1.9,12.9,1.9c2.3,0,4.7-0.1,7.3-0.3
		c2.6-0.2,5.2-0.7,7.9-1.5c2.7-0.8,5.4-1.9,8.1-3.3c2.7-1.4,5.3-3.3,7.7-5.8l-7.8-11.2c-3.3,3.4-6.9,5.6-10.9,6.8
		c-4,1.2-7.9,1.8-11.7,1.8c-2.6,0-5.1-0.4-7.4-1.3c-1.3-0.5-2.5-1.1-3.6-1.9l-17.9,3C172.9,339.8,174.4,341.7,176.2,343.3z"/>
</g>
<g class="st3">
	<path class="st4" d="M186.4,328.9c-1.1-3-1.6-6.7-1.6-11.1v-8.5c0-5.1,0.6-9.3,1.7-12.6c1.1-3.3,2.6-5.9,4.5-7.8
		c1.8-1.9,3.9-3.2,6.3-3.9c2.4-0.7,4.8-1.1,7.2-1.1c3.7,0,7.2,0.4,10.5,1.3c3.3,0.9,6.6,2.7,9.9,5.5l7.9-11.2
		c-4.2-3.4-8.5-5.7-13-7.1c-4.5-1.4-9.6-2.1-15.4-2.1c-4.8,0-9.3,0.7-13.4,2.1c-4.2,1.4-7.8,3.5-10.9,6.5c-3.1,2.9-5.6,6.6-7.4,11.1
		c-1.8,4.5-2.7,9.8-2.7,15.9v14.7c0,5.5,0.7,10.3,2.2,14.3l15.7-2.7C187.4,331.4,186.9,330.2,186.4,328.9z"/>
</g>
<g class="st3">
	<path class="st4" d="M296,311.6c2.1-3.5,3.2-7.4,3.2-11.7v-4.2c0-3.3-0.6-6.3-1.8-9.1c-1.2-2.8-2.9-5.2-5.1-7.1
		c-2.2-2-5-3.5-8.3-4.7c-3.3-1.1-7.1-1.7-11.4-1.7h-31.2v50.4l52.4-8.9C294.6,313.7,295.3,312.7,296,311.6z M284.7,299.6
		c0,3.1-1.1,5.7-3.4,7.7c-2.2,2-6.2,3-11.8,3H256v-24.9h14.7c5,0,8.6,1,10.7,3c2.1,2,3.2,4.6,3.2,7.8V299.6z"/>
</g>
<g class="st3">
	<path class="st4" d="M373.6,298.3c0.5-1.4,1.1-3,1.7-4.7c0.6-1.7,1.3-4.3,2.2-7.7v14.5l13.8-2.3v-25h-21l-11.6,30.5l13.7-2.3
		L373.6,298.3z"/>
</g>
<g class="st3">
	<path class="st4" d="M323.5,285.9c1,3,1.8,5.4,2.4,7.4c0.6,1.9,1.2,3.6,1.8,5.1l3.9,9.8l12.2-2.1l-13.1-33h-20.8v38.8l13.6-2.3
		V285.9z"/>
</g>
<g class="st3">
	<path class="st4" d="M414.1,293.5c0-1.1,0.3-2.3,0.9-3.4c0.6-1.1,1.5-2.2,2.8-3.2c1.3-1,2.8-1.8,4.7-2.4c1.9-0.6,4.2-0.9,6.7-0.9
		c3.3,0,6.4,0.3,9.3,1c2.8,0.6,5.8,2,9,4l0.5-0.1l6.7-11c-4.2-2.7-8.4-4.5-12.6-5.4c-4.2-1-8.6-1.4-13.1-1.4c-5.6,0-10.2,0.7-14,2.2
		c-3.8,1.5-6.8,3.4-9.1,5.7c-2.3,2.3-3.9,4.8-4.9,7.5c-1,2.7-1.5,5.3-1.5,7.8v1.5c0,0.5,0,0.9,0,1.4l14.5-2.5V293.5z"/>
</g>
<g>
	<path class="st5" d="M182.4,325.9c-1.1-3-1.6-6.7-1.6-11.1v-8.5c0-5.1,0.6-9.3,1.7-12.6c1.1-3.3,2.6-5.9,4.5-7.8
		c1.8-1.9,3.9-3.2,6.3-3.9c2.4-0.7,4.8-1.1,7.2-1.1c3.7,0,7.2,0.4,10.5,1.3c3.3,0.9,6.6,2.7,9.9,5.5l7.9-11.2
		c-4.2-3.4-8.5-5.7-13-7.1c-4.5-1.4-9.6-2.1-15.4-2.1c-4.8,0-9.3,0.7-13.4,2.1c-4.2,1.4-7.8,3.5-10.9,6.5c-3.1,2.9-5.6,6.6-7.4,11.1
		c-1.8,4.5-2.7,9.8-2.7,15.9v14.7c0,5.5,0.7,10.3,2.2,14.3l15.7-2.7C183.4,328.4,182.9,327.2,182.4,325.9z"/>
</g>
<g>
	<path class="st5" d="M292,308.6c2.1-3.5,3.2-7.4,3.2-11.7v-4.2c0-3.3-0.6-6.3-1.8-9.1c-1.2-2.8-2.9-5.2-5.1-7.1
		c-2.2-2-5-3.5-8.3-4.7c-3.3-1.1-7.1-1.7-11.4-1.7h-31.2v50.4l52.4-8.9C290.6,310.7,291.3,309.7,292,308.6z M280.7,296.6
		c0,3.1-1.1,5.7-3.4,7.7c-2.2,2-6.2,3-11.8,3H252v-24.9h14.7c5,0,8.6,1,10.7,3c2.1,2,3.2,4.6,3.2,7.8V296.6z"/>
</g>
<g>
	<polygon class="st5" points="237.3,351.5 252,351.5 252,324.1 237.3,326.5 	"/>
</g>
<g>
	<path class="st5" d="M282.6,351.5h15.9c-2.7-6-5.4-12-8.1-17.9c-2.2-4.9-4.4-9.9-6.7-14.9l-13.9,2.3L282.6,351.5z"/>
</g>
<g>
	<polygon class="st5" points="373.5,351.5 387.3,351.5 387.3,301.1 373.5,303.5 	"/>
</g>
<g>
	<path class="st5" d="M369.6,295.3c0.5-1.4,1.1-3,1.7-4.7c0.6-1.7,1.3-4.3,2.2-7.7v14.5l13.8-2.3v-25h-21l-11.6,30.5l13.7-2.3
		L369.6,295.3z"/>
</g>
<g>
	<path class="st5" d="M319.5,282.9c1,3,1.8,5.4,2.4,7.4c0.6,1.9,1.2,3.6,1.8,5.1l3.9,9.8l12.2-2.1l-13.1-33h-20.8v38.8l13.6-2.3
		V282.9z"/>
</g>
<g>
	<polygon class="st5" points="305.9,351.5 319.5,351.5 319.5,312.6 305.9,314.9 	"/>
</g>
<g>
	<polygon class="st5" points="346.9,320.3 342.3,308.8 330.2,310.8 340.7,337.8 352.4,337.8 365.4,304.9 351.9,307.2 	"/>
</g>
<g>
	<path class="st5" d="M448.2,311.5c-2-2-4.7-3.8-8-5.3c-3.3-1.6-7.4-2.9-12.3-3.9c-2.4-0.5-4.7-1-6.9-1.5c-2.2-0.5-4.1-1.1-5.7-1.9
		c-1.1-0.5-2-1.2-2.7-1.9l-15.9,2.7c0.4,1.2,0.9,2.2,1.4,3.2c1.8,2.9,4,5.1,6.8,6.8c2.8,1.7,5.9,2.9,9.4,3.8
		c3.5,0.8,6.9,1.6,10.3,2.4c4.7,1.1,8.3,2.4,10.8,4.1c2.5,1.6,3.7,4.1,3.7,7.5v1.3c0,2.8-1.2,5.2-3.5,7c-2.4,1.9-6.2,2.8-11.4,2.8
		c-5,0-9.4-0.8-13.4-2.4c-4-1.6-7.2-3.5-9.7-5.6l-7.1,11.7c1.6,1.3,3.5,2.5,5.7,3.7c2.2,1.2,4.5,2.2,7,3c2.5,0.8,5.2,1.5,8.1,2
		c2.9,0.5,5.8,0.7,8.7,0.7c4,0,7.8-0.4,11.4-1.2c3.7-0.8,6.9-2.1,9.7-4c2.8-1.9,5-4.3,6.7-7.4c1.6-3.1,2.5-6.9,2.5-11.5v-1.5
		c0-2.8-0.4-5.4-1.3-7.8C451.7,315.6,450.3,313.4,448.2,311.5z"/>
</g>
<g>
	<path class="st5" d="M410.1,290.5c0-1.1,0.3-2.3,0.9-3.4c0.6-1.1,1.5-2.2,2.8-3.2c1.3-1,2.8-1.8,4.7-2.4c1.9-0.6,4.2-0.9,6.7-0.9
		c3.3,0,6.4,0.3,9.3,1c2.8,0.6,5.8,2,9,4l0.5-0.1l6.7-11c-4.2-2.7-8.4-4.5-12.6-5.4c-4.2-1-8.6-1.4-13.1-1.4c-5.6,0-10.2,0.7-14,2.2
		c-3.8,1.5-6.8,3.4-9.1,5.7c-2.3,2.3-3.9,4.8-4.9,7.5c-1,2.7-1.5,5.3-1.5,7.8v1.5c0,0.5,0,0.9,0,1.4l14.5-2.5V290.5z"/>
</g>
<path class="st5" d="M444,285.7l0.2-0.3l-0.5,0.1C443.7,285.6,443.8,285.6,444,285.7z"/>
<linearGradient id="SVGID_3_" gradientUnits="userSpaceOnUse" x1="318.1841" y1="394.2511" x2="305.322" y2="228.2123">
	<stop  offset="0" style="stop-color:#FFDBFF;stop-opacity:0.5"/>
	<stop  offset="1" style="stop-color:#FFFFFF;stop-opacity:0.5"/>
</linearGradient>
<rect x="142.3" y="246.2" class="st6" width="339" height="130"/>
</svg>
