<?xml version="1.0" encoding="utf-8"?>
<!-- Generator: Adobe Illustrator 24.1.3, SVG Export Plug-In . SVG Version: 6.00 Build 0)  -->
<svg version="1.1" id="ec2-rounded" xmlns="http://www.w3.org/2000/svg" xmlns:xlink="http://www.w3.org/1999/xlink" x="0px"
	 y="0px" viewBox="0 0 620 620" style="enable-background:new 0 0 620 620;" xml:space="preserve">
<style type="text/css">
	.st0{fill:url(#SVGID_1_);}
	.st1{fill:none;stroke:#FFFFFF;stroke-width:10;stroke-linecap:round;stroke-linejoin:round;stroke-miterlimit:10;}
	.st2{fill:none;stroke:#FFFFFF;stroke-width:10;stroke-miterlimit:10;}
</style>
<linearGradient id="SVGID_1_" gradientUnits="userSpaceOnUse" x1="329.71" y1="-329.4761" x2="291.732" y2="885.8206">
	<stop  offset="0" style="stop-color:#FFC14D"/>
	<stop  offset="1" style="stop-color:#FF576A"/>
</linearGradient>
<path class="st0" d="M495.3,559.97H124.15c-35.58,0-64.42-28.84-64.42-64.42V124.4c0-35.58,28.84-64.42,64.42-64.42H495.3
	c35.58,0,64.42,28.84,64.42,64.42v371.15C559.73,531.13,530.88,559.97,495.3,559.97z"/>
<g>
	<g>
		<line class="st1" x1="267.65" y1="213.28" x2="267.65" y2="230.16"/>
		<line class="st1" x1="288.58" y1="213.28" x2="288.58" y2="230.16"/>
		<line class="st1" x1="309.51" y1="213.28" x2="309.51" y2="230.16"/>
		<line class="st1" x1="330.45" y1="213.28" x2="330.45" y2="230.16"/>
		<line class="st1" x1="351.38" y1="213.28" x2="351.38" y2="230.16"/>
	</g>
	<g>
		<line class="st1" x1="267.72" y1="391.82" x2="267.74" y2="408.7"/>
		<line class="st1" x1="288.66" y1="391.8" x2="288.67" y2="408.68"/>
		<line class="st1" x1="309.59" y1="391.78" x2="309.61" y2="408.66"/>
		<line class="st1" x1="330.52" y1="391.76" x2="330.54" y2="408.63"/>
		<line class="st1" x1="351.46" y1="391.74" x2="351.47" y2="408.61"/>
	</g>
	<g>
		<line class="st1" x1="228.68" y1="268.13" x2="211.8" y2="268.13"/>
		<line class="st1" x1="228.68" y1="289.06" x2="211.8" y2="289.06"/>
		<line class="st1" x1="228.68" y1="309.99" x2="211.8" y2="309.99"/>
		<line class="st1" x1="228.68" y1="330.93" x2="211.8" y2="330.93"/>
		<line class="st1" x1="228.68" y1="351.86" x2="211.8" y2="351.86"/>
	</g>
	<g>
		<line class="st1" x1="407.23" y1="268.13" x2="390.35" y2="268.13"/>
		<line class="st1" x1="407.23" y1="289.06" x2="390.35" y2="289.06"/>
		<line class="st1" x1="407.23" y1="309.99" x2="390.35" y2="309.99"/>
		<line class="st1" x1="407.23" y1="330.93" x2="390.35" y2="330.93"/>
		<line class="st1" x1="407.23" y1="351.86" x2="390.35" y2="351.86"/>
	</g>
	<path class="st2" d="M310.7,230.15l-54.26,0.06c-14.65,0.02-26.52,11.91-26.51,26.56l0.11,106.61
		c0.02,14.65,11.91,26.52,26.56,26.51l106.61-0.11c14.65-0.02,26.52-11.91,26.51-26.56l-0.06-52.74"/>
	<path class="st2" d="M310.7,283.98"/>
	<path class="st2" d="M429.92,293.47h15.24c12.74,0,23.06-10.32,23.06-23.06v-91.88c0-12.74-10.32-23.06-23.06-23.06h-91.88
		c-12.74,0-23.06,10.32-23.06,23.06v10.27"/>
	<path class="st2" d="M189.53,326.47h-15.24c-12.74,0-23.06,10.32-23.06,23.06v91.88c0,12.74,10.32,23.06,23.06,23.06h91.88
		c12.74,0,23.06-10.32,23.06-23.06v-10.27"/>
	<path class="st2" d="M310.7,283.98"/>
	<path class="st2" d="M389.67,310.47l-0.06-53.87c-0.02-14.65-11.91-26.52-26.56-26.51l-52.35,0.06"/>
</g>
</svg>
