<?xml version="1.0" encoding="utf-8"?>
<!-- Generator: Adobe Illustrator 24.1.3, SVG Export Plug-In . SVG Version: 6.00 Build 0)  -->
<svg version="1.1" id="elastic-load-balancing" xmlns="http://www.w3.org/2000/svg" xmlns:xlink="http://www.w3.org/1999/xlink"
	 x="0px" y="0px" viewBox="0 0 620 620" style="enable-background:new 0 0 620 620;" xml:space="preserve">
<style type="text/css">
	.st0{fill:url(#SVGID_1_);}
	.st1{fill:none;stroke:#FFFFFF;stroke-width:10;stroke-linecap:round;stroke-linejoin:round;stroke-miterlimit:10;}
</style>
<linearGradient id="SVGID_1_" gradientUnits="userSpaceOnUse" x1="329.71" y1="-329.4761" x2="291.732" y2="885.8206">
	<stop  offset="0" style="stop-color:#AE3AFF"/>
	<stop  offset="1" style="stop-color:#6B09E9"/>
</linearGradient>
<path class="st0" d="M495.3,559.97H124.15c-35.58,0-64.42-28.84-64.42-64.42V124.4c0-35.58,28.84-64.42,64.42-64.42H495.3
	c35.58,0,64.42,28.84,64.42,64.42v371.15C559.73,531.13,530.88,559.97,495.3,559.97z"/>
<g>
	<circle class="st1" cx="245.73" cy="309.94" r="91"/>
	<circle class="st1" cx="438" cy="310" r="26.72"/>
	<circle class="st1" cx="416.58" cy="197.9" r="26.72"/>
	<circle class="st1" cx="416.32" cy="422.04" r="26.72"/>
	<line class="st1" x1="336.73" y1="309.88" x2="409.23" y2="310.45"/>
	<line class="st1" x1="319.79" y1="256.86" x2="390.23" y2="208.45"/>
	<line class="st1" x1="305.23" y1="379.45" x2="387.23" y2="421.45"/>
</g>
</svg>
