<?xml version="1.0" encoding="utf-8"?>
<!-- Generator: Adobe Illustrator 24.1.3, SVG Export Plug-In . SVG Version: 6.00 Build 0)  -->
<svg version="1.1" id="internet-gateway" xmlns="http://www.w3.org/2000/svg" xmlns:xlink="http://www.w3.org/1999/xlink" x="0px"
	 y="0px" viewBox="0 0 620 620" style="enable-background:new 0 0 620 620;" xml:space="preserve">
<style type="text/css">
	.st0{fill:url(#SVGID_1_);}
	.st1{fill:none;stroke:#FFFFFF;stroke-width:10;stroke-linecap:round;stroke-linejoin:round;stroke-miterlimit:10;}
</style>
<linearGradient id="SVGID_1_" gradientUnits="userSpaceOnUse" x1="329.71" y1="-329.4761" x2="291.732" y2="885.8206">
	<stop  offset="0" style="stop-color:#AE3AFF"/>
	<stop  offset="1" style="stop-color:#6B09E9"/>
</linearGradient>
<path class="st0" d="M495.3,559.97H124.15c-35.58,0-64.42-28.84-64.42-64.42V124.4c0-35.58,28.84-64.42,64.42-64.42H495.3
	c35.58,0,64.42,28.84,64.42,64.42v371.15C559.73,531.13,530.88,559.97,495.3,559.97z"/>
<g>
	<circle class="st1" cx="309.73" cy="309.97" r="177"/>
	<path class="st1" d="M358.94,224.79c-14.14-4.31-31.04-6.82-49.21-6.82c-18.17,0-35.07,2.51-49.21,6.82
		c-24.48,7.45-40.65,20.3-40.65,34.9v41.72v92.96c0,4.2,3.4,7.6,7.6,7.6h25.45c4.2,0,7.6-3.4,7.6-7.6v-58.06V294.6v-21.68
		c0-3.45,2.31-6.45,5.64-7.35c12.9-3.46,27.75-5.87,43.57-5.87c15.78,0,30.61,1.9,43.49,5.21c3.36,0.87,5.72,3.89,5.72,7.37v22.32
		v41.72v58.06c0,4.2,3.4,7.6,7.6,7.6h25.45c4.2,0,7.6-3.4,7.6-7.6v-92.96v-41.72C399.59,245.09,383.41,232.24,358.94,224.79z"/>
</g>
</svg>
