<?xml version="1.0" encoding="utf-8"?>
<!-- Generator: Adobe Illustrator 24.1.3, SVG Export Plug-In . SVG Version: 6.00 Build 0)  -->
<svg version="1.1" id="rds_group" xmlns="http://www.w3.org/2000/svg" xmlns:xlink="http://www.w3.org/1999/xlink" x="0px" y="0px"
	 viewBox="0 0 620 620" style="enable-background:new 0 0 620 620;" xml:space="preserve">
<style type="text/css">
	.st0{fill:url(#SVGID_1_);}
	.st1{enable-background:new    ;}
	.st2{fill:#FFFFFF;}
</style>
<g>
	
		<linearGradient id="SVGID_1_" gradientUnits="userSpaceOnUse" x1="327.8827" y1="949.4468" x2="289.9047" y2="-265.8499" gradientTransform="matrix(1 0 0 -1 0 620)">
		<stop  offset="0" style="stop-color:#03E5FF"/>
		<stop  offset="0.9518" style="stop-color:#5D33E9"/>
	</linearGradient>
	<path class="st0" d="M493.4,560H122.3c-35.6,0-64.4-28.8-64.4-64.4V124.4c0-35.6,28.8-64.4,64.4-64.4h371.2
		c35.6,0,64.4,28.8,64.4,64.4v371.2C557.9,531.2,529,560,493.4,560z"/>
	<g>
		<g class="st1">
			<path class="st2" d="M202,376.5c-0.6-0.2-1.2-0.4-1.8-0.5c-0.6-0.1-1.4-0.2-2.4-0.2c-1,0-2,0.2-2.9,0.5c-0.9,0.4-1.7,0.9-2.3,1.5
				s-1.2,1.4-1.6,2.3c-0.4,0.9-0.6,1.9-0.6,3v19.6h-7.6v-33.1h7.3v4.8h0.1c0.9-1.7,2-3,3.5-4c1.5-1,3.4-1.5,5.7-1.5
				c0.8,0,1.7,0.1,2.5,0.2c0.8,0.1,1.6,0.3,2.2,0.5L202,376.5z"/>
			<path class="st2" d="M229.7,398.9h-0.2c-0.9,1.6-2.2,2.7-3.9,3.4c-1.7,0.7-3.6,1-5.6,1c-4.2,0-7.4-1.2-9.5-3.7
				c-2.1-2.5-3.2-5.9-3.2-10.4v-5.8c0-2.2,0.3-4.3,0.9-6c0.6-1.8,1.5-3.3,2.7-4.5c1.2-1.2,2.6-2.2,4.2-2.8c1.6-0.7,3.4-1,5.4-1
				c1.3,0,2.5,0.1,3.5,0.4c1,0.2,1.8,0.5,2.5,0.9c0.7,0.3,1.3,0.7,1.7,1.1c0.4,0.4,0.8,0.8,1,1.2v-15.1h7.6v45.4h-7.1V398.9z
				 M214.8,388.1c0,2.8,0.6,5,1.7,6.5c1.1,1.5,2.8,2.3,5,2.3c1.2,0,2.3-0.2,3.3-0.6c1-0.4,1.8-1,2.5-1.7c0.7-0.7,1.2-1.6,1.5-2.6
				c0.4-1,0.5-2,0.5-3.2v-6.7c0-0.8-0.1-1.5-0.4-2.3c-0.3-0.8-0.8-1.5-1.4-2.1c-0.6-0.6-1.4-1.1-2.3-1.5c-0.9-0.4-2.1-0.6-3.4-0.6
				c-2.4,0-4.2,0.8-5.3,2.3c-1.1,1.6-1.7,3.7-1.7,6.5V388.1z"/>
			<path class="st2" d="M256.7,396.9c1.7,0,3.1-0.2,4.1-0.7c1-0.5,1.5-1.3,1.5-2.6v-0.4c0-0.6-0.1-1-0.2-1.4c-0.1-0.4-0.5-0.7-0.9-1
				c-0.5-0.3-1.2-0.5-2.1-0.8c-0.9-0.2-2.1-0.5-3.7-0.8c-2-0.4-3.7-0.9-5.1-1.4c-1.4-0.5-2.6-1.2-3.5-2c-0.9-0.8-1.6-1.8-2-2.9
				c-0.4-1.1-0.6-2.5-0.6-4v-0.6c0-1.1,0.2-2.2,0.7-3.3c0.5-1.1,1.2-2.1,2.2-3c1-0.9,2.3-1.6,4-2.1s3.6-0.8,5.9-0.8
				c1.9,0,3.9,0.2,6.1,0.5c2.1,0.4,4.2,1.2,6.1,2.5l-3.2,5.5c-1.1-0.8-2.4-1.3-3.8-1.6c-1.4-0.3-2.8-0.5-4.2-0.5
				c-2.4,0-4,0.3-4.9,0.8c-0.9,0.5-1.3,1.3-1.3,2.1v0.4c0,0.6,0.1,1.1,0.2,1.4c0.2,0.4,0.5,0.7,0.9,0.9c0.4,0.3,1.1,0.5,1.9,0.7
				c0.8,0.2,1.8,0.4,3.1,0.7c2.1,0.4,3.9,0.9,5.4,1.4c1.5,0.5,2.8,1.1,3.8,1.9c1,0.8,1.7,1.8,2.2,2.9c0.5,1.2,0.7,2.7,0.7,4.4v0.7
				c0,1.3-0.3,2.5-0.9,3.7c-0.6,1.2-1.4,2.2-2.6,3.1c-1.1,0.9-2.5,1.6-4.1,2.1c-1.6,0.5-3.5,0.8-5.6,0.8c-2.8,0-5.4-0.4-7.8-1.1
				s-4.5-1.7-6.1-3l3.4-5.8c1.5,1,3.1,1.8,4.7,2.5C252.8,396.6,254.7,396.9,256.7,396.9z"/>
		</g>
		<g>
			<path class="st2" d="M435.4,273.2c0-12.3-10-22.2-22.2-22.2H285.3v-17.1c0-9.6-7.8-17.3-17.3-17.3h-95.6c-2.8,0-5,2.2-5,5
				s2.2,5,5,5H268c4,0,7.3,3.3,7.3,7.3V256c0,2.8,2.2,5,5,5h132.8c6.8,0,12.2,5.5,12.2,12.2v120.2h10V273.2H435.4z"/>
			<path class="st2" d="M425.4,423.2c0,6.8-5.5,12.2-12.2,12.2H161.6c-6.8,0-12.2-5.5-12.2-12.2V264.5c0-2.8-2.2-5-5-5s-5,2.2-5,5
				v158.7c0,12.3,10,22.2,22.2,22.2h251.5c12.3,0,22.2-10,22.2-22.2v-19.8h-10L425.4,423.2L425.4,423.2z"/>
			<path class="st2" d="M454.1,209H326.3v-17.1c0-9.6-7.8-17.3-17.3-17.3h-99.6c-2.8,0-5,2.2-5,5s2.2,5,5,5H309c4,0,7.3,3.3,7.3,7.3
				V214c0,2.8,2.2,5,5,5h132.8c6.8,0,12.2,5.5,12.2,12.2v150c0,6.8-5.5,12.2-12.2,12.2h-18.8v10h18.8c12.3,0,22.2-10,22.2-22.2v-150
				C476.4,219,466.4,209,454.1,209z"/>
			<rect x="425.4" y="393.5" class="st2" width="10" height="10"/>
		</g>
	</g>
</g>
</svg>
