<?xml version="1.0" encoding="utf-8"?>
<!-- Generator: Adobe Illustrator 24.1.3, SVG Export Plug-In . SVG Version: 6.00 Build 0)  -->
<svg version="1.1" id="s3_group" xmlns="http://www.w3.org/2000/svg" xmlns:xlink="http://www.w3.org/1999/xlink" x="0px" y="0px"
	 viewBox="0 0 620 620" style="enable-background:new 0 0 620 620;" xml:space="preserve">
<style type="text/css">
	.st0{fill:url(#SVGID_1_);}
	.st1{enable-background:new    ;}
	.st2{fill:#FFFFFF;}
</style>
<g>
	
		<linearGradient id="SVGID_1_" gradientUnits="userSpaceOnUse" x1="328.8824" y1="949.2385" x2="290.9044" y2="-266.0582" gradientTransform="matrix(1 0 0 -1 0 620)">
		<stop  offset="0" style="stop-color:#DBFF00"/>
		<stop  offset="0.8352" style="stop-color:#519900"/>
	</linearGradient>
	<path class="st0" d="M494.4,560.2H123.3c-35.6,0-64.4-28.8-64.4-64.4V124.6c0-35.6,28.8-64.4,64.4-64.4h371.2
		c35.6,0,64.4,28.8,64.4,64.4v371.2C558.9,531.4,530,560.2,494.4,560.2z"/>
	<g>
		<g class="st1">
			<path class="st2" d="M194.8,397.1c1.7,0,3.1-0.2,4.1-0.7c1-0.5,1.5-1.3,1.5-2.6v-0.4c0-0.6-0.1-1-0.2-1.4c-0.1-0.4-0.5-0.7-0.9-1
				c-0.5-0.3-1.2-0.5-2.1-0.8c-0.9-0.2-2.1-0.5-3.7-0.8c-2-0.4-3.7-0.9-5.1-1.4c-1.4-0.5-2.6-1.2-3.5-2c-0.9-0.8-1.6-1.8-2-2.9
				c-0.4-1.1-0.6-2.5-0.6-4v-0.6c0-1.1,0.2-2.2,0.7-3.3c0.5-1.1,1.2-2.1,2.2-3c1-0.9,2.3-1.6,4-2.1s3.6-0.8,5.9-0.8
				c1.9,0,3.9,0.2,6.1,0.5c2.1,0.4,4.2,1.2,6.1,2.5l-3.2,5.5c-1.1-0.8-2.4-1.3-3.8-1.6c-1.4-0.3-2.8-0.5-4.2-0.5
				c-2.4,0-4,0.3-4.9,0.8c-0.9,0.5-1.3,1.3-1.3,2.1v0.4c0,0.6,0.1,1.1,0.2,1.4c0.2,0.4,0.5,0.7,0.9,0.9c0.4,0.3,1.1,0.5,1.9,0.7
				c0.8,0.2,1.8,0.4,3.1,0.7c2.1,0.4,3.9,0.9,5.4,1.4c1.5,0.5,2.8,1.1,3.8,1.9c1,0.8,1.7,1.8,2.2,2.9c0.5,1.2,0.7,2.7,0.7,4.4v0.7
				c0,1.3-0.3,2.5-0.9,3.7c-0.6,1.2-1.4,2.2-2.6,3.1c-1.1,0.9-2.5,1.6-4.1,2.1c-1.6,0.5-3.5,0.8-5.6,0.8c-2.8,0-5.4-0.4-7.8-1.1
				s-4.5-1.7-6.1-3l3.4-5.8c1.5,1,3.1,1.8,4.7,2.5C190.8,396.8,192.7,397.1,194.8,397.1z"/>
			<path class="st2" d="M214.1,365.3c1.4-1.9,3.2-3.4,5.2-4.5c2-1.1,4.6-1.7,7.7-1.7c2,0,3.9,0.3,5.5,0.8c1.6,0.5,3,1.3,4.2,2.2
				c1.2,0.9,2.1,2.1,2.7,3.4c0.6,1.3,1,2.8,1,4.4v0.6c0,0.8-0.1,1.8-0.3,2.7c-0.2,1-0.5,1.9-1,2.8c-0.5,0.9-1.1,1.7-1.9,2.5
				c-0.8,0.8-1.8,1.4-3.1,1.9c2.9,0.5,5,1.7,6.4,3.4c1.4,1.8,2,3.9,2,6.4v0.9c0,1.6-0.3,3.2-1,4.7c-0.6,1.5-1.6,2.9-2.9,4
				c-1.3,1.2-2.9,2.1-4.9,2.8c-2,0.7-4.3,1-6.9,1c-2.5,0-5-0.4-7.3-1.2s-4.5-2-6.6-3.6l3.8-6c1,0.8,2,1.4,2.9,1.9
				c0.9,0.5,1.7,0.9,2.5,1.2c0.8,0.3,1.6,0.5,2.3,0.6c0.8,0.1,1.6,0.2,2.5,0.2c2.7,0,4.7-0.5,6-1.6c1.3-1.1,1.9-2.6,1.9-4.5v-0.8
				c0-2.1-0.6-3.7-1.9-4.7c-1.2-1-3.2-1.5-6-1.5h-5.8v-6.6h5.2c1.4,0,2.5-0.1,3.3-0.5c0.9-0.3,1.5-0.7,2-1.3s0.8-1.2,1-2
				c0.2-0.8,0.3-1.6,0.3-2.6v-0.5c0-1.6-0.5-2.8-1.6-3.6c-1.1-0.7-2.5-1.1-4.3-1.1c-1.8,0-3.3,0.3-4.5,1c-1.1,0.7-2.2,1.5-3.1,2.6
				L214.1,365.3z"/>
		</g>
		<g>
			<path class="st2" d="M436.4,273.4c0-12.3-10-22.2-22.2-22.2H286.3v-17.1c0-9.6-7.8-17.3-17.3-17.3h-95.6c-2.8,0-5,2.2-5,5
				s2.2,5,5,5H269c4,0,7.3,3.3,7.3,7.3v22.1c0,2.8,2.2,5,5,5h132.8c6.8,0,12.2,5.5,12.2,12.2v120.2h10V273.4H436.4z"/>
			<path class="st2" d="M426.4,423.4c0,6.8-5.5,12.2-12.2,12.2H162.6c-6.8,0-12.2-5.5-12.2-12.2V264.7c0-2.8-2.2-5-5-5s-5,2.2-5,5
				v158.7c0,12.3,10,22.2,22.2,22.2h251.5c12.3,0,22.2-10,22.2-22.2v-19.8h-10L426.4,423.4L426.4,423.4z"/>
			<path class="st2" d="M455.1,209.2H327.3v-17.1c0-9.6-7.8-17.3-17.3-17.3h-99.6c-2.8,0-5,2.2-5,5s2.2,5,5,5H310
				c4,0,7.3,3.3,7.3,7.3v22.1c0,2.8,2.2,5,5,5h132.8c6.8,0,12.2,5.5,12.2,12.2v150c0,6.8-5.5,12.2-12.2,12.2h-18.8v10h18.8
				c12.3,0,22.2-10,22.2-22.2v-150C477.4,219.2,467.4,209.2,455.1,209.2z"/>
			<rect x="426.4" y="393.7" class="st2" width="10" height="10"/>
		</g>
	</g>
</g>
</svg>
