<?xml version="1.0" encoding="utf-8"?>
<!-- Generator: Adobe Illustrator 24.1.3, SVG Export Plug-In . SVG Version: 6.00 Build 0)  -->
<svg version="1.1" id="securityGroup_group" xmlns="http://www.w3.org/2000/svg" xmlns:xlink="http://www.w3.org/1999/xlink"
	 x="0px" y="0px" viewBox="0 0 620 620" style="enable-background:new 0 0 620 620;" xml:space="preserve">
<style type="text/css">
	.st0{fill:url(#SVGID_1_);}
	.st1{fill:#FFFFFF;}
	.st2{fill:url(#SVGID_2_);}
	.st3{enable-background:new    ;}
</style>
<linearGradient id="SVGID_1_" gradientUnits="userSpaceOnUse" x1="-357.7163" y1="-319.6176" x2="-395.6943" y2="-1534.9143" gradientTransform="matrix(1 0 0 -1 0 620)">
	<stop  offset="0" style="stop-color:#AE3AFF"/>
	<stop  offset="1" style="stop-color:#6B09E9"/>
</linearGradient>
<path class="st0" d="M-192.1,1829.1h-371.2c-35.6,0-64.4-28.8-64.4-64.4v-371.2c0-35.6,28.8-64.4,64.4-64.4h371.2
	c35.6,0,64.4,28.8,64.4,64.4v371.2C-127.7,1800.2-156.5,1829.1-192.1,1829.1z"/>
<g>
	<text transform="matrix(1 0 0 1 -508.1649 1616.3179)" class="st1" style="font-family:'NanumSquareEB'; font-size:49px;">security</text>
	<text transform="matrix(1 0 0 1 -508.1649 1665.3179)" class="st1" style="font-family:'NanumSquareEB'; font-size:49px;">group</text>
	<g>
		<path class="st1" d="M-250.2,1542.3c0-12.3-10-22.2-22.2-22.2h-127.8V1503c0-9.6-7.8-17.3-17.3-17.3h-95.6c-2.8,0-5,2.2-5,5
			s2.2,5,5,5h95.6c4,0,7.3,3.3,7.3,7.3v22.1c0,2.8,2.2,5,5,5h132.8c6.8,0,12.2,5.5,12.2,12.2v120.2h10L-250.2,1542.3L-250.2,1542.3z
			"/>
		<path class="st1" d="M-260.2,1692.3c0,6.8-5.5,12.2-12.2,12.2h-251.5c-6.8,0-12.2-5.5-12.2-12.2v-158.7c0-2.8-2.2-5-5-5
			s-5,2.2-5,5v158.7c0,12.3,10,22.2,22.2,22.2h251.5c12.3,0,22.2-10,22.2-22.2v-19.8h-10V1692.3z"/>
		<path class="st1" d="M-231.4,1478.1h-127.8V1461c0-9.6-7.8-17.3-17.3-17.3h-99.6c-2.8,0-5,2.2-5,5s2.2,5,5,5h99.6
			c4,0,7.3,3.3,7.3,7.3v22.1c0,2.8,2.2,5,5,5h132.8c6.8,0,12.2,5.5,12.2,12.2v150c0,6.8-5.5,12.2-12.2,12.2h-18.8v10h18.8
			c12.3,0,22.2-10,22.2-22.2v-150C-209.2,1488-219.2,1478.1-231.4,1478.1z"/>
		<rect x="-260.2" y="1662.6" class="st1" width="10" height="10"/>
	</g>
</g>
<g>
	
		<linearGradient id="SVGID_2_" gradientUnits="userSpaceOnUse" x1="328.8824" y1="949.2385" x2="290.9044" y2="-266.0582" gradientTransform="matrix(1 0 0 -1 0 620)">
		<stop  offset="0" style="stop-color:#AE3AFF"/>
		<stop  offset="1" style="stop-color:#6B09E9"/>
	</linearGradient>
	<path class="st2" d="M494.4,560.2H123.3c-35.6,0-64.4-28.8-64.4-64.4V124.6c0-35.6,28.8-64.4,64.4-64.4h371.2
		c35.6,0,64.4,28.8,64.4,64.4v371.2C558.9,531.4,530,560.2,494.4,560.2z"/>
	<g>
		<g class="st3">
			<path class="st1" d="M191,343.9c1.4,0,2.5-0.2,3.4-0.6c0.8-0.4,1.2-1.1,1.2-2.1v-0.3c0-0.5-0.1-0.8-0.2-1.2
				c-0.1-0.3-0.4-0.6-0.8-0.8c-0.4-0.2-1-0.4-1.7-0.6c-0.7-0.2-1.7-0.4-3-0.7c-1.6-0.3-3-0.7-4.2-1.2c-1.2-0.4-2.1-1-2.8-1.6
				c-0.7-0.7-1.3-1.4-1.6-2.4c-0.3-0.9-0.5-2-0.5-3.3v-0.5c0-0.9,0.2-1.8,0.6-2.7c0.4-0.9,1-1.7,1.8-2.4c0.8-0.7,1.9-1.3,3.2-1.7
				c1.3-0.4,2.9-0.7,4.8-0.7c1.6,0,3.2,0.1,5,0.4c1.7,0.3,3.4,1,5,2l-2.6,4.5c-0.9-0.6-1.9-1.1-3.1-1.3s-2.3-0.4-3.5-0.4
				c-1.9,0-3.3,0.2-4,0.7c-0.7,0.4-1.1,1-1.1,1.7v0.3c0,0.5,0.1,0.9,0.2,1.2c0.1,0.3,0.4,0.5,0.7,0.8c0.4,0.2,0.9,0.4,1.5,0.6
				c0.7,0.2,1.5,0.3,2.5,0.5c1.7,0.4,3.2,0.7,4.4,1.1c1.3,0.4,2.3,0.9,3.1,1.5c0.8,0.6,1.4,1.4,1.8,2.4c0.4,1,0.6,2.2,0.6,3.6v0.5
				c0,1-0.2,2-0.7,3c-0.5,0.9-1.2,1.8-2.1,2.5c-0.9,0.7-2,1.3-3.4,1.7c-1.3,0.4-2.9,0.6-4.6,0.6c-2.3,0-4.4-0.3-6.4-0.9
				c-2-0.6-3.7-1.4-5-2.5l2.7-4.7c1.2,0.8,2.5,1.5,3.9,2C187.7,343.6,189.3,343.9,191,343.9z"/>
			<path class="st1" d="M229.2,346.2c-1.3,0.9-2.8,1.6-4.6,2.1c-1.8,0.5-3.9,0.8-6.5,0.8c-1.6,0-3.1-0.2-4.6-0.6
				c-1.5-0.4-2.8-1.1-3.9-2.1c-1.2-1-2.1-2.3-2.8-3.9c-0.7-1.6-1.1-3.6-1.1-6.1v-2.8c0-2.2,0.3-4.1,1-5.7c0.6-1.6,1.5-2.9,2.6-3.9
				c1.1-1,2.4-1.8,3.9-2.3c1.5-0.5,3.1-0.7,4.8-0.7c1.7,0,3.3,0.2,4.7,0.7c1.5,0.5,2.7,1.2,3.7,2.2c1,1,1.9,2.2,2.5,3.7
				s0.9,3.2,0.9,5.2v4.5h-18.1c0,2.2,0.6,3.8,1.7,4.9c1.1,1.1,2.8,1.6,4.9,1.6c1.6,0,3-0.2,4.3-0.5c1.2-0.3,2.5-0.9,3.9-1.7
				L229.2,346.2z M224,332.8v-1.2c0-0.7-0.1-1.4-0.3-2.1s-0.6-1.2-1.1-1.7c-0.5-0.5-1.1-0.9-1.9-1.2c-0.8-0.3-1.7-0.4-2.7-0.4
				c-2.1,0-3.6,0.5-4.6,1.6c-1,1.1-1.5,2.4-1.5,3.9v1H224z"/>
			<path class="st1" d="M246.5,321.1c1.3,0,2.4,0.1,3.4,0.3c1,0.2,1.9,0.4,2.6,0.7c0.8,0.3,1.5,0.6,2.1,1c0.6,0.4,1.2,0.8,1.7,1.2
				l-3,4.5c-1.1-0.9-2.2-1.5-3.3-1.8c-1.1-0.3-2.3-0.5-3.6-0.5c-0.8,0-1.5,0.1-2.3,0.4c-0.7,0.2-1.4,0.6-1.9,1.2
				c-0.6,0.5-1,1.2-1.3,2.1c-0.3,0.9-0.5,1.9-0.5,3.2v3.3c0,1.4,0.2,2.5,0.6,3.4c0.4,0.9,0.9,1.6,1.4,2.2c0.6,0.5,1.2,0.9,2,1.1
				c0.7,0.2,1.4,0.3,2.1,0.3c1.7,0,3.1-0.2,4.2-0.6c1.1-0.4,2.2-1,3.1-1.7l2.9,4.5c-0.9,0.9-2.3,1.6-4,2.3c-1.8,0.7-3.9,1-6.3,1
				c-4,0-7-1.1-9.1-3.3c-2.1-2.2-3.1-5.2-3.1-9.1v-3.4c0-3.9,1.1-6.9,3.3-9C239.7,322.2,242.7,321.1,246.5,321.1z"/>
			<path class="st1" d="M270.6,349.2c-2.8,0-5.1-0.8-6.8-2.5c-1.7-1.7-2.5-4.2-2.5-7.5v-17.4h6.2v16.1c0,1.2,0.1,2.1,0.4,2.9
				c0.3,0.8,0.6,1.4,1.1,1.8c0.5,0.4,1,0.8,1.6,0.9c0.6,0.2,1.3,0.3,2,0.3c0.6,0,1.3-0.1,1.9-0.3c0.7-0.2,1.3-0.5,1.8-1
				c0.6-0.5,1-1.1,1.4-2c0.4-0.8,0.6-1.8,0.6-3v-15.7h6.2v27h-5.9v-3.2h-0.1c-0.4,0.7-0.9,1.2-1.5,1.7c-0.6,0.5-1.2,0.8-1.9,1.1
				c-0.7,0.3-1.4,0.5-2.2,0.7C272.1,349.1,271.4,349.2,270.6,349.2z"/>
			<path class="st1" d="M307.4,327.3c-0.5-0.2-0.9-0.3-1.5-0.4c-0.5-0.1-1.2-0.1-2-0.1c-0.8,0-1.6,0.1-2.4,0.4s-1.4,0.7-1.9,1.2
				c-0.5,0.5-1,1.2-1.3,1.9c-0.3,0.7-0.5,1.5-0.5,2.4v16h-6.2v-27h5.9v3.9h0.1c0.7-1.4,1.7-2.5,2.9-3.3c1.2-0.8,2.8-1.2,4.7-1.2
				c0.7,0,1.4,0,2.1,0.1s1.3,0.2,1.8,0.4L307.4,327.3z"/>
			<path class="st1" d="M313.5,311.1h6.5v6.7h-6.5V311.1z M313.6,321.7h6.2v27h-6.2V321.7z"/>
			<path class="st1" d="M329,326.8h-4.3v-5.1h4.3v-6.9h6.2v6.9h6.8v5.1h-6.8V341c0,1.1,0.2,1.9,0.7,2.3c0.5,0.4,1.1,0.5,1.9,0.5
				c0.6,0,1.2-0.1,1.8-0.2c0.6-0.1,1.3-0.3,2-0.6l1,4.9c-0.6,0.3-1.3,0.5-2.3,0.8s-2,0.4-3.3,0.4c-1.5,0-2.8-0.2-3.9-0.5
				c-1-0.4-1.9-0.9-2.5-1.6c-0.6-0.7-1.1-1.5-1.3-2.5c-0.3-1-0.4-2.1-0.4-3.4V326.8z"/>
			<path class="st1" d="M352.2,321.7l6.1,19.9h0.2l6.2-19.9h6.6l-14,38.2l-5.8-2l3.5-8.9l-9.6-27.3H352.2z"/>
		</g>
		<g class="st3">
			<path class="st1" d="M198.6,394.1L198.6,394.1c-0.8,1.3-1.8,2.2-3.2,2.7c-1.3,0.5-2.8,0.8-4.5,0.8c-3.5,0-6.1-1-7.8-3
				c-1.7-2-2.6-4.8-2.6-8.5v-4.3c0-1.8,0.3-3.4,0.8-4.9c0.5-1.5,1.2-2.7,2.2-3.7c0.9-1,2.1-1.8,3.4-2.3c1.3-0.5,2.8-0.8,4.4-0.8
				c1,0,2,0.1,2.8,0.3c0.8,0.2,1.5,0.4,2.1,0.7c0.6,0.3,1.1,0.6,1.5,1c0.4,0.3,0.7,0.7,0.9,1h0v-2.4h5.9v26.8c0,3.8-1,6.6-3.1,8.4
				c-2.1,1.8-5.3,2.8-9.8,2.8c-1.7,0-3.4-0.3-5.1-0.8c-1.7-0.6-3.1-1.3-4.2-2.1l2.8-4.8c0.3,0.2,0.6,0.5,1.1,0.8
				c0.5,0.3,1,0.5,1.6,0.8s1.2,0.4,1.9,0.6c0.7,0.1,1.3,0.2,2,0.2c2.2,0,3.8-0.5,5-1.4c1.1-0.9,1.7-2.4,1.7-4.4V394.1z M186.7,385.2
				c0,2.3,0.5,4.1,1.4,5.3s2.3,1.9,4.1,1.9c1,0,1.9-0.2,2.7-0.5c0.8-0.3,1.5-0.8,2-1.4c0.5-0.6,1-1.3,1.2-2.1
				c0.3-0.8,0.4-1.7,0.4-2.6v-5c0-0.6-0.1-1.3-0.4-1.9c-0.2-0.6-0.6-1.2-1.1-1.7c-0.5-0.5-1.1-0.9-1.9-1.3c-0.8-0.3-1.7-0.5-2.8-0.5
				c-2,0-3.4,0.6-4.3,1.9c-0.9,1.3-1.4,3-1.4,5.3V385.2z"/>
			<path class="st1" d="M227.7,376.3c-0.5-0.2-0.9-0.3-1.5-0.4c-0.5-0.1-1.2-0.1-2-0.1c-0.8,0-1.6,0.1-2.4,0.4s-1.4,0.7-1.9,1.2
				c-0.5,0.5-1,1.2-1.3,1.9c-0.3,0.7-0.5,1.5-0.5,2.4v16H212v-27h5.9v3.9h0.1c0.7-1.4,1.7-2.5,2.9-3.3c1.2-0.8,2.8-1.2,4.7-1.2
				c0.7,0,1.4,0,2.1,0.1s1.3,0.2,1.8,0.4L227.7,376.3z"/>
			<path class="st1" d="M244.7,398.1c-1.9,0-3.7-0.3-5.2-0.8c-1.6-0.6-2.9-1.4-4-2.4c-1.1-1-1.9-2.3-2.5-3.9
				c-0.6-1.6-0.9-3.3-0.9-5.3v-3.2c0-2,0.3-3.8,0.9-5.3c0.6-1.5,1.5-2.8,2.5-3.9c1.1-1,2.4-1.8,4-2.4c1.6-0.6,3.3-0.8,5.2-0.8
				c1.9,0,3.6,0.3,5.2,0.8c1.6,0.6,2.9,1.4,4,2.4c1.1,1,1.9,2.3,2.5,3.9c0.6,1.5,0.9,3.3,0.9,5.3v3.2c0,2-0.3,3.7-0.9,5.3
				c-0.6,1.6-1.5,2.9-2.5,3.9c-1.1,1-2.4,1.8-4,2.4C248.3,397.8,246.6,398.1,244.7,398.1z M244.7,392.7c0.9,0,1.8-0.1,2.5-0.4
				c0.8-0.3,1.5-0.7,2-1.2c0.6-0.6,1-1.3,1.3-2.2c0.3-0.9,0.5-2,0.5-3.3v-3c0-2.6-0.6-4.4-1.7-5.5c-1.2-1.1-2.7-1.6-4.7-1.6
				s-3.5,0.5-4.7,1.6c-1.2,1.1-1.7,2.9-1.7,5.5v3c0,1.3,0.2,2.4,0.5,3.3c0.3,0.9,0.8,1.6,1.3,2.2c0.6,0.6,1.2,1,2,1.2
				C242.9,392.6,243.8,392.7,244.7,392.7z"/>
			<path class="st1" d="M272.4,398.2c-2.8,0-5.1-0.8-6.8-2.5c-1.7-1.7-2.5-4.2-2.5-7.5v-17.4h6.2v16.1c0,1.2,0.1,2.1,0.4,2.9
				c0.3,0.8,0.6,1.4,1.1,1.8c0.5,0.4,1,0.8,1.6,0.9c0.6,0.2,1.3,0.3,2,0.3c0.6,0,1.3-0.1,1.9-0.3c0.7-0.2,1.3-0.5,1.8-1
				c0.6-0.5,1-1.1,1.4-2c0.4-0.8,0.6-1.8,0.6-3v-15.7h6.2v27h-5.9v-3.2h-0.1c-0.4,0.7-0.9,1.2-1.5,1.7c-0.6,0.5-1.2,0.8-1.9,1.1
				c-0.7,0.3-1.4,0.5-2.2,0.7C273.8,398.1,273.1,398.2,272.4,398.2z"/>
			<path class="st1" d="M306.8,398.1c-1.6,0-3-0.3-4.2-0.9c-1.2-0.6-2.1-1.3-2.8-2.3v13.2h-6.2v-37.5h5.9v2.9c0.5-0.7,1-1.3,1.6-1.7
				c0.6-0.5,1.3-0.8,1.9-1.1c0.7-0.3,1.4-0.4,2.1-0.6c0.7-0.1,1.4-0.2,2-0.2c1.8,0,3.3,0.3,4.6,0.8c1.3,0.6,2.4,1.3,3.3,2.3
				c0.9,1,1.5,2.2,2,3.6c0.4,1.4,0.7,3,0.7,4.7v4.8c0,1.8-0.3,3.5-0.8,4.9c-0.5,1.4-1.2,2.7-2.2,3.7c-0.9,1-2.1,1.8-3.4,2.3
				C309.9,397.9,308.4,398.1,306.8,398.1z M311.5,382.6c0-2.3-0.4-4.1-1.3-5.3c-0.9-1.3-2.3-1.9-4.3-1.9c-2.1,0-3.6,0.6-4.7,1.8
				s-1.6,2.7-1.6,4.6v5.7c0,0.6,0.2,1.2,0.5,1.9c0.3,0.6,0.8,1.2,1.3,1.7c0.6,0.5,1.2,0.9,2,1.2c0.8,0.3,1.6,0.5,2.6,0.5
				c1.8,0,3.2-0.6,4.1-1.9c0.9-1.3,1.4-3,1.4-5.3V382.6z"/>
		</g>
		<g>
			<path class="st1" d="M436.4,273.4c0-12.3-10-22.2-22.2-22.2H286.3v-17.1c0-9.6-7.8-17.3-17.3-17.3h-95.6c-2.8,0-5,2.2-5,5
				s2.2,5,5,5H269c4,0,7.3,3.3,7.3,7.3v22.1c0,2.8,2.2,5,5,5h132.8c6.8,0,12.2,5.5,12.2,12.2v120.2h10V273.4H436.4z"/>
			<path class="st1" d="M426.4,423.4c0,6.8-5.5,12.2-12.2,12.2H162.6c-6.8,0-12.2-5.5-12.2-12.2V264.7c0-2.8-2.2-5-5-5s-5,2.2-5,5
				v158.7c0,12.3,10,22.2,22.2,22.2h251.5c12.3,0,22.2-10,22.2-22.2v-19.8h-10L426.4,423.4L426.4,423.4z"/>
			<path class="st1" d="M455.1,209.2H327.3v-17.1c0-9.6-7.8-17.3-17.3-17.3h-99.6c-2.8,0-5,2.2-5,5s2.2,5,5,5H310
				c4,0,7.3,3.3,7.3,7.3v22.1c0,2.8,2.2,5,5,5h132.8c6.8,0,12.2,5.5,12.2,12.2v150c0,6.8-5.5,12.2-12.2,12.2h-18.8v10h18.8
				c12.3,0,22.2-10,22.2-22.2v-150C477.4,219.2,467.4,209.2,455.1,209.2z"/>
			<rect x="426.4" y="393.7" class="st1" width="10" height="10"/>
		</g>
	</g>
</g>
</svg>
