<?xml version="1.0" encoding="utf-8"?>
<!-- Generator: Adobe Illustrator 24.1.3, SVG Export Plug-In . SVG Version: 6.00 Build 0)  -->
<svg version="1.1" id="storage" xmlns="http://www.w3.org/2000/svg" xmlns:xlink="http://www.w3.org/1999/xlink" x="0px" y="0px"
	 viewBox="0 0 620 620" style="enable-background:new 0 0 620 620;" xml:space="preserve">
<style type="text/css">
	.st0{fill:url(#SVGID_1_);}
	.st1{fill:none;stroke:#FFFFFF;stroke-width:10;stroke-linecap:round;stroke-linejoin:round;stroke-miterlimit:10;}
</style>
<linearGradient id="SVGID_1_" gradientUnits="userSpaceOnUse" x1="329.71" y1="-329.4761" x2="291.732" y2="885.8206">
	<stop  offset="0" style="stop-color:#DBFF00"/>
	<stop  offset="0.8352" style="stop-color:#519900"/>
</linearGradient>
<path class="st0" d="M495.3,559.97H124.15c-35.58,0-64.42-28.84-64.42-64.42V124.4c0-35.58,28.84-64.42,64.42-64.42H495.3
	c35.58,0,64.42,28.84,64.42,64.42v371.15C559.73,531.13,530.88,559.97,495.3,559.97z"/>
<g>
	<g>
		<ellipse class="st1" cx="301.74" cy="216.56" rx="118.1" ry="40.34"/>
		<path class="st1" d="M202.35,405.72L202.35,405.72c2.47,21.29,49.88,38,98.17,38c48.29,0,91.02-18.71,93.49-40l0,0"/>
		<path class="st1" d="M183.64,346.67"/>
		<path class="st1" d="M419.85,215.85h-0.05c-1.11-21.95-53.52-39.63-118.05-39.63c-64.53,0-116.94,17.68-118.05,39.63h-0.05"/>
	</g>
	<line class="st1" x1="420.14" y1="215.72" x2="394.01" y2="403.72"/>
	<line class="st1" x1="183.83" y1="216.72" x2="202.35" y2="405.72"/>
	<path class="st1" d="M313.42,300.72c0,0,102.22,77.4,120.88,41c8.71-17-22.87-28-22.87-28"/>
	<ellipse class="st1" cx="313.42" cy="298.72" rx="7.62" ry="7"/>
</g>
</svg>
