<?xml version="1.0" encoding="utf-8"?>
<!-- Generator: Adobe Illustrator 24.1.3, SVG Export Plug-In . SVG Version: 6.00 Build 0)  -->
<svg version="1.1" id="subnet_group" xmlns="http://www.w3.org/2000/svg" xmlns:xlink="http://www.w3.org/1999/xlink" x="0px"
	 y="0px" viewBox="0 0 620 620" style="enable-background:new 0 0 620 620;" xml:space="preserve">
<style type="text/css">
	.st0{fill:url(#SVGID_1_);}
	.st1{fill:#FFFFFF;}
	.st2{fill:none;stroke:#FFFFFF;stroke-width:10;stroke-miterlimit:10;}
</style>
<g>
	<linearGradient id="SVGID_1_" gradientUnits="userSpaceOnUse" x1="327.8383" y1="-329.4482" x2="289.8603" y2="885.8486">
		<stop  offset="0" style="stop-color:#F973F1"/>
		<stop  offset="1" style="stop-color:#017FFF"/>
	</linearGradient>
	<path class="st0" d="M493.4,560H122.3c-35.6,0-64.4-28.8-64.4-64.4V124.4c0-35.6,28.8-64.4,64.4-64.4h371.2
		c35.6,0,64.4,28.8,64.4,64.4v371.2C557.9,531.2,529,560,493.4,560z"/>
	<g>
		<g>
			<path class="st1" d="M221.1,421.6c2.8,0,4.8-0.5,6-1.5s1.9-2.2,1.9-3.7v-0.7c0-1.8-0.7-3.1-2-3.9c-1.3-0.9-3.2-1.6-5.7-2.1
				c-1.8-0.4-3.6-0.8-5.4-1.3c-1.8-0.4-3.5-1.1-4.9-2c-1.5-0.9-2.7-2.1-3.6-3.6c-0.9-1.5-1.4-3.5-1.4-6v-0.8c0-1.3,0.3-2.7,0.8-4.1
				c0.5-1.4,1.4-2.7,2.6-3.9c1.2-1.2,2.8-2.2,4.8-3c2-0.8,4.4-1.2,7.3-1.2c2.4,0,4.7,0.3,6.9,0.8c2.2,0.5,4.4,1.5,6.6,2.9l-3.6,5.9
				c-1.8-1.1-3.4-1.8-4.9-2.2c-1.5-0.3-3.1-0.5-4.9-0.5c-1.4,0-2.5,0.2-3.5,0.5c-1,0.3-1.8,0.7-2.5,1.3c-0.7,0.5-1.2,1.1-1.5,1.7
				c-0.3,0.6-0.5,1.2-0.5,1.8v0.7c0,1,0.2,1.9,0.8,2.5c0.5,0.6,1.2,1.2,2,1.6s1.8,0.8,3,1c1.1,0.3,2.3,0.5,3.6,0.8
				c2.6,0.6,4.7,1.3,6.5,2.1c1.7,0.8,3.1,1.8,4.2,2.8c1.1,1,1.8,2.2,2.3,3.5c0.5,1.3,0.7,2.6,0.7,4.1v0.8c0,2.4-0.4,4.4-1.3,6
				c-0.9,1.6-2,2.9-3.5,3.9c-1.5,1-3.2,1.7-5.1,2.1s-3.9,0.6-6,0.6c-1.6,0-3.1-0.1-4.6-0.4c-1.5-0.3-2.9-0.6-4.2-1.1s-2.5-1-3.7-1.6
				c-1.1-0.6-2.1-1.3-3-1.9l3.7-6.1c1.3,1.1,3,2.1,5.1,2.9C216.2,421.2,218.5,421.6,221.1,421.6z"/>
			<path class="st1" d="M255.5,428.4c-3.5,0-6.3-1-8.3-3.1c-2.1-2.1-3.1-5.1-3.1-9.2v-21.4h7.6v19.7c0,1.4,0.2,2.6,0.5,3.6
				c0.3,0.9,0.8,1.7,1.3,2.2c0.6,0.5,1.2,0.9,2,1.1s1.6,0.3,2.5,0.3c0.8,0,1.5-0.1,2.4-0.4c0.8-0.2,1.6-0.7,2.3-1.3
				c0.7-0.6,1.3-1.4,1.7-2.4s0.7-2.2,0.7-3.7v-19.3h7.6v33.1h-7.2v-4h-0.1c-0.5,0.8-1.1,1.5-1.8,2c-0.7,0.6-1.5,1-2.4,1.4
				s-1.8,0.6-2.7,0.8C257.3,428.3,256.4,428.4,255.5,428.4z"/>
			<path class="st1" d="M288.6,424v3.8h-7.2v-45.4h7.6V398c0.5-0.8,1.2-1.4,2-1.9s1.6-0.9,2.4-1.2c0.8-0.3,1.6-0.5,2.5-0.6
				c0.8-0.1,1.6-0.2,2.3-0.2c2.1,0,4,0.3,5.6,1s3,1.6,4,2.8c1.1,1.2,1.9,2.7,2.4,4.4c0.5,1.7,0.8,3.7,0.8,5.8v5.8c0,2.2-0.3,4.3-1,6
				c-0.6,1.8-1.5,3.3-2.7,4.5c-1.2,1.2-2.5,2.2-4.2,2.8s-3.4,1-5.4,1c-2.2,0-4-0.4-5.5-1.2c-1.5-0.8-2.6-1.8-3.4-3.1H288.6z
				 M303.5,409.4c0-2.8-0.5-5-1.6-6.5c-1.1-1.5-2.8-2.3-5.3-2.3c-2.5,0-4.4,0.7-5.7,2.2c-1.3,1.5-2,3.3-2,5.6v7
				c0,0.8,0.2,1.5,0.6,2.3c0.4,0.8,0.9,1.5,1.6,2.1c0.7,0.6,1.5,1.1,2.5,1.5c1,0.4,2,0.6,3.2,0.6c2.2,0,3.9-0.8,5-2.3
				c1.1-1.5,1.7-3.7,1.7-6.4V409.4z"/>
			<path class="st1" d="M335.3,394.1c1.5,0,2.9,0.2,4.3,0.7c1.4,0.4,2.6,1.2,3.7,2.1s1.9,2.3,2.6,3.8c0.6,1.6,1,3.4,1,5.6v21.5h-7.6
				v-19.9c0-4.8-2.1-7.3-6.3-7.3c-0.6,0-1.3,0.1-2.1,0.3c-0.8,0.2-1.6,0.5-2.3,1.1c-0.7,0.5-1.4,1.3-1.9,2.3c-0.5,1-0.8,2.3-0.8,4
				v19.6h-7.6v-33.1h7.1v3.8h0.1c1.2-1.7,2.6-2.8,4.3-3.5S333.3,394.1,335.3,394.1z"/>
			<path class="st1" d="M382.4,424.8c-1.6,1.1-3.5,1.9-5.6,2.6c-2.2,0.6-4.8,1-7.9,1c-1.9,0-3.8-0.3-5.6-0.8s-3.4-1.3-4.8-2.5
				c-1.4-1.2-2.6-2.8-3.4-4.7c-0.9-2-1.3-4.4-1.3-7.4v-3.4c0-2.7,0.4-5,1.2-6.9c0.8-1.9,1.8-3.5,3.2-4.8c1.4-1.3,2.9-2.2,4.8-2.8
				c1.8-0.6,3.8-0.9,5.9-0.9c2.1,0,4,0.3,5.8,0.9c1.8,0.6,3.3,1.5,4.6,2.7c1.3,1.2,2.3,2.7,3,4.6c0.7,1.8,1.1,3.9,1.1,6.3v5.5h-22.1
				c0,2.6,0.7,4.6,2.1,6c1.4,1.3,3.4,2,6.1,2c2,0,3.7-0.2,5.2-0.6c1.5-0.4,3.1-1.1,4.8-2.1L382.4,424.8z M376,408.4v-1.4
				c0-0.9-0.1-1.7-0.4-2.5c-0.3-0.8-0.7-1.5-1.3-2.1s-1.4-1.1-2.3-1.4c-0.9-0.4-2-0.5-3.4-0.5c-2.5,0-4.4,0.7-5.7,2
				c-1.3,1.3-1.9,2.9-1.9,4.8v1.3H376z"/>
			<path class="st1" d="M392.5,401h-5.3v-6.2h5.3v-8.5h7.6v8.5h8.3v6.2h-8.3v17.4c0,1.4,0.3,2.3,0.9,2.8c0.6,0.4,1.4,0.7,2.4,0.7
				c0.8,0,1.5-0.1,2.3-0.2s1.5-0.4,2.4-0.8l1.2,6.1c-0.7,0.3-1.6,0.6-2.8,0.9c-1.2,0.3-2.5,0.4-4,0.4c-1.9,0-3.5-0.2-4.7-0.7
				c-1.3-0.4-2.3-1.1-3.1-1.9c-0.8-0.8-1.3-1.9-1.6-3.1c-0.3-1.2-0.5-2.6-0.5-4.2V401z"/>
		</g>
		<g>
			<path class="st1" d="M459.3,298.3c0-12.3-10-22.2-22.2-22.2H309.2v-17.1c0-9.6-7.8-17.3-17.3-17.3h-55.6c-2.8,0-5,2.2-5,5
				s2.2,5,5,5h55.6c4,0,7.3,3.3,7.3,7.3V281c0,2.8,2.2,5,5,5H437c6.8,0,12.2,5.5,12.2,12.2v120.2h10V298.3z"/>
			<path class="st1" d="M449.3,448.3c0,6.8-5.5,12.2-12.2,12.2H185.5c-6.8,0-12.2-5.5-12.2-12.2V289.5c0-2.8-2.2-5-5-5s-5,2.2-5,5
				v158.7c0,12.3,10,22.2,22.2,22.2H437c12.3,0,22.2-10,22.2-22.2v-19.8h-10V448.3z"/>
			<path class="st1" d="M478,234H350.2v-17.1c0-9.6-7.8-17.3-17.3-17.3h-94.6c-2.8,0-5,2.2-5,5s2.2,5,5,5h94.6c4,0,7.3,3.3,7.3,7.3
				V239c0,2.8,2.2,5,5,5H478c6.8,0,12.2,5.5,12.2,12.2v150c0,6.8-5.5,12.2-12.2,12.2h-18.8v10H478c12.3,0,22.2-10,22.2-22.2v-150
				C500.3,244,490.3,234,478,234z"/>
			<rect x="449.3" y="418.5" class="st1" width="10" height="10"/>
		</g>
	</g>
	<g>
		<path class="st2" d="M204.7,267.5h-77.2c-6.6,0-12-5.4-12-12v-57.6c0-6.6,5.4-12,12-12h77.2c6.6,0,12,5.4,12,12v57.6
			C216.7,262.1,211.3,267.5,204.7,267.5z"/>
		<g>
			<path class="st2" d="M166.4,149.5c-17.6,0-31.9,16.3-32,36.4h64.1C198.4,165.8,184.1,149.5,166.4,149.5z"/>
		</g>
	</g>
</g>
</svg>
