<?xml version="1.0" encoding="utf-8"?>
<!-- Generator: Adobe Illustrator 24.1.3, SVG Export Plug-In . SVG Version: 6.00 Build 0)  -->
<svg version="1.1" id="VPC" xmlns="http://www.w3.org/2000/svg" xmlns:xlink="http://www.w3.org/1999/xlink" x="0px" y="0px"
	 viewBox="0 0 620 620" style="enable-background:new 0 0 620 620;" xml:space="preserve">
<style type="text/css">
	.st0{fill:url(#SVGID_1_);}
	.st1{fill:none;stroke:#FFFFFF;stroke-width:10;stroke-miterlimit:10;}
	.st2{enable-background:new    ;}
	.st3{fill:#FFFFFF;}
</style>
<linearGradient id="SVGID_1_" gradientUnits="userSpaceOnUse" x1="327.8827" y1="949.4468" x2="289.9047" y2="-265.8499" gradientTransform="matrix(1 0 0 -1 0 620)">
	<stop  offset="0" style="stop-color:#D9FF8B"/>
	<stop  offset="1" style="stop-color:#017FFF"/>
</linearGradient>
<path class="st0" d="M493.4,560H122.3c-35.6,0-64.4-28.8-64.4-64.4V124.4c0-35.6,28.8-64.4,64.4-64.4h371.2
	c35.6,0,64.4,28.8,64.4,64.4v371.2C557.9,531.2,529,560,493.4,560z"/>
<path class="st1" d="M480.7,354.2c0-29.8-24.2-54-54-54c-5.3,0-10.4,0.8-15.2,2.2c-1.1-50.3-42.2-90.8-92.8-90.8
	c-41.6,0-76.8,27.4-88.6,65.1c-8.1-3.3-16.9-5.2-26.1-5.2c-37.7,0-68.3,30.6-68.3,68.3c0,34.6,25.4,62.9,58.8,67.5l0,0l234,1.1l0,0
	C457.5,407.5,480.7,383.5,480.7,354.2z"/>
<g class="st2">
	<path class="st3" d="M250.9,320.6h9.1l12.6,37.5l13-37.5h8.7l-18.1,48h-7.7L250.9,320.6z"/>
	<path class="st3" d="M301.5,320.6h18.1c2.9,0,5.4,0.3,7.4,1c2.1,0.7,3.8,1.6,5.1,2.9c1.3,1.2,2.3,2.7,3,4.4c0.6,1.7,1,3.5,1,5.5
		v1.4c0,2-0.3,3.8-1,5.6c-0.7,1.8-1.7,3.3-3.1,4.6c-1.4,1.3-3.1,2.4-5.1,3.1c-2,0.8-4.5,1.2-7.3,1.2H310v18.4h-8.5V320.6z
		 M310,327.7V343h8.5c2.8,0,5-0.5,6.6-1.6c1.6-1.1,2.4-3,2.4-5.8v-1.2c0-1.3-0.2-2.4-0.6-3.3s-1-1.5-1.7-2c-0.7-0.5-1.6-0.9-2.6-1.1
		c-1-0.2-2.1-0.3-3.3-0.3H310z"/>
	<path class="st3" d="M362.1,319.9c3.4,0,6.4,0.4,9,1.2c2.6,0.8,5.1,2.2,7.6,4.1l-4.6,6.5c-2-1.6-3.9-2.7-5.8-3.2
		c-1.9-0.5-3.9-0.8-6.1-0.8c-1.4,0-2.8,0.2-4.2,0.6c-1.4,0.4-2.6,1.2-3.7,2.3c-1.1,1.1-1.9,2.6-2.6,4.5c-0.7,1.9-1,4.3-1,7.3v4.9
		c0,2.5,0.3,4.7,0.9,6.5c0.6,1.8,1.5,3.2,2.5,4.3c1,1.1,2.3,1.9,3.6,2.4c1.4,0.5,2.8,0.8,4.3,0.8c2.2,0,4.5-0.3,6.8-1
		c2.3-0.7,4.4-2,6.4-4l4.5,6.5c-1.4,1.4-2.9,2.5-4.5,3.4c-1.6,0.8-3.1,1.5-4.7,1.9c-1.6,0.5-3.1,0.8-4.6,0.9
		c-1.5,0.1-2.9,0.2-4.3,0.2c-2.6,0-5.1-0.4-7.5-1.1c-2.4-0.8-4.5-2-6.3-3.6c-1.8-1.6-3.2-3.7-4.3-6.3c-1.1-2.5-1.6-5.6-1.6-9.2v-8.6
		c0-3.6,0.5-6.7,1.6-9.3c1-2.6,2.5-4.7,4.3-6.5c1.8-1.7,3.9-3,6.4-3.8C356.7,320.3,359.3,319.9,362.1,319.9z"/>
</g>
</svg>
