<?xml version="1.0" encoding="utf-8"?>
<!-- Generator: Adobe Illustrator 24.1.3, SVG Export Plug-In . SVG Version: 6.00 Build 0)  -->
<svg version="1.1" id="application-auto-scaling" xmlns="http://www.w3.org/2000/svg" xmlns:xlink="http://www.w3.org/1999/xlink"
	 x="0px" y="0px" viewBox="0 0 620.29 620.29" style="enable-background:new 0 0 620.29 620.29;" xml:space="preserve">
<style type="text/css">
	.st0{fill:none;stroke:url(#SVGID_1_);stroke-width:10;stroke-miterlimit:10;}
	.st1{fill:url(#SVGID_2_);}
	.st2{fill:url(#SVGID_3_);}
	.st3{fill:url(#SVGID_4_);}
	.st4{fill:url(#SVGID_5_);}
	.st5{fill:url(#SVGID_6_);}
	.st6{fill:url(#SVGID_7_);}
	.st7{fill:url(#SVGID_8_);}
	.st8{fill:url(#SVGID_9_);}
	.st9{fill:url(#SVGID_10_);}
	.st10{fill:url(#SVGID_11_);}
	.st11{fill:url(#SVGID_12_);}
	.st12{fill:url(#SVGID_13_);}
	.st13{fill:url(#SVGID_14_);}
</style>
<linearGradient id="SVGID_1_" gradientUnits="userSpaceOnUse" x1="318.1761" y1="51.5524" x2="302.0043" y2="569.0491">
	<stop  offset="0" style="stop-color:#FFC14D"/>
	<stop  offset="1" style="stop-color:#FF576A"/>
</linearGradient>
<path class="st0" d="M436.07,560.3H184.11c-68.5,0-124.02-55.53-124.02-124.02V184.32c0-68.5,55.53-124.02,124.02-124.02h251.96
	c68.5,0,124.02,55.53,124.02,124.02v251.96C560.09,504.77,504.56,560.3,436.07,560.3z"/>
<g>
	<g>
		<linearGradient id="SVGID_2_" gradientUnits="userSpaceOnUse" x1="313.2558" y1="312.6537" x2="391.5855" y2="685.313">
			<stop  offset="0" style="stop-color:#FFC14D"/>
			<stop  offset="1" style="stop-color:#FF576A"/>
		</linearGradient>
		<path class="st1" d="M310.75,367.94c-9.18,0-16.65-7.88-16.65-17.56c0-0.53,0.02-1.07,0.07-1.6h-10.55
			c-9.85,0-17.87-8.47-17.87-18.87v-58.35c0-10.41,8.01-18.87,17.87-18.87h54.27c9.85,0,17.86,8.47,17.86,18.87v18.14
			c0,1.67-0.92,3.2-2.4,3.98c-1.47,0.78-3.26,0.68-4.64-0.26c-1.2-0.82-2.56-1.25-3.95-1.25c-4.22,0-7.65,3.84-7.65,8.56
			s3.43,8.56,7.65,8.56c1.38,0,2.75-0.43,3.95-1.25c1.38-0.94,3.16-1.04,4.64-0.26c1.47,0.78,2.4,2.31,2.4,3.98v18.14
			c0,10.41-8.01,18.87-17.86,18.87h-10.55c0.05,0.53,0.07,1.06,0.07,1.6C327.4,360.06,319.93,367.94,310.75,367.94z M283.61,261.68
			c-4.89,0-8.87,4.43-8.87,9.87v58.35c0,5.44,3.98,9.87,8.87,9.87h16.39c1.55,0,3,0.8,3.82,2.12c0.82,1.32,0.9,2.97,0.22,4.36
			c-0.63,1.28-0.95,2.66-0.95,4.11c0,4.72,3.43,8.56,7.65,8.56s7.65-3.84,7.65-8.56c0-1.45-0.32-2.83-0.95-4.11
			c-0.69-1.39-0.6-3.04,0.22-4.36c0.82-1.32,2.27-2.12,3.82-2.12h16.39c4.89,0,8.86-4.43,8.86-9.87v-11.74
			c-0.65,0.08-1.32,0.13-1.98,0.13c-9.18,0-16.65-7.88-16.65-17.56c0-9.69,7.47-17.56,16.65-17.56c0.66,0,1.33,0.04,1.98,0.13
			v-11.74c0-5.44-3.98-9.87-8.86-9.87H283.61z"/>
	</g>
	<g>
		<g>
			<g>
				<linearGradient id="SVGID_3_" gradientUnits="userSpaceOnUse" x1="289.6168" y1="317.6224" x2="367.9465" y2="690.2817">
					<stop  offset="0" style="stop-color:#FFC14D"/>
					<stop  offset="1" style="stop-color:#FF576A"/>
				</linearGradient>
				<path class="st2" d="M312.78,467.5c-2.76,0-5-2.24-5-5V393.1c0-2.76,2.24-5,5-5s5,2.24,5,5v69.39
					C317.78,465.26,315.54,467.5,312.78,467.5z"/>
			</g>
			<g>
				<linearGradient id="SVGID_4_" gradientUnits="userSpaceOnUse" x1="302.2369" y1="314.9698" x2="380.5666" y2="687.6291">
					<stop  offset="0" style="stop-color:#FFC14D"/>
					<stop  offset="1" style="stop-color:#FF576A"/>
				</linearGradient>
				<path class="st3" d="M312.77,467.5c-1.45,0-2.89-0.63-3.88-1.84c-1.75-2.14-1.43-5.29,0.71-7.04l34.96-28.56
					c2.14-1.75,5.29-1.43,7.04,0.71c1.75,2.14,1.43,5.29-0.71,7.04l-34.96,28.56C315,467.13,313.88,467.5,312.77,467.5z"/>
			</g>
			<g>
				<linearGradient id="SVGID_5_" gradientUnits="userSpaceOnUse" x1="267.6859" y1="322.2321" x2="346.0156" y2="694.8914">
					<stop  offset="0" style="stop-color:#FFC14D"/>
					<stop  offset="1" style="stop-color:#FF576A"/>
				</linearGradient>
				<path class="st4" d="M311.41,466.4c-1.11,0-2.23-0.37-3.16-1.13l-34.96-28.56c-2.14-1.75-2.46-4.9-0.71-7.04
					c1.75-2.14,4.9-2.46,7.04-0.71l34.96,28.56c2.14,1.75,2.46,4.9,0.71,7.04C314.3,465.77,312.86,466.4,311.41,466.4z"/>
			</g>
		</g>
		<g>
			<g>
				<linearGradient id="SVGID_6_" gradientUnits="userSpaceOnUse" x1="336.9217" y1="307.6793" x2="415.2513" y2="680.3387">
					<stop  offset="0" style="stop-color:#FFC14D"/>
					<stop  offset="1" style="stop-color:#FF576A"/>
				</linearGradient>
				<path class="st5" d="M312.78,232.5c-2.76,0-5-2.24-5-5V158.1c0-2.76,2.24-5,5-5s5,2.24,5,5v69.39
					C317.78,230.26,315.54,232.5,312.78,232.5z"/>
			</g>
			<g>
				<linearGradient id="SVGID_7_" gradientUnits="userSpaceOnUse" x1="357.7613" y1="303.299" x2="436.091" y2="675.9584">
					<stop  offset="0" style="stop-color:#FFC14D"/>
					<stop  offset="1" style="stop-color:#FF576A"/>
				</linearGradient>
				<path class="st6" d="M347.72,191.67c-1.11,0-2.23-0.37-3.16-1.13l-34.96-28.56c-2.14-1.75-2.46-4.9-0.71-7.04
					c1.75-2.14,4.9-2.46,7.04-0.71l34.96,28.56c2.14,1.75,2.46,4.9,0.71,7.04C350.61,191.04,349.17,191.67,347.72,191.67z"/>
			</g>
			<g>
				<linearGradient id="SVGID_8_" gradientUnits="userSpaceOnUse" x1="322.7681" y1="310.6543" x2="401.0977" y2="683.3137">
					<stop  offset="0" style="stop-color:#FFC14D"/>
					<stop  offset="1" style="stop-color:#FF576A"/>
				</linearGradient>
				<path class="st7" d="M276.46,192.76c-1.45,0-2.89-0.63-3.88-1.84c-1.75-2.14-1.43-5.29,0.71-7.04l34.96-28.56
					c2.14-1.75,5.29-1.43,7.04,0.71c1.75,2.14,1.43,5.29-0.71,7.04l-34.96,28.56C278.69,192.39,277.57,192.76,276.46,192.76z"/>
			</g>
		</g>
		<g>
			<g>
				<linearGradient id="SVGID_9_" gradientUnits="userSpaceOnUse" x1="420.5141" y1="290.1089" x2="498.8438" y2="662.7683">
					<stop  offset="0" style="stop-color:#FFC14D"/>
					<stop  offset="1" style="stop-color:#FF576A"/>
				</linearGradient>
				<path class="st8" d="M457.29,304.99h-69.39c-2.76,0-5-2.24-5-5s2.24-5,5-5h69.39c2.76,0,5,2.24,5,5S460.05,304.99,457.29,304.99
					z"/>
			</g>
			<g>
				<linearGradient id="SVGID_10_" gradientUnits="userSpaceOnUse" x1="397.4453" y1="294.9578" x2="475.7749" y2="667.6172">
					<stop  offset="0" style="stop-color:#FFC14D"/>
					<stop  offset="1" style="stop-color:#FF576A"/>
				</linearGradient>
				<path class="st9" d="M416.46,339.94c-1.45,0-2.89-0.63-3.88-1.84l-28.56-34.96c-1.75-2.14-1.43-5.29,0.71-7.04
					c2.14-1.75,5.29-1.43,7.04,0.71l28.56,34.96c1.75,2.14,1.43,5.29-0.71,7.04C418.69,339.57,417.57,339.94,416.46,339.94z"/>
			</g>
			<g>
				<linearGradient id="SVGID_11_" gradientUnits="userSpaceOnUse" x1="405.8062" y1="293.2004" x2="484.1359" y2="665.8597">
					<stop  offset="0" style="stop-color:#FFC14D"/>
					<stop  offset="1" style="stop-color:#FF576A"/>
				</linearGradient>
				<path class="st10" d="M388.99,303.63c-1.11,0-2.23-0.37-3.16-1.13c-2.14-1.75-2.46-4.9-0.71-7.04l28.56-34.96
					c1.75-2.14,4.9-2.46,7.04-0.71c2.14,1.75,2.46,4.9,0.71,7.04l-28.56,34.96C391.88,303,390.44,303.63,388.99,303.63z"/>
			</g>
		</g>
		<g>
			<g>
				<linearGradient id="SVGID_12_" gradientUnits="userSpaceOnUse" x1="205.0341" y1="335.4009" x2="283.3638" y2="708.0602">
					<stop  offset="0" style="stop-color:#FFC14D"/>
					<stop  offset="1" style="stop-color:#FF576A"/>
				</linearGradient>
				<path class="st11" d="M232.29,304.99h-69.39c-2.76,0-5-2.24-5-5s2.24-5,5-5h69.39c2.76,0,5,2.24,5,5
					S235.05,304.99,232.29,304.99z"/>
			</g>
			<g>
				<linearGradient id="SVGID_13_" gradientUnits="userSpaceOnUse" x1="221.0701" y1="332.0303" x2="299.3997" y2="704.6896">
					<stop  offset="0" style="stop-color:#FFC14D"/>
					<stop  offset="1" style="stop-color:#FF576A"/>
				</linearGradient>
				<path class="st12" d="M203.72,339.94c-1.11,0-2.23-0.37-3.16-1.13c-2.14-1.75-2.46-4.9-0.71-7.04l28.56-34.96
					c1.75-2.14,4.9-2.46,7.04-0.71c2.14,1.75,2.46,4.9,0.71,7.04L207.6,338.1C206.61,339.31,205.17,339.94,203.72,339.94z"/>
			</g>
			<g>
				<linearGradient id="SVGID_14_" gradientUnits="userSpaceOnUse" x1="227.3267" y1="330.7152" x2="305.6564" y2="703.3746">
					<stop  offset="0" style="stop-color:#FFC14D"/>
					<stop  offset="1" style="stop-color:#FF576A"/>
				</linearGradient>
				<path class="st13" d="M231.19,303.63c-1.45,0-2.89-0.63-3.88-1.84l-28.56-34.96c-1.75-2.14-1.43-5.29,0.71-7.04
					c2.14-1.75,5.29-1.43,7.04,0.71l28.56,34.96c1.75,2.14,1.43,5.29-0.71,7.04C233.42,303.26,232.3,303.63,231.19,303.63z"/>
			</g>
		</g>
	</g>
</g>
</svg>
