<?xml version="1.0" encoding="utf-8"?>
<!-- Generator: Adobe Illustrator 24.1.3, SVG Export Plug-In . SVG Version: 6.00 Build 0)  -->
<svg version="1.1" id="artifact" xmlns="http://www.w3.org/2000/svg" xmlns:xlink="http://www.w3.org/1999/xlink" x="0px" y="0px"
	 viewBox="0 0 620 620" style="enable-background:new 0 0 620 620;" xml:space="preserve">
<style type="text/css">
	.st0{fill:url(#SVGID_1_);}
	.st1{fill:url(#SVGID_2_);}
	.st2{fill:url(#SVGID_3_);}
	.st3{fill:url(#SVGID_4_);}
	.st4{fill:url(#SVGID_5_);}
	.st5{fill:url(#SVGID_6_);}
	.st6{fill:url(#SVGID_7_);}
</style>
<g>
	<linearGradient id="SVGID_1_" gradientUnits="userSpaceOnUse" x1="334.3979" y1="-372.5128" x2="272.6837" y2="1374.4762">
		<stop  offset="2.396167e-07" style="stop-color:#FFA694"/>
		<stop  offset="1" style="stop-color:#BF0020"/>
	</linearGradient>
	<path class="st0" d="M436.28,564.52H184.33c-71.14,0-129.02-57.88-129.02-129.02V183.54c0-71.14,57.88-129.02,129.02-129.02h251.96
		c71.14,0,129.02,57.88,129.02,129.02V435.5C565.3,506.64,507.43,564.52,436.28,564.52z M184.33,64.52
		c-65.63,0-119.02,53.39-119.02,119.02V435.5c0,65.63,53.39,119.02,119.02,119.02h251.96c65.63,0,119.02-53.39,119.02-119.02V183.54
		c0-65.63-53.39-119.02-119.02-119.02H184.33z"/>
</g>
<g>
	<linearGradient id="SVGID_2_" gradientUnits="userSpaceOnUse" x1="302.4829" y1="54.487" x2="330.9664" y2="984.9485">
		<stop  offset="2.396167e-07" style="stop-color:#FFA694"/>
		<stop  offset="1" style="stop-color:#BF0020"/>
	</linearGradient>
	<path class="st1" d="M310.3,131.02c-98.7,0-179,80.3-179,179c0,40.76,14.07,80.65,39.61,112.31c25.17,31.2,60.42,53.28,99.27,62.17
		c2.69,0.62,5.37-1.07,5.99-3.76c0.62-2.69-1.07-5.37-3.76-5.99c-77.2-17.68-131.12-85.42-131.12-164.74c0-93.19,75.81-169,169-169
		s169,75.81,169,169c0,80.45-57.18,150.17-135.97,165.78c-2.71,0.54-4.47,3.17-3.93,5.88c0.47,2.38,2.56,4.03,4.9,4.03
		c0.32,0,0.65-0.03,0.98-0.1c83.46-16.53,144.03-90.38,144.03-175.58C489.3,211.32,409.01,131.02,310.3,131.02z"/>
	<linearGradient id="SVGID_3_" gradientUnits="userSpaceOnUse" x1="302.3593" y1="54.4907" x2="330.8428" y2="984.9523">
		<stop  offset="2.396167e-07" style="stop-color:#FFA694"/>
		<stop  offset="1" style="stop-color:#BF0020"/>
	</linearGradient>
	<path class="st2" d="M388.05,373.73V254.01c0-0.12-0.03-0.23-0.04-0.35c-0.01-0.19-0.02-0.38-0.06-0.56
		c-0.03-0.16-0.08-0.31-0.12-0.46c-0.05-0.16-0.09-0.32-0.15-0.48c-0.06-0.16-0.15-0.3-0.22-0.46c-0.07-0.14-0.14-0.28-0.22-0.41
		c-0.11-0.16-0.23-0.31-0.35-0.46c-0.07-0.09-0.13-0.18-0.21-0.27l-54.83-57.99c-0.02-0.02-0.04-0.03-0.05-0.05
		c-0.13-0.14-0.29-0.26-0.44-0.38c-0.11-0.09-0.21-0.19-0.32-0.26c-0.13-0.09-0.28-0.16-0.42-0.24c-0.14-0.08-0.28-0.17-0.43-0.23
		c-0.13-0.05-0.26-0.09-0.4-0.13c-0.18-0.06-0.35-0.13-0.53-0.16c-0.12-0.03-0.24-0.03-0.36-0.05c-0.21-0.03-0.41-0.06-0.62-0.06
		c-0.02,0-0.04-0.01-0.06-0.01h-74.38c-11.74,0-21.29,9.55-21.29,21.29v161.42c0,11.74,9.55,21.29,21.29,21.29h112.92
		C378.5,395.02,388.05,385.47,388.05,373.73z M333.23,208.59l38.22,40.42h-26.93c-6.23,0-11.29-5.06-11.29-11.29V208.59z
		 M242.55,373.73V212.31c0-6.23,5.06-11.29,11.29-11.29h69.38v36.7c0,11.74,9.55,21.29,21.29,21.29h33.54v114.72
		c0,6.23-5.06,11.29-11.29,11.29H253.84C247.62,385.02,242.55,379.96,242.55,373.73z"/>
	<linearGradient id="SVGID_4_" gradientUnits="userSpaceOnUse" x1="300.6585" y1="54.5428" x2="329.142" y2="985.0043">
		<stop  offset="2.396167e-07" style="stop-color:#FFA694"/>
		<stop  offset="1" style="stop-color:#BF0020"/>
	</linearGradient>
	<path class="st3" d="M346.15,278.53h-76.97c-2.76,0-5,2.24-5,5s2.24,5,5,5h76.97c2.76,0,5-2.24,5-5S348.91,278.53,346.15,278.53z"
		/>
	<linearGradient id="SVGID_5_" gradientUnits="userSpaceOnUse" x1="299.6911" y1="54.5724" x2="328.1746" y2="985.0339">
		<stop  offset="2.396167e-07" style="stop-color:#FFA694"/>
		<stop  offset="1" style="stop-color:#BF0020"/>
	</linearGradient>
	<path class="st4" d="M346.15,310.16h-76.97c-2.76,0-5,2.24-5,5s2.24,5,5,5h76.97c2.76,0,5-2.24,5-5S348.91,310.16,346.15,310.16z"
		/>
	<linearGradient id="SVGID_6_" gradientUnits="userSpaceOnUse" x1="298.7237" y1="54.602" x2="327.2072" y2="985.0636">
		<stop  offset="2.396167e-07" style="stop-color:#FFA694"/>
		<stop  offset="1" style="stop-color:#BF0020"/>
	</linearGradient>
	<path class="st5" d="M346.15,341.79h-76.97c-2.76,0-5,2.24-5,5s2.24,5,5,5h76.97c2.76,0,5-2.24,5-5S348.91,341.79,346.15,341.79z"
		/>
	<linearGradient id="SVGID_7_" gradientUnits="userSpaceOnUse" x1="296.8849" y1="54.6583" x2="325.3685" y2="985.1199">
		<stop  offset="2.396167e-07" style="stop-color:#FFA694"/>
		<stop  offset="1" style="stop-color:#BF0020"/>
	</linearGradient>
	<path class="st6" d="M347.52,447.36c0.07-0.08,0.12-0.17,0.18-0.25c0.11-0.14,0.22-0.28,0.32-0.44c0.08-0.13,0.15-0.27,0.22-0.41
		c0.08-0.15,0.15-0.3,0.21-0.46c0.06-0.15,0.1-0.3,0.14-0.46c0.04-0.16,0.09-0.31,0.11-0.48c0.03-0.17,0.04-0.34,0.05-0.51
		c0.01-0.11,0.03-0.22,0.03-0.33c0-0.05-0.01-0.09-0.01-0.14c0-0.17-0.03-0.34-0.05-0.51c-0.02-0.16-0.04-0.32-0.07-0.48
		c-0.03-0.15-0.09-0.29-0.13-0.43c-0.05-0.17-0.1-0.33-0.17-0.49c-0.06-0.13-0.14-0.25-0.21-0.38c-0.09-0.16-0.17-0.31-0.28-0.46
		c-0.08-0.11-0.17-0.21-0.26-0.32c-0.12-0.15-0.25-0.29-0.39-0.43c-0.03-0.03-0.05-0.06-0.08-0.09c-0.07-0.07-0.16-0.11-0.24-0.17
		c-0.15-0.12-0.3-0.23-0.46-0.33c-0.13-0.08-0.26-0.15-0.39-0.21c-0.15-0.08-0.31-0.15-0.47-0.22c-0.15-0.06-0.3-0.1-0.45-0.14
		c-0.16-0.04-0.32-0.09-0.48-0.11c-0.17-0.03-0.34-0.04-0.51-0.05c-0.11-0.01-0.22-0.03-0.33-0.03h-16v-27c0-2.76-2.24-5-5-5
		s-5,2.24-5,5v32c0,2.76,2.24,5,5,5h9.79l-23.79,26.51l-23.79-26.51h9.79c2.76,0,5-2.24,5-5v-32c0-2.76-2.24-5-5-5s-5,2.24-5,5v27
		h-16c-0.12,0-0.23,0.03-0.35,0.04c-0.16,0.01-0.32,0.02-0.48,0.05c-0.17,0.03-0.34,0.07-0.51,0.12c-0.14,0.04-0.29,0.08-0.43,0.13
		c-0.17,0.06-0.33,0.14-0.49,0.23c-0.13,0.07-0.25,0.13-0.38,0.21c-0.16,0.1-0.31,0.22-0.47,0.34c-0.08,0.06-0.16,0.11-0.24,0.17
		c-0.03,0.03-0.05,0.06-0.08,0.09c-0.14,0.13-0.26,0.28-0.39,0.43c-0.09,0.11-0.18,0.21-0.26,0.32c-0.1,0.15-0.19,0.3-0.28,0.46
		c-0.07,0.13-0.15,0.25-0.21,0.38c-0.07,0.16-0.12,0.32-0.17,0.49c-0.05,0.14-0.1,0.29-0.13,0.43c-0.04,0.16-0.05,0.32-0.07,0.48
		c-0.02,0.17-0.05,0.34-0.05,0.51c0,0.05-0.01,0.09-0.01,0.14c0,0.11,0.03,0.22,0.03,0.33c0.01,0.17,0.02,0.34,0.05,0.51
		c0.03,0.16,0.07,0.32,0.11,0.48c0.04,0.15,0.08,0.31,0.14,0.46c0.06,0.16,0.14,0.31,0.21,0.46c0.07,0.14,0.14,0.27,0.22,0.41
		c0.1,0.15,0.21,0.3,0.32,0.44c0.07,0.08,0.11,0.17,0.18,0.25l35,39c0.06,0.06,0.13,0.11,0.18,0.17c0.07,0.07,0.12,0.15,0.2,0.22
		c0.08,0.07,0.17,0.12,0.25,0.19c0.11,0.09,0.22,0.17,0.33,0.25c0.17,0.11,0.35,0.21,0.53,0.3c0.11,0.06,0.22,0.12,0.34,0.16
		c0.21,0.09,0.42,0.15,0.64,0.2c0.1,0.02,0.19,0.06,0.29,0.08c0.32,0.06,0.64,0.1,0.96,0.1c0,0,0,0,0,0s0,0,0,0
		c0.32,0,0.64-0.04,0.96-0.1c0.1-0.02,0.19-0.05,0.28-0.08c0.22-0.06,0.43-0.12,0.64-0.2c0.11-0.05,0.22-0.11,0.33-0.16
		c0.18-0.09,0.36-0.19,0.53-0.3c0.11-0.08,0.22-0.16,0.33-0.24c0.08-0.07,0.17-0.12,0.25-0.19c0.07-0.07,0.13-0.15,0.2-0.22
		c0.06-0.06,0.13-0.1,0.18-0.17L347.52,447.36z"/>
</g>
</svg>
