<?xml version="1.0" encoding="utf-8"?>
<!-- Generator: Adobe Illustrator 24.1.3, SVG Export Plug-In . SVG Version: 6.00 Build 0)  -->
<svg version="1.1" id="auto-scaling" xmlns="http://www.w3.org/2000/svg" xmlns:xlink="http://www.w3.org/1999/xlink" x="0px"
	 y="0px" viewBox="0 0 620 620" style="enable-background:new 0 0 620 620;" xml:space="preserve">
<style type="text/css">
	.st0{fill:url(#SVGID_1_);}
	.st1{fill:url(#SVGID_2_);}
	.st2{fill:url(#SVGID_3_);}
	.st3{fill:url(#SVGID_4_);}
	.st4{fill:url(#SVGID_5_);}
	.st5{fill:url(#SVGID_6_);}
</style>
<g>
	<linearGradient id="SVGID_1_" gradientUnits="userSpaceOnUse" x1="307.0729" y1="-183.2734" x2="313.4026" y2="782.0013">
		<stop  offset="5.990416e-07" style="stop-color:#FF7DFF"/>
		<stop  offset="1" style="stop-color:#FF2A7D"/>
	</linearGradient>
	<path class="st0" d="M436.28,564.52H184.33c-71.14,0-129.02-57.88-129.02-129.02V183.54c0-71.14,57.88-129.02,129.02-129.02h251.96
		c71.14,0,129.02,57.88,129.02,129.02V435.5C565.3,506.64,507.43,564.52,436.28,564.52z M184.33,64.52
		c-65.63,0-119.02,53.39-119.02,119.02V435.5c0,65.63,53.39,119.02,119.02,119.02h251.96c65.63,0,119.02-53.39,119.02-119.02V183.54
		c0-65.63-53.39-119.02-119.02-119.02H184.33z"/>
</g>
<g>
	<linearGradient id="SVGID_2_" gradientUnits="userSpaceOnUse" x1="286.7869" y1="102.7676" x2="343.7539" y2="588.5698">
		<stop  offset="5.990416e-07" style="stop-color:#FF7DFF"/>
		<stop  offset="1" style="stop-color:#FF2A7D"/>
	</linearGradient>
	<path class="st1" d="M365.8,283.16c-0.02-0.16-0.05-0.31-0.09-0.46c-0.04-0.16-0.09-0.31-0.14-0.46c-0.05-0.15-0.11-0.31-0.18-0.45
		c-0.07-0.14-0.15-0.28-0.23-0.42c-0.08-0.14-0.16-0.27-0.26-0.4c-0.1-0.13-0.2-0.25-0.31-0.38c-0.11-0.12-0.21-0.24-0.33-0.35
		c-0.11-0.11-0.24-0.2-0.36-0.3c-0.14-0.11-0.28-0.21-0.44-0.3c-0.06-0.04-0.11-0.08-0.17-0.12l-48.93-27
		c-0.02-0.01-0.03-0.01-0.05-0.02c-0.18-0.1-0.37-0.16-0.55-0.24c-0.12-0.05-0.24-0.11-0.36-0.15c-0.16-0.05-0.32-0.07-0.48-0.1
		c-0.16-0.03-0.31-0.08-0.47-0.09c-0.18-0.02-0.37-0.01-0.55,0c-0.14,0-0.27-0.01-0.41,0c-0.18,0.02-0.36,0.06-0.54,0.1
		c-0.14,0.03-0.28,0.04-0.41,0.08c-0.13,0.04-0.26,0.1-0.39,0.15c-0.18,0.07-0.36,0.13-0.53,0.22c-0.02,0.01-0.03,0.01-0.05,0.02
		l-50.07,27c-0.07,0.04-0.13,0.09-0.19,0.13c-0.15,0.09-0.3,0.19-0.44,0.3c-0.13,0.1-0.25,0.19-0.36,0.3
		c-0.12,0.11-0.23,0.22-0.34,0.34c-0.11,0.12-0.21,0.25-0.31,0.38c-0.09,0.13-0.18,0.26-0.26,0.4c-0.08,0.14-0.16,0.27-0.23,0.42
		c-0.07,0.15-0.13,0.3-0.18,0.45c-0.05,0.15-0.1,0.3-0.14,0.46c-0.04,0.15-0.07,0.31-0.09,0.46c-0.03,0.18-0.04,0.35-0.05,0.53
		c0,0.08-0.02,0.15-0.02,0.23v56.92c0,0.01,0,0.01,0,0.02v0.06c0,0.1,0.02,0.2,0.03,0.3c0.01,0.22,0.02,0.44,0.07,0.65
		c0.03,0.16,0.09,0.31,0.13,0.46c0.05,0.16,0.08,0.31,0.14,0.46c0.06,0.16,0.15,0.3,0.23,0.45c0.07,0.14,0.14,0.28,0.22,0.41
		c0.09,0.13,0.19,0.25,0.29,0.38c0.1,0.13,0.2,0.26,0.31,0.38c0.12,0.12,0.25,0.22,0.38,0.33c0.12,0.1,0.23,0.21,0.36,0.29
		c0.19,0.13,0.39,0.23,0.59,0.33c0.08,0.04,0.15,0.1,0.24,0.14l0.05,0.02c0.01,0,0.02,0.01,0.02,0.01l49.99,21.97
		c0.65,0.29,1.34,0.42,2.01,0.42c0.19,0,0.37-0.02,0.55-0.04c0.2,0.02,0.39,0.04,0.59,0.04c0.78,0,1.57-0.18,2.31-0.57l47.79-25
		c0.08-0.04,0.14-0.1,0.22-0.14c0.15-0.09,0.3-0.19,0.45-0.29c0.13-0.1,0.25-0.2,0.36-0.3c0.12-0.11,0.23-0.22,0.34-0.34
		c0.11-0.12,0.21-0.24,0.31-0.38c0.1-0.13,0.18-0.26,0.27-0.4c0.08-0.14,0.16-0.27,0.23-0.42c0.07-0.15,0.13-0.3,0.19-0.45
		c0.05-0.15,0.1-0.3,0.14-0.46c0.04-0.15,0.07-0.31,0.1-0.47c0.03-0.18,0.04-0.35,0.05-0.53c0-0.09,0.03-0.17,0.03-0.26v-54
		c0-0.07-0.02-0.14-0.02-0.21C365.84,283.52,365.83,283.34,365.8,283.16z M311.91,262.6l39.15,21.6l-39.34,19.57l-39.31-19.87
		L311.91,262.6z M266.87,292.31l40.07,20.25v42.68l-40.07-17.61V292.31z M316.94,312.34l38.93-19.37v41.9l-38.93,20.36V312.34z"/>
	<linearGradient id="SVGID_3_" gradientUnits="userSpaceOnUse" x1="273.8055" y1="104.2898" x2="330.7726" y2="590.092">
		<stop  offset="5.990416e-07" style="stop-color:#FF7DFF"/>
		<stop  offset="1" style="stop-color:#FF2A7D"/>
	</linearGradient>
	<path class="st2" d="M344.78,429.29l-26.79,21.88v-58.84c0-2.76-2.24-5-5-5s-5,2.24-5,5v58.86l-28.16-23
		c-2.14-1.75-5.29-1.43-7.04,0.71c-1.75,2.14-1.43,5.29,0.71,7.04l34.96,28.56c0.23,0.19,0.48,0.36,0.74,0.5
		c0.51,0.59,1.14,1.04,1.82,1.32c0.02,0.01,0.03,0.01,0.05,0.02c0.29,0.12,0.59,0.21,0.9,0.28c0.02,0,0.03,0.01,0.05,0.01
		c0.32,0.06,0.64,0.1,0.96,0.1c0,0,0,0,0.01,0c0,0,0,0,0,0c0.02,0,0.03,0,0.05,0c0.29,0,0.58-0.03,0.86-0.09
		c0.13-0.02,0.26-0.07,0.39-0.1c0.16-0.04,0.32-0.09,0.47-0.15c0.15-0.06,0.3-0.13,0.45-0.2c0.12-0.06,0.23-0.12,0.35-0.19
		c0.16-0.1,0.31-0.2,0.46-0.31c0.04-0.03,0.09-0.05,0.13-0.09l34.96-28.56c2.14-1.75,2.46-4.9,0.71-7.04
		C350.07,427.86,346.92,427.54,344.78,429.29z"/>
	<linearGradient id="SVGID_4_" gradientUnits="userSpaceOnUse" x1="302.2805" y1="100.9508" x2="359.2475" y2="586.7529">
		<stop  offset="5.990416e-07" style="stop-color:#FF7DFF"/>
		<stop  offset="1" style="stop-color:#FF2A7D"/>
	</linearGradient>
	<path class="st3" d="M276.67,191.99c1.11,0,2.23-0.37,3.16-1.13l28.16-23v58.86c0,2.76,2.24,5,5,5s5-2.24,5-5v-58.84l26.79,21.88
		c0.93,0.76,2.05,1.13,3.16,1.13c1.45,0,2.89-0.63,3.88-1.84c1.75-2.14,1.43-5.29-0.71-7.04l-34.96-28.56
		c-0.04-0.03-0.08-0.05-0.11-0.08c-0.18-0.14-0.37-0.26-0.57-0.38c-0.1-0.06-0.2-0.11-0.3-0.16c-0.18-0.09-0.36-0.16-0.55-0.22
		c-0.13-0.05-0.26-0.09-0.39-0.12c-0.17-0.04-0.34-0.07-0.51-0.1c-0.17-0.02-0.33-0.04-0.5-0.05c-0.07,0-0.14-0.02-0.22-0.02
		c-0.08,0-0.16,0.02-0.24,0.02c-0.18,0.01-0.36,0.03-0.54,0.05c-0.14,0.02-0.28,0.05-0.42,0.08c-0.18,0.04-0.36,0.1-0.53,0.16
		c-0.12,0.05-0.25,0.09-0.37,0.15c-0.18,0.08-0.35,0.18-0.52,0.28c-0.1,0.06-0.2,0.13-0.29,0.19c-0.17,0.12-0.33,0.25-0.48,0.4
		c-0.08,0.08-0.17,0.16-0.24,0.24c-0.05,0.05-0.1,0.09-0.15,0.15c-0.25,0.14-0.5,0.29-0.73,0.48l-34.96,28.56
		c-2.14,1.75-2.46,4.9-0.71,7.04C273.79,191.36,275.22,191.99,276.67,191.99z"/>
	<linearGradient id="SVGID_5_" gradientUnits="userSpaceOnUse" x1="398.247" y1="89.6974" x2="455.214" y2="575.4996">
		<stop  offset="5.990416e-07" style="stop-color:#FF7DFF"/>
		<stop  offset="1" style="stop-color:#FF2A7D"/>
	</linearGradient>
	<path class="st4" d="M457.5,294.21h-58.86l23-28.16c1.75-2.14,1.43-5.29-0.71-7.04c-2.14-1.75-5.29-1.43-7.04,0.71l-28.56,34.96
		c-0.19,0.23-0.34,0.48-0.48,0.73c-0.05,0.05-0.1,0.1-0.15,0.15c-0.08,0.08-0.16,0.16-0.24,0.24c-0.14,0.16-0.28,0.32-0.4,0.48
		c-0.07,0.09-0.13,0.19-0.19,0.29c-0.11,0.17-0.2,0.35-0.29,0.53c-0.05,0.12-0.1,0.24-0.15,0.36c-0.07,0.18-0.12,0.36-0.17,0.54
		c-0.03,0.14-0.06,0.28-0.08,0.42c-0.03,0.18-0.05,0.36-0.06,0.55c0,0.08-0.02,0.16-0.02,0.24c0,0.07,0.02,0.14,0.02,0.22
		c0.01,0.17,0.03,0.33,0.05,0.5c0.02,0.17,0.05,0.34,0.1,0.5c0.03,0.13,0.08,0.26,0.12,0.39c0.07,0.19,0.14,0.37,0.22,0.55
		c0.05,0.1,0.1,0.2,0.16,0.3c0.11,0.2,0.24,0.39,0.38,0.57c0.03,0.04,0.05,0.08,0.08,0.11l28.56,34.96
		c0.99,1.21,2.43,1.84,3.88,1.84c1.11,0,2.23-0.37,3.16-1.13c2.14-1.75,2.46-4.9,0.71-7.04l-21.88-26.79h58.84c2.76,0,5-2.24,5-5
		S460.26,294.21,457.5,294.21z"/>
	<linearGradient id="SVGID_6_" gradientUnits="userSpaceOnUse" x1="176.2802" y1="115.726" x2="233.2472" y2="601.5283">
		<stop  offset="5.990416e-07" style="stop-color:#FF7DFF"/>
		<stop  offset="1" style="stop-color:#FF2A7D"/>
	</linearGradient>
	<path class="st5" d="M237.48,298.97c-0.01-0.18-0.03-0.37-0.06-0.55c-0.02-0.14-0.05-0.28-0.08-0.42c-0.04-0.18-0.1-0.36-0.17-0.54
		c-0.05-0.12-0.09-0.24-0.15-0.36c-0.08-0.18-0.18-0.36-0.29-0.53c-0.06-0.1-0.12-0.19-0.19-0.29c-0.12-0.17-0.26-0.33-0.4-0.48
		c-0.08-0.08-0.16-0.16-0.24-0.24c-0.05-0.05-0.09-0.1-0.15-0.15c-0.14-0.25-0.29-0.5-0.48-0.73l-28.56-34.96
		c-1.75-2.14-4.9-2.46-7.04-0.71c-2.14,1.75-2.46,4.9-0.71,7.04l23,28.16h-58.86c-2.76,0-5,2.24-5,5s2.24,5,5,5h58.84L200.07,331
		c-1.75,2.14-1.43,5.29,0.71,7.04c0.93,0.76,2.05,1.13,3.16,1.13c1.45,0,2.89-0.63,3.88-1.84l28.56-34.96
		c0.03-0.04,0.05-0.08,0.08-0.11c0.14-0.18,0.26-0.37,0.38-0.57c0.06-0.1,0.11-0.2,0.16-0.3c0.09-0.18,0.16-0.36,0.22-0.55
		c0.05-0.13,0.09-0.26,0.12-0.39c0.04-0.17,0.07-0.33,0.1-0.5c0.02-0.17,0.04-0.33,0.05-0.5c0-0.07,0.02-0.14,0.02-0.22
		C237.5,299.13,237.48,299.05,237.48,298.97z"/>
</g>
</svg>
