<?xml version="1.0" encoding="utf-8"?>
<!-- Generator: Adobe Illustrator 24.1.3, SVG Export Plug-In . SVG Version: 6.00 Build 0)  -->
<svg version="1.1" id="certificate-manager" xmlns="http://www.w3.org/2000/svg" xmlns:xlink="http://www.w3.org/1999/xlink"
	 x="0px" y="0px" viewBox="0 0 620 620" style="enable-background:new 0 0 620 620;" xml:space="preserve">
<style type="text/css">
	.st0{fill:url(#SVGID_1_);}
	.st1{fill:url(#SVGID_2_);}
	.st2{fill:url(#SVGID_3_);}
	.st3{fill:url(#SVGID_4_);}
	.st4{fill:url(#SVGID_5_);}
	.st5{fill:url(#SVGID_6_);}
	.st6{fill:url(#SVGID_7_);}
</style>
<g>
	<linearGradient id="SVGID_1_" gradientUnits="userSpaceOnUse" x1="334.3979" y1="-372.5128" x2="272.6837" y2="1374.4762">
		<stop  offset="2.396167e-07" style="stop-color:#FFA694"/>
		<stop  offset="1" style="stop-color:#BF0020"/>
	</linearGradient>
	<path class="st0" d="M436.28,564.52H184.33c-71.14,0-129.02-57.88-129.02-129.02V183.54c0-71.14,57.88-129.02,129.02-129.02h251.96
		c71.14,0,129.02,57.88,129.02,129.02V435.5C565.3,506.64,507.43,564.52,436.28,564.52z M184.33,64.52
		c-65.63,0-119.02,53.39-119.02,119.02V435.5c0,65.63,53.39,119.02,119.02,119.02h251.96c65.63,0,119.02-53.39,119.02-119.02V183.54
		c0-65.63-53.39-119.02-119.02-119.02H184.33z"/>
</g>
<g>
	<linearGradient id="SVGID_2_" gradientUnits="userSpaceOnUse" x1="318.0768" y1="-21.8256" x2="295.9229" y2="937.1194">
		<stop  offset="2.396167e-07" style="stop-color:#FFA694"/>
		<stop  offset="1" style="stop-color:#BF0020"/>
	</linearGradient>
	<path class="st1" d="M432.59,171.52H188.01c-23.27,0-42.21,20.45-42.21,45.59v21.41v173.71c0,19.46,14.7,35.29,32.76,35.29H374.2
		c2.76,0,5-2.24,5-5s-2.24-5-5-5H178.57c-12.55,0-22.76-11.34-22.76-25.29V243.52h309v168.71c0,13.94-10.21,25.29-22.76,25.29h-7.26
		c-2.76,0-5,2.24-5,5s2.24,5,5,5h7.26c18.06,0,32.76-15.83,32.76-35.29V238.52v-21.41C474.8,191.97,455.87,171.52,432.59,171.52z
		 M464.8,233.52h-309v-16.41c0-19.63,14.45-35.59,32.21-35.59h244.58c17.76,0,32.21,15.97,32.21,35.59V233.52z"/>
	<linearGradient id="SVGID_3_" gradientUnits="userSpaceOnUse" x1="320.143" y1="-21.7779" x2="297.9891" y2="937.1672">
		<stop  offset="2.396167e-07" style="stop-color:#FFA694"/>
		<stop  offset="1" style="stop-color:#BF0020"/>
	</linearGradient>
	<path class="st2" d="M354.39,293.29c-1.12-3.45-4.31-5.77-7.94-5.77h-19.64l-6.07-18.68c-1.12-3.45-4.31-5.77-7.94-5.77
		s-6.82,2.32-7.94,5.77l-6.07,18.68h-19.64c-3.63,0-6.82,2.32-7.94,5.77c-1.12,3.45,0.1,7.2,3.03,9.33l15.89,11.54l-6.07,18.68
		c-1.12,3.45,0.1,7.2,3.03,9.33c2.94,2.13,6.88,2.13,9.81,0l15.89-11.54l15.89,11.54c1.47,1.07,3.19,1.6,4.91,1.6
		c1.72,0,3.44-0.53,4.91-1.6c2.93-2.13,4.15-5.88,3.03-9.33l-6.07-18.68l15.89-11.54C354.29,300.49,355.51,296.74,354.39,293.29z
		 M328.62,306.78c-2.93,2.13-4.15,5.88-3.03,9.33l4.87,14.98l-12.75-9.26c-2.93-2.13-6.88-2.13-9.81,0l-12.74,9.26l4.87-14.98
		c1.12-3.45-0.1-7.2-3.03-9.33l-12.74-9.26H300c3.63,0,6.82-2.32,7.94-5.77l4.87-14.98l4.87,14.98c1.12,3.45,4.31,5.77,7.94,5.77
		h15.75L328.62,306.78z"/>
	<linearGradient id="SVGID_4_" gradientUnits="userSpaceOnUse" x1="351.0951" y1="-21.0628" x2="328.9413" y2="937.8823">
		<stop  offset="2.396167e-07" style="stop-color:#FFA694"/>
		<stop  offset="1" style="stop-color:#BF0020"/>
	</linearGradient>
	<path class="st3" d="M410.83,364.52H273.32c-2.76,0-5,2.24-5,5s2.24,5,5,5h137.51c2.76,0,5-2.24,5-5S413.59,364.52,410.83,364.52z"
		/>
	<linearGradient id="SVGID_5_" gradientUnits="userSpaceOnUse" x1="237.7622" y1="-23.6811" x2="215.6084" y2="935.264">
		<stop  offset="2.396167e-07" style="stop-color:#FFA694"/>
		<stop  offset="1" style="stop-color:#BF0020"/>
	</linearGradient>
	<path class="st4" d="M246.8,364.98h-36.27c-2.76,0-5,2.24-5,5s2.24,5,5,5h36.27c2.76,0,5-2.24,5-5S249.57,364.98,246.8,364.98z"/>
	<linearGradient id="SVGID_6_" gradientUnits="userSpaceOnUse" x1="322.7225" y1="-21.7183" x2="300.5687" y2="937.2267">
		<stop  offset="2.396167e-07" style="stop-color:#FFA694"/>
		<stop  offset="1" style="stop-color:#BF0020"/>
	</linearGradient>
	<path class="st5" d="M273.32,391.52c-2.76,0-5,2.24-5,5s2.24,5,5,5h79.49c2.76,0,5-2.24,5-5s-2.24-5-5-5H273.32z"/>
	<linearGradient id="SVGID_7_" gradientUnits="userSpaceOnUse" x1="238.3856" y1="-23.6667" x2="216.2318" y2="935.2784">
		<stop  offset="2.396167e-07" style="stop-color:#FFA694"/>
		<stop  offset="1" style="stop-color:#BF0020"/>
	</linearGradient>
	<path class="st6" d="M246.8,391.98h-36.27c-2.76,0-5,2.24-5,5s2.24,5,5,5h36.27c2.76,0,5-2.24,5-5S249.57,391.98,246.8,391.98z"/>
</g>
</svg>
