<?xml version="1.0" encoding="utf-8"?>
<!-- Generator: Adobe Illustrator 24.1.3, SVG Export Plug-In . SVG Version: 6.00 Build 0)  -->
<svg version="1.1" id="cloud-directory" xmlns="http://www.w3.org/2000/svg" xmlns:xlink="http://www.w3.org/1999/xlink" x="0px"
	 y="0px" viewBox="0 0 620 620" style="enable-background:new 0 0 620 620;" xml:space="preserve">
<style type="text/css">
	.st0{fill:url(#SVGID_1_);}
	.st1{fill:url(#SVGID_2_);}
	.st2{fill:url(#SVGID_3_);}
</style>
<g>
	<linearGradient id="SVGID_1_" gradientUnits="userSpaceOnUse" x1="334.3979" y1="-372.5128" x2="272.6837" y2="1374.4762">
		<stop  offset="2.396167e-07" style="stop-color:#FFA694"/>
		<stop  offset="1" style="stop-color:#BF0020"/>
	</linearGradient>
	<path class="st0" d="M436.28,564.52H184.33c-71.14,0-129.02-57.88-129.02-129.02V183.54c0-71.14,57.88-129.02,129.02-129.02h251.96
		c71.14,0,129.02,57.88,129.02,129.02V435.5C565.3,506.64,507.43,564.52,436.28,564.52z M184.33,64.52
		c-65.63,0-119.02,53.39-119.02,119.02V435.5c0,65.63,53.39,119.02,119.02,119.02h251.96c65.63,0,119.02-53.39,119.02-119.02V183.54
		c0-65.63-53.39-119.02-119.02-119.02H184.33z"/>
</g>
<g>
	<linearGradient id="SVGID_2_" gradientUnits="userSpaceOnUse" x1="288.4877" y1="-114.2522" x2="332.7954" y2="748.1653">
		<stop  offset="2.396167e-07" style="stop-color:#FFA694"/>
		<stop  offset="1" style="stop-color:#BF0020"/>
	</linearGradient>
	<path class="st1" d="M427.77,200.74c-0.64-14.13-13.37-27.01-36.01-36.37c-0.19-0.08-0.39-0.15-0.58-0.23
		c-0.04-0.02-0.07-0.03-0.11-0.05c-0.14-0.06-0.29-0.11-0.44-0.17c-1.2-0.48-2.4-0.95-3.64-1.41c-0.18-0.07-0.37-0.13-0.56-0.2
		c-1.24-0.45-2.49-0.9-3.76-1.32c-0.18-0.06-0.37-0.12-0.55-0.18c-1.29-0.43-2.6-0.85-3.93-1.25c-0.16-0.05-0.32-0.09-0.48-0.14
		c-1.36-0.41-2.74-0.81-4.14-1.19c-0.12-0.03-0.25-0.06-0.37-0.1c-1.44-0.39-2.9-0.77-4.38-1.13c-0.08-0.02-0.17-0.04-0.25-0.06
		c-1.52-0.37-3.06-0.73-4.62-1.07c-0.05-0.01-0.11-0.02-0.16-0.03c-1.59-0.35-3.2-0.68-4.82-1c-0.02,0-0.04-0.01-0.05-0.01
		c-1.66-0.32-3.33-0.63-5.03-0.91c0,0,0,0,0,0c-1.71-0.29-3.44-0.56-5.18-0.82c0,0,0,0,0,0c-1.74-0.25-3.49-0.49-5.26-0.71
		c-0.04-0.01-0.08-0.01-0.12-0.01c-1.73-0.21-3.47-0.41-5.22-0.59c-0.12-0.01-0.25-0.02-0.37-0.03c-1.68-0.17-3.36-0.33-5.06-0.47
		c-0.25-0.02-0.49-0.03-0.74-0.05c-1.58-0.12-3.16-0.24-4.76-0.34c-0.45-0.03-0.91-0.04-1.36-0.07c-1.4-0.08-2.8-0.16-4.2-0.21
		c-0.83-0.03-1.67-0.05-2.5-0.08c-1.04-0.03-2.08-0.07-3.13-0.09c-1.89-0.04-3.79-0.06-5.69-0.06c-1.9,0-3.8,0.02-5.69,0.06
		c-1.04,0.02-2.08,0.06-3.11,0.09c-0.84,0.03-1.68,0.04-2.52,0.08c-1.4,0.06-2.79,0.13-4.19,0.21c-0.46,0.03-0.92,0.04-1.38,0.07
		c-1.59,0.1-3.16,0.21-4.73,0.34c-0.25,0.02-0.51,0.03-0.77,0.05c-1.69,0.14-3.37,0.29-5.04,0.46c-0.13,0.01-0.26,0.02-0.39,0.04
		c-1.75,0.18-3.48,0.38-5.2,0.59c-0.05,0.01-0.1,0.01-0.15,0.02c-1.76,0.22-3.5,0.46-5.23,0.71c-0.01,0-0.02,0-0.03,0
		c-1.73,0.25-3.45,0.53-5.15,0.82c-0.01,0-0.02,0-0.03,0c-1.68,0.29-3.35,0.59-5,0.91c-0.03,0.01-0.06,0.01-0.08,0.02
		c-1.62,0.31-3.22,0.65-4.8,0.99c-0.06,0.01-0.12,0.02-0.18,0.04c-1.55,0.34-3.08,0.7-4.59,1.07c-0.09,0.02-0.18,0.04-0.28,0.06
		c-1.47,0.36-2.92,0.74-4.35,1.13c-0.13,0.04-0.27,0.07-0.4,0.1c-1.39,0.38-2.76,0.78-4.12,1.19c-0.16,0.05-0.33,0.1-0.5,0.15
		c-1.32,0.4-2.62,0.82-3.9,1.24c-0.19,0.06-0.38,0.12-0.57,0.18c-1.27,0.43-2.51,0.87-3.74,1.31c-0.19,0.07-0.39,0.14-0.58,0.21
		c-1.22,0.45-2.42,0.92-3.61,1.4c-0.15,0.06-0.31,0.12-0.47,0.18c-0.04,0.02-0.08,0.03-0.12,0.05c-0.19,0.08-0.39,0.15-0.58,0.23
		c-22.64,9.36-35.37,22.24-36.01,36.37c-0.01,0.1-0.03,0.2-0.03,0.31v218.58c0,0.7,0.14,1.36,0.4,1.97
		c4.9,26.93,54.72,47.08,117.09,47.08s112.19-20.14,117.09-47.08c0.26-0.6,0.4-1.27,0.4-1.97V201.05
		C427.8,200.94,427.77,200.84,427.77,200.74z M417.8,418.39c-0.05,0.2-0.09,0.41-0.12,0.62c-2.39,19.08-44.13,39.67-107.38,39.67
		s-104.98-20.59-107.38-39.67c-0.03-0.21-0.07-0.42-0.12-0.62V223.17c6.09,6.07,14.85,11.56,26.04,16.19
		c21.84,9.03,50.77,14,81.46,14s59.62-4.97,81.46-14c11.19-4.63,19.95-10.11,26.04-16.19V418.39z M310.3,243.35
		c-64.3,0-107.49-21.45-107.49-41.49c0-0.06,0.01-0.12,0.01-0.17c0.02-0.14,0.03-0.29,0.04-0.43c0.83-19.74,44.2-40.88,107.45-40.88
		c63.25,0,106.62,21.14,107.45,40.88c0.01,0.15,0.02,0.29,0.04,0.43c0,0.06,0.01,0.12,0.01,0.18
		C417.8,221.9,374.6,243.35,310.3,243.35z"/>
	<linearGradient id="SVGID_3_" gradientUnits="userSpaceOnUse" x1="284.4727" y1="-114.046" x2="328.7804" y2="748.3716">
		<stop  offset="2.396167e-07" style="stop-color:#FFA694"/>
		<stop  offset="1" style="stop-color:#BF0020"/>
	</linearGradient>
	<path class="st2" d="M371.8,379.03v-27.66c0-2.76-2.24-5-5-5h-51V329.9c12.51-2.35,22-13.35,22-26.53c0-14.89-12.11-27-27-27
		s-27,12.11-27,27c0,13.18,9.49,24.18,22,26.53v16.47h-51c-2.76,0-5,2.24-5,5v27.66c-8.61,2.23-15,10.04-15,19.34
		c0,11.03,8.97,20,20,20s20-8.97,20-20c0-9.3-6.39-17.11-15-19.34v-22.66h46v22.66c-8.61,2.23-15,10.04-15,19.34
		c0,11.03,8.97,20,20,20s20-8.97,20-20c0-9.3-6.39-17.11-15-19.34v-22.66h46v22.66c-8.61,2.23-15,10.04-15,19.34
		c0,11.03,8.97,20,20,20s20-8.97,20-20C386.8,389.07,380.41,381.26,371.8,379.03z M264.8,398.37c0,5.51-4.49,10-10,10
		s-10-4.49-10-10s4.49-10,10-10S264.8,392.86,264.8,398.37z M320.8,398.37c0,5.51-4.49,10-10,10s-10-4.49-10-10s4.49-10,10-10
		S320.8,392.86,320.8,398.37z M310.8,320.37c-9.37,0-17-7.63-17-17s7.63-17,17-17s17,7.63,17,17S320.17,320.37,310.8,320.37z
		 M366.8,408.37c-5.51,0-10-4.49-10-10s4.49-10,10-10s10,4.49,10,10S372.31,408.37,366.8,408.37z"/>
</g>
</svg>
