<?xml version="1.0" encoding="utf-8"?>
<!-- Generator: Adobe Illustrator 24.1.3, SVG Export Plug-In . SVG Version: 6.00 Build 0)  -->
<svg version="1.1" id="compute" xmlns="http://www.w3.org/2000/svg" xmlns:xlink="http://www.w3.org/1999/xlink" x="0px" y="0px"
	 viewBox="0 0 620 620" style="enable-background:new 0 0 620 620;" xml:space="preserve">
<style type="text/css">
	.st0{fill:none;stroke:url(#SVGID_1_);stroke-width:10;stroke-miterlimit:10;}
	.st1{fill:url(#SVGID_2_);}
	.st2{fill:url(#SVGID_3_);}
</style>
<g>
	<linearGradient id="SVGID_1_" gradientUnits="userSpaceOnUse" x1="317.9174" y1="50.8697" x2="301.7456" y2="568.3663">
		<stop  offset="0" style="stop-color:#FFC14D"/>
		<stop  offset="1" style="stop-color:#FF576A"/>
	</linearGradient>
	<path class="st0" d="M435.81,559.62H183.85c-68.5,0-124.02-55.53-124.02-124.02V183.64c0-68.5,55.53-124.02,124.02-124.02h251.96
		c68.5,0,124.02,55.53,124.02,124.02V435.6C559.83,504.09,504.31,559.62,435.81,559.62z"/>
	<g>
		<linearGradient id="SVGID_2_" gradientUnits="userSpaceOnUse" x1="307.5345" y1="121.8342" x2="318.6115" y2="778.5375">
			<stop  offset="0" style="stop-color:#FFC14D"/>
			<stop  offset="1" style="stop-color:#FF576A"/>
		</linearGradient>
		<path class="st1" d="M349.46,237.57h-77.57c-17.36,0-31.49,14.13-31.49,31.49v77.57c0,17.36,14.13,31.49,31.49,31.49h77.57
			c17.36,0,31.49-14.13,31.49-31.49v-77.57C380.95,251.69,366.82,237.57,349.46,237.57z M370.95,346.63
			c0,11.85-9.64,21.49-21.49,21.49h-77.57c-11.85,0-21.49-9.64-21.49-21.49v-77.57c0-11.85,9.64-21.49,21.49-21.49h77.57
			c11.85,0,21.49,9.64,21.49,21.49V346.63z"/>
		<linearGradient id="SVGID_3_" gradientUnits="userSpaceOnUse" x1="306.6896" y1="121.8484" x2="317.7665" y2="778.5518">
			<stop  offset="0" style="stop-color:#FFC14D"/>
			<stop  offset="1" style="stop-color:#FF576A"/>
		</linearGradient>
		<path class="st2" d="M458.83,280.87c2.76,0,5-2.24,5-5s-2.24-5-5-5h-20.5v-22.25h20.5c2.76,0,5-2.24,5-5s-2.24-5-5-5h-20.5v-26.97
			c0-17.39-14.15-31.53-31.53-31.53h-27.47v-21c0-2.76-2.24-5-5-5s-5,2.24-5,5v21h-22.25v-21c0-2.76-2.24-5-5-5s-5,2.24-5,5v21
			h-22.25v-21c0-2.76-2.24-5-5-5s-5,2.24-5,5v21h-22.25v-21c0-2.76-2.24-5-5-5s-5,2.24-5,5v21h-22.25v-21c0-2.76-2.24-5-5-5
			s-5,2.24-5,5v21h-26.47c-17.39,0-31.53,14.15-31.53,31.53v26.97h-21.5c-2.76,0-5,2.24-5,5s2.24,5,5,5h21.5v22.25h-21.5
			c-2.76,0-5,2.24-5,5s2.24,5,5,5h21.5v22.25h-21.5c-2.76,0-5,2.24-5,5s2.24,5,5,5h21.5v22.25h-21.5c-2.76,0-5,2.24-5,5s2.24,5,5,5
			h21.5v22.25h-21.5c-2.76,0-5,2.24-5,5s2.24,5,5,5h21.5v26.97c0,17.39,14.15,31.53,31.53,31.53h26.47v24c0,2.76,2.24,5,5,5
			s5-2.24,5-5v-24h22.25v24c0,2.76,2.24,5,5,5s5-2.24,5-5v-24h22.25v24c0,2.76,2.24,5,5,5s5-2.24,5-5v-24h22.25v24
			c0,2.76,2.24,5,5,5s5-2.24,5-5v-24h22.25v24c0,2.76,2.24,5,5,5s5-2.24,5-5v-24h27.47c17.39,0,31.53-14.15,31.53-31.53v-26.97h20.5
			c2.76,0,5-2.24,5-5s-2.24-5-5-5h-20.5v-22.25h20.5c2.76,0,5-2.24,5-5s-2.24-5-5-5h-20.5v-22.25h20.5c2.76,0,5-2.24,5-5
			s-2.24-5-5-5h-20.5v-22.25H458.83z M406.8,426.12H213.86c-11.87,0-21.53-9.66-21.53-21.53V211.65c0-11.87,9.66-21.53,21.53-21.53
			H406.8c11.87,0,21.53,9.66,21.53,21.53v29.82c-0.31,0.65-0.5,1.37-0.5,2.14s0.19,1.49,0.5,2.14v27.96
			c-0.31,0.65-0.5,1.37-0.5,2.14s0.19,1.49,0.5,2.14v27.96c-0.31,0.65-0.5,1.37-0.5,2.14s0.19,1.49,0.5,2.14v27.96
			c-0.31,0.65-0.5,1.37-0.5,2.14s0.19,1.49,0.5,2.14v27.96c-0.31,0.65-0.5,1.37-0.5,2.14s0.19,1.49,0.5,2.14v29.82
			C428.33,416.46,418.67,426.12,406.8,426.12z"/>
	</g>
</g>
</svg>
