<?xml version="1.0" encoding="utf-8"?>
<!-- Generator: Adobe Illustrator 24.1.3, SVG Export Plug-In . SVG Version: 6.00 Build 0)  -->
<svg version="1.1" id="dynamodb" xmlns="http://www.w3.org/2000/svg" xmlns:xlink="http://www.w3.org/1999/xlink" x="0px" y="0px"
	 viewBox="0 0 620 620" style="enable-background:new 0 0 620 620;" xml:space="preserve">
<style type="text/css">
	.st0{fill:url(#SVGID_1_);}
	.st1{fill:url(#SVGID_2_);}
	.st2{fill:url(#SVGID_3_);}
	.st3{fill:url(#SVGID_4_);}
	.st4{fill:url(#SVGID_5_);}
	.st5{fill:url(#SVGID_6_);}
</style>
<linearGradient id="SVGID_1_" gradientUnits="userSpaceOnUse" x1="312.9803" y1="-412.9842" x2="308.233" y2="868.774">
	<stop  offset="0" style="stop-color:#03E5FF"/>
	<stop  offset="1" style="stop-color:#5D33E9"/>
</linearGradient>
<path class="st0" d="M436.28,564.52H184.33c-71.14,0-129.02-57.88-129.02-129.02V183.54c0-71.14,57.88-129.02,129.02-129.02h251.96
	c71.14,0,129.02,57.88,129.02,129.02V435.5C565.3,506.64,507.43,564.52,436.28,564.52z M184.33,64.52
	c-65.63,0-119.02,53.39-119.02,119.02V435.5c0,65.63,53.39,119.02,119.02,119.02h251.96c65.63,0,119.02-53.39,119.02-119.02V183.54
	c0-65.63-53.39-119.02-119.02-119.02H184.33z"/>
<g>
	<linearGradient id="SVGID_2_" gradientUnits="userSpaceOnUse" x1="370.2176" y1="171.8798" x2="372.5912" y2="600.7149">
		<stop  offset="0" style="stop-color:#03E5FF"/>
		<stop  offset="1" style="stop-color:#5D33E9"/>
	</linearGradient>
	<path class="st1" d="M444.3,249.1c-0.74-1.93-2.6-3.2-4.66-3.2l-38.29-0.03l17.09-53.23c0.49-1.52,0.22-3.18-0.72-4.47
		c-0.94-1.29-2.44-2.05-4.04-2.05h-45.95h-13.74c-1.96,0-3.74,1.15-4.55,2.93l-16.52,36.39l-18.95,41.73
		c-0.7,1.55-0.57,3.35,0.35,4.78s2.5,2.29,4.2,2.29h27.24l-16.65,32.15l-25.08,48.43l-5.83,11.25c-1.72,3.32-0.85,7.23,2.11,9.51
		c1.39,1.07,3.02,1.6,4.64,1.6c1.82,0,3.63-0.67,5.09-2l17.36-15.74l52.82-47.91l62.76-56.92
		C444.52,253.21,445.04,251.02,444.3,249.1z M373.51,304.11l-52.82,47.91l-7.45,6.75l24.75-47.8l20.43-39.45
		c0.8-1.55,0.74-3.41-0.17-4.9c-0.91-1.49-2.53-2.4-4.27-2.4h-2.29h-25.41l15.74-34.67l15.19-33.45h10.52h39.09l-17.09,53.23
		c-0.49,1.52-0.22,3.18,0.72,4.47c0.94,1.29,2.44,2.05,4.04,2.06l32.2,0.03L373.51,304.11z"/>
	<linearGradient id="SVGID_3_" gradientUnits="userSpaceOnUse" x1="234.192" y1="172.6327" x2="236.5656" y2="601.4678">
		<stop  offset="0" style="stop-color:#03E5FF"/>
		<stop  offset="1" style="stop-color:#5D33E9"/>
	</linearGradient>
	<path class="st2" d="M235.47,401.57c-3.37,0-6.1,2.74-6.1,6.1c0,1.59,0.61,3.03,1.61,4.11c1.1,1.36,2.78,2.22,4.66,2.22
		c3.31,0,6-2.69,6-6c0-0.43-0.05-0.85-0.14-1.26C241.04,403.82,238.52,401.57,235.47,401.57z"/>
	<linearGradient id="SVGID_4_" gradientUnits="userSpaceOnUse" x1="234.6393" y1="172.6302" x2="237.013" y2="601.4654">
		<stop  offset="0" style="stop-color:#03E5FF"/>
		<stop  offset="1" style="stop-color:#5D33E9"/>
	</linearGradient>
	<path class="st3" d="M235.47,320.94c-3.37,0-6.1,2.74-6.1,6.1s2.74,6.1,6.1,6.1c1.9,0,3.59-0.87,4.71-2.23
		c0.9-1.05,1.45-2.41,1.45-3.9c0-2.3-1.3-4.3-3.2-5.3C237.55,321.22,236.54,320.94,235.47,320.94z"/>
	<linearGradient id="SVGID_5_" gradientUnits="userSpaceOnUse" x1="291.0356" y1="172.318" x2="293.4093" y2="601.1532">
		<stop  offset="0" style="stop-color:#03E5FF"/>
		<stop  offset="1" style="stop-color:#5D33E9"/>
	</linearGradient>
	<path class="st4" d="M364.09,344.16C364.09,344.16,364.08,344.15,364.09,344.16c-0.01,0-0.02-0.01-0.03-0.01
		c-0.81-0.39-1.65-0.77-2.44-1.12c-0.05-0.02-0.13-0.06-0.19-0.08c-0.27-0.12-0.56-0.23-0.84-0.35l-0.4-0.16
		c-2.55-1.06-5.48,0.15-6.54,2.7s0.15,5.48,2.7,6.54l0.45,0.19c0.23,0.09,0.46,0.19,0.76,0.31c0.74,0.32,1.46,0.65,2.16,0.99
		c0,0,0,0,0,0c0.01,0,0.01,0.01,0.02,0.01c7.5,3.61,11.91,7.68,12.09,11.18c0,0.1,0.01,0.2,0.02,0.31c0,0.15-0.03,0.31-0.05,0.47
		c-0.02,0.15-0.02,0.29-0.06,0.44c-0.03,0.16-0.09,0.32-0.14,0.48c-0.04,0.15-0.08,0.3-0.14,0.45c-0.06,0.16-0.15,0.33-0.23,0.5
		c-0.07,0.15-0.13,0.3-0.22,0.45c-0.09,0.17-0.21,0.34-0.32,0.51c-0.1,0.15-0.19,0.3-0.3,0.45c-0.12,0.17-0.27,0.34-0.41,0.51
		c-0.12,0.15-0.24,0.3-0.37,0.46c-0.15,0.17-0.33,0.35-0.5,0.52c-0.15,0.15-0.29,0.3-0.45,0.46c-0.18,0.17-0.39,0.35-0.59,0.52
		c-0.17,0.15-0.34,0.3-0.52,0.46c-0.21,0.18-0.45,0.35-0.68,0.53c-0.2,0.15-0.39,0.3-0.6,0.45c-0.24,0.18-0.51,0.35-0.77,0.53
		c-0.22,0.15-0.43,0.3-0.67,0.45c-0.27,0.17-0.57,0.35-0.86,0.52c-0.25,0.15-0.48,0.3-0.74,0.45c-0.3,0.17-0.62,0.34-0.94,0.52
		c-0.27,0.15-0.53,0.3-0.82,0.44c-0.33,0.17-0.68,0.34-1.02,0.51c-0.3,0.15-0.58,0.29-0.89,0.44c-0.36,0.17-0.73,0.33-1.1,0.5
		c-0.32,0.14-0.63,0.29-0.96,0.43c-0.38,0.17-0.79,0.33-1.18,0.49c-0.34,0.14-0.67,0.28-1.03,0.42c-0.41,0.16-0.84,0.32-1.26,0.48
		c-0.37,0.14-0.72,0.28-1.1,0.41c-0.43,0.16-0.88,0.31-1.33,0.46c-0.39,0.14-0.77,0.27-1.18,0.41c-0.45,0.15-0.93,0.3-1.4,0.44
		c-0.42,0.13-0.82,0.27-1.25,0.39c-0.48,0.15-0.99,0.29-1.48,0.43c-0.44,0.13-0.86,0.25-1.3,0.38c-0.51,0.14-1.04,0.28-1.56,0.41
		c-0.46,0.12-0.9,0.24-1.37,0.36c-0.53,0.13-1.07,0.26-1.61,0.39c-0.49,0.12-0.96,0.23-1.46,0.35c-0.55,0.12-1.12,0.24-1.68,0.36
		c-0.51,0.11-1.01,0.22-1.52,0.33c-0.57,0.12-1.17,0.23-1.75,0.34c-0.53,0.1-1.04,0.21-1.58,0.31c-0.6,0.11-1.22,0.21-1.84,0.32
		c-0.54,0.09-1.08,0.19-1.63,0.28c-0.63,0.1-1.27,0.2-1.91,0.29c-0.56,0.09-1.12,0.18-1.69,0.26c-0.65,0.09-1.32,0.18-1.98,0.27
		c-0.58,0.08-1.15,0.16-1.74,0.23c-0.69,0.09-1.4,0.16-2.1,0.24c-0.58,0.07-1.16,0.14-1.75,0.2c-0.72,0.08-1.45,0.14-2.18,0.21
		c-0.6,0.06-1.19,0.12-1.79,0.17c-0.74,0.06-1.5,0.12-2.25,0.18c-0.61,0.05-1.22,0.1-1.84,0.14c-0.78,0.05-1.58,0.1-2.38,0.14
		c-0.61,0.04-1.22,0.08-1.84,0.11c-0.83,0.04-1.68,0.07-2.52,0.11c-0.6,0.03-1.2,0.06-1.81,0.08c-0.96,0.03-1.95,0.05-2.93,0.08
		c-0.51,0.01-1,0.03-1.51,0.04c-1.5,0.03-3.02,0.04-4.56,0.04c-1.54,0-3.06-0.01-4.56-0.04c-0.5-0.01-0.99-0.03-1.49-0.04
		c-0.99-0.02-1.98-0.04-2.95-0.08c-0.56-0.02-1.1-0.05-1.65-0.07c-0.9-0.04-1.8-0.07-2.68-0.12c-0.57-0.03-1.12-0.07-1.68-0.1
		c-0.85-0.05-1.7-0.1-2.53-0.15c-0.59-0.04-1.15-0.09-1.73-0.14c-0.79-0.06-1.58-0.12-2.36-0.19c-0.57-0.05-1.13-0.11-1.7-0.16
		c-0.76-0.07-1.53-0.14-2.28-0.22c-0.55-0.06-1.07-0.12-1.61-0.18c-0.75-0.08-1.5-0.17-2.24-0.26c-0.54-0.07-1.06-0.14-1.6-0.21
		c-0.71-0.09-1.43-0.19-2.13-0.29c-0.52-0.07-1.02-0.16-1.53-0.23c-0.69-0.11-1.4-0.21-2.07-0.32c-0.49-0.08-0.96-0.17-1.44-0.25
		c-0.68-0.12-1.36-0.23-2.03-0.35c-0.48-0.09-0.94-0.18-1.42-0.28c-0.64-0.12-1.29-0.25-1.92-0.37c-0.46-0.09-0.9-0.19-1.35-0.29
		c-0.62-0.13-1.25-0.26-1.85-0.4c-0.43-0.1-0.85-0.2-1.27-0.3c-0.6-0.14-1.21-0.28-1.8-0.43c-0.41-0.1-0.8-0.21-1.21-0.32
		c-0.58-0.15-1.16-0.3-1.72-0.46c-0.39-0.11-0.76-0.22-1.15-0.33c-0.55-0.16-1.11-0.31-1.64-0.48c-0.38-0.11-0.73-0.23-1.1-0.35
		c-0.52-0.16-1.05-0.33-1.55-0.49c-0.35-0.12-0.68-0.24-1.03-0.35c-0.5-0.17-1-0.34-1.48-0.51c-0.33-0.12-0.65-0.24-0.97-0.37
		c-0.46-0.17-0.94-0.35-1.38-0.52c-0.31-0.12-0.61-0.25-0.91-0.37c-0.44-0.18-0.88-0.36-1.3-0.54c-0.29-0.12-0.56-0.25-0.84-0.38
		c-0.41-0.18-0.83-0.37-1.22-0.55c-0.27-0.13-0.52-0.26-0.78-0.38c-0.38-0.19-0.77-0.37-1.13-0.56c-0.25-0.13-0.48-0.26-0.72-0.39
		c-0.35-0.19-0.7-0.38-1.03-0.57c-0.23-0.13-0.45-0.27-0.67-0.4c-0.31-0.19-0.63-0.38-0.93-0.57c-0.21-0.14-0.4-0.27-0.61-0.41
		c-0.28-0.19-0.57-0.38-0.83-0.57c-0.19-0.14-0.36-0.28-0.55-0.42c-0.25-0.19-0.5-0.38-0.73-0.56c-0.17-0.14-0.32-0.28-0.49-0.42
		c-0.21-0.19-0.43-0.37-0.63-0.56c-0.15-0.14-0.28-0.28-0.42-0.43c-0.18-0.18-0.37-0.37-0.53-0.55c-0.13-0.14-0.24-0.29-0.35-0.43
		c-0.15-0.18-0.3-0.36-0.43-0.54c-0.11-0.15-0.19-0.29-0.28-0.43c-0.11-0.18-0.24-0.35-0.33-0.53c-0.08-0.15-0.14-0.29-0.21-0.44
		c-0.08-0.17-0.17-0.34-0.23-0.51c-0.06-0.15-0.09-0.29-0.14-0.44c-0.05-0.16-0.11-0.33-0.14-0.49c-0.03-0.15-0.04-0.29-0.05-0.44
		c-0.02-0.16-0.04-0.32-0.05-0.47c0.01-0.1,0.02-0.21,0.02-0.31c0.01-0.14,0.03-0.28,0.05-0.43c0.02-0.11,0.03-0.22,0.05-0.33
		c0.02-0.11,0.06-0.23,0.09-0.34c0.03-0.11,0.06-0.22,0.1-0.33c0.04-0.12,0.09-0.23,0.14-0.35c0.05-0.11,0.09-0.22,0.14-0.33
		c0.06-0.12,0.12-0.24,0.19-0.35c0.06-0.11,0.12-0.22,0.19-0.33c0.07-0.12,0.16-0.24,0.24-0.36c0.07-0.11,0.15-0.22,0.23-0.33
		c0.09-0.12,0.19-0.25,0.29-0.37c0.09-0.11,0.17-0.22,0.27-0.33c0.11-0.13,0.23-0.25,0.34-0.38c0.1-0.11,0.2-0.22,0.3-0.33
		c0.12-0.13,0.26-0.26,0.39-0.39c0.11-0.11,0.22-0.22,0.34-0.32c0.14-0.13,0.3-0.26,0.45-0.39c0.12-0.11,0.24-0.21,0.37-0.32
		c0.16-0.13,0.33-0.27,0.5-0.4c0.13-0.1,0.26-0.21,0.39-0.31c0.18-0.14,0.37-0.27,0.56-0.41c0.14-0.1,0.27-0.2,0.42-0.3
		c0.2-0.14,0.41-0.27,0.62-0.41c0.15-0.1,0.29-0.2,0.44-0.29c0.22-0.14,0.45-0.28,0.68-0.42c0.15-0.09,0.3-0.19,0.46-0.28
		c0.25-0.15,0.51-0.29,0.76-0.44c0.15-0.08,0.29-0.17,0.45-0.26c0.29-0.16,0.59-0.32,0.9-0.48c0.13-0.07,0.26-0.14,0.39-0.21
		c0.44-0.23,0.89-0.45,1.36-0.68c0.01,0,0.01-0.01,0.02-0.01c0.56-0.27,1.13-0.53,1.68-0.78c0.41,0.18,0.83,0.35,1.26,0.52
		c12.05,5.06,28.21,9.99,59.52,9.99c2.76,0,5-2.24,5-5s-2.24-5-5-5c-28.82,0-43.41-4.16-54.77-8.84c-0.02-0.01-0.04-0.03-0.07-0.04
		c-0.44-0.18-0.86-0.35-1.29-0.53c-0.87-0.37-1.73-0.74-2.57-1.12c-0.02-0.01-0.03-0.01-0.05-0.02
		c-9.78-4.43-14.21-8.64-15.78-10.43v-31.75c4.56,3.22,10.63,6.11,18.15,8.6c16.48,5.46,38.29,8.47,61.42,8.47c2.76,0,5-2.24,5-5
		s-2.24-5-5-5c-48.23,0-78.24-12.83-79.57-22.4v-0.95c0-0.04-0.01-0.08-0.01-0.13c0.12-1.3,0.81-2.67,2.02-4.06
		c0,0,0.01-0.01,0.01-0.01c0.2-0.23,0.41-0.46,0.63-0.68c0.01-0.01,0.03-0.02,0.04-0.04c0.22-0.22,0.45-0.44,0.69-0.66
		c0.03-0.02,0.06-0.05,0.08-0.07c0.23-0.21,0.47-0.42,0.73-0.63c0.04-0.04,0.09-0.07,0.13-0.11c0.24-0.2,0.49-0.4,0.76-0.6
		c0.07-0.05,0.14-0.1,0.2-0.15c0.25-0.18,0.5-0.37,0.76-0.55c0.1-0.07,0.2-0.13,0.3-0.2c0.24-0.17,0.49-0.33,0.75-0.5
		c0.13-0.09,0.28-0.17,0.41-0.26c0.24-0.15,0.47-0.29,0.71-0.44c0.19-0.11,0.38-0.22,0.58-0.33c0.21-0.12,0.41-0.24,0.63-0.36
		c0.26-0.14,0.54-0.29,0.81-0.43c0.16-0.08,0.31-0.17,0.47-0.25c0.44-0.23,0.89-0.45,1.36-0.68c0.01,0,0.01-0.01,0.02-0.01
		c0,0,0,0,0,0c0.54-0.26,1.09-0.51,1.68-0.78c7.54,3.49,16.93,6.46,28.08,7.48c11.17,1.77,23.76,2.67,37.73,2.67c2.76,0,5-2.24,5-5
		s-2.24-5-5-5c-13.64,0-25.85-0.87-36.57-2.6c-0.02,0-0.04-0.01-0.06-0.01c-0.01,0-0.01,0-0.02,0c-9.5-1.54-17.8-3.75-24.88-6.63
		c-9.44-4.37-15.57-9.62-18.05-11.98v-31.14c4.56,3.22,10.63,6.11,18.15,8.6c16.48,5.46,38.29,8.47,61.42,8.47
		c8.34,0,9.89,0.05,11.13,0.09c0.94,0.03,1.74,0.06,4.69,0.06c1.15,0,2.63,0,4.57-0.01c2.76-0.01,4.99-2.26,4.98-5.02
		c-0.01-2.75-2.25-4.98-5-4.98c-0.01,0-0.02,0-0.02,0c-6.73,0.03-7.69,0-8.9-0.04c-1.31-0.04-2.94-0.09-11.45-0.09
		c-48.23,0-78.24-12.83-79.57-22.4v-0.08c0-0.19-0.04-0.37-0.06-0.56c0.01-0.09,0.02-0.17,0.02-0.25c0.01-0.15,0.03-0.29,0.06-0.44
		c0.02-0.11,0.03-0.21,0.05-0.32c0.02-0.11,0.06-0.23,0.09-0.34c0.03-0.11,0.06-0.22,0.1-0.33c0.04-0.12,0.09-0.23,0.14-0.35
		c0.05-0.11,0.09-0.22,0.15-0.33c0.06-0.12,0.12-0.23,0.19-0.35c0.06-0.11,0.12-0.22,0.19-0.34c0.07-0.12,0.15-0.24,0.23-0.35
		c0.08-0.11,0.15-0.23,0.23-0.34c0.09-0.12,0.18-0.23,0.28-0.35c0.09-0.12,0.18-0.23,0.28-0.35c0.1-0.12,0.21-0.23,0.31-0.35
		c0.11-0.12,0.21-0.24,0.33-0.36c0.11-0.12,0.23-0.23,0.35-0.35c0.12-0.12,0.24-0.24,0.38-0.36c0.12-0.11,0.26-0.23,0.39-0.34
		c0.14-0.12,0.28-0.25,0.43-0.37c0.13-0.11,0.28-0.22,0.42-0.33c0.16-0.12,0.31-0.25,0.48-0.37c0.14-0.11,0.3-0.22,0.45-0.33
		c0.17-0.13,0.35-0.25,0.53-0.38c0.15-0.1,0.31-0.21,0.47-0.31c0.19-0.13,0.38-0.26,0.59-0.39c0.16-0.1,0.32-0.2,0.49-0.3
		c0.21-0.13,0.42-0.26,0.64-0.4c0.16-0.1,0.34-0.19,0.51-0.29c0.23-0.13,0.46-0.27,0.7-0.4c0.18-0.1,0.36-0.19,0.54-0.29
		c0.24-0.13,0.49-0.26,0.74-0.39c0.19-0.1,0.39-0.19,0.58-0.29c0.25-0.13,0.51-0.26,0.77-0.38c0.01-0.01,0.02-0.01,0.04-0.02
		c0.67-0.32,1.37-0.64,2.14-0.98c0.03-0.01,0.08-0.03,0.1-0.04c0.74-0.32,1.5-0.63,2.27-0.94c0.02-0.01,0.12-0.04,0.13-0.05
		c0.77-0.3,1.55-0.6,2.42-0.91l0.16-0.06c0.79-0.28,1.6-0.56,2.41-0.83l0.34-0.11c0.81-0.26,1.62-0.52,2.47-0.77l0.42-0.12
		c0.82-0.24,1.65-0.48,2.49-0.71l0.54-0.14c0.83-0.22,1.66-0.44,2.52-0.65l0.68-0.16c0.82-0.2,1.65-0.39,2.51-0.58l0.81-0.17
		c0.82-0.18,1.64-0.35,2.47-0.52l0.98-0.19c0.81-0.16,1.62-0.31,2.45-0.46l1.34-0.23c0.72-0.12,1.44-0.25,2.17-0.36l1.58-0.24
		c0.68-0.1,1.36-0.21,2.04-0.3l1.97-0.26c0.58-0.08,1.17-0.16,1.76-0.23l2.26-0.25c0.52-0.06,1.04-0.12,1.56-0.17
		c0.37-0.04,0.75-0.07,1.13-0.11l1.34-0.13c0.48-0.04,0.95-0.09,1.43-0.13c0.44-0.04,0.89-0.07,1.34-0.1l1.36-0.1
		c0.43-0.03,0.86-0.07,1.28-0.1c0.48-0.03,0.97-0.06,1.46-0.09l1.42-0.08c0.39-0.02,0.78-0.05,1.18-0.07
		c0.56-0.03,1.12-0.05,1.69-0.07l1.33-0.06c0.37-0.02,0.73-0.03,1.11-0.04c0.69-0.02,1.39-0.04,2.09-0.05l1.28-0.03
		c0.27-0.01,0.54-0.01,0.82-0.02c2.81-0.05,5.67-0.05,8.5,0c0.27,0,0.54,0.01,0.81,0.02l1.28,0.03c0.7,0.02,1.4,0.03,2.1,0.05
		c0.37,0.01,0.73,0.03,1.1,0.04l1.33,0.06c0.57,0.02,1.13,0.04,1.7,0.07c0.43,0.02,0.85,0.05,1.27,0.07l1.32,0.08
		c0.49,0.03,0.98,0.05,1.46,0.09c0.47,0.03,0.94,0.07,1.41,0.11l1.24,0.09c0.45,0.03,0.9,0.07,1.33,0.1
		c0.48,0.04,0.96,0.09,1.44,0.13l1.34,0.13c0.38,0.04,0.75,0.07,1.12,0.11c0.59,0.06,1.18,0.13,1.76,0.2l0.96,0.11
		c0.37,0.04,0.74,0.08,1.1,0.12c0.6,0.07,1.18,0.15,1.77,0.23l1.95,0.26c0.61,0.08,1.22,0.18,1.82,0.27l1.8,0.27
		c0.8,0.13,1.59,0.26,2.39,0.4l1.13,0.19c0.82,0.15,1.63,0.3,2.44,0.46l0.98,0.19c2.71,0.53,5.34-1.23,5.88-3.93
		s-1.23-5.34-3.93-5.88l-1.03-0.2c-0.85-0.17-1.7-0.33-2.57-0.48c-0.26-0.05-0.53-0.09-0.8-0.14l-0.4-0.07
		c-0.83-0.14-1.67-0.29-2.52-0.42l-1.87-0.28c-0.64-0.1-1.28-0.19-1.94-0.29c-0.33-0.05-0.67-0.09-1-0.13l-1.01-0.13
		c-0.63-0.08-1.26-0.17-1.9-0.24c-0.4-0.05-0.8-0.09-1.2-0.13l-0.91-0.1c-0.62-0.07-1.24-0.14-1.88-0.21
		c-0.41-0.04-0.82-0.08-1.23-0.12l-1.3-0.12c-0.51-0.05-1.03-0.1-1.55-0.14c-0.48-0.04-0.96-0.08-1.44-0.11l-1.19-0.09
		c-0.5-0.04-1.01-0.08-1.52-0.11c-0.52-0.04-1.04-0.07-1.57-0.09l-1.27-0.07c-0.46-0.03-0.93-0.06-1.38-0.08
		c-0.6-0.03-1.2-0.05-1.81-0.08l-1.28-0.05c-0.4-0.02-0.81-0.04-1.21-0.05c-0.73-0.03-1.47-0.04-2.21-0.06l-1.22-0.03
		c-0.31-0.01-0.62-0.02-0.93-0.02c-2.92-0.05-5.92-0.05-8.82,0c-0.31,0-0.63,0.01-0.94,0.02l-1.22,0.03
		c-0.74,0.02-1.48,0.03-2.2,0.06c-0.41,0.01-0.81,0.03-1.22,0.05l-1.28,0.05c-0.6,0.02-1.21,0.05-1.8,0.08
		c-0.43,0.02-0.86,0.05-1.29,0.07l-1.37,0.08c-0.52,0.03-1.05,0.06-1.58,0.09c-0.46,0.03-0.92,0.07-1.38,0.1l-1.32,0.1
		c-0.48,0.04-0.96,0.07-1.44,0.11c-0.52,0.04-1.03,0.09-1.55,0.14l-1.3,0.12c-0.41,0.04-0.82,0.08-1.24,0.12
		c-0.56,0.06-1.11,0.12-1.67,0.18l-1.24,0.14c-0.36,0.04-0.72,0.08-1.08,0.12c-0.64,0.08-1.26,0.16-1.89,0.24l-1.01,0.13
		c-0.34,0.04-0.67,0.09-1.01,0.13c-0.73,0.1-1.45,0.21-2.17,0.32l-0.7,0.1c-0.31,0.05-0.62,0.09-0.94,0.14
		c-0.78,0.12-1.54,0.25-2.3,0.38l-0.69,0.12c-0.25,0.04-0.49,0.08-0.73,0.13c-0.87,0.16-1.72,0.32-2.58,0.48l-1.03,0.2
		c-0.89,0.18-1.76,0.36-2.63,0.55l-0.88,0.19c-0.91,0.2-1.79,0.41-2.67,0.62l-0.73,0.17c-0.91,0.22-1.81,0.46-2.69,0.69l-0.59,0.15
		c-0.92,0.25-1.82,0.5-2.69,0.76l-0.48,0.14c-0.92,0.27-1.81,0.55-2.68,0.83l-0.36,0.11c-0.91,0.3-1.8,0.6-2.74,0.94l-0.17,0.06
		c-0.9,0.32-1.78,0.66-2.66,1c-0.02,0.01-0.11,0.04-0.13,0.05c-0.88,0.35-1.74,0.71-2.53,1.05c-0.03,0.01-0.09,0.04-0.12,0.05
		c-0.84,0.37-1.65,0.74-2.44,1.11c-0.03,0.01-0.06,0.03-0.09,0.04c-0.23,0.11-0.46,0.23-0.68,0.34
		c-8.41,4.16-12.85,8.61-15.07,12.62c0,0,0,0.01,0,0.01c-0.11,0.2-0.22,0.4-0.32,0.6c0,0.01-0.01,0.02-0.01,0.03
		c-0.1,0.19-0.19,0.38-0.28,0.57c-0.01,0.01-0.01,0.03-0.02,0.04c-0.08,0.18-0.16,0.37-0.24,0.55c-0.01,0.02-0.02,0.04-0.03,0.06
		c-0.07,0.17-0.14,0.35-0.2,0.52c-0.01,0.03-0.02,0.06-0.03,0.09c-0.06,0.16-0.12,0.33-0.17,0.49c-0.01,0.03-0.02,0.07-0.03,0.1
		c-0.05,0.15-0.1,0.31-0.14,0.46c-0.01,0.04-0.02,0.08-0.03,0.12c-0.04,0.15-0.08,0.29-0.11,0.43c-0.01,0.05-0.02,0.09-0.03,0.14
		c-0.03,0.14-0.06,0.27-0.09,0.4c-0.01,0.05-0.02,0.11-0.03,0.16c-0.02,0.12-0.05,0.25-0.07,0.37c-0.01,0.06-0.02,0.12-0.03,0.18
		c-0.02,0.11-0.03,0.22-0.05,0.34c-0.01,0.07-0.02,0.13-0.02,0.2c0,0.04-0.01,0.07-0.01,0.11c-0.07,0.33-0.11,0.67-0.11,1.02v0.49
		c0,0.45,0.03,0.9,0.07,1.35v47.83c0,1.22,0.44,2.39,1.25,3.31c0.34,0.39,4.4,4.9,11.98,9.88c-8.44,4.99-11.75,10.22-12.83,14.49
		c0,0.01-0.01,0.03-0.01,0.04c-0.08,0.31-0.14,0.61-0.2,0.91c-0.01,0.03-0.01,0.06-0.02,0.09c-0.05,0.29-0.09,0.57-0.13,0.85
		c0,0.03-0.01,0.06-0.01,0.09c0,0.02,0,0.04-0.01,0.05c-0.07,0.33-0.11,0.67-0.11,1.03v0.49c0,0.45,0.03,0.9,0.07,1.35v48.06
		c0,0.87,0.23,1.73,0.66,2.48c0.39,0.68,3.26,5.31,12.13,10.74c-6.89,4.17-10.24,8.49-11.75,12.27c-0.01,0.01-0.01,0.02-0.01,0.04
		c-0.13,0.33-0.25,0.66-0.35,0.99c0,0.01,0,0.01-0.01,0.02c-0.21,0.65-0.36,1.29-0.48,1.9c0,0.01,0,0.02-0.01,0.03
		c-0.05,0.29-0.09,0.57-0.12,0.85c0,0.04-0.01,0.07-0.01,0.11c0,0.02,0,0.04-0.01,0.05c-0.07,0.33-0.11,0.67-0.11,1.02v0.49v49.16
		c0,1.09,0.36,2.15,1.02,3.02c7.41,9.78,28.79,26.18,88.62,26.18c60.41,0,81.47-16.28,88.65-25.99c0.64-0.86,0.98-1.9,0.98-2.97
		v-49.39c0-0.27-0.02-0.53-0.04-0.75C381.55,358.61,378.26,350.97,364.09,344.16z M371.87,412.23
		c-6.07,7.09-24.89,20.71-79.63,20.71c-54.25,0-73.37-13.79-79.63-20.97v-31.44c0.01,0.01,0.02,0.02,0.04,0.02
		c0.51,0.36,1.03,0.71,1.58,1.06c0.11,0.07,0.22,0.14,0.34,0.22c0.55,0.34,1.11,0.69,1.69,1.02c0.08,0.05,0.17,0.09,0.25,0.14
		c0.55,0.32,1.13,0.63,1.71,0.94c0.09,0.05,0.17,0.09,0.26,0.14c0.63,0.33,1.28,0.65,1.94,0.97c0.13,0.06,0.27,0.13,0.4,0.19
		c0.68,0.32,1.38,0.64,2.1,0.95c0.05,0.02,0.1,0.04,0.16,0.07c0.69,0.3,1.41,0.59,2.14,0.88c0.12,0.05,0.25,0.1,0.37,0.15
		c0.75,0.3,1.52,0.59,2.3,0.87c0.15,0.06,0.31,0.11,0.46,0.16c0.81,0.29,1.64,0.58,2.49,0.86c16.48,5.46,38.29,8.47,61.42,8.47
		s44.94-3.01,61.42-8.47c0.85-0.28,1.68-0.57,2.49-0.86c0.15-0.05,0.31-0.11,0.46-0.16c0.79-0.29,1.55-0.58,2.3-0.87
		c0.13-0.05,0.25-0.1,0.37-0.15c0.73-0.29,1.44-0.59,2.14-0.88c0.05-0.02,0.1-0.04,0.16-0.07c0.72-0.31,1.41-0.63,2.1-0.95
		c0.13-0.06,0.27-0.13,0.4-0.19c0.66-0.32,1.31-0.64,1.94-0.97c0.09-0.05,0.17-0.09,0.26-0.14c0.59-0.31,1.16-0.62,1.71-0.94
		c0.08-0.05,0.17-0.09,0.25-0.14c0.58-0.34,1.14-0.68,1.69-1.02c0.11-0.07,0.23-0.14,0.34-0.22c0.54-0.35,1.07-0.7,1.58-1.06
		c0.01-0.01,0.02-0.02,0.04-0.02V412.23z"/>
	<linearGradient id="SVGID_6_" gradientUnits="userSpaceOnUse" x1="235.0925" y1="172.6277" x2="237.4661" y2="601.4628">
		<stop  offset="0" style="stop-color:#03E5FF"/>
		<stop  offset="1" style="stop-color:#5D33E9"/>
	</linearGradient>
	<path class="st5" d="M231.36,240.79c-1.23,1.12-2,2.72-2,4.51c0,3.37,2.74,6.1,6.1,6.1c3.01,0,5.51-2.19,6.01-5.06
		c0.1-0.43,0.15-0.87,0.15-1.33c0-3.31-2.69-6-6-6C233.96,239.01,232.45,239.69,231.36,240.79z"/>
</g>
</svg>
