<?xml version="1.0" encoding="utf-8"?>
<!-- Generator: Adobe Illustrator 24.1.3, SVG Export Plug-In . SVG Version: 6.00 Build 0)  -->
<svg version="1.1" id="ebs" xmlns="http://www.w3.org/2000/svg" xmlns:xlink="http://www.w3.org/1999/xlink" x="0px" y="0px"
	 viewBox="0 0 620 620" style="enable-background:new 0 0 620 620;" xml:space="preserve">
<style type="text/css">
	.st0{fill:url(#SVGID_1_);}
	.st1{fill:url(#SVGID_2_);}
	.st2{fill:url(#SVGID_3_);}
	.st3{fill:url(#SVGID_4_);}
	.st4{fill:url(#SVGID_5_);}
	.st5{fill:url(#SVGID_6_);}
</style>
<g>
	<g>
		<linearGradient id="SVGID_1_" gradientUnits="userSpaceOnUse" x1="320.8049" y1="-400.3158" x2="297.0686" y2="1204.2556">
			<stop  offset="0" style="stop-color:#DBFF00"/>
			<stop  offset="0.992" style="stop-color:#519900"/>
		</linearGradient>
		<path class="st0" d="M436.28,564.52H184.33c-71.14,0-129.02-57.88-129.02-129.02V183.54c0-71.14,57.88-129.02,129.02-129.02
			h251.96c71.14,0,129.02,57.88,129.02,129.02V435.5C565.3,506.64,507.43,564.52,436.28,564.52z M184.33,64.52
			c-65.63,0-119.02,53.39-119.02,119.02V435.5c0,65.63,53.39,119.02,119.02,119.02h251.96c65.63,0,119.02-53.39,119.02-119.02
			V183.54c0-65.63-53.39-119.02-119.02-119.02H184.33z"/>
	</g>
	<g>
		<linearGradient id="SVGID_2_" gradientUnits="userSpaceOnUse" x1="309.8044" y1="-32.8222" x2="309.8044" y2="771.0475">
			<stop  offset="0" style="stop-color:#DBFF00"/>
			<stop  offset="0.992" style="stop-color:#519900"/>
		</linearGradient>
		<path class="st1" d="M381.48,243.24c-0.01-0.04-0.01-0.08-0.02-0.12c-0.1-0.45-0.22-0.89-0.35-1.33
			c-0.05-0.16-0.09-0.32-0.15-0.48c-0.1-0.29-0.21-0.57-0.33-0.85c-0.14-0.33-0.28-0.67-0.44-1c-0.04-0.09-0.09-0.18-0.14-0.26
			c-7.6-15.06-39.26-22.9-70.25-22.9s-62.65,7.84-70.25,22.9c-0.05,0.09-0.09,0.18-0.14,0.26c-0.16,0.33-0.3,0.66-0.44,1
			c-0.12,0.28-0.23,0.56-0.33,0.85c-0.05,0.16-0.1,0.32-0.15,0.48c-0.14,0.44-0.26,0.88-0.35,1.33c-0.01,0.04-0.01,0.08-0.02,0.12
			c-0.11,0.55-0.2,1.11-0.25,1.67c-0.05,0.29-0.08,0.58-0.08,0.88v117.16c0,0.62,0.12,1.21,0.33,1.75
			c3.76,17.63,38.56,26.85,71.67,26.85c33.07,0,67.82-9.19,71.66-26.78c0.22-0.57,0.34-1.18,0.34-1.83V245.79
			c0-0.3-0.03-0.59-0.08-0.88C381.68,244.35,381.59,243.79,381.48,243.24z M247.83,246.02c0.38-8.23,24.15-19.71,61.98-19.71
			s61.59,11.48,61.98,19.71c0,0.09,0.01,0.17,0.02,0.26c-0.09,8.31-23.66,19.87-62,19.87c-38.34,0-61.9-11.55-62-19.87
			C247.82,246.2,247.82,246.11,247.83,246.02z M371.76,362.26c-1.1,7.89-23.79,19.3-61.95,19.3s-60.85-11.41-61.95-19.3
			c-0.01-0.09-0.03-0.18-0.05-0.27V262c13.38,9.27,38.2,14.15,62,14.15s48.62-4.88,62-14.15v99.99
			C371.79,362.08,371.77,362.17,371.76,362.26z"/>
		<linearGradient id="SVGID_3_" gradientUnits="userSpaceOnUse" x1="198.2038" y1="-32.8222" x2="198.2038" y2="771.0475">
			<stop  offset="0" style="stop-color:#DBFF00"/>
			<stop  offset="0.992" style="stop-color:#519900"/>
		</linearGradient>
		<path class="st2" d="M190.88,176.62h17.93c2.76,0,5-2.24,5-5s-2.24-5-5-5h-31c-2.76,0-5,2.24-5,5v31c0,2.76,2.24,5,5,5s5-2.24,5-5
			v-19.93l32.26,32.26c0.98,0.98,2.26,1.46,3.54,1.46s2.56-0.49,3.54-1.46c1.95-1.95,1.95-5.12,0-7.07L190.88,176.62z"/>
		<linearGradient id="SVGID_4_" gradientUnits="userSpaceOnUse" x1="422.4049" y1="-32.8222" x2="422.4049" y2="771.0475">
			<stop  offset="0" style="stop-color:#DBFF00"/>
			<stop  offset="0.992" style="stop-color:#519900"/>
		</linearGradient>
		<path class="st3" d="M442.8,166.62h-31c-2.76,0-5,2.24-5,5s2.24,5,5,5h17.93l-31.26,31.26c-1.95,1.95-1.95,5.12,0,7.07
			c0.98,0.98,2.26,1.46,3.54,1.46s2.56-0.49,3.54-1.46l32.26-32.26v19.93c0,2.76,2.24,5,5,5s5-2.24,5-5v-31
			C447.8,168.86,445.57,166.62,442.8,166.62z"/>
		<linearGradient id="SVGID_5_" gradientUnits="userSpaceOnUse" x1="198.2038" y1="-32.8222" x2="198.2038" y2="771.0475">
			<stop  offset="0" style="stop-color:#DBFF00"/>
			<stop  offset="0.992" style="stop-color:#519900"/>
		</linearGradient>
		<path class="st4" d="M215.07,404.09l-32.26,32.26v-19.93c0-2.76-2.24-5-5-5s-5,2.24-5,5v31c0,2.76,2.24,5,5,5h31
			c2.76,0,5-2.24,5-5s-2.24-5-5-5h-17.93l31.26-31.26c1.95-1.95,1.95-5.12,0-7.07C220.19,402.13,217.02,402.13,215.07,404.09z"/>
		<linearGradient id="SVGID_6_" gradientUnits="userSpaceOnUse" x1="422.4049" y1="-32.8222" x2="422.4049" y2="771.0475">
			<stop  offset="0" style="stop-color:#DBFF00"/>
			<stop  offset="0.992" style="stop-color:#519900"/>
		</linearGradient>
		<path class="st5" d="M442.8,411.42c-2.76,0-5,2.24-5,5v19.93l-32.26-32.26c-1.95-1.95-5.12-1.95-7.07,0
			c-1.95,1.95-1.95,5.12,0,7.07l31.26,31.26H411.8c-2.76,0-5,2.24-5,5s2.24,5,5,5h31c2.76,0,5-2.24,5-5v-31
			C447.8,413.66,445.57,411.42,442.8,411.42z"/>
	</g>
</g>
</svg>
