<?xml version="1.0" encoding="utf-8"?>
<!-- Generator: Adobe Illustrator 24.1.3, SVG Export Plug-In . SVG Version: 6.00 Build 0)  -->
<svg version="1.1" id="ec2-rounded" xmlns="http://www.w3.org/2000/svg" xmlns:xlink="http://www.w3.org/1999/xlink" x="0px"
	 y="0px" viewBox="0 0 620 620" style="enable-background:new 0 0 620 620;" xml:space="preserve">
<style type="text/css">
	.st0{fill:none;stroke:url(#SVGID_1_);stroke-width:10;stroke-miterlimit:10;}
	.st1{fill:url(#SVGID_2_);}
	.st2{fill:url(#SVGID_3_);}
	.st3{fill:url(#SVGID_4_);}
</style>
<linearGradient id="SVGID_1_" gradientUnits="userSpaceOnUse" x1="318.3902" y1="50.7734" x2="302.2185" y2="568.2701">
	<stop  offset="0" style="stop-color:#FFC14D"/>
	<stop  offset="1" style="stop-color:#FF576A"/>
</linearGradient>
<path class="st0" d="M436.28,559.52H184.33C115.83,559.52,60.3,504,60.3,435.5V183.54c0-68.5,55.53-124.02,124.02-124.02h251.96
	c68.5,0,124.02,55.53,124.02,124.02V435.5C560.3,504,504.78,559.52,436.28,559.52z"/>
<g>
	<linearGradient id="SVGID_2_" gradientUnits="userSpaceOnUse" x1="282.9548" y1="-241.8047" x2="335.1745" y2="819.2063">
		<stop  offset="0" style="stop-color:#FFC14D"/>
		<stop  offset="1" style="stop-color:#FF576A"/>
	</linearGradient>
	<path class="st1" d="M407.8,272.68c2.76,0,5-2.24,5-5s-2.24-5-5-5h-12.61l-0.01-6.53c-0.02-17.38-14.16-31.5-31.53-31.5
		c-0.01,0-0.02,0-0.03,0l-6.66,0.01v-11.83c0-2.76-2.24-5-5-5s-5,2.24-5,5v11.84l-10.93,0.01v-11.85c0-2.76-2.24-5-5-5s-5,2.24-5,5
		v11.86l-10.93,0.01v-11.87c0-2.76-2.24-5-5-5s-5,2.24-5,5v11.88l-10.93,0.01v-11.89c0-2.76-2.24-5-5-5s-5,2.24-5,5v11.9
		l-10.93,0.01v-11.92c0-2.76-2.24-5-5-5s-5,2.24-5,5v11.93l-6.21,0.01c-8.42,0.01-16.34,3.3-22.29,9.26
		c-5.95,5.96-9.22,13.88-9.21,22.31l0.01,6.35h-13.14c-2.76,0-5,2.24-5,5s2.24,5,5,5h13.15l0.01,10.93h-13.16c-2.76,0-5,2.24-5,5
		s2.24,5,5,5h13.17l0.01,10.93h-13.19c-2.76,0-5,2.24-5,5s2.24,5,5,5h13.2l0.01,10.93h-13.21c-2.76,0-5,2.24-5,5s2.24,5,5,5h13.22
		l0.01,10.93h-13.23c-2.76,0-5,2.24-5,5s2.24,5,5,5h13.24l0.01,6.53c0.01,8.42,3.3,16.34,9.26,22.29
		c5.95,5.94,13.86,9.21,22.27,9.21c0.01,0,0.02,0,0.03,0l6.11-0.01l0.01,13.82c0,2.76,2.24,5,5,5c0,0,0,0,0,0c2.76,0,5-2.24,5-5
		l-0.01-13.82l10.93-0.01l0.01,13.82c0,2.76,2.24,5,5,5c0,0,0,0,0,0c2.76,0,5-2.24,5-5l-0.01-13.82l10.93-0.01l0.01,13.82
		c0,2.76,2.24,5,5,5c0,0,0,0,0,0c2.76,0,5-2.24,5-5l-0.01-13.82l10.93-0.01l0.01,13.82c0,2.76,2.24,5,5,5c0,0,0,0,0,0
		c2.76,0,5-2.24,5-5l-0.01-13.82l10.93-0.01l0.01,13.82c0,2.76,2.24,5,5,5c0,0,0,0,0,0c2.76,0,5-2.24,5-5l-0.01-13.82l6.76-0.01
		c17.39-0.02,31.52-14.18,31.5-31.57l-0.01-6.35h12.51c2.76,0,5-2.24,5-5s-2.24-5-5-5h-12.52l-0.01-10.93h12.53c2.76,0,5-2.24,5-5
		s-2.24-5-5-5h-12.54l-0.01-10.93h12.56c2.76,0,5-2.24,5-5s-2.24-5-5-5h-12.57l-0.01-10.93h12.58c2.76,0,5-2.24,5-5s-2.24-5-5-5
		h-12.59l-0.01-10.93H407.8z M363.79,384.33l-106.61,0.11c-0.01,0-0.02,0-0.02,0c-5.74,0-11.14-2.23-15.21-6.29
		c-4.07-4.06-6.32-9.47-6.32-15.22l-0.11-106.61c-0.01-5.75,2.23-11.16,6.29-15.23c4.06-4.07,9.47-6.32,15.22-6.32l54.26-0.06
		l19.53-0.02c0.07,0,0.14,0.02,0.21,0.02c0.07,0,0.14-0.02,0.22-0.02l20.29-0.02c0.14,0.01,0.28,0.04,0.43,0.04
		c0.15,0,0.29-0.03,0.44-0.04l11.24-0.01c0.01,0,0.02,0,0.02,0c11.86,0,21.52,9.64,21.53,21.51l0.06,53.87l0.06,52.74
		C385.31,374.64,375.66,384.31,363.79,384.33z"/>
	<linearGradient id="SVGID_3_" gradientUnits="userSpaceOnUse" x1="378.6714" y1="-246.5156" x2="430.8912" y2="814.4954">
		<stop  offset="0" style="stop-color:#FFC14D"/>
		<stop  offset="1" style="stop-color:#FF576A"/>
	</linearGradient>
	<path class="st2" d="M445.75,150.02h-91.88c-15.47,0-28.06,12.59-28.06,28.06v10.27h10v-10.27c0-9.96,8.1-18.06,18.06-18.06h91.88
		c9.96,0,18.06,8.1,18.06,18.06v91.88c0,9.96-8.1,18.06-18.06,18.06H430.5v10h15.24c15.47,0,28.06-12.59,28.06-28.06v-91.88
		C473.8,162.61,461.22,150.02,445.75,150.02z"/>
	<linearGradient id="SVGID_4_" gradientUnits="userSpaceOnUse" x1="187.6669" y1="-237.1149" x2="239.8867" y2="823.8961">
		<stop  offset="0" style="stop-color:#FFC14D"/>
		<stop  offset="1" style="stop-color:#FF576A"/>
	</linearGradient>
	<path class="st3" d="M284.8,440.96c0,9.96-8.1,18.06-18.06,18.06h-91.88c-9.96,0-18.06-8.1-18.06-18.06v-91.88
		c0-9.96,8.1-18.06,18.06-18.06h15.24v-10h-15.24c-15.47,0-28.06,12.59-28.06,28.06v91.88c0,15.47,12.59,28.06,28.06,28.06h91.88
		c15.47,0,28.06-12.59,28.06-28.06v-10.27h-10V440.96z"/>
</g>
</svg>
