<?xml version="1.0" encoding="utf-8"?>
<!-- Generator: Adobe Illustrator 24.1.3, SVG Export Plug-In . SVG Version: 6.00 Build 0)  -->
<svg version="1.1" id="elastic-load-balancing" xmlns="http://www.w3.org/2000/svg" xmlns:xlink="http://www.w3.org/1999/xlink"
	 x="0px" y="0px" viewBox="0 0 620 620" style="enable-background:new 0 0 620 620;" xml:space="preserve">
<style type="text/css">
	.st0{fill:url(#SVGID_1_);}
	.st1{fill:url(#SVGID_2_);}
</style>
<g>
	<g>
		<linearGradient id="SVGID_1_" gradientUnits="userSpaceOnUse" x1="299.6167" y1="-369.1414" x2="328.1003" y2="1439.5619">
			<stop  offset="0" style="stop-color:#AE3AFF"/>
			<stop  offset="1" style="stop-color:#6B09E9"/>
		</linearGradient>
		<path class="st0" d="M436.28,564.52H184.33c-71.14,0-129.02-57.88-129.02-129.02V183.54c0-71.14,57.88-129.02,129.02-129.02
			h251.96c71.14,0,129.02,57.88,129.02,129.02V435.5C565.3,506.64,507.43,564.52,436.28,564.52z M184.33,64.52
			c-65.63,0-119.02,53.39-119.02,119.02V435.5c0,65.63,53.39,119.02,119.02,119.02h251.96c65.63,0,119.02-53.39,119.02-119.02
			V183.54c0-65.63-53.39-119.02-119.02-119.02H184.33z"/>
	</g>
</g>
<linearGradient id="SVGID_2_" gradientUnits="userSpaceOnUse" x1="288.0281" y1="194.376" x2="470.0061" y2="1159.6508">
	<stop  offset="0" style="stop-color:#AE3AFF"/>
	<stop  offset="1" style="stop-color:#6B09E9"/>
</linearGradient>
<path class="st1" d="M342.18,314.44l65.07,0.07c1.03,6.58,4.09,12.64,8.88,17.44c5.98,6,13.95,9.31,22.42,9.32c0.01,0,0.03,0,0.04,0
	c8.46,0,16.42-3.29,22.4-9.27c6-5.99,9.31-13.95,9.32-22.42c0.02-17.49-14.2-31.74-31.69-31.76c-0.01,0-0.02,0-0.04,0
	c-8.46,0-16.42,3.29-22.41,9.27c-4.8,4.79-7.87,10.85-8.92,17.42l-65.09-0.07c-0.89-17.11-6.28-33.05-15.01-46.65l63.02-43.66
	c5.59,9.01,15.57,15.04,26.94,15.05c0.01,0,0.02,0,0.04,0c8.46,0,16.42-3.29,22.41-9.27c6-5.99,9.31-13.95,9.32-22.42
	s-3.28-16.44-9.27-22.44c-5.98-6-13.95-9.31-22.42-9.32c-0.01,0-0.03,0-0.04,0c-8.46,0-16.42,3.29-22.4,9.27
	c-6,5.99-9.31,13.95-9.32,22.42c0,2.5,0.29,4.92,0.84,7.26l-64.94,44.99c-17.61-22.03-44.69-36.18-75.02-36.18
	c-52.93,0-96,43.07-96,96s43.07,96,96,96c22.62,0,43.44-7.87,59.86-21.01l79.16,40.16c1.54,16.05,15.09,28.66,31.54,28.68
	c0.01,0,0.02,0,0.04,0c17.48,0,31.7-14.21,31.72-31.69c0.01-8.47-3.28-16.44-9.27-22.44c-5.98-6-13.95-9.31-22.42-9.32
	c-0.01,0-0.03,0-0.04,0c-8.46,0-16.42,3.29-22.4,9.27c-4.13,4.12-6.99,9.18-8.37,14.7l-71.96-36.51
	C330.45,361.03,340.93,338.93,342.18,314.44z M396.24,203.3c-0.52-1.87-0.81-3.84-0.81-5.87c0.01-5.8,2.27-11.26,6.38-15.35
	c4.1-4.09,9.55-6.34,15.34-6.34c0.01,0,0.02,0,0.03,0c5.8,0.01,11.26,2.27,15.35,6.38c4.1,4.11,6.35,9.57,6.35,15.37
	c-0.01,5.8-2.27,11.26-6.38,15.35c-4.1,4.09-9.55,6.35-15.34,6.35c-0.01,0-0.02,0-0.03,0c-8.74-0.01-16.28-5.21-19.72-12.67
	 M416.95,307.69c0.43-5.11,2.62-9.86,6.29-13.52c4.1-4.09,9.55-6.35,15.34-6.35c0.01,0,0.02,0,0.03,0
	c11.98,0.01,21.71,9.77,21.7,21.75c-0.01,5.8-2.27,11.26-6.38,15.35c-4.1,4.09-9.55,6.34-15.34,6.34c-0.01,0-0.02,0-0.03,0
	c-5.8-0.01-11.26-2.27-15.35-6.38c-3.66-3.67-5.84-8.42-6.26-13.53 M300.95,375.84c-14.87,12.27-33.91,19.64-54.65,19.64
	c-47.42,0-86-38.58-86-86s38.58-86,86-86s86,38.58,86,86c0,25.57-11.23,48.55-28.99,64.31 M401.56,406.21
	c4.1-4.09,9.55-6.34,15.34-6.34c0.01,0,0.02,0,0.03,0c5.8,0.01,11.26,2.27,15.35,6.38c4.1,4.11,6.35,9.57,6.35,15.37
	c-0.01,11.97-9.76,21.7-21.72,21.7c-0.01,0-0.02,0-0.02,0c-11.98-0.01-21.71-9.77-21.7-21.75
	C395.18,415.76,397.45,410.31,401.56,406.21z"/>
</svg>
