<?xml version="1.0" encoding="utf-8"?>
<!-- Generator: Adobe Illustrator 24.1.3, SVG Export Plug-In . SVG Version: 6.00 Build 0)  -->
<svg version="1.1" id="internet-gateway" xmlns="http://www.w3.org/2000/svg" xmlns:xlink="http://www.w3.org/1999/xlink" x="0px"
	 y="0px" viewBox="0 0 620 620" style="enable-background:new 0 0 620 620;" xml:space="preserve">
<style type="text/css">
	.st0{fill:url(#SVGID_1_);}
	.st1{fill:url(#SVGID_2_);}
	.st2{fill:url(#SVGID_3_);}
</style>
<g>
	<g>
		<linearGradient id="SVGID_1_" gradientUnits="userSpaceOnUse" x1="299.6167" y1="-369.1414" x2="328.1003" y2="1439.5619">
			<stop  offset="0" style="stop-color:#AE3AFF"/>
			<stop  offset="1" style="stop-color:#6B09E9"/>
		</linearGradient>
		<path class="st0" d="M436.28,564.52H184.33c-71.14,0-129.02-57.88-129.02-129.02V183.54c0-71.14,57.88-129.02,129.02-129.02
			h251.96c71.14,0,129.02,57.88,129.02,129.02V435.5C565.3,506.64,507.43,564.52,436.28,564.52z M184.33,64.52
			c-65.63,0-119.02,53.39-119.02,119.02V435.5c0,65.63,53.39,119.02,119.02,119.02h251.96c65.63,0,119.02-53.39,119.02-119.02
			V183.54c0-65.63-53.39-119.02-119.02-119.02H184.33z"/>
	</g>
</g>
<g>
	<linearGradient id="SVGID_2_" gradientUnits="userSpaceOnUse" x1="303.6299" y1="-59.2405" x2="328.9486" y2="1339.6167">
		<stop  offset="0" style="stop-color:#AE3AFF"/>
		<stop  offset="1" style="stop-color:#6B09E9"/>
	</linearGradient>
	<path class="st1" d="M310.3,127.52c-100.35,0-182,81.64-182,182s81.65,182,182,182s182-81.64,182-182S410.66,127.52,310.3,127.52z
		 M310.3,481.52c-94.84,0-172-77.16-172-172s77.16-172,172-172s172,77.16,172,172S405.15,481.52,310.3,481.52z"/>
	<linearGradient id="SVGID_3_" gradientUnits="userSpaceOnUse" x1="303.3222" y1="-59.2349" x2="328.6409" y2="1339.6222">
		<stop  offset="0" style="stop-color:#AE3AFF"/>
		<stop  offset="1" style="stop-color:#6B09E9"/>
	</linearGradient>
	<path class="st2" d="M360.97,219.56c-15.11-4.6-32.63-7.03-50.67-7.03s-35.55,2.43-50.67,7.03c-27.67,8.43-44.19,23.26-44.19,39.69
		v134.68c0,6.95,5.65,12.6,12.6,12.6h25.45c6.95,0,12.6-5.65,12.6-12.6V272.46c0-1.18,0.8-2.21,1.94-2.52
		c14.1-3.78,28.32-5.7,42.27-5.7c14.8,0,29.4,1.75,42.25,5.06c1.16,0.3,1.96,1.34,1.96,2.53v122.1c0,6.95,5.65,12.6,12.6,12.6h25.45
		c6.95,0,12.6-5.65,12.6-12.6V259.24C405.16,242.82,388.64,227.98,360.97,219.56z M395.16,393.92c0,1.43-1.17,2.6-2.6,2.6h-25.45
		c-1.43,0-2.6-1.17-2.6-2.6v-122.1c0-5.75-3.89-10.77-9.47-12.21c-13.64-3.51-29.12-5.37-44.74-5.37c-14.82,0-29.92,2.03-44.86,6.04
		c-5.5,1.48-9.35,6.48-9.35,12.18v121.46c0,1.43-1.17,2.6-2.6,2.6h-25.45c-1.43,0-2.6-1.17-2.6-2.6V259.24
		c0-11.61,14.22-23.15,37.11-30.12c14.18-4.32,30.69-6.6,47.75-6.6s33.57,2.28,47.75,6.6c22.89,6.97,37.11,18.51,37.11,30.12V393.92
		z"/>
</g>
</svg>
