<?xml version="1.0" encoding="utf-8"?>
<!-- Generator: Adobe Illustrator 24.1.3, SVG Export Plug-In . SVG Version: 6.00 Build 0)  -->
<svg version="1.1" id="rds-on-vmware" xmlns="http://www.w3.org/2000/svg" xmlns:xlink="http://www.w3.org/1999/xlink" x="0px"
	 y="0px" viewBox="0 0 620 620" style="enable-background:new 0 0 620 620;" xml:space="preserve">
<style type="text/css">
	.st0{fill:url(#SVGID_1_);}
	.st1{fill:url(#SVGID_2_);}
	.st2{fill:url(#SVGID_3_);}
	.st3{fill:url(#SVGID_4_);}
	.st4{fill:url(#SVGID_5_);}
	.st5{fill:url(#SVGID_6_);}
	.st6{fill:url(#SVGID_7_);}
	.st7{fill:url(#SVGID_8_);}
	.st8{fill:url(#SVGID_9_);}
	.st9{fill:url(#SVGID_10_);}
	.st10{fill:url(#SVGID_11_);}
</style>
<g>
	<linearGradient id="SVGID_1_" gradientUnits="userSpaceOnUse" x1="312.9803" y1="-412.9842" x2="308.233" y2="868.774">
		<stop  offset="0" style="stop-color:#03E5FF"/>
		<stop  offset="1" style="stop-color:#5D33E9"/>
	</linearGradient>
	<path class="st0" d="M436.28,564.52H184.33c-71.14,0-129.02-57.88-129.02-129.02V183.54c0-71.14,57.88-129.02,129.02-129.02h251.96
		c71.14,0,129.02,57.88,129.02,129.02V435.5C565.3,506.64,507.43,564.52,436.28,564.52z M184.33,64.52
		c-65.63,0-119.02,53.39-119.02,119.02V435.5c0,65.63,53.39,119.02,119.02,119.02h251.96c65.63,0,119.02-53.39,119.02-119.02V183.54
		c0-65.63-53.39-119.02-119.02-119.02H184.33z"/>
	<g>
		<linearGradient id="SVGID_2_" gradientUnits="userSpaceOnUse" x1="262.1069" y1="-21.4091" x2="385.5355" y2="834.6788">
			<stop  offset="0" style="stop-color:#03E5FF"/>
			<stop  offset="1" style="stop-color:#5D33E9"/>
		</linearGradient>
		<path class="st1" d="M378.28,347.82c0.22-0.57,0.34-1.18,0.34-1.83v-36.14v-36.72v-44.3c0-0.3-0.03-0.59-0.08-0.88
			c-0.05-0.56-0.13-1.1-0.24-1.64c-0.01-0.05-0.02-0.09-0.03-0.14c-0.09-0.44-0.21-0.87-0.35-1.3c-0.05-0.17-0.1-0.34-0.16-0.51
			c-0.1-0.28-0.21-0.55-0.32-0.82c-0.14-0.35-0.29-0.69-0.45-1.03c-0.04-0.08-0.08-0.15-0.12-0.23
			c-7.58-15.07-39.26-22.92-70.26-22.92c-30.99,0-62.66,7.84-70.25,22.9c-0.04,0.09-0.09,0.17-0.13,0.26c-0.16,0.33-0.3,0.67-0.44,1
			c-0.12,0.28-0.23,0.56-0.33,0.84c-0.06,0.16-0.1,0.33-0.15,0.49c-0.14,0.44-0.26,0.87-0.35,1.32c-0.01,0.04-0.01,0.08-0.02,0.12
			c-0.11,0.55-0.2,1.1-0.25,1.67c-0.05,0.29-0.08,0.58-0.08,0.88v44.09v36.72v36.35c0,0.62,0.12,1.21,0.33,1.75
			c3.76,17.63,38.56,26.85,71.67,26.85C339.69,374.6,374.44,365.4,378.28,347.82z M368.13,308.86c-0.07,0.09-0.16,0.18-0.24,0.27
			c-0.11,0.12-0.21,0.25-0.33,0.37c-0.09,0.1-0.18,0.2-0.27,0.29c-0.12,0.13-0.23,0.25-0.36,0.38c-0.1,0.1-0.2,0.2-0.31,0.31
			c-0.13,0.13-0.26,0.26-0.4,0.39c-0.11,0.11-0.23,0.21-0.34,0.32c-0.14,0.13-0.29,0.27-0.44,0.4c-0.12,0.11-0.25,0.22-0.38,0.33
			c-0.16,0.13-0.32,0.27-0.48,0.41c-0.14,0.11-0.28,0.23-0.42,0.34c-0.17,0.14-0.35,0.27-0.52,0.41c-0.15,0.12-0.3,0.23-0.46,0.35
			c-0.19,0.14-0.38,0.28-0.58,0.42c-0.16,0.12-0.33,0.23-0.5,0.35c-0.21,0.14-0.42,0.28-0.63,0.42c-0.18,0.12-0.35,0.23-0.54,0.35
			c-0.22,0.14-0.46,0.28-0.69,0.43c-0.19,0.11-0.38,0.23-0.57,0.34c-0.25,0.15-0.5,0.29-0.76,0.43c-0.2,0.11-0.4,0.22-0.6,0.33
			c-0.27,0.15-0.56,0.3-0.84,0.44c-0.21,0.11-0.41,0.22-0.63,0.32c-0.31,0.15-0.63,0.31-0.95,0.46c-0.21,0.1-0.41,0.2-0.62,0.3
			c-0.37,0.17-0.76,0.34-1.15,0.51c-0.18,0.08-0.35,0.16-0.54,0.23c-1.16,0.49-2.4,0.97-3.73,1.44c-0.2,0.07-0.42,0.14-0.63,0.21
			c-0.46,0.16-0.93,0.32-1.41,0.47c-0.27,0.09-0.55,0.17-0.83,0.25c-0.44,0.14-0.88,0.27-1.34,0.4c-0.31,0.09-0.64,0.18-0.96,0.26
			c-0.44,0.12-0.88,0.24-1.34,0.36c-0.34,0.09-0.7,0.17-1.05,0.26c-0.46,0.11-0.92,0.23-1.39,0.33c-0.37,0.08-0.75,0.17-1.13,0.25
			c-0.48,0.1-0.95,0.21-1.44,0.31c-0.39,0.08-0.79,0.16-1.2,0.24c-0.5,0.1-1,0.19-1.52,0.28c-0.42,0.07-0.84,0.15-1.26,0.22
			c-0.52,0.09-1.06,0.17-1.6,0.26c-0.44,0.07-0.88,0.13-1.33,0.2c-0.55,0.08-1.11,0.15-1.68,0.23c-0.46,0.06-0.92,0.12-1.39,0.18
			c-0.58,0.07-1.18,0.14-1.78,0.2c-0.48,0.05-0.96,0.1-1.45,0.15c-0.62,0.06-1.25,0.11-1.88,0.17c-0.5,0.04-0.99,0.09-1.5,0.13
			c-0.66,0.05-1.34,0.09-2.02,0.14c-0.5,0.03-1,0.07-1.51,0.1c-0.73,0.04-1.48,0.07-2.22,0.11c-0.49,0.02-0.98,0.05-1.48,0.07
			c-0.84,0.03-1.7,0.05-2.56,0.07c-0.44,0.01-0.86,0.03-1.31,0.03c-1.32,0.02-2.66,0.04-4.04,0.04c-1.36,0-2.7-0.01-4-0.04
			c-0.43-0.01-0.85-0.02-1.27-0.03c-0.86-0.02-1.73-0.04-2.56-0.07c-0.5-0.02-0.98-0.05-1.47-0.07c-0.74-0.03-1.48-0.07-2.2-0.11
			c-0.51-0.03-1.01-0.07-1.51-0.1c-0.67-0.04-1.35-0.09-2.01-0.14c-0.5-0.04-0.99-0.08-1.49-0.13c-0.63-0.06-1.26-0.11-1.87-0.17
			c-0.49-0.05-0.96-0.1-1.44-0.15c-0.6-0.07-1.19-0.13-1.77-0.2c-0.47-0.06-0.92-0.12-1.38-0.18c-0.57-0.08-1.13-0.15-1.68-0.23
			c-0.45-0.06-0.89-0.13-1.32-0.2c-0.54-0.08-1.07-0.17-1.59-0.26c-0.42-0.07-0.84-0.14-1.25-0.22c-0.52-0.09-1.02-0.19-1.52-0.29
			c-0.4-0.08-0.79-0.16-1.18-0.24c-0.49-0.1-0.98-0.21-1.46-0.31c-0.37-0.08-0.75-0.17-1.11-0.25c-0.48-0.11-0.94-0.23-1.4-0.34
			c-0.34-0.09-0.69-0.17-1.03-0.26c-0.46-0.12-0.91-0.25-1.36-0.37c-0.31-0.09-0.63-0.17-0.94-0.26c-0.46-0.13-0.9-0.27-1.35-0.41
			c-0.27-0.08-0.55-0.17-0.82-0.25c-0.49-0.16-0.96-0.32-1.43-0.48c-0.2-0.07-0.42-0.14-0.62-0.21c-1.33-0.47-2.57-0.96-3.74-1.46
			c-0.18-0.08-0.35-0.15-0.52-0.23c-0.4-0.17-0.79-0.35-1.17-0.52c-0.21-0.1-0.41-0.19-0.61-0.29c-0.33-0.16-0.66-0.31-0.97-0.47
			c-0.21-0.11-0.41-0.21-0.62-0.32c-0.29-0.15-0.58-0.3-0.86-0.46c-0.2-0.11-0.4-0.22-0.59-0.33c-0.26-0.15-0.53-0.3-0.78-0.45
			c-0.19-0.11-0.38-0.23-0.56-0.34c-0.24-0.15-0.48-0.29-0.71-0.44c-0.18-0.11-0.36-0.23-0.53-0.35c-0.22-0.15-0.44-0.29-0.65-0.44
			c-0.17-0.12-0.33-0.23-0.5-0.35c-0.2-0.14-0.4-0.29-0.6-0.43c-0.15-0.11-0.31-0.23-0.45-0.34c-0.19-0.14-0.37-0.29-0.55-0.43
			c-0.14-0.11-0.28-0.22-0.41-0.33c-0.17-0.14-0.34-0.28-0.5-0.42c-0.13-0.11-0.26-0.22-0.38-0.33c-0.16-0.14-0.31-0.28-0.46-0.42
			c-0.11-0.1-0.23-0.21-0.34-0.31c-0.15-0.14-0.29-0.28-0.43-0.42c-0.1-0.1-0.2-0.2-0.29-0.29c-0.14-0.14-0.27-0.28-0.4-0.42
			c-0.08-0.09-0.17-0.18-0.25-0.27c-0.14-0.15-0.26-0.29-0.39-0.44c-0.06-0.07-0.13-0.15-0.19-0.22c-0.16-0.19-0.32-0.38-0.46-0.57
			c-0.01-0.02-0.03-0.04-0.05-0.06v-23.13c0.07,0.05,0.14,0.1,0.2,0.14c0.12,0.08,0.24,0.17,0.36,0.25
			c0.33,0.23,0.66,0.46,1.01,0.69c0.11,0.07,0.21,0.14,0.32,0.21c0.43,0.28,0.88,0.57,1.34,0.85c0.12,0.07,0.24,0.15,0.36,0.22
			c0.37,0.23,0.76,0.45,1.15,0.67c0.14,0.08,0.28,0.16,0.42,0.24c0.5,0.28,1.01,0.56,1.54,0.83c0.1,0.05,0.2,0.1,0.3,0.15
			c0.45,0.23,0.92,0.46,1.39,0.69c0.17,0.08,0.33,0.16,0.5,0.24c0.55,0.26,1.11,0.52,1.69,0.77c0.04,0.02,0.07,0.03,0.11,0.05
			c0.6,0.26,1.23,0.52,1.86,0.78c0.19,0.07,0.37,0.15,0.56,0.22c0.54,0.21,1.09,0.42,1.65,0.63c0.13,0.05,0.26,0.1,0.4,0.15
			c0.68,0.24,1.37,0.48,2.08,0.72c0.19,0.06,0.39,0.13,0.58,0.19c0.58,0.19,1.17,0.37,1.76,0.55c0.19,0.06,0.38,0.12,0.58,0.18
			c0.76,0.22,1.53,0.44,2.32,0.65c0.18,0.05,0.36,0.09,0.53,0.14c0.66,0.17,1.33,0.34,2.01,0.5c0.23,0.06,0.46,0.11,0.7,0.17
			c0.85,0.2,1.71,0.39,2.59,0.58c0.1,0.02,0.2,0.04,0.3,0.06c0.8,0.17,1.63,0.32,2.46,0.48c0.26,0.05,0.52,0.1,0.79,0.14
			c0.84,0.15,1.69,0.29,2.57,0.43c0.12,0.02,0.23,0.04,0.35,0.06c0.98,0.15,1.98,0.29,2.99,0.43c0.27,0.04,0.55,0.07,0.83,0.11
			c0.85,0.11,1.71,0.21,2.59,0.31c0.23,0.02,0.45,0.05,0.68,0.08c1.07,0.11,2.16,0.22,3.27,0.31c0.26,0.02,0.53,0.04,0.79,0.06
			c0.92,0.07,1.85,0.14,2.79,0.2c0.3,0.02,0.59,0.04,0.89,0.06c1.17,0.07,2.36,0.13,3.58,0.18c0.2,0.01,0.4,0.01,0.6,0.02
			c1.05,0.04,2.12,0.07,3.21,0.1c0.34,0.01,0.69,0.02,1.04,0.02c1.29,0.02,2.59,0.04,3.93,0.04c1.35,0,2.67-0.02,3.97-0.04
			c0.35-0.01,0.69-0.01,1.03-0.02c1.12-0.02,2.22-0.06,3.3-0.1c0.18-0.01,0.36-0.01,0.54-0.02c1.23-0.05,2.43-0.11,3.61-0.18
			c0.31-0.02,0.61-0.04,0.91-0.06c0.96-0.06,1.91-0.13,2.84-0.2c0.25-0.02,0.5-0.04,0.74-0.06c1.12-0.09,2.21-0.2,3.29-0.31
			c0.25-0.03,0.49-0.05,0.74-0.08c0.87-0.09,1.73-0.19,2.57-0.3c0.27-0.03,0.53-0.07,0.8-0.1c1.02-0.13,2.02-0.27,3-0.42
			c0.18-0.03,0.35-0.06,0.52-0.08c0.83-0.13,1.64-0.26,2.44-0.4c0.26-0.05,0.52-0.09,0.78-0.14c0.93-0.17,1.84-0.34,2.73-0.52
			c0.06-0.01,0.13-0.03,0.19-0.04c0.83-0.17,1.65-0.35,2.45-0.54c0.24-0.06,0.48-0.11,0.72-0.17c0.74-0.18,1.46-0.36,2.17-0.54
			c0.11-0.03,0.23-0.06,0.34-0.09c0.8-0.21,1.57-0.43,2.34-0.65c0.21-0.06,0.42-0.12,0.63-0.19c0.62-0.18,1.23-0.37,1.82-0.56
			c0.16-0.05,0.32-0.1,0.47-0.15c0.71-0.23,1.41-0.47,2.09-0.72c0.17-0.06,0.34-0.12,0.51-0.19c0.54-0.2,1.08-0.4,1.6-0.61
			c0.16-0.06,0.33-0.13,0.49-0.19c0.64-0.25,1.26-0.51,1.86-0.77c0.12-0.05,0.24-0.11,0.36-0.16c0.5-0.22,0.99-0.44,1.47-0.67
			c0.15-0.07,0.31-0.14,0.46-0.22c0.57-0.27,1.12-0.54,1.66-0.82c0.05-0.03,0.1-0.05,0.14-0.08c0.5-0.26,0.97-0.52,1.44-0.78
			c0.14-0.08,0.27-0.15,0.4-0.23c0.47-0.27,0.93-0.53,1.37-0.8c0.03-0.02,0.07-0.04,0.1-0.06c0.48-0.29,0.93-0.58,1.38-0.87
			c0.11-0.07,0.22-0.14,0.32-0.21c0.38-0.25,0.76-0.51,1.12-0.76c0.06-0.04,0.12-0.08,0.18-0.13c0.03-0.02,0.07-0.05,0.1-0.07v23.13
			c-0.05,0.07-0.11,0.14-0.17,0.21C368.35,308.59,368.25,308.72,368.13,308.86z M244.65,229.06c0.38-8.23,24.14-19.71,61.98-19.71
			c37.83,0,61.59,11.48,61.98,19.71c0,0.09,0.01,0.17,0.02,0.26c-0.09,8.31-23.66,19.87-62,19.87c-38.34,0-61.9-11.55-62-19.87
			C244.63,229.23,244.64,229.15,244.65,229.06z M306.62,259.19c23.8,0,48.62-4.88,62-14.15v26.49c0,0,0,0,0,0
			c-0.02,0.02-0.03,0.04-0.05,0.06c-0.14,0.18-0.29,0.36-0.45,0.55c-0.06,0.07-0.13,0.14-0.19,0.22c-0.12,0.14-0.24,0.28-0.37,0.43
			c-0.08,0.09-0.16,0.17-0.24,0.26c-0.13,0.14-0.25,0.27-0.39,0.41c-0.09,0.09-0.19,0.19-0.28,0.28c-0.14,0.14-0.28,0.28-0.42,0.42
			c-0.1,0.1-0.21,0.2-0.32,0.3c-0.15,0.14-0.3,0.28-0.46,0.42c-0.12,0.1-0.24,0.21-0.36,0.32c-0.16,0.14-0.33,0.28-0.5,0.42
			c-0.13,0.11-0.27,0.22-0.41,0.33c-0.18,0.14-0.36,0.28-0.54,0.42c-0.15,0.11-0.29,0.22-0.44,0.33c-0.19,0.14-0.39,0.29-0.59,0.43
			c-0.16,0.11-0.32,0.22-0.48,0.33c-0.21,0.15-0.43,0.29-0.65,0.44c-0.17,0.11-0.34,0.22-0.52,0.33c-0.23,0.15-0.47,0.29-0.71,0.44
			c-0.18,0.11-0.37,0.22-0.56,0.33c-0.25,0.15-0.51,0.3-0.78,0.44c-0.19,0.11-0.39,0.22-0.59,0.33c-0.28,0.15-0.57,0.3-0.87,0.45
			c-0.2,0.1-0.4,0.21-0.6,0.31c-0.32,0.16-0.65,0.32-0.98,0.47c-0.2,0.09-0.39,0.19-0.59,0.28c-0.38,0.18-0.78,0.35-1.18,0.52
			c-0.17,0.07-0.33,0.15-0.5,0.22c-1.17,0.49-2.41,0.97-3.73,1.44c-0.2,0.07-0.41,0.14-0.61,0.2c-0.47,0.16-0.94,0.32-1.43,0.48
			c-0.26,0.08-0.54,0.17-0.81,0.25c-0.45,0.14-0.89,0.27-1.35,0.41c-0.31,0.09-0.63,0.17-0.94,0.26c-0.45,0.12-0.9,0.25-1.36,0.37
			c-0.34,0.09-0.69,0.17-1.03,0.26c-0.46,0.11-0.92,0.23-1.4,0.34c-0.36,0.08-0.74,0.17-1.11,0.25c-0.48,0.11-0.96,0.21-1.46,0.31
			c-0.39,0.08-0.79,0.16-1.19,0.23c-0.5,0.1-1.01,0.19-1.53,0.28c-0.41,0.07-0.83,0.15-1.26,0.22c-0.53,0.09-1.06,0.17-1.6,0.26
			c-0.44,0.07-0.88,0.13-1.33,0.2c-0.55,0.08-1.12,0.15-1.68,0.23c-0.46,0.06-0.92,0.12-1.39,0.18c-0.58,0.07-1.18,0.14-1.78,0.2
			c-0.48,0.05-0.96,0.1-1.45,0.15c-0.62,0.06-1.25,0.12-1.88,0.17c-0.5,0.04-0.99,0.09-1.5,0.13c-0.66,0.05-1.35,0.09-2.03,0.14
			c-0.5,0.03-1,0.07-1.51,0.1c-0.73,0.04-1.48,0.07-2.22,0.11c-0.49,0.02-0.98,0.05-1.48,0.07c-0.84,0.03-1.7,0.05-2.56,0.07
			c-0.44,0.01-0.86,0.03-1.31,0.03c-1.32,0.02-2.66,0.04-4.04,0.04c-1.36,0-2.7-0.01-4-0.04c-0.43-0.01-0.85-0.02-1.27-0.03
			c-0.86-0.02-1.73-0.04-2.56-0.07c-0.5-0.02-0.98-0.05-1.47-0.07c-0.74-0.03-1.48-0.07-2.2-0.11c-0.51-0.03-1.01-0.07-1.51-0.1
			c-0.67-0.04-1.35-0.09-2-0.14c-0.51-0.04-1-0.08-1.49-0.13c-0.63-0.05-1.25-0.11-1.86-0.17c-0.49-0.05-0.97-0.1-1.46-0.16
			c-0.59-0.06-1.18-0.13-1.75-0.2c-0.47-0.06-0.94-0.12-1.4-0.18c-0.56-0.07-1.11-0.15-1.65-0.23c-0.45-0.07-0.9-0.13-1.35-0.2
			c-0.53-0.08-1.05-0.17-1.57-0.26c-0.43-0.07-0.86-0.15-1.28-0.22c-0.5-0.09-1-0.19-1.49-0.28c-0.41-0.08-0.82-0.16-1.21-0.24
			c-0.48-0.1-0.95-0.2-1.42-0.31c-0.38-0.09-0.77-0.17-1.14-0.26c-0.46-0.11-0.91-0.22-1.36-0.33c-0.36-0.09-0.72-0.18-1.06-0.27
			c-0.45-0.12-0.88-0.24-1.31-0.36c-0.33-0.09-0.67-0.18-0.99-0.28c-0.44-0.13-0.85-0.26-1.28-0.39c-0.3-0.09-0.6-0.18-0.89-0.28
			c-0.45-0.15-0.88-0.29-1.31-0.44c-0.24-0.08-0.49-0.17-0.73-0.25c-0.61-0.22-1.21-0.44-1.79-0.67c-0.08-0.03-0.17-0.06-0.25-0.1
			c-0.58-0.23-1.14-0.45-1.68-0.68c-0.22-0.09-0.42-0.19-0.63-0.28c-0.36-0.16-0.72-0.32-1.07-0.48c-0.23-0.11-0.45-0.22-0.67-0.32
			c-0.31-0.15-0.61-0.29-0.91-0.44c-0.23-0.11-0.44-0.23-0.66-0.34c-0.28-0.14-0.55-0.29-0.82-0.43c-0.22-0.12-0.42-0.23-0.63-0.35
			c-0.25-0.14-0.5-0.28-0.75-0.43c-0.2-0.12-0.4-0.24-0.59-0.36c-0.23-0.14-0.46-0.28-0.68-0.42c-0.19-0.12-0.37-0.24-0.55-0.36
			c-0.21-0.14-0.42-0.28-0.63-0.42c-0.17-0.12-0.35-0.24-0.51-0.36c-0.2-0.14-0.39-0.28-0.58-0.42c-0.16-0.12-0.32-0.24-0.47-0.35
			c-0.18-0.14-0.36-0.28-0.53-0.41c-0.15-0.12-0.29-0.23-0.43-0.35c-0.17-0.14-0.33-0.27-0.49-0.41c-0.13-0.11-0.26-0.23-0.39-0.34
			c-0.15-0.14-0.3-0.27-0.45-0.41c-0.12-0.11-0.24-0.22-0.35-0.32c-0.14-0.14-0.28-0.27-0.41-0.4c-0.1-0.1-0.21-0.2-0.31-0.31
			c-0.13-0.14-0.26-0.27-0.39-0.41c-0.09-0.09-0.18-0.19-0.26-0.28c-0.13-0.14-0.25-0.28-0.37-0.42c-0.07-0.08-0.14-0.16-0.2-0.23
			c-0.17-0.2-0.33-0.4-0.48-0.59c-0.01-0.01-0.02-0.02-0.03-0.03v-26.25C258,254.3,282.82,259.19,306.62,259.19z M368.62,345.03
			c-0.02,0.09-0.03,0.18-0.05,0.27c-1.1,7.89-23.79,19.3-61.95,19.3s-60.85-11.41-61.95-19.3c-0.01-0.09-0.03-0.18-0.05-0.27v-23.43
			c0.07,0.05,0.14,0.09,0.2,0.14c0.12,0.09,0.24,0.17,0.37,0.26c0.33,0.23,0.66,0.46,1.01,0.69c0.11,0.07,0.21,0.14,0.31,0.21
			c0.44,0.29,0.89,0.57,1.35,0.85c0.11,0.07,0.23,0.14,0.35,0.21c0.38,0.23,0.78,0.46,1.18,0.69c0.13,0.07,0.26,0.15,0.4,0.22
			c0.51,0.28,1.03,0.56,1.56,0.84c0.08,0.04,0.17,0.09,0.25,0.13c0.47,0.24,0.95,0.48,1.45,0.72c0.15,0.07,0.31,0.15,0.46,0.22
			c0.58,0.27,1.17,0.55,1.79,0.81c0,0,0.01,0,0.01,0c0.62,0.27,1.26,0.53,1.91,0.8c0.17,0.07,0.33,0.13,0.5,0.2
			c0.57,0.22,1.15,0.44,1.74,0.66c0.11,0.04,0.21,0.08,0.32,0.12c0.69,0.25,1.4,0.49,2.13,0.74c0.17,0.06,0.34,0.11,0.51,0.16
			c0.61,0.2,1.23,0.39,1.86,0.58c0.17,0.05,0.33,0.1,0.5,0.15c0.77,0.23,1.56,0.45,2.37,0.67c0.15,0.04,0.3,0.08,0.44,0.11
			c0.69,0.18,1.39,0.36,2.11,0.53c0.21,0.05,0.43,0.1,0.64,0.15c0.86,0.2,1.74,0.4,2.64,0.59c0.07,0.01,0.13,0.03,0.2,0.04
			c0.84,0.17,1.7,0.34,2.57,0.5c0.24,0.04,0.49,0.09,0.73,0.13c0.87,0.15,1.75,0.3,2.65,0.44c0.09,0.01,0.18,0.03,0.28,0.05
			c0.99,0.15,2,0.29,3.02,0.43c0.26,0.03,0.53,0.07,0.79,0.1c0.86,0.11,1.74,0.21,2.64,0.31c0.21,0.02,0.42,0.05,0.64,0.07
			c1.07,0.11,2.17,0.22,3.29,0.31c0.26,0.02,0.52,0.04,0.77,0.06c0.92,0.07,1.86,0.14,2.82,0.2c0.29,0.02,0.58,0.04,0.87,0.06
			c1.18,0.07,2.37,0.13,3.59,0.18c0.2,0.01,0.4,0.01,0.6,0.02c1.05,0.04,2.13,0.07,3.22,0.1c0.34,0.01,0.69,0.02,1.04,0.02
			c1.29,0.02,2.59,0.04,3.93,0.04c1.35,0,2.67-0.02,3.97-0.04c0.35-0.01,0.69-0.01,1.03-0.02c1.12-0.02,2.22-0.06,3.3-0.1
			c0.18-0.01,0.36-0.01,0.54-0.02c1.23-0.05,2.43-0.11,3.61-0.18c0.31-0.02,0.61-0.04,0.91-0.06c0.96-0.06,1.91-0.13,2.85-0.2
			c0.25-0.02,0.5-0.04,0.74-0.06c1.12-0.09,2.21-0.2,3.29-0.31c0.25-0.03,0.49-0.05,0.74-0.08c0.87-0.09,1.73-0.19,2.58-0.3
			c0.27-0.03,0.53-0.07,0.8-0.1c1.02-0.13,2.02-0.27,2.99-0.42c0.18-0.03,0.35-0.06,0.53-0.08c0.82-0.13,1.63-0.26,2.42-0.4
			c0.26-0.05,0.53-0.09,0.79-0.14c0.93-0.17,1.84-0.34,2.73-0.52c0.07-0.01,0.13-0.03,0.19-0.04c0.83-0.17,1.65-0.35,2.44-0.54
			c0.24-0.06,0.48-0.11,0.72-0.17c0.73-0.17,1.45-0.35,2.16-0.54c0.12-0.03,0.24-0.06,0.36-0.09c0.79-0.21,1.57-0.43,2.32-0.65
			c0.22-0.06,0.43-0.13,0.64-0.19c0.61-0.18,1.21-0.37,1.79-0.56c0.16-0.05,0.33-0.1,0.49-0.16c0.71-0.23,1.4-0.47,2.07-0.71
			c0.18-0.06,0.36-0.13,0.54-0.2c0.53-0.19,1.05-0.39,1.56-0.59c0.18-0.07,0.35-0.14,0.53-0.21c0.63-0.25,1.24-0.5,1.84-0.76
			c0.14-0.06,0.27-0.12,0.4-0.18c0.48-0.21,0.96-0.43,1.42-0.64c0.17-0.08,0.34-0.16,0.5-0.24c0.56-0.27,1.1-0.53,1.63-0.81
			c0.07-0.04,0.15-0.08,0.22-0.12c0.46-0.24,0.92-0.49,1.36-0.73c0.15-0.08,0.3-0.17,0.45-0.25c0.44-0.25,0.86-0.5,1.28-0.75
			c0.06-0.04,0.13-0.07,0.19-0.11c0.46-0.28,0.91-0.56,1.34-0.85c0.13-0.08,0.26-0.17,0.38-0.25c0.35-0.23,0.69-0.46,1.02-0.7
			c0.09-0.06,0.18-0.12,0.27-0.19c0.03-0.02,0.05-0.04,0.08-0.06V345.03z"/>
		<linearGradient id="SVGID_3_" gradientUnits="userSpaceOnUse" x1="379.0098" y1="-38.2639" x2="502.4384" y2="817.824">
			<stop  offset="0" style="stop-color:#03E5FF"/>
			<stop  offset="1" style="stop-color:#5D33E9"/>
		</linearGradient>
		<path class="st2" d="M403.62,339.66c-2.76,0-5,2.24-5,5s2.24,5,5,5c31.98,0,58-26.02,58-58s-26.02-58-58-58c-2.76,0-5,2.24-5,5
			s2.24,5,5,5c26.47,0,48,21.53,48,48S430.09,339.66,403.62,339.66z"/>
		<linearGradient id="SVGID_4_" gradientUnits="userSpaceOnUse" x1="144.9641" y1="-4.5197" x2="268.3927" y2="851.5682">
			<stop  offset="0" style="stop-color:#03E5FF"/>
			<stop  offset="1" style="stop-color:#5D33E9"/>
		</linearGradient>
		<path class="st3" d="M210.62,243.66c2.76,0,5-2.24,5-5s-2.24-5-5-5c-31.98,0-58,26.02-58,58s26.02,58,58,58c2.76,0,5-2.24,5-5
			s-2.24-5-5-5c-26.47,0-48-21.53-48-48S184.15,243.66,210.62,243.66z"/>
		<linearGradient id="SVGID_5_" gradientUnits="userSpaceOnUse" x1="166.5193" y1="-7.6275" x2="289.9478" y2="848.4604">
			<stop  offset="0" style="stop-color:#03E5FF"/>
			<stop  offset="1" style="stop-color:#5D33E9"/>
		</linearGradient>
		<path class="st4" d="M187.69,159.66h17.93c2.76,0,5-2.24,5-5s-2.24-5-5-5h-31c-2.76,0-5,2.24-5,5v31c0,2.76,2.24,5,5,5s5-2.24,5-5
			v-19.93l32.26,32.26c0.98,0.98,2.26,1.46,3.54,1.46s2.56-0.49,3.54-1.46c1.95-1.95,1.95-5.12,0-7.07L187.69,159.66z"/>
		<linearGradient id="SVGID_6_" gradientUnits="userSpaceOnUse" x1="388.3443" y1="-39.6097" x2="511.7729" y2="816.4782">
			<stop  offset="0" style="stop-color:#03E5FF"/>
			<stop  offset="1" style="stop-color:#5D33E9"/>
		</linearGradient>
		<path class="st5" d="M398.82,199.46c1.28,0,2.56-0.49,3.54-1.46l32.26-32.26v19.93c0,2.76,2.24,5,5,5s5-2.24,5-5v-31
			c0-2.76-2.24-5-5-5h-31c-2.76,0-5,2.24-5,5s2.24,5,5,5h17.93l-31.26,31.26c-1.95,1.95-1.95,5.12,0,7.07
			C396.26,198.97,397.54,199.46,398.82,199.46z"/>
		<linearGradient id="SVGID_7_" gradientUnits="userSpaceOnUse" x1="135.3755" y1="-3.1373" x2="258.8041" y2="852.9506">
			<stop  offset="0" style="stop-color:#03E5FF"/>
			<stop  offset="1" style="stop-color:#5D33E9"/>
		</linearGradient>
		<path class="st6" d="M211.89,387.12l-32.26,32.26v-19.93c0-2.76-2.24-5-5-5s-5,2.24-5,5v31c0,2.76,2.24,5,5,5h31
			c2.76,0,5-2.24,5-5s-2.24-5-5-5h-17.93l31.26-31.26c1.95-1.95,1.95-5.12,0-7.07C217,385.17,213.84,385.17,211.89,387.12z"/>
		<linearGradient id="SVGID_8_" gradientUnits="userSpaceOnUse" x1="333.17" y1="-31.6548" x2="456.5985" y2="824.4331">
			<stop  offset="0" style="stop-color:#03E5FF"/>
			<stop  offset="1" style="stop-color:#5D33E9"/>
		</linearGradient>
		<path class="st7" d="M466.27,380.61h-62.95c-6.34,0-11.49,5.16-11.49,11.49v16.5l-25.33-24.85c-2.77-2.72-7.28-2.72-10.05,0
			l-30.74,30.16c-2.92,2.86-4.59,6.85-4.59,10.93v40.44c0,5.56,4.53,10.09,10.09,10.09h135.48c6.23,0,11.3-5.07,11.3-11.3v-71.75
			C477.99,385.87,472.73,380.61,466.27,380.61z M467.99,464.08c0,0.72-0.58,1.3-1.3,1.3H331.2c-0.05,0-0.09-0.04-0.09-0.09v-40.44
			c0-1.42,0.58-2.8,1.59-3.79l28.77-28.23l31.86,31.26c1.44,1.41,3.58,1.82,5.44,1.04c1.86-0.78,3.06-2.6,3.06-4.61v-28.41
			c0-0.82,0.67-1.49,1.49-1.49h62.95c0.95,0,1.72,0.77,1.72,1.72V464.08z"/>
		<linearGradient id="SVGID_9_" gradientUnits="userSpaceOnUse" x1="353.6897" y1="-34.6133" x2="477.1183" y2="821.4747">
			<stop  offset="0" style="stop-color:#03E5FF"/>
			<stop  offset="1" style="stop-color:#5D33E9"/>
		</linearGradient>
		<path class="st8" d="M418.22,403.95c-2.76,0-5,2.24-5,5v8c0,2.76,2.24,5,5,5s5-2.24,5-5v-8
			C423.22,406.19,420.98,403.95,418.22,403.95z"/>
		<linearGradient id="SVGID_10_" gradientUnits="userSpaceOnUse" x1="370.3435" y1="-37.0144" x2="493.7721" y2="819.0735">
			<stop  offset="0" style="stop-color:#03E5FF"/>
			<stop  offset="1" style="stop-color:#5D33E9"/>
		</linearGradient>
		<path class="st9" d="M435.22,403.95c-2.76,0-5,2.24-5,5v8c0,2.76,2.24,5,5,5s5-2.24,5-5v-8
			C440.22,406.19,437.98,403.95,435.22,403.95z"/>
		<linearGradient id="SVGID_11_" gradientUnits="userSpaceOnUse" x1="386.9973" y1="-39.4155" x2="510.4259" y2="816.6724">
			<stop  offset="0" style="stop-color:#03E5FF"/>
			<stop  offset="1" style="stop-color:#5D33E9"/>
		</linearGradient>
		<path class="st10" d="M452.22,403.95c-2.76,0-5,2.24-5,5v8c0,2.76,2.24,5,5,5s5-2.24,5-5v-8
			C457.22,406.19,454.98,403.95,452.22,403.95z"/>
	</g>
</g>
</svg>
