<?xml version="1.0" encoding="utf-8"?>
<!-- Generator: Adobe Illustrator 24.1.3, SVG Export Plug-In . SVG Version: 6.00 Build 0)  -->
<svg version="1.1" id="rds" xmlns="http://www.w3.org/2000/svg" xmlns:xlink="http://www.w3.org/1999/xlink" x="0px" y="0px"
	 viewBox="0 0 620 620" style="enable-background:new 0 0 620 620;" xml:space="preserve">
<style type="text/css">
	.st0{fill:url(#SVGID_1_);}
	.st1{fill:url(#SVGID_2_);}
	.st2{fill:url(#SVGID_3_);}
	.st3{fill:url(#SVGID_4_);}
	.st4{fill:url(#SVGID_5_);}
	.st5{fill:url(#SVGID_6_);}
	.st6{fill:url(#SVGID_7_);}
	.st7{fill:url(#SVGID_8_);}
</style>
<g>
	<linearGradient id="SVGID_1_" gradientUnits="userSpaceOnUse" x1="312.9803" y1="-412.9842" x2="308.233" y2="868.774">
		<stop  offset="0" style="stop-color:#03E5FF"/>
		<stop  offset="1" style="stop-color:#5D33E9"/>
	</linearGradient>
	<path class="st0" d="M436.28,564.52H184.33c-71.14,0-129.02-57.88-129.02-129.02V183.54c0-71.14,57.88-129.02,129.02-129.02h251.96
		c71.14,0,129.02,57.88,129.02,129.02V435.5C565.3,506.64,507.43,564.52,436.28,564.52z M184.33,64.52
		c-65.63,0-119.02,53.39-119.02,119.02V435.5c0,65.63,53.39,119.02,119.02,119.02h251.96c65.63,0,119.02-53.39,119.02-119.02V183.54
		c0-65.63-53.39-119.02-119.02-119.02H184.33z"/>
</g>
<g>
	<linearGradient id="SVGID_2_" gradientUnits="userSpaceOnUse" x1="365.1396" y1="53.1118" x2="232.2165" y2="656.0129">
		<stop  offset="0" style="stop-color:#03E5FF"/>
		<stop  offset="1" style="stop-color:#5D33E9"/>
	</linearGradient>
	<path class="st1" d="M381.48,243.26c-0.01-0.04-0.02-0.09-0.02-0.13c-0.09-0.44-0.21-0.88-0.35-1.31c-0.05-0.17-0.1-0.34-0.16-0.5
		c-0.1-0.28-0.21-0.56-0.32-0.83c-0.14-0.34-0.28-0.68-0.45-1.02c-0.04-0.08-0.08-0.16-0.13-0.24
		c-7.58-15.07-39.26-22.91-70.26-22.91c-31,0-62.67,7.85-70.26,22.91c-0.04,0.08-0.08,0.16-0.12,0.24
		c-0.16,0.34-0.31,0.68-0.45,1.02c-0.11,0.27-0.22,0.55-0.32,0.82c-0.06,0.17-0.11,0.34-0.16,0.51c-0.13,0.43-0.25,0.86-0.35,1.3
		c-0.01,0.05-0.02,0.1-0.03,0.14c-0.11,0.54-0.19,1.08-0.24,1.63c0,0,0,0,0,0c-0.05,0.29-0.08,0.59-0.08,0.89v44.09v36.72v36.35
		c0,0.62,0.12,1.21,0.33,1.75c3.75,17.64,38.55,26.85,71.67,26.85c33.07,0,67.82-9.19,71.66-26.78c0.22-0.57,0.34-1.18,0.34-1.83
		v-36.14v-36.72v-44.3c0-0.3-0.03-0.59-0.08-0.88C381.68,244.36,381.59,243.81,381.48,243.26z M371.31,325.82
		c-0.07,0.09-0.16,0.18-0.24,0.27c-0.11,0.12-0.21,0.25-0.33,0.37c-0.09,0.1-0.18,0.2-0.27,0.29c-0.12,0.13-0.23,0.25-0.36,0.38
		c-0.1,0.1-0.2,0.2-0.31,0.31c-0.13,0.13-0.26,0.26-0.4,0.39c-0.11,0.11-0.23,0.21-0.34,0.32c-0.14,0.13-0.29,0.27-0.44,0.4
		c-0.12,0.11-0.25,0.22-0.38,0.33c-0.16,0.13-0.32,0.27-0.48,0.41c-0.14,0.11-0.28,0.23-0.42,0.34c-0.17,0.14-0.35,0.27-0.52,0.41
		c-0.15,0.12-0.3,0.23-0.46,0.35c-0.19,0.14-0.38,0.28-0.58,0.42c-0.16,0.12-0.33,0.23-0.5,0.35c-0.21,0.14-0.42,0.28-0.63,0.42
		c-0.18,0.12-0.35,0.23-0.54,0.35c-0.22,0.14-0.46,0.28-0.69,0.43c-0.19,0.11-0.38,0.23-0.57,0.34c-0.25,0.15-0.5,0.29-0.76,0.43
		c-0.2,0.11-0.4,0.22-0.6,0.34c-0.27,0.15-0.56,0.3-0.84,0.44c-0.21,0.11-0.41,0.22-0.63,0.32c-0.31,0.15-0.63,0.31-0.95,0.46
		c-0.21,0.1-0.41,0.2-0.62,0.3c-0.37,0.17-0.76,0.34-1.15,0.51c-0.18,0.08-0.35,0.16-0.54,0.23c-1.16,0.49-2.4,0.97-3.73,1.44
		c-0.2,0.07-0.42,0.14-0.63,0.21c-0.46,0.16-0.93,0.32-1.41,0.47c-0.27,0.09-0.55,0.17-0.83,0.25c-0.44,0.14-0.88,0.27-1.34,0.4
		c-0.31,0.09-0.64,0.18-0.96,0.26c-0.44,0.12-0.88,0.24-1.34,0.36c-0.34,0.09-0.7,0.17-1.05,0.26c-0.46,0.11-0.92,0.22-1.39,0.33
		c-0.37,0.09-0.75,0.17-1.13,0.25c-0.48,0.1-0.95,0.21-1.44,0.31c-0.39,0.08-0.79,0.16-1.2,0.24c-0.5,0.1-1,0.19-1.52,0.28
		c-0.42,0.07-0.84,0.15-1.26,0.22c-0.52,0.09-1.06,0.17-1.6,0.26c-0.44,0.07-0.88,0.13-1.33,0.2c-0.55,0.08-1.11,0.15-1.68,0.23
		c-0.46,0.06-0.92,0.12-1.39,0.18c-0.58,0.07-1.18,0.14-1.78,0.2c-0.48,0.05-0.96,0.1-1.45,0.15c-0.62,0.06-1.25,0.12-1.88,0.17
		c-0.5,0.04-0.99,0.09-1.5,0.13c-0.66,0.05-1.34,0.09-2.02,0.14c-0.5,0.03-1,0.07-1.51,0.1c-0.73,0.04-1.48,0.07-2.22,0.11
		c-0.49,0.02-0.98,0.05-1.48,0.07c-0.84,0.03-1.7,0.05-2.56,0.07c-0.44,0.01-0.86,0.03-1.31,0.03c-1.32,0.02-2.66,0.04-4.04,0.04
		c-1.36,0-2.7-0.01-4-0.04c-0.43-0.01-0.85-0.02-1.27-0.03c-0.86-0.02-1.73-0.04-2.56-0.07c-0.5-0.02-0.98-0.05-1.47-0.07
		c-0.74-0.03-1.48-0.07-2.2-0.11c-0.51-0.03-1.01-0.07-1.51-0.1c-0.67-0.04-1.35-0.09-2.01-0.14c-0.51-0.04-1-0.08-1.49-0.13
		c-0.63-0.06-1.25-0.11-1.86-0.17c-0.49-0.05-0.97-0.1-1.46-0.16c-0.59-0.06-1.18-0.13-1.75-0.2c-0.47-0.06-0.94-0.12-1.4-0.18
		c-0.56-0.07-1.11-0.15-1.65-0.23c-0.45-0.07-0.9-0.13-1.34-0.2c-0.53-0.08-1.05-0.17-1.57-0.26c-0.43-0.07-0.86-0.15-1.28-0.22
		c-0.5-0.09-1-0.19-1.49-0.28c-0.41-0.08-0.82-0.16-1.21-0.24c-0.48-0.1-0.95-0.2-1.42-0.31c-0.38-0.09-0.77-0.17-1.14-0.26
		c-0.46-0.11-0.91-0.22-1.36-0.33c-0.36-0.09-0.72-0.18-1.07-0.27c-0.45-0.12-0.88-0.24-1.31-0.36c-0.33-0.09-0.67-0.18-0.99-0.28
		c-0.43-0.13-0.85-0.26-1.27-0.39c-0.3-0.09-0.61-0.18-0.9-0.28c-0.45-0.14-0.87-0.29-1.3-0.44c-0.25-0.08-0.5-0.17-0.74-0.25
		c-0.59-0.21-1.17-0.43-1.73-0.64c-0.13-0.05-0.25-0.1-0.38-0.15c-0.55-0.22-1.09-0.44-1.61-0.66c-0.22-0.09-0.43-0.19-0.65-0.29
		c-0.35-0.15-0.71-0.31-1.05-0.47c-0.24-0.11-0.46-0.22-0.69-0.33c-0.3-0.14-0.61-0.29-0.9-0.44c-0.23-0.12-0.45-0.23-0.68-0.35
		c-0.27-0.14-0.54-0.28-0.8-0.42c-0.22-0.12-0.43-0.24-0.64-0.36c-0.25-0.14-0.49-0.28-0.73-0.42c-0.21-0.12-0.41-0.25-0.61-0.37
		c-0.23-0.14-0.45-0.28-0.67-0.41c-0.19-0.12-0.38-0.25-0.57-0.37c-0.21-0.14-0.41-0.27-0.61-0.41c-0.18-0.12-0.36-0.25-0.53-0.37
		c-0.19-0.14-0.38-0.27-0.56-0.41c-0.17-0.12-0.33-0.24-0.49-0.37c-0.18-0.13-0.35-0.27-0.51-0.4c-0.15-0.12-0.3-0.24-0.45-0.36
		c-0.16-0.13-0.32-0.26-0.47-0.4c-0.14-0.12-0.27-0.23-0.4-0.35c-0.15-0.13-0.29-0.26-0.43-0.39c-0.12-0.11-0.25-0.23-0.36-0.34
		c-0.14-0.13-0.27-0.26-0.4-0.39c-0.11-0.11-0.22-0.21-0.32-0.32c-0.13-0.13-0.25-0.26-0.37-0.39c-0.09-0.1-0.19-0.2-0.27-0.29
		c-0.13-0.14-0.25-0.28-0.36-0.41c-0.07-0.08-0.14-0.16-0.21-0.24c-0.17-0.2-0.33-0.4-0.48-0.59c-0.01-0.01-0.02-0.02-0.03-0.03
		v-23.13c0.07,0.05,0.14,0.1,0.21,0.15c0.11,0.08,0.23,0.16,0.34,0.24c0.34,0.24,0.68,0.47,1.03,0.71c0.1,0.07,0.19,0.13,0.29,0.2
		c0.44,0.29,0.9,0.57,1.36,0.86c0.11,0.07,0.22,0.13,0.33,0.2c0.39,0.24,0.79,0.47,1.2,0.7c0.13,0.07,0.25,0.14,0.38,0.21
		c0.51,0.28,1.03,0.57,1.58,0.85c0.08,0.04,0.16,0.08,0.24,0.12c0.48,0.24,0.97,0.49,1.47,0.73c0.15,0.07,0.3,0.14,0.45,0.22
		c1.17,0.55,2.41,1.09,3.71,1.62c0.16,0.07,0.33,0.13,0.5,0.2c0.57,0.22,1.15,0.45,1.75,0.66c0.11,0.04,0.21,0.08,0.31,0.12
		c0.69,0.25,1.4,0.5,2.13,0.74c0.17,0.06,0.34,0.11,0.51,0.16c0.61,0.2,1.23,0.39,1.86,0.58c0.17,0.05,0.33,0.1,0.5,0.15
		c0.77,0.23,1.56,0.45,2.37,0.67c0.15,0.04,0.3,0.08,0.44,0.11c0.69,0.18,1.39,0.36,2.11,0.53c0.21,0.05,0.43,0.1,0.64,0.15
		c0.86,0.2,1.74,0.4,2.64,0.59c0.07,0.01,0.14,0.03,0.21,0.04c0.84,0.17,1.69,0.34,2.56,0.5c0.24,0.04,0.49,0.09,0.74,0.13
		c0.87,0.15,1.75,0.3,2.64,0.44c0.1,0.01,0.19,0.03,0.28,0.05c0.98,0.15,2,0.29,3.02,0.43c0.26,0.03,0.53,0.07,0.79,0.1
		c0.86,0.11,1.74,0.21,2.64,0.31c0.21,0.02,0.42,0.05,0.64,0.07c1.07,0.11,2.17,0.22,3.29,0.31c0.26,0.02,0.52,0.04,0.78,0.06
		c0.92,0.07,1.86,0.14,2.82,0.2c0.29,0.02,0.58,0.04,0.87,0.06c1.18,0.07,2.37,0.13,3.59,0.18c0.2,0.01,0.4,0.01,0.6,0.02
		c1.05,0.04,2.13,0.07,3.22,0.1c0.34,0.01,0.69,0.02,1.04,0.02c1.29,0.02,2.59,0.04,3.93,0.04c1.35,0,2.67-0.02,3.97-0.04
		c0.35-0.01,0.69-0.01,1.03-0.02c1.12-0.02,2.22-0.06,3.3-0.1c0.18-0.01,0.36-0.01,0.54-0.02c1.23-0.05,2.43-0.11,3.61-0.18
		c0.31-0.02,0.61-0.04,0.91-0.06c0.96-0.06,1.91-0.13,2.85-0.2c0.25-0.02,0.5-0.04,0.74-0.06c1.12-0.09,2.22-0.2,3.29-0.31
		c0.25-0.03,0.49-0.05,0.74-0.08c0.87-0.09,1.73-0.19,2.58-0.3c0.26-0.03,0.53-0.07,0.79-0.1c1.02-0.13,2.02-0.27,3-0.42
		c0.18-0.03,0.35-0.06,0.53-0.08c0.82-0.13,1.63-0.26,2.43-0.4c0.26-0.05,0.52-0.09,0.78-0.14c0.93-0.17,1.84-0.34,2.73-0.52
		c0.06-0.01,0.12-0.03,0.19-0.04c0.83-0.17,1.65-0.35,2.45-0.54c0.24-0.06,0.49-0.11,0.73-0.17c0.73-0.17,1.45-0.35,2.16-0.54
		c0.11-0.03,0.23-0.06,0.35-0.09c0.8-0.21,1.57-0.43,2.33-0.65c0.21-0.06,0.43-0.13,0.64-0.19c0.61-0.18,1.21-0.37,1.8-0.56
		c0.16-0.05,0.33-0.1,0.49-0.16c0.71-0.23,1.4-0.47,2.07-0.71c0.18-0.06,0.35-0.13,0.53-0.19c0.53-0.2,1.06-0.39,1.57-0.59
		c0.17-0.07,0.35-0.13,0.52-0.2c0.63-0.25,1.24-0.51,1.84-0.76c0.13-0.06,0.26-0.12,0.39-0.17c0.49-0.21,0.96-0.43,1.43-0.65
		c0.17-0.08,0.33-0.16,0.49-0.23c0.56-0.27,1.11-0.54,1.63-0.81c0.07-0.04,0.14-0.07,0.21-0.11c0.47-0.24,0.92-0.49,1.37-0.74
		c0.15-0.08,0.3-0.17,0.44-0.25c0.44-0.25,0.87-0.5,1.29-0.75c0.06-0.03,0.12-0.07,0.17-0.1c0.46-0.28,0.91-0.57,1.35-0.85
		c0.13-0.08,0.25-0.17,0.37-0.25c0.35-0.23,0.7-0.47,1.03-0.71c0.09-0.06,0.17-0.12,0.26-0.18c0.03-0.02,0.06-0.04,0.08-0.06v23.13
		c-0.05,0.07-0.11,0.14-0.17,0.21C371.53,325.55,371.43,325.68,371.31,325.82z M371.8,288.49c-0.16,0.2-0.32,0.41-0.5,0.62
		c-0.05,0.06-0.1,0.12-0.15,0.18c-0.13,0.15-0.26,0.31-0.41,0.47c-0.07,0.08-0.15,0.16-0.23,0.25c-0.13,0.14-0.26,0.28-0.4,0.43
		c-0.09,0.09-0.18,0.18-0.28,0.28c-0.14,0.14-0.28,0.28-0.43,0.42c-0.1,0.1-0.22,0.2-0.33,0.3c-0.15,0.14-0.3,0.27-0.45,0.41
		c-0.12,0.11-0.25,0.21-0.37,0.32c-0.16,0.14-0.32,0.28-0.49,0.41c-0.13,0.11-0.27,0.22-0.41,0.33c-0.17,0.14-0.35,0.28-0.53,0.42
		c-0.15,0.11-0.3,0.23-0.46,0.34c-0.19,0.14-0.38,0.28-0.58,0.42c-0.16,0.12-0.33,0.23-0.5,0.35c-0.2,0.14-0.41,0.28-0.63,0.42
		c-0.18,0.12-0.36,0.23-0.54,0.35c-0.22,0.14-0.45,0.28-0.68,0.42c-0.19,0.12-0.38,0.23-0.58,0.35c-0.24,0.14-0.5,0.28-0.75,0.43
		c-0.2,0.11-0.41,0.23-0.62,0.34c-0.27,0.14-0.55,0.29-0.82,0.43c-0.21,0.11-0.42,0.22-0.65,0.33c-0.3,0.15-0.61,0.3-0.92,0.45
		c-0.22,0.1-0.43,0.21-0.65,0.31c-0.36,0.16-0.73,0.33-1.1,0.49c-0.19,0.08-0.38,0.17-0.58,0.25c-0.58,0.24-1.18,0.49-1.8,0.73
		c-0.05,0.02-0.1,0.04-0.14,0.05c-0.58,0.22-1.17,0.44-1.78,0.65c-0.22,0.08-0.46,0.15-0.69,0.23c-0.44,0.15-0.89,0.3-1.35,0.45
		c-0.28,0.09-0.57,0.18-0.86,0.26c-0.43,0.13-0.86,0.27-1.31,0.39c-0.31,0.09-0.64,0.18-0.96,0.27c-0.44,0.12-0.88,0.24-1.34,0.36
		c-0.34,0.09-0.7,0.17-1.05,0.26c-0.46,0.11-0.91,0.22-1.38,0.33c-0.37,0.09-0.75,0.17-1.13,0.25c-0.47,0.1-0.95,0.21-1.44,0.31
		c-0.4,0.08-0.8,0.16-1.21,0.24c-0.49,0.1-1,0.19-1.5,0.28c-0.42,0.08-0.85,0.15-1.28,0.22c-0.52,0.09-1.05,0.17-1.58,0.25
		c-0.44,0.07-0.89,0.14-1.34,0.2c-0.55,0.08-1.11,0.15-1.67,0.23c-0.46,0.06-0.93,0.12-1.4,0.18c-0.58,0.07-1.17,0.13-1.77,0.2
		c-0.48,0.05-0.96,0.1-1.46,0.15c-0.61,0.06-1.24,0.11-1.88,0.17c-0.5,0.04-1,0.09-1.51,0.13c-0.66,0.05-1.33,0.09-2.01,0.14
		c-0.51,0.03-1.01,0.07-1.53,0.1c-0.72,0.04-1.47,0.07-2.21,0.11c-0.5,0.02-0.98,0.05-1.49,0.07c-0.84,0.03-1.7,0.05-2.56,0.07
		c-0.44,0.01-0.86,0.03-1.31,0.03c-1.32,0.02-2.66,0.04-4.04,0.04c-1.36,0-2.7-0.01-4-0.04c-0.43-0.01-0.85-0.02-1.27-0.03
		c-0.86-0.02-1.73-0.04-2.56-0.07c-0.5-0.02-0.98-0.05-1.47-0.07c-0.74-0.03-1.48-0.07-2.2-0.11c-0.51-0.03-1.01-0.07-1.51-0.1
		c-0.67-0.04-1.35-0.09-2.01-0.14c-0.5-0.04-0.99-0.08-1.49-0.13c-0.63-0.06-1.26-0.11-1.87-0.17c-0.49-0.05-0.97-0.1-1.45-0.15
		c-0.59-0.06-1.18-0.13-1.75-0.2c-0.47-0.06-0.94-0.12-1.4-0.18c-0.56-0.07-1.11-0.15-1.66-0.23c-0.45-0.07-0.9-0.13-1.34-0.2
		c-0.53-0.08-1.05-0.17-1.57-0.26c-0.43-0.07-0.86-0.15-1.28-0.22c-0.5-0.09-1-0.19-1.49-0.28c-0.41-0.08-0.82-0.16-1.22-0.24
		c-0.48-0.1-0.95-0.2-1.42-0.31c-0.39-0.09-0.77-0.17-1.15-0.26c-0.46-0.11-0.91-0.22-1.35-0.33c-0.36-0.09-0.72-0.18-1.08-0.27
		c-0.44-0.12-0.87-0.24-1.3-0.36c-0.33-0.09-0.67-0.18-0.99-0.28c-0.44-0.13-0.86-0.26-1.28-0.39c-0.29-0.09-0.6-0.18-0.88-0.27
		c-0.45-0.14-0.88-0.29-1.31-0.44c-0.24-0.08-0.5-0.17-0.74-0.25c-0.59-0.21-1.17-0.43-1.73-0.64c-0.12-0.05-0.25-0.1-0.37-0.14
		c-0.55-0.22-1.09-0.44-1.62-0.66c-0.22-0.09-0.42-0.19-0.64-0.28c-0.36-0.16-0.71-0.31-1.06-0.47c-0.23-0.11-0.46-0.22-0.68-0.33
		c-0.3-0.15-0.61-0.29-0.9-0.44c-0.23-0.12-0.45-0.23-0.67-0.35c-0.27-0.14-0.54-0.28-0.81-0.43c-0.22-0.12-0.43-0.24-0.64-0.36
		c-0.25-0.14-0.5-0.28-0.74-0.42c-0.2-0.12-0.4-0.24-0.6-0.36c-0.23-0.14-0.46-0.28-0.68-0.42c-0.19-0.12-0.38-0.24-0.56-0.36
		c-0.21-0.14-0.42-0.28-0.62-0.42c-0.18-0.12-0.35-0.24-0.52-0.36c-0.19-0.14-0.39-0.28-0.57-0.41c-0.16-0.12-0.32-0.24-0.48-0.36
		c-0.18-0.14-0.35-0.27-0.52-0.41c-0.15-0.12-0.29-0.23-0.43-0.35c-0.17-0.14-0.33-0.27-0.49-0.41c-0.13-0.11-0.26-0.23-0.39-0.34
		c-0.16-0.14-0.3-0.27-0.45-0.41c-0.12-0.11-0.23-0.21-0.34-0.32c-0.15-0.14-0.29-0.28-0.42-0.41c-0.1-0.1-0.2-0.2-0.29-0.29
		c-0.14-0.14-0.27-0.28-0.4-0.42c-0.08-0.09-0.17-0.17-0.24-0.26c-0.14-0.16-0.28-0.31-0.41-0.46c-0.05-0.06-0.11-0.13-0.17-0.19
		c-0.18-0.21-0.35-0.42-0.51-0.63V262c13.38,9.27,38.2,14.15,62,14.15s48.62-4.88,62-14.15V288.49z M247.83,246.02
		c0.38-8.23,24.15-19.71,61.98-19.71c37.83,0,61.59,11.48,61.98,19.71c0,0.09,0.01,0.17,0.02,0.26c-0.1,8.31-23.66,19.87-62,19.87
		c-38.34,0-61.9-11.56-62-19.87C247.82,246.19,247.82,246.11,247.83,246.02z M371.8,361.99c-0.02,0.09-0.03,0.18-0.05,0.27
		c-1.1,7.89-23.79,19.3-61.95,19.3s-60.86-11.41-61.96-19.3c-0.01-0.09-0.03-0.18-0.04-0.27v-23.43c0.07,0.05,0.15,0.11,0.22,0.16
		c0.1,0.07,0.21,0.15,0.31,0.22c0.35,0.24,0.71,0.49,1.07,0.73c0.09,0.06,0.18,0.12,0.27,0.18c0.45,0.29,0.91,0.58,1.38,0.87
		c0.1,0.06,0.2,0.12,0.3,0.18c0.4,0.24,0.81,0.48,1.23,0.72c0.12,0.07,0.24,0.14,0.37,0.21c0.51,0.29,1.04,0.57,1.58,0.85
		c0.07,0.04,0.15,0.07,0.22,0.11c0.48,0.25,0.98,0.49,1.48,0.74c0.15,0.07,0.29,0.14,0.44,0.21c1.17,0.55,2.41,1.09,3.71,1.62
		c0.16,0.07,0.33,0.13,0.5,0.2c0.57,0.22,1.15,0.45,1.75,0.67c0.11,0.04,0.21,0.08,0.31,0.12c0.69,0.25,1.4,0.49,2.13,0.74
		c0.17,0.06,0.34,0.11,0.51,0.17c0.61,0.2,1.22,0.39,1.85,0.58c0.17,0.05,0.34,0.1,0.51,0.15c0.77,0.23,1.56,0.45,2.36,0.66
		c0.15,0.04,0.31,0.08,0.46,0.12c0.68,0.18,1.38,0.35,2.09,0.53c0.21,0.05,0.43,0.1,0.64,0.15c0.86,0.2,1.73,0.4,2.63,0.58
		c0.07,0.02,0.15,0.03,0.22,0.04c0.83,0.17,1.68,0.34,2.55,0.49c0.25,0.05,0.5,0.09,0.75,0.14c0.86,0.15,1.74,0.3,2.63,0.44
		c0.1,0.02,0.19,0.03,0.29,0.05c0.98,0.15,1.99,0.29,3.02,0.43c0.26,0.03,0.53,0.07,0.8,0.1c0.86,0.11,1.74,0.21,2.63,0.31
		c0.22,0.02,0.43,0.05,0.65,0.07c1.07,0.11,2.17,0.22,3.29,0.31c0.26,0.02,0.52,0.04,0.77,0.06c0.92,0.07,1.86,0.14,2.81,0.2
		c0.29,0.02,0.58,0.04,0.88,0.06c1.17,0.07,2.37,0.13,3.59,0.18c0.2,0.01,0.4,0.01,0.6,0.02c1.05,0.04,2.13,0.07,3.22,0.1
		c0.34,0.01,0.69,0.02,1.04,0.02c1.29,0.02,2.59,0.04,3.93,0.04c1.35,0,2.67-0.02,3.97-0.04c0.35-0.01,0.69-0.01,1.03-0.02
		c1.12-0.02,2.22-0.06,3.3-0.1c0.18-0.01,0.36-0.01,0.54-0.02c1.23-0.05,2.43-0.11,3.61-0.18c0.31-0.02,0.61-0.04,0.91-0.06
		c0.96-0.06,1.91-0.13,2.85-0.2c0.25-0.02,0.5-0.04,0.74-0.06c1.12-0.09,2.21-0.2,3.29-0.31c0.25-0.03,0.49-0.05,0.74-0.08
		c0.87-0.09,1.73-0.19,2.58-0.3c0.27-0.03,0.53-0.07,0.8-0.1c1.02-0.13,2.02-0.27,2.99-0.42c0.18-0.03,0.35-0.06,0.53-0.08
		c0.82-0.13,1.63-0.26,2.42-0.4c0.26-0.05,0.53-0.09,0.79-0.14c0.93-0.17,1.84-0.34,2.73-0.52c0.07-0.01,0.13-0.03,0.19-0.04
		c0.83-0.17,1.65-0.35,2.44-0.54c0.24-0.06,0.48-0.11,0.72-0.17c0.73-0.17,1.45-0.35,2.15-0.54c0.12-0.03,0.24-0.06,0.36-0.09
		c0.79-0.21,1.57-0.43,2.32-0.65c0.22-0.06,0.43-0.13,0.64-0.19c0.61-0.18,1.21-0.37,1.79-0.56c0.16-0.05,0.33-0.1,0.49-0.16
		c0.71-0.23,1.4-0.47,2.07-0.71c0.18-0.07,0.36-0.13,0.54-0.2c0.53-0.19,1.05-0.39,1.56-0.59c0.18-0.07,0.35-0.14,0.53-0.21
		c0.63-0.25,1.24-0.5,1.84-0.76c0.14-0.06,0.27-0.12,0.4-0.18c0.48-0.21,0.96-0.43,1.42-0.64c0.17-0.08,0.34-0.16,0.5-0.24
		c0.56-0.27,1.1-0.53,1.63-0.81c0.07-0.04,0.15-0.08,0.22-0.12c0.46-0.24,0.92-0.49,1.36-0.73c0.15-0.08,0.3-0.17,0.45-0.25
		c0.44-0.25,0.86-0.5,1.28-0.75c0.06-0.04,0.13-0.07,0.19-0.11c0.46-0.28,0.91-0.56,1.34-0.85c0.13-0.08,0.26-0.17,0.38-0.25
		c0.35-0.23,0.69-0.46,1.02-0.7c0.09-0.06,0.18-0.12,0.27-0.19c0.03-0.02,0.05-0.04,0.08-0.06V361.99z"/>
	<linearGradient id="SVGID_3_" gradientUnits="userSpaceOnUse" x1="478.9042" y1="78.1938" x2="345.9811" y2="681.0948">
		<stop  offset="0" style="stop-color:#03E5FF"/>
		<stop  offset="1" style="stop-color:#5D33E9"/>
	</linearGradient>
	<path class="st2" d="M406.8,356.62c-2.76,0-5,2.24-5,5s2.24,5,5,5c31.98,0,58-26.02,58-58c0-31.98-26.02-58-58-58
		c-2.76,0-5,2.24-5,5c0,2.76,2.24,5,5,5c26.47,0,48,21.53,48,48C454.8,335.09,433.27,356.62,406.8,356.62z"/>
	<linearGradient id="SVGID_4_" gradientUnits="userSpaceOnUse" x1="254.2315" y1="28.6596" x2="121.3084" y2="631.5607">
		<stop  offset="0" style="stop-color:#03E5FF"/>
		<stop  offset="1" style="stop-color:#5D33E9"/>
	</linearGradient>
	<path class="st3" d="M213.8,260.62c2.76,0,5-2.24,5-5c0-2.76-2.24-5-5-5c-31.98,0-58,26.02-58,58c0,31.98,26.02,58,58,58
		c2.76,0,5-2.24,5-5s-2.24-5-5-5c-26.47,0-48-21.53-48-48C165.8,282.15,187.34,260.62,213.8,260.62z"/>
	<linearGradient id="SVGID_5_" gradientUnits="userSpaceOnUse" x1="235.0429" y1="24.4291" x2="102.1198" y2="627.3301">
		<stop  offset="0" style="stop-color:#03E5FF"/>
		<stop  offset="1" style="stop-color:#5D33E9"/>
	</linearGradient>
	<path class="st4" d="M190.88,176.62h17.93c2.76,0,5-2.24,5-5s-2.24-5-5-5h-31c-2.76,0-5,2.24-5,5v31c0,2.76,2.24,5,5,5s5-2.24,5-5
		v-19.93l32.26,32.26c0.98,0.98,2.26,1.46,3.54,1.46s2.56-0.49,3.54-1.46c1.95-1.95,1.95-5.12,0-7.07L190.88,176.62z"/>
	<linearGradient id="SVGID_6_" gradientUnits="userSpaceOnUse" x1="452.1102" y1="72.2864" x2="319.1871" y2="675.1875">
		<stop  offset="0" style="stop-color:#03E5FF"/>
		<stop  offset="1" style="stop-color:#5D33E9"/>
	</linearGradient>
	<path class="st5" d="M402.01,216.42c1.28,0,2.56-0.49,3.54-1.46l32.26-32.26v19.93c0,2.76,2.24,5,5,5s5-2.24,5-5v-31
		c0-2.76-2.24-5-5-5h-31c-2.76,0-5,2.24-5,5s2.24,5,5,5h17.93l-31.26,31.26c-1.95,1.95-1.95,5.12,0,7.07
		C399.45,215.93,400.73,216.42,402.01,216.42z"/>
	<linearGradient id="SVGID_7_" gradientUnits="userSpaceOnUse" x1="281.4035" y1="34.6503" x2="148.4805" y2="637.5514">
		<stop  offset="0" style="stop-color:#03E5FF"/>
		<stop  offset="1" style="stop-color:#5D33E9"/>
	</linearGradient>
	<path class="st6" d="M215.07,404.09l-32.26,32.26v-19.93c0-2.76-2.24-5-5-5s-5,2.24-5,5v31c0,2.76,2.24,5,5,5h31c2.76,0,5-2.24,5-5
		s-2.24-5-5-5h-17.93l31.26-31.26c1.95-1.95,1.95-5.12,0-7.07C220.19,402.13,217.02,402.13,215.07,404.09z"/>
	<linearGradient id="SVGID_8_" gradientUnits="userSpaceOnUse" x1="498.4709" y1="82.5077" x2="365.5478" y2="685.4088">
		<stop  offset="0" style="stop-color:#03E5FF"/>
		<stop  offset="1" style="stop-color:#5D33E9"/>
	</linearGradient>
	<path class="st7" d="M442.8,411.42c-2.76,0-5,2.24-5,5v19.93l-32.26-32.26c-1.95-1.95-5.12-1.95-7.07,0
		c-1.95,1.95-1.95,5.12,0,7.07l31.26,31.26H411.8c-2.76,0-5,2.24-5,5s2.24,5,5,5h31c2.76,0,5-2.24,5-5v-31
		C447.8,413.66,445.57,411.42,442.8,411.42z"/>
</g>
</svg>
