<?xml version="1.0" encoding="utf-8"?>
<!-- Generator: Adobe Illustrator 24.1.3, SVG Export Plug-In . SVG Version: 6.00 Build 0)  -->
<svg version="1.1" id="security_x5F_group" xmlns="http://www.w3.org/2000/svg" xmlns:xlink="http://www.w3.org/1999/xlink" x="0px"
	 y="0px" viewBox="0 0 620 620" style="enable-background:new 0 0 620 620;" xml:space="preserve">
<style type="text/css">
	.st0{fill:url(#SVGID_1_);}
	.st1{fill:url(#SVGID_2_);}
	.st2{fill:url(#SVGID_3_);}
	.st3{fill:url(#SVGID_4_);}
</style>
<g>
	<g>
		<linearGradient id="SVGID_1_" gradientUnits="userSpaceOnUse" x1="299.6167" y1="-369.1414" x2="328.1003" y2="1439.5619">
			<stop  offset="0" style="stop-color:#AE3AFF"/>
			<stop  offset="1" style="stop-color:#6B09E9"/>
		</linearGradient>
		<path class="st0" d="M436.28,564.52H184.33c-71.14,0-129.02-57.88-129.02-129.02V183.54c0-71.14,57.88-129.02,129.02-129.02
			h251.96c71.14,0,129.02,57.88,129.02,129.02V435.5C565.3,506.64,507.43,564.52,436.28,564.52z M184.33,64.52
			c-65.63,0-119.02,53.39-119.02,119.02V435.5c0,65.63,53.39,119.02,119.02,119.02h251.96c65.63,0,119.02-53.39,119.02-119.02
			V183.54c0-65.63-53.39-119.02-119.02-119.02H184.33z"/>
	</g>
	<g>
		<linearGradient id="SVGID_2_" gradientUnits="userSpaceOnUse" x1="292.0918" y1="-98.9568" x2="330.0698" y2="793.5267">
			<stop  offset="0" style="stop-color:#AE3AFF"/>
			<stop  offset="1" style="stop-color:#6B09E9"/>
		</linearGradient>
		<path class="st1" d="M306.06,362.58h-97.5c-15.41,0-28.7-5.02-37.44-14.14c-8.14-8.5-12.13-20.3-11.53-34.13
			c1.24-28.74,19.4-49.79,44.15-51.17c6.76-0.38,13.38,0.61,19.69,2.94c2.19,0.81,4.65,0.51,6.57-0.81c1.9-1.3,3.05-3.45,3.09-5.75
			c0.28-18.08,8.82-36.5,22.85-49.28c13.1-11.93,29.32-17.81,45.69-16.53c34.33,2.67,53.83,19.25,63.26,53.75
			c0.41,1.51,1.51,2.74,2.96,3.32c1.45,0.58,3.1,0.45,4.44-0.36c6.09-3.67,13.02-5.61,20.05-5.61c17.44,0,32.87,11.71,38.4,29.14
			c0.71,2.24,2.88,3.68,5.2,3.47c2.26-0.07,15.2,1.1,24.52,8.83c2.13,1.76,5.28,1.47,7.04-0.66c1.76-2.13,1.47-5.28-0.66-7.04
			c-9.56-7.93-21.43-10.36-27.75-10.96c-7.71-19.75-26.09-32.78-46.76-32.78c-6.73,0-13.39,1.41-19.56,4.12
			c-5.25-16.21-12.95-28.54-23.43-37.57c-12.01-10.34-27.36-16.11-46.94-17.63c-19.15-1.49-38.04,5.29-53.2,19.1
			c-15.27,13.91-24.59,32.9-25.95,52.63c-6.49-1.93-13.22-2.71-20.06-2.33c-30.08,1.68-52.11,26.65-53.58,60.72
			c-0.72,16.62,4.23,30.97,14.3,41.48c10.64,11.11,26.5,17.23,44.66,17.23h97.5c2.76,0,5-2.24,5-5S308.82,362.58,306.06,362.58z"/>
		<linearGradient id="SVGID_3_" gradientUnits="userSpaceOnUse" x1="382.6706" y1="-102.8112" x2="420.6486" y2="789.6723">
			<stop  offset="0" style="stop-color:#AE3AFF"/>
			<stop  offset="1" style="stop-color:#6B09E9"/>
		</linearGradient>
		<path class="st2" d="M468.58,317.83l-63.76-36.81c-1.55-0.89-3.45-0.89-5,0l-63.76,36.81c-1.55,0.89-2.5,2.54-2.5,4.33v73.62
			c0,0.18,0.01,0.35,0.03,0.52c0.48,20.54,7.7,39.79,20.36,54.25c12.95,14.8,30.13,22.95,48.37,22.95s35.42-8.15,48.37-22.95
			c12.65-14.46,19.88-33.71,20.36-54.24c0.02-0.17,0.03-0.35,0.03-0.53v-73.62C471.08,320.37,470.13,318.72,468.58,317.83z
			 M461.08,395.36c-0.01,0.11-0.02,0.22-0.02,0.33c-0.71,37.39-27.06,67.8-58.74,67.8s-58.03-30.42-58.74-67.8
			c0-0.11-0.01-0.22-0.02-0.33v-70.32l58.76-33.92l58.76,33.92V395.36z"/>
		<linearGradient id="SVGID_4_" gradientUnits="userSpaceOnUse" x1="382.3336" y1="-102.7969" x2="420.3116" y2="789.6866">
			<stop  offset="0" style="stop-color:#AE3AFF"/>
			<stop  offset="1" style="stop-color:#6B09E9"/>
		</linearGradient>
		<path class="st3" d="M399.82,315.74l-38.65,22.31c-1.55,0.89-2.5,2.54-2.5,4.33v46.13l0.01,3.06
			c0.53,27.83,20.1,50.47,43.64,50.47c23.54,0,43.11-22.64,43.64-50.55l0.01-49.11c0-1.79-0.95-3.44-2.5-4.33l-38.65-22.31
			C403.28,314.85,401.37,314.85,399.82,315.74z M435.97,345.27v43.21l-0.01,2.9c-0.42,22.04-15.82,40.66-33.64,40.66
			c-17.82,0-33.22-18.62-33.64-40.58l-0.01-46.19l33.65-19.43L435.97,345.27z"/>
	</g>
</g>
</svg>
