<?xml version="1.0" encoding="utf-8"?>
<!-- Generator: Adobe Illustrator 24.1.3, SVG Export Plug-In . SVG Version: 6.00 Build 0)  -->
<svg version="1.1" id="storage" xmlns="http://www.w3.org/2000/svg" xmlns:xlink="http://www.w3.org/1999/xlink" x="0px" y="0px"
	 viewBox="0 0 620 620" style="enable-background:new 0 0 620 620;" xml:space="preserve">
<style type="text/css">
	.st0{fill:url(#SVGID_1_);}
	.st1{fill:url(#SVGID_2_);}
</style>
<g>
	<linearGradient id="SVGID_1_" gradientUnits="userSpaceOnUse" x1="320.8049" y1="-400.3158" x2="297.0686" y2="1204.2556">
		<stop  offset="0" style="stop-color:#DBFF00"/>
		<stop  offset="0.992" style="stop-color:#519900"/>
	</linearGradient>
	<path class="st0" d="M436.28,564.52H184.33c-71.14,0-129.02-57.88-129.02-129.02V183.54c0-71.14,57.88-129.02,129.02-129.02h251.96
		c71.14,0,129.02,57.88,129.02,129.02V435.5C565.3,506.64,507.43,564.52,436.28,564.52z M184.33,64.52
		c-65.63,0-119.02,53.39-119.02,119.02V435.5c0,65.63,53.39,119.02,119.02,119.02h251.96c65.63,0,119.02-53.39,119.02-119.02V183.54
		c0-65.63-53.39-119.02-119.02-119.02H184.33z"/>
</g>
<linearGradient id="SVGID_2_" gradientUnits="userSpaceOnUse" x1="304.3331" y1="-87.3082" x2="320.1573" y2="874.8018">
	<stop  offset="0" style="stop-color:#DBFF00"/>
	<stop  offset="0.992" style="stop-color:#519900"/>
</linearGradient>
<path class="st1" d="M440.15,329.02c-5.09-12.7-24.32-19.72-26.49-20.48c-0.27-0.09-0.55-0.15-0.82-0.2l12.84-92.39
	c0.15-1.05-0.05-2.07-0.5-2.95c-1.31-8.22-7.83-15.7-19.23-22.11c-0.02-0.01-0.04-0.02-0.06-0.03c-0.45-0.26-0.92-0.51-1.39-0.76
	c-0.11-0.06-0.22-0.12-0.34-0.18c-0.41-0.22-0.84-0.44-1.26-0.65c-0.17-0.09-0.34-0.17-0.51-0.26c-0.41-0.2-0.82-0.4-1.24-0.6
	c-0.19-0.09-0.38-0.19-0.58-0.28c-0.43-0.2-0.87-0.41-1.31-0.61c-0.17-0.08-0.34-0.16-0.51-0.23c-0.5-0.22-1-0.44-1.51-0.66
	c-0.11-0.05-0.21-0.09-0.32-0.14c-2.94-1.26-6.09-2.47-9.47-3.63c-20.52-7.01-47.06-11.17-75.54-11.94
	c-0.8-0.02-1.61-0.04-2.41-0.06c-0.55-0.01-1.1-0.03-1.65-0.03c-1.85-0.03-3.69-0.05-5.53-0.05c-1.84,0-3.68,0.02-5.53,0.05
	c-0.55,0.01-1.1,0.02-1.65,0.03c-0.81,0.02-1.62,0.04-2.43,0.06c-28.47,0.77-55,4.93-75.52,11.94c-2.66,0.91-5.18,1.86-7.58,2.83
	c-0.06,0.02-0.12,0.05-0.18,0.07c-0.55,0.22-1.09,0.45-1.62,0.68c-0.18,0.08-0.37,0.16-0.55,0.24c-0.43,0.19-0.86,0.38-1.28,0.57
	c-0.25,0.11-0.51,0.23-0.76,0.35c-0.36,0.17-0.73,0.33-1.08,0.5c-0.28,0.13-0.55,0.26-0.82,0.39c-0.34,0.16-0.67,0.32-1,0.49
	c-0.26,0.13-0.51,0.26-0.76,0.39c-0.34,0.17-0.68,0.35-1.02,0.53c-0.2,0.11-0.4,0.21-0.59,0.32c-0.38,0.21-0.77,0.41-1.14,0.62
	c-0.11,0.06-0.21,0.12-0.31,0.18c-12.68,7.18-19.29,15.7-19.29,25.1c0,1.7,0.22,3.37,0.65,5.01l18.08,184.63
	c0,0.02,0.01,0.03,0.01,0.04c0,0.02,0,0.03,0,0.05c3.04,26.2,55.9,42.42,103.14,42.42c51.36,0,95.46-19.86,98.44-44.3
	c0,0,0-0.01,0-0.01l6.82-49.02c3.65,0.69,7.05,1.05,10.16,1.05c2.71,0,5.22-0.26,7.52-0.79c7.01-1.6,12.15-5.52,15.29-11.65
	C441.77,338.79,442.05,333.77,440.15,329.02z M189.39,215.78c-0.02-0.16-0.06-0.31-0.09-0.47c1.46-16.41,47.89-34.54,113.03-34.54
	c65.59,0,112.22,18.38,113.06,34.88c0,0.09,0.03,0.17,0.04,0.25c0,0.07,0.01,0.13,0.01,0.2c0,16.71-46.45,35.34-113.1,35.34
	c-62.65,0-107.45-16.45-112.6-32.31L189.39,215.78z M389.63,402.58c0,0.02,0,0.04,0,0.05c0,0.02-0.01,0.04-0.01,0.06
	c-1.95,16.79-40.22,35.58-88.52,35.58c-51.11,0-91.35-17.72-93.2-33.57l-16.46-168.1c6.27,4.76,14.89,9.05,25.76,12.76
	c22.81,7.79,53.05,12.08,85.13,12.08s62.31-4.29,85.13-12.08c10.55-3.6,18.98-7.75,25.2-12.35l-14.66,105.45
	c-23.8-7.85-54.06-26.98-72.25-39.82c0.56-1.36,0.88-2.83,0.88-4.37c0-6.62-5.66-12-12.62-12c-6.96,0-12.62,5.38-12.62,12
	s5.66,12,12.62,12c1.5,0,2.93-0.26,4.26-0.72c7.72,5.48,20.78,14.41,35.35,22.89c16.56,9.64,30.92,16.32,42.98,20.05L389.63,402.58z
	 M430.43,338.99c-1.78,3.47-4.52,5.53-8.62,6.46c-3.95,0.9-8.74,0.69-14.09-0.37l3.71-26.69c5.17,2.01,16.77,7.69,19.43,14.36
	C431.69,334.81,431.55,336.8,430.43,338.99z"/>
</svg>
