<?xml version="1.0" encoding="utf-8"?>
<!-- Generator: Adobe Illustrator 24.1.3, SVG Export Plug-In . SVG Version: 6.00 Build 0)  -->
<svg version="1.1" id="application-auto-scaling-rounded"
	 xmlns="http://www.w3.org/2000/svg" xmlns:xlink="http://www.w3.org/1999/xlink" x="0px" y="0px" viewBox="0 0 620 620"
	 style="enable-background:new 0 0 620 620;" xml:space="preserve">
<style type="text/css">
	.st0{fill:url(#SVGID_1_);}
	.st1{fill:none;stroke:#FFFFFF;stroke-width:9;stroke-linecap:round;stroke-linejoin:round;stroke-miterlimit:10;}
	.st2{fill:none;stroke:#FFFFFF;stroke-width:10;stroke-linecap:round;stroke-linejoin:round;stroke-miterlimit:10;}
</style>
<linearGradient id="SVGID_1_" gradientUnits="userSpaceOnUse" x1="330.1784" y1="-329.8177" x2="292.2004" y2="885.479">
	<stop  offset="0" style="stop-color:#FFC14D"/>
	<stop  offset="1" style="stop-color:#FF576A"/>
</linearGradient>
<path class="st0" d="M495.77,559.63H124.62c-35.58,0-64.42-28.84-64.42-64.42V124.05c0-35.58,28.84-64.42,64.42-64.42h371.15
	c35.58,0,64.42,28.84,64.42,64.42v371.15C560.2,530.79,531.35,559.63,495.77,559.63z"/>
<path class="st1" d="M344.22,313.11c-6.71,0-12.15-5.85-12.15-13.06c0-7.22,5.44-13.06,12.15-13.06c2.39,0,4.6,0.75,6.48,2.03
	v-18.14c0-7.94-5.98-14.37-13.36-14.37h-54.27c-7.38,0-13.36,6.43-13.36,14.37v58.35c0,7.94,5.98,14.37,13.36,14.37h16.39
	c-0.9,1.82-1.41,3.89-1.41,6.1c0,7.22,5.44,13.06,12.15,13.06c6.71,0,12.15-5.85,12.15-13.06c0-2.2-0.51-4.28-1.41-6.1h16.39
	c7.38,0,13.36-6.43,13.36-14.37v-18.14C348.82,312.36,346.6,313.11,344.22,313.11z"/>
<g>
	<g>
		<line class="st2" x1="312.22" y1="392.43" x2="312.22" y2="461.82"/>
		<line class="st2" x1="347.17" y1="433.26" x2="312.21" y2="461.82"/>
		<line class="st2" x1="275.9" y1="432.16" x2="310.86" y2="460.72"/>
	</g>
	<g>
		<line class="st2" x1="312.22" y1="226.82" x2="312.22" y2="157.43"/>
		<line class="st2" x1="347.17" y1="185.99" x2="312.21" y2="157.43"/>
		<line class="st2" x1="275.9" y1="187.09" x2="310.86" y2="158.52"/>
	</g>
	<g>
		<line class="st2" x1="456.73" y1="299.31" x2="387.34" y2="299.31"/>
		<line class="st2" x1="415.9" y1="334.26" x2="387.34" y2="299.3"/>
		<line class="st2" x1="417" y1="262.99" x2="388.44" y2="297.95"/>
	</g>
	<g>
		<line class="st2" x1="162.34" y1="299.31" x2="231.73" y2="299.31"/>
		<line class="st2" x1="203.17" y1="334.26" x2="231.73" y2="299.3"/>
		<line class="st2" x1="202.07" y1="262.99" x2="230.64" y2="297.95"/>
	</g>
</g>
</svg>
