<?xml version="1.0" encoding="utf-8"?>
<!-- Generator: Adobe Illustrator 24.1.3, SVG Export Plug-In . SVG Version: 6.00 Build 0)  -->
<svg version="1.1" id="artifact" xmlns="http://www.w3.org/2000/svg" xmlns:xlink="http://www.w3.org/1999/xlink" x="0px" y="0px"
	 viewBox="0 0 620 620" style="enable-background:new 0 0 620 620;" xml:space="preserve">
<style type="text/css">
	.st0{fill:url(#SVGID_1_);}
	.st1{fill:none;stroke:#FFFFFF;stroke-width:10;stroke-linecap:round;stroke-linejoin:round;stroke-miterlimit:10;}
</style>
<linearGradient id="SVGID_1_" gradientUnits="userSpaceOnUse" x1="329.71" y1="-329.4761" x2="291.732" y2="885.8206">
	<stop  offset="2.396167e-07" style="stop-color:#FFA694"/>
	<stop  offset="1" style="stop-color:#BF0020"/>
</linearGradient>
<path class="st0" d="M495.3,559.97H124.15c-35.58,0-64.42-28.84-64.42-64.42V124.4c0-35.58,28.84-64.42,64.42-64.42H495.3
	c35.58,0,64.42,28.84,64.42,64.42v371.15C559.73,531.13,530.88,559.97,495.3,559.97z"/>
<path class="st1" d="M270.73,480.08c-77.32-17.71-135-86.92-135-169.61c0-96.1,77.9-174,174-174s174,77.9,174,174
	c0,84.46-60.18,154.87-140,170.68"/>
<g>
	<path class="st1" d="M327.65,238.17v-41.7h-74.38c-9,0-16.29,7.29-16.29,16.29v161.42c0,9,7.29,16.29,16.29,16.29h112.92
		c9,0,16.29-7.29,16.29-16.29V254.46h-38.54C334.94,254.46,327.65,247.17,327.65,238.17z"/>
	<path class="st1" d="M327.65,196.47v41.7c0,9,7.29,16.29,16.29,16.29h38.54"/>
	<line class="st1" x1="327.65" y1="196.47" x2="382.48" y2="254.46"/>
	<line class="st1" x1="268.61" y1="283.98" x2="345.58" y2="283.98"/>
</g>
<line class="st1" x1="268.61" y1="315.61" x2="345.58" y2="315.61"/>
<line class="st1" x1="268.61" y1="347.24" x2="345.58" y2="347.24"/>
<g>
	<g>
		<line class="st1" x1="273.23" y1="444.47" x2="308.23" y2="483.47"/>
		<line class="st1" x1="294.23" y1="444.47" x2="294.23" y2="412.47"/>
		<line class="st1" x1="273.23" y1="444.47" x2="294.23" y2="444.47"/>
	</g>
	<g>
		<line class="st1" x1="343.23" y1="444.47" x2="308.23" y2="483.47"/>
		<line class="st1" x1="322.23" y1="444.47" x2="322.23" y2="412.47"/>
		<line class="st1" x1="343.23" y1="444.47" x2="322.23" y2="444.47"/>
	</g>
</g>
</svg>
