<?xml version="1.0" encoding="utf-8"?>
<!-- Generator: Adobe Illustrator 24.1.3, SVG Export Plug-In . SVG Version: 6.00 Build 0)  -->
<svg version="1.1" id="compute" xmlns="http://www.w3.org/2000/svg" xmlns:xlink="http://www.w3.org/1999/xlink" x="0px" y="0px"
	 viewBox="0 0 620 620" style="enable-background:new 0 0 620 620;" xml:space="preserve">
<style type="text/css">
	.st0{fill:url(#SVGID_1_);}
	.st1{fill:none;stroke:#FFFFFF;stroke-width:10;stroke-miterlimit:10;}
	.st2{fill:none;stroke:#FFFFFF;stroke-width:10;stroke-linecap:round;stroke-linejoin:round;stroke-miterlimit:10;}
</style>
<linearGradient id="SVGID_1_" gradientUnits="userSpaceOnUse" x1="329.71" y1="-329.4761" x2="291.732" y2="885.8206">
	<stop  offset="0" style="stop-color:#FFC14D"/>
	<stop  offset="1" style="stop-color:#FF576A"/>
</linearGradient>
<path class="st0" d="M495.3,559.97H124.15c-35.58,0-64.42-28.84-64.42-64.42V124.4c0-35.58,28.84-64.42,64.42-64.42H495.3
	c35.58,0,64.42,28.84,64.42,64.42v371.15C559.73,531.13,530.88,559.97,495.3,559.97z"/>
<g>
	<path class="st1" d="M406.69,431.47H213.76c-14.65,0-26.53-11.88-26.53-26.53V212c0-14.65,11.88-26.53,26.53-26.53h192.93
		c14.65,0,26.53,11.88,26.53,26.53v192.93C433.23,419.59,421.35,431.47,406.69,431.47z"/>
	<path class="st1" d="M349.35,373.47h-77.57c-14.63,0-26.49-11.86-26.49-26.49v-77.57c0-14.63,11.86-26.49,26.49-26.49h77.57
		c14.63,0,26.49,11.86,26.49,26.49v77.57C375.84,361.61,363.98,373.47,349.35,373.47z"/>
	<g>
		<line class="st2" x1="245.23" y1="159.47" x2="245.23" y2="185.47"/>
		<line class="st2" x1="277.48" y1="159.47" x2="277.48" y2="185.47"/>
		<line class="st2" x1="309.73" y1="159.47" x2="309.73" y2="185.47"/>
		<line class="st2" x1="341.98" y1="159.47" x2="341.98" y2="185.47"/>
		<line class="st2" x1="374.23" y1="159.47" x2="374.23" y2="185.47"/>
	</g>
	<g>
		<line class="st2" x1="245.23" y1="434.47" x2="245.23" y2="460.47"/>
		<line class="st2" x1="277.48" y1="434.47" x2="277.48" y2="460.47"/>
		<line class="st2" x1="309.73" y1="434.47" x2="309.73" y2="460.47"/>
		<line class="st2" x1="341.98" y1="434.47" x2="341.98" y2="460.47"/>
		<line class="st2" x1="374.23" y1="434.47" x2="374.23" y2="460.47"/>
	</g>
	<g>
		<line class="st2" x1="186.73" y1="243.97" x2="160.73" y2="243.97"/>
		<line class="st2" x1="186.73" y1="276.22" x2="160.73" y2="276.22"/>
		<line class="st2" x1="186.73" y1="308.47" x2="160.73" y2="308.47"/>
		<line class="st2" x1="186.73" y1="340.72" x2="160.73" y2="340.72"/>
		<line class="st2" x1="186.73" y1="372.97" x2="160.73" y2="372.97"/>
	</g>
	<g>
		<line class="st2" x1="458.73" y1="243.97" x2="434.98" y2="243.97"/>
		<line class="st2" x1="458.73" y1="276.22" x2="433.98" y2="276.22"/>
		<line class="st2" x1="458.73" y1="308.47" x2="434.98" y2="308.47"/>
		<line class="st2" x1="458.73" y1="340.72" x2="434.98" y2="340.72"/>
		<line class="st2" x1="458.73" y1="372.97" x2="434.98" y2="372.97"/>
	</g>
</g>
</svg>
