<?xml version="1.0" encoding="utf-8"?>
<!-- Generator: Adobe Illustrator 24.1.3, SVG Export Plug-In . SVG Version: 6.00 Build 0)  -->
<svg version="1.1" id="ebs" xmlns="http://www.w3.org/2000/svg" xmlns:xlink="http://www.w3.org/1999/xlink" x="0px" y="0px"
	 viewBox="0 0 620 620" style="enable-background:new 0 0 620 620;" xml:space="preserve">
<style type="text/css">
	.st0{fill:url(#SVGID_1_);}
	.st1{fill:none;stroke:#FFFFFF;stroke-width:10;stroke-linecap:round;stroke-linejoin:round;stroke-miterlimit:10;}
</style>
<linearGradient id="SVGID_1_" gradientUnits="userSpaceOnUse" x1="329.71" y1="-329.4761" x2="291.732" y2="885.8206">
	<stop  offset="0" style="stop-color:#DBFF00"/>
	<stop  offset="0.8352" style="stop-color:#519900"/>
</linearGradient>
<path class="st0" d="M495.3,559.97H124.15c-35.58,0-64.42-28.84-64.42-64.42V124.4c0-35.58,28.84-64.42,64.42-64.42H495.3
	c35.58,0,64.42,28.84,64.42,64.42v371.15C559.73,531.13,530.88,559.97,495.3,559.97z"/>
<g>
	<ellipse class="st1" cx="309.23" cy="246.68" rx="67" ry="24.92"/>
	<path class="st1" d="M376.2,246.24c-0.63-13.56-30.36-24.48-66.97-24.48c-36.61,0-66.34,10.92-66.97,24.48h-0.03v44.09v36.72v36.35
		h0.09c1.83,13.15,31.09,23.61,66.91,23.61c35.82,0,65.07-10.45,66.91-23.61h0.09v-36.14v-36.72v-44.3H376.2z"/>
	<g>
		<line class="st1" x1="177.23" y1="172.07" x2="177.23" y2="203.07"/>
		<line class="st1" x1="218.03" y1="211.87" x2="178.43" y2="172.27"/>
		<line class="st1" x1="208.23" y1="172.07" x2="177.23" y2="172.07"/>
	</g>
	<g>
		<line class="st1" x1="442.23" y1="172.07" x2="442.23" y2="203.07"/>
		<line class="st1" x1="401.43" y1="211.87" x2="441.03" y2="172.27"/>
		<line class="st1" x1="411.23" y1="172.07" x2="442.23" y2="172.07"/>
	</g>
	<g>
		<line class="st1" x1="177.23" y1="447.87" x2="177.23" y2="416.87"/>
		<line class="st1" x1="218.03" y1="408.07" x2="178.43" y2="447.67"/>
		<line class="st1" x1="208.23" y1="447.87" x2="177.23" y2="447.87"/>
	</g>
	<g>
		<line class="st1" x1="442.23" y1="447.87" x2="442.23" y2="416.87"/>
		<line class="st1" x1="401.43" y1="408.07" x2="441.03" y2="447.67"/>
		<line class="st1" x1="411.23" y1="447.87" x2="442.23" y2="447.87"/>
	</g>
</g>
</svg>
