<?xml version="1.0" encoding="utf-8"?>
<!-- Generator: Adobe Illustrator 24.1.3, SVG Export Plug-In . SVG Version: 6.00 Build 0)  -->
<svg version="1.1" id="ec2-container-registry" xmlns="http://www.w3.org/2000/svg" xmlns:xlink="http://www.w3.org/1999/xlink"
	 x="0px" y="0px" viewBox="0 0 620 620" style="enable-background:new 0 0 620 620;" xml:space="preserve">
<style type="text/css">
	.st0{fill:url(#SVGID_1_);}
	.st1{fill:none;stroke:#FFFFFF;stroke-width:10;stroke-linecap:round;stroke-linejoin:round;stroke-miterlimit:10;}
</style>
<linearGradient id="SVGID_1_" gradientUnits="userSpaceOnUse" x1="329.71" y1="-329.4761" x2="291.732" y2="885.8206">
	<stop  offset="0" style="stop-color:#FFC14D"/>
	<stop  offset="1" style="stop-color:#FF576A"/>
</linearGradient>
<path class="st0" d="M495.3,559.97H124.15c-35.58,0-64.42-28.84-64.42-64.42V124.4c0-35.58,28.84-64.42,64.42-64.42H495.3
	c35.58,0,64.42,28.84,64.42,64.42v371.15C559.73,531.13,530.88,559.97,495.3,559.97z"/>
<g>
	<line class="st1" x1="309.96" y1="309.25" x2="309.96" y2="437.21"/>
	<line class="st1" x1="428.66" y1="247.8" x2="309.86" y2="309.05"/>
	<polyline class="st1" points="189.94,247.54 189.94,384.61 309.29,437.51 	"/>
	<line class="st1" x1="189.94" y1="247.54" x2="310.68" y2="182.43"/>
	<line class="st1" x1="428.68" y1="247.54" x2="310.68" y2="182.43"/>
	<line class="st1" x1="393.12" y1="295.01" x2="428.68" y2="277.58"/>
	<polygon class="st1" points="392.63,295.24 392.54,354.68 336.23,383.64 336.23,425.73 429.52,377.76 429.52,278.41 	"/>
	<line class="st1" x1="336.12" y1="384.01" x2="335.38" y2="425.73"/>
</g>
</svg>
