<?xml version="1.0" encoding="utf-8"?>
<!-- Generator: Adobe Illustrator 24.1.3, SVG Export Plug-In . SVG Version: 6.00 Build 0)  -->
<svg version="1.1" id="security_x5F_group" xmlns="http://www.w3.org/2000/svg" xmlns:xlink="http://www.w3.org/1999/xlink" x="0px"
	 y="0px" viewBox="0 0 620 620" style="enable-background:new 0 0 620 620;" xml:space="preserve">
<style type="text/css">
	.st0{fill:none;stroke:#FFFFFF;stroke-width:10;stroke-miterlimit:10;}
	.st1{fill:url(#SVGID_1_);}
	.st2{fill:none;stroke:#FFFFFF;stroke-width:10;stroke-linecap:round;stroke-linejoin:round;stroke-miterlimit:10;}
</style>
<path class="st0" d="M497.12,405.85"/>
<path class="st0" d="M523.68,432.35"/>
<linearGradient id="SVGID_1_" gradientUnits="userSpaceOnUse" x1="329.71" y1="-329.4761" x2="291.732" y2="885.8206">
	<stop  offset="0" style="stop-color:#AE3AFF"/>
	<stop  offset="1" style="stop-color:#6B09E9"/>
</linearGradient>
<path class="st1" d="M495.3,559.97H124.15c-35.58,0-64.42-28.84-64.42-64.42V124.4c0-35.58,28.84-64.42,64.42-64.42H495.3
	c35.58,0,64.42,28.84,64.42,64.42v371.15C559.73,531.13,530.88,559.97,495.3,559.97z"/>
<g>
	<path class="st2" d="M463.07,263.87c-11.3-9.37-26.58-10.13-28.15-9.96c-6.02-18.95-23.07-32.62-43.17-32.62
		c-8.24,0-15.96,2.31-22.63,6.32c-9.73-35.61-30.71-54.54-67.69-57.42c-39.4-3.07-73.33,32.23-73.92,70.71
		c-0.02,1.47-1.51,2.46-2.92,1.94c-6.74-2.49-14.06-3.67-21.7-3.25c-28.58,1.6-47.57,25.98-48.86,55.95
		c-1.46,33.7,22.14,53.49,53.96,53.49h97.5"/>
	<path class="st2" d="M401.75,266.8l-63.76,36.81v73.62l0.02,0.01c0.76,40.31,29.01,72.71,63.74,72.71
		c34.73,0,62.98-32.4,63.74-72.71l0.02-0.01v-73.62L401.75,266.8z"/>
	<path class="st2" d="M401.75,301.52l-38.65,22.31v46.11l0.01,2.98c0.46,24.43,17.58,45.56,38.64,45.56
		c21.05,0,38.18-21.13,38.64-45.56l0.01-2.98v-46.11L401.75,301.52z"/>
</g>
</svg>
